<?xml version="1.0" encoding="UTF-8"?>
<!DOCTYPE svg PUBLIC "-//W3C//DTD SVG 1.1//EN" "http://www.w3.org/Graphics/SVG/1.1/DTD/svg11.dtd">
<svg xmlns="http://www.w3.org/2000/svg" version="1.1" width="400px" height="400px" style="shape-rendering:geometricPrecision; text-rendering:geometricPrecision; image-rendering:optimizeQuality; fill-rule:evenodd; clip-rule:evenodd" xmlns:xlink="http://www.w3.org/1999/xlink">
<g><path style="opacity:0.89" fill="#d51517" d="M 174.5,97.5 C 170.939,94.0562 168.106,90.0562 166,85.5C 164.854,81.0472 166.354,79.3805 170.5,80.5C 175.583,87.0827 181.75,92.416 189,96.5C 188.578,93.9023 188.578,91.2356 189,88.5C 190.049,87.4829 191.216,87.3162 192.5,88C 195.833,92.6667 199.167,97.3333 202.5,102C 212.67,108.252 223.003,114.252 233.5,120C 237.969,124.44 241.303,129.607 243.5,135.5C 251.861,141.694 260.361,147.694 269,153.5C 270.769,160.126 268.603,164.96 262.5,168C 260.741,168.798 259.074,168.631 257.5,167.5C 258.59,166.391 258.59,165.391 257.5,164.5C 249.219,170.273 247.219,169.273 251.5,161.5C 251.062,160.494 250.396,160.494 249.5,161.5C 248.5,159.833 247.167,158.5 245.5,157.5C 242.601,158.642 239.601,159.308 236.5,159.5C 236.67,158.178 236.337,157.011 235.5,156C 228.854,153.559 222.188,151.559 215.5,150C 222.636,156.135 229.469,162.635 236,169.5C 238.777,172.718 240.777,176.385 242,180.5C 243.135,180.727 244.302,181.06 245.5,181.5C 244.438,184.73 242.271,186.73 239,187.5C 235.942,187.237 232.775,187.07 229.5,187C 222.337,183.558 222.337,181.558 229.5,181C 230.167,180.333 230.833,179.667 231.5,179C 227.172,174.335 221.838,171.502 215.5,170.5C 218.22,168.889 221.22,168.056 224.5,168C 217.627,159.963 208.96,155.129 198.5,153.5C 194.896,153.549 192.396,155.216 191,158.5C 190.667,158.167 190.333,157.833 190,157.5C 189.505,153.214 190.172,149.214 192,145.5C 184.82,152.149 181.987,160.149 183.5,169.5C 181.541,168.252 180.041,166.585 179,164.5C 178.985,167.458 180.319,169.792 183,171.5C 183.42,175.191 183.92,178.858 184.5,182.5C 182.425,182.302 180.425,182.135 178.5,182C 180.49,183.751 182.823,184.751 185.5,185C 188.855,189.689 192.855,193.689 197.5,197C 196.556,198.477 195.223,199.477 193.5,200C 196.798,200.542 199.965,200.042 203,198.5C 210.287,201.54 217.787,203.873 225.5,205.5C 223.693,209.141 221.026,211.974 217.5,214C 219.289,214.52 220.956,214.187 222.5,213C 224.976,211.691 226.976,209.858 228.5,207.5C 234.472,206.67 240.472,206.17 246.5,206C 248.615,205.443 250.615,204.609 252.5,203.5C 253.521,204.002 253.688,204.668 253,205.5C 238.412,217.807 221.579,223.974 202.5,224C 184.468,217.63 172.968,205.13 168,186.5C 169.053,200.443 173.887,212.943 182.5,224C 175.416,224.198 168.749,222.531 162.5,219C 161.137,217.055 160.303,214.888 160,212.5C 156.06,193.997 157.393,175.997 164,158.5C 159.041,166.093 156.041,174.426 155,183.5C 153.334,193.812 153.001,204.145 154,214.5C 147.086,203.178 144.086,190.844 145,177.5C 142.71,179.595 140.21,180.262 137.5,179.5C 142.666,170.998 146.666,161.998 149.5,152.5C 143.951,153.349 138.617,155.016 133.5,157.5C 133.167,157.167 132.833,156.833 132.5,156.5C 142.056,145.708 153.722,137.875 167.5,133C 162.833,132.667 158.167,132.333 153.5,132C 150.412,131.421 147.745,130.087 145.5,128C 162.694,126.121 180.028,124.788 197.5,124C 178.759,122.8 160.426,119.466 142.5,114C 135.951,111.734 133.451,107.234 135,100.5C 135.347,98.8198 136.347,97.8198 138,97.5C 149.48,104.94 161.98,109.94 175.5,112.5C 176.167,112.333 176.833,112.167 177.5,112C 173.919,108.252 170.919,104.085 168.5,99.5C 169.795,96.5131 171.795,95.8464 174.5,97.5 Z M 174.5,97.5 C 176.749,98.0798 178.415,99.4131 179.5,101.5C 177.251,100.92 175.585,99.5869 174.5,97.5 Z M 179.5,101.5 C 183.439,103.446 187.106,105.779 190.5,108.5C 186.024,107.343 182.358,105.01 179.5,101.5 Z M 232.5,140.5 C 229.023,140.388 227.523,138.721 228,135.5C 229.707,137.037 231.207,138.704 232.5,140.5 Z"/></g>
<g><path style="opacity:0.896" fill="#212221" d="M 157.5,239.5 C 161.569,239.536 165.069,240.869 168,243.5C 168.49,244.793 168.657,246.127 168.5,247.5C 171.363,247.929 174.029,248.929 176.5,250.5C 175.5,251.333 174.5,252.167 173.5,253C 176.856,253.357 179.689,252.191 182,249.5C 184.018,251.35 185.851,253.35 187.5,255.5C 179.951,260.615 180.284,262.948 188.5,262.5C 188.5,257.167 188.5,251.833 188.5,246.5C 182.158,246.666 175.825,246.5 169.5,246C 175.5,245.667 181.5,245.333 187.5,245C 188.685,243.647 190.019,242.48 191.5,241.5C 193.791,243.123 195.791,244.957 197.5,247C 195.727,259.696 194.894,272.529 195,285.5C 193.745,287.594 191.912,288.594 189.5,288.5C 187.005,287.697 185.005,286.197 183.5,284C 181.527,283.505 179.527,283.338 177.5,283.5C 177.5,282.5 177.5,281.5 177.5,280.5C 175.167,280.5 172.833,280.5 170.5,280.5C 170.5,281.5 170.5,282.5 170.5,283.5C 168.5,283.5 166.5,283.5 164.5,283.5C 164.5,279.167 164.5,274.833 164.5,270.5C 162.833,270.5 161.167,270.5 159.5,270.5C 159.666,276.176 159.499,281.843 159,287.5C 156.959,288.423 154.792,288.756 152.5,288.5C 152.333,274.163 152.5,259.829 153,245.5C 155.466,246.777 157.966,246.777 160.5,245.5C 158.962,243.757 157.962,241.757 157.5,239.5 Z M 161.5,248.5 C 163.086,249.148 164.753,249.648 166.5,250C 159.478,266.844 157.811,266.344 161.5,248.5 Z M 172.5,254.5 C 178.658,253.823 179.158,255.156 174,258.5C 171.5,257.842 171,256.509 172.5,254.5 Z M 167.5,259.5 C 170.745,260.819 171.078,262.652 168.5,265C 165.588,266.373 162.754,267.873 160,269.5C 159.506,267.866 159.34,266.199 159.5,264.5C 162.803,263.849 165.47,262.182 167.5,259.5 Z M 187.5,265.5 C 188.651,270.65 188.817,275.984 188,281.5C 186.644,282.38 185.144,282.714 183.5,282.5C 183.184,276.408 184.517,270.742 187.5,265.5 Z M 173.5,266.5 C 175.308,266.491 176.975,266.991 178.5,268C 175.536,270.965 172.202,271.298 168.5,269C 170.491,268.626 172.158,267.793 173.5,266.5 Z M 170.5,271.5 C 172.833,271.5 175.167,271.5 177.5,271.5C 177.5,274.167 177.5,276.833 177.5,279.5C 175.167,279.5 172.833,279.5 170.5,279.5C 170.5,276.833 170.5,274.167 170.5,271.5 Z"/></g>
<g><path style="opacity:0.861" fill="#212221" d="M 211.5,239.5 C 217.036,240.935 222.036,243.435 226.5,247C 230.367,250.418 230.367,253.751 226.5,257C 227.784,258.297 227.617,259.464 226,260.5C 225.881,265.282 225.215,269.949 224,274.5C 221.959,275.423 219.792,275.756 217.5,275.5C 217.756,273.088 216.756,271.421 214.5,270.5C 211.608,279.711 214.608,282.544 223.5,279C 224.67,276.815 225.836,274.649 227,272.5C 228.441,276.471 229.441,280.471 230,284.5C 229.5,285 229,285.5 228.5,286C 221.5,286.667 214.5,286.667 207.5,286C 206.847,277.891 206.181,269.725 205.5,261.5C 203.684,263.441 201.684,264.108 199.5,263.5C 205.093,256.315 209.093,248.315 211.5,239.5 Z M 217.5,247.5 C 218.933,249.519 220.267,251.686 221.5,254C 218.839,257.831 215.506,258.497 211.5,256C 214.381,253.721 216.381,250.888 217.5,247.5 Z M 213.5,258.5 C 215.5,258.5 217.5,258.5 219.5,258.5C 219.543,261.91 219.043,265.243 218,268.5C 216.701,268.966 215.201,268.966 213.5,268.5C 213.5,265.167 213.5,261.833 213.5,258.5 Z"/></g>
<g><path style="opacity:0.953" fill="#212221" d="M 240.5,240.5 C 243.572,240.183 246.572,240.516 249.5,241.5C 249.192,242.308 248.692,242.975 248,243.5C 247.667,257.833 247.333,272.167 247,286.5C 244.358,289.029 241.192,290.029 237.5,289.5C 237.579,288.07 237.246,286.736 236.5,285.5C 234.833,284.333 233.167,283.167 231.5,282C 234.426,281.782 237.26,281.282 240,280.5C 240.5,267.171 240.667,253.837 240.5,240.5 Z"/></g>
<g><path style="opacity:0.84" fill="#212221" d="M 272.5,240.5 C 276.705,240.271 279.705,241.938 281.5,245.5C 281.167,246.167 280.833,246.833 280.5,247.5C 285.92,249.502 290.587,248.502 294.5,244.5C 296.833,246.167 298.833,248.167 300.5,250.5C 297.638,252.523 294.638,254.356 291.5,256C 292.833,257 292.833,258 291.5,259C 288.833,261 286.167,263 283.5,265C 289.509,266.593 295.509,267.926 301.5,269C 298.637,270.364 296.637,272.53 295.5,275.5C 293.955,276.452 292.288,276.785 290.5,276.5C 290.5,280.5 290.5,284.5 290.5,288.5C 288.194,288.993 285.861,289.326 283.5,289.5C 283.5,288.167 283.5,286.833 283.5,285.5C 279.167,285.5 274.833,285.5 270.5,285.5C 270.67,286.822 270.337,287.989 269.5,289C 267.782,289.346 266.115,289.846 264.5,290.5C 263.506,285.544 263.173,280.544 263.5,275.5C 260.303,275.973 257.137,276.639 254,277.5C 253.5,277.167 253,276.833 252.5,276.5C 259.942,273.948 266.608,270.115 272.5,265C 271.382,263.926 270.382,262.76 269.5,261.5C 265.399,264.269 261.065,266.602 256.5,268.5C 256.167,268.167 255.833,267.833 255.5,267.5C 260.278,262.388 264.278,256.721 267.5,250.5C 265.955,249.548 264.288,249.215 262.5,249.5C 262.613,255.391 259.946,258.058 254.5,257.5C 252.876,256.131 252.376,254.464 253,252.5C 254.378,250.787 256.045,249.453 258,248.5C 259.438,243.204 260.605,243.204 261.5,248.5C 265.555,248.824 269.555,248.491 273.5,247.5C 272.752,245.668 271.752,244.001 270.5,242.5C 271.243,241.818 271.909,241.151 272.5,240.5 Z M 272.5,250.5 C 278.31,249.51 284.31,249.177 290.5,249.5C 290.66,251.199 290.494,252.866 290,254.5C 288.414,253.624 286.914,252.624 285.5,251.5C 283.088,253.099 280.588,254.432 278,255.5C 274.846,255.508 274.679,254.842 277.5,253.5C 276.312,251.738 274.645,250.738 272.5,250.5 Z M 273.5,256.5 C 280.975,256.198 281.475,257.865 275,261.5C 271.372,260.453 270.872,258.786 273.5,256.5 Z M 274.5,270.5 C 277.659,270.481 280.326,271.648 282.5,274C 278.309,274.922 274.309,274.588 270.5,273C 272.066,272.392 273.4,271.558 274.5,270.5 Z M 270.5,275.5 C 274.833,275.5 279.167,275.5 283.5,275.5C 283.5,278.5 283.5,281.5 283.5,284.5C 279.167,284.5 274.833,284.5 270.5,284.5C 270.5,281.5 270.5,278.5 270.5,275.5 Z"/></g>
<g><path style="opacity:0.845" fill="#212221" d="M 135.5,242.5 C 139.066,243.288 142.066,245.122 144.5,248C 138.509,248.499 132.509,248.666 126.5,248.5C 126.5,253.167 126.5,257.833 126.5,262.5C 129.518,262.665 132.518,262.498 135.5,262C 136.622,259.876 138.122,258.043 140,256.5C 142.593,258.549 145.093,260.715 147.5,263C 140.508,263.5 133.508,263.666 126.5,263.5C 127.4,267.581 129.4,271.081 132.5,274C 137.402,277.122 142.402,279.956 147.5,282.5C 144.104,284.069 141.604,286.402 140,289.5C 131.983,284.793 126.983,277.793 125,268.5C 121.859,278.307 115.359,284.807 105.5,288C 103.246,289.15 100.913,289.484 98.5,289C 106.894,284.279 112.727,277.446 116,268.5C 116.494,266.866 116.66,265.199 116.5,263.5C 110.824,263.666 105.157,263.499 99.5,263C 105.491,262.501 111.491,262.334 117.5,262.5C 117.5,257.833 117.5,253.167 117.5,248.5C 112.489,248.666 107.489,248.499 102.5,248C 112.5,247.667 122.5,247.333 132.5,247C 133.883,245.729 134.883,244.229 135.5,242.5 Z"/></g>
<g><path style="opacity:0.956" fill="#212221" d="M 230.5,246.5 C 233.397,246.125 236.063,246.625 238.5,248C 238,248.5 237.5,249 237,249.5C 236.667,258.5 236.333,267.5 236,276.5C 234.301,277.406 232.467,277.739 230.5,277.5C 230.5,267.167 230.5,256.833 230.5,246.5 Z"/></g>
<g><path style="opacity:0.773" fill="#323332" d="M 148.5,302.5 C 152.226,302.177 155.893,302.511 159.5,303.5C 158.311,304.429 156.978,304.762 155.5,304.5C 155.5,307.833 155.5,311.167 155.5,314.5C 154.5,314.5 153.5,314.5 152.5,314.5C 152.5,311.167 152.5,307.833 152.5,304.5C 150.517,304.843 149.183,304.176 148.5,302.5 Z"/></g>
<g><path style="opacity:0.753" fill="#323332" d="M 162.5,302.5 C 163.5,302.5 164.5,302.5 165.5,302.5C 165.5,306.5 165.5,310.5 165.5,314.5C 164.5,314.5 163.5,314.5 162.5,314.5C 162.5,310.5 162.5,306.5 162.5,302.5 Z"/></g>
<g><path style="opacity:0.662" fill="#323332" d="M 170.5,302.5 C 171.978,302.238 173.311,302.571 174.5,303.5C 176.238,307.049 177.571,310.716 178.5,314.5C 176.332,313.821 174.332,312.821 172.5,311.5C 170.668,312.821 168.668,313.821 166.5,314.5C 167.632,310.438 168.965,306.438 170.5,302.5 Z M 171.5,306.5 C 172.289,306.783 172.956,307.283 173.5,308C 172.184,308.528 171.517,308.028 171.5,306.5 Z"/></g>
<g><path style="opacity:0.719" fill="#323332" d="M 180.5,302.5 C 184.274,303.306 186.774,305.639 188,309.5C 188.497,307.19 188.663,304.857 188.5,302.5C 189.5,302.5 190.5,302.5 191.5,302.5C 191.5,306.5 191.5,310.5 191.5,314.5C 190.127,314.657 188.793,314.49 187.5,314C 186.333,312.167 185.167,310.333 184,308.5C 183.505,310.473 183.338,312.473 183.5,314.5C 182.5,314.5 181.5,314.5 180.5,314.5C 180.5,310.5 180.5,306.5 180.5,302.5 Z"/></g>
<g><path style="opacity:0.656" fill="#323332" d="M 195.5,302.5 C 198.572,302.183 201.572,302.516 204.5,303.5C 203.462,305.764 201.962,306.098 200,304.5C 196.928,305.447 195.928,307.447 197,310.5C 198.11,312.037 199.61,312.703 201.5,312.5C 201.52,310.857 200.853,309.524 199.5,308.5C 201.045,307.548 202.712,307.215 204.5,307.5C 204.5,309.833 204.5,312.167 204.5,314.5C 193.755,316.1 190.755,312.1 195.5,302.5 Z"/></g>
<g><path style="opacity:0.765" fill="#323332" d="M 207.5,302.5 C 210.572,302.183 213.572,302.516 216.5,303.5C 214.604,304.466 212.604,304.799 210.5,304.5C 210.5,305.5 210.5,306.5 210.5,307.5C 217.167,308.167 217.167,308.833 210.5,309.5C 210.5,310.5 210.5,311.5 210.5,312.5C 212.604,312.201 214.604,312.534 216.5,313.5C 213.572,314.484 210.572,314.817 207.5,314.5C 207.5,310.5 207.5,306.5 207.5,302.5 Z"/></g>
<g><path style="opacity:0.632" fill="#323332" d="M 219.5,302.5 C 222.167,302.5 224.833,302.5 227.5,302.5C 227.5,303.5 227.5,304.5 227.5,305.5C 225.401,304.769 223.401,304.769 221.5,305.5C 223.733,306.742 225.899,308.076 228,309.5C 228.711,311.367 228.211,312.867 226.5,314C 223.833,314.667 221.167,314.667 218.5,314C 217.007,312.844 217.174,312.01 219,311.5C 226.104,312.34 226.271,311.34 219.5,308.5C 218.306,306.484 218.306,304.484 219.5,302.5 Z"/></g>
<g><path style="opacity:0.765" fill="#323332" d="M 230.5,302.5 C 233.572,302.183 236.572,302.516 239.5,303.5C 237.604,304.466 235.604,304.799 233.5,304.5C 233.5,305.5 233.5,306.5 233.5,307.5C 240.167,308.167 240.167,308.833 233.5,309.5C 233.5,310.5 233.5,311.5 233.5,312.5C 235.604,312.201 237.604,312.534 239.5,313.5C 236.572,314.484 233.572,314.817 230.5,314.5C 230.5,310.5 230.5,306.5 230.5,302.5 Z"/></g>
<g><path style="opacity:0.612" fill="#323332" d="M 243.5,302.5 C 246.722,302.108 249.722,302.608 252.5,304C 251.975,304.692 251.308,305.192 250.5,305.5C 247.208,303.823 245.208,304.823 244.5,308.5C 244.529,310.029 245.196,311.196 246.5,312C 248.587,311.782 250.587,311.949 252.5,312.5C 243.806,316.987 240.306,314.32 242,304.5C 242.717,303.956 243.217,303.289 243.5,302.5 Z"/></g>
<g><path style="opacity:1" fill="#323332" d="M 97.5,306.5 C 112.167,306.5 126.833,306.5 141.5,306.5C 141.5,307.833 141.5,309.167 141.5,310.5C 126.833,310.5 112.167,310.5 97.5,310.5C 97.5,309.167 97.5,307.833 97.5,306.5 Z"/></g>
<g><path style="opacity:1" fill="#323332" d="M 256.5,306.5 C 271.167,306.5 285.833,306.5 300.5,306.5C 300.5,307.833 300.5,309.167 300.5,310.5C 285.833,310.5 271.167,310.5 256.5,310.5C 256.5,309.167 256.5,307.833 256.5,306.5 Z"/></g>
</svg>
