<?xml version="1.0" standalone="no"?><!DOCTYPE svg PUBLIC "-//W3C//DTD SVG 1.1//EN" "http://www.w3.org/Graphics/SVG/1.1/DTD/svg11.dtd"><svg t="1735312834924" class="icon" viewBox="0 0 1024 1024" version="1.1" xmlns="http://www.w3.org/2000/svg" p-id="47244" xmlns:xlink="http://www.w3.org/1999/xlink" width="200" height="200"><path d="M930.87744 763.94496c6.90176-12.1856 11.20256-25.88672 11.20256-38.21568V298.27072c0-12.32896-4.3008-26.03008-11.20256-38.21568L501.76 512l429.11744 251.94496z" fill="#00599C" p-id="47245"></path><path d="M539.48416 1014.76352l360.2432-213.72928c10.36288-6.16448 19.78368-16.7936 26.624-28.9792L501.76 520.13056 77.16864 772.07552c6.84032 12.16512 16.26112 22.79424 26.624 28.95872l360.2432 213.72928c20.74624 12.30848 54.70208 12.30848 75.44832 0z" fill="#004482" p-id="47246"></path><path d="M926.35136 260.05504c-6.88128-12.55424-16.36352-23.552-26.78784-29.9008L537.3952 9.54368c-20.84864-12.71808-54.9888-12.71808-75.85792 0L99.36896 230.15424C78.49984 242.8928 61.44 274.06336 61.44 299.49952V740.7616c0 12.6976 4.25984 26.86976 11.14112 39.424l426.88512-260.05504 426.88512-260.07552z" fill="#659AD2" p-id="47247"></path><path d="M506.368 812.70784C339.06688 812.70784 202.9568 677.80608 202.9568 512s136.0896-300.70784 303.39072-300.70784c107.9296 0 208.60928 57.58976 262.71744 150.26176l-131.2768 75.30496a152.576 152.576 0 0 0-131.44064-75.20256c-83.6608 0-151.69536 67.44064-151.69536 150.34368s68.03456 150.34368 151.69536 150.34368a152.576 152.576 0 0 0 131.44064-75.22304l131.2768 75.30496c-54.10816 92.69248-154.76736 150.28224-262.71744 150.28224z" fill="#FFFFFF" p-id="47248"></path><path d="M800.5632 487.6288h-36.70016v-32.52224h-36.70016v32.50176h-36.70016v32.52224h36.70016v32.50176h36.70016v-32.50176h36.67968zM926.35136 487.6288H889.6512v-32.52224H852.992v32.50176h-36.70016v32.52224h36.70016v32.50176h36.67968v-32.50176h36.70016z" fill="#FFFFFF" p-id="47249"></path></svg>