<?xml version="1.0" standalone="no"?><!DOCTYPE svg PUBLIC "-//W3C//DTD SVG 1.1//EN" "http://www.w3.org/Graphics/SVG/1.1/DTD/svg11.dtd"><svg t="1735363203606" class="icon" viewBox="0 0 1024 1024" version="1.1" xmlns="http://www.w3.org/2000/svg" p-id="23029" xmlns:xlink="http://www.w3.org/1999/xlink" width="200" height="200"><path d="M731.19 339.26H482.95c-145.77 0-263.94 118.17-263.94 263.94 0 121.23 81.76 223.3 193.13 254.25h248.23c145.77 0 263.94-118.17 263.94-263.94 0.01-121.22-81.76-223.29-193.12-254.25z m-67.35 421.22c-33.23 0-60.16-26.93-60.16-60.16s26.93-60.16 60.16-60.16c33.22 0 60.16 26.93 60.16 60.16s-26.94 60.16-60.16 60.16z m0-193.71c-34.45 0-62.38-27.93-62.38-62.38s27.93-62.38 62.38-62.38 62.38 27.93 62.38 62.38-27.93 62.38-62.38 62.38z" fill="#C5B6DB" p-id="23030"></path><path d="M674.26 590.6c-47.54 0-86.21-38.68-86.21-86.22s38.67-86.21 86.21-86.21 86.22 38.67 86.22 86.21-38.68 86.22-86.22 86.22z m0-120.32c-18.81 0-34.1 15.3-34.1 34.1s15.3 34.11 34.1 34.11 34.11-15.31 34.11-34.11-15.3-34.1-34.11-34.1zM674.26 787.89c-47.54 0-86.21-38.68-86.21-86.22s38.67-86.21 86.21-86.21 86.22 38.67 86.22 86.21-38.68 86.22-86.22 86.22z m0-120.32c-18.81 0-34.1 15.3-34.1 34.1s15.3 34.11 34.1 34.11 34.11-15.31 34.11-34.11-15.3-34.1-34.11-34.1z" fill="#29193D" p-id="23031"></path><path d="M669.35 883.51H354.91c-159.91 0-290-130.09-290-290 0-159.9 130.09-289.99 290-289.99h314.44c159.9 0 289.99 130.09 289.99 289.99-0.01 159.91-130.1 290-289.99 290zM354.91 355.63c-131.18 0-237.89 106.71-237.89 237.88 0 131.18 106.71 237.89 237.89 237.89h314.44c131.17 0 237.88-106.71 237.88-237.89 0-131.17-106.71-237.88-237.88-237.88H354.91z" fill="#29193D" p-id="23032"></path><path d="M486.07 136h52.11v193.58h-52.11zM270 577.15h196.94v52.11H270z" fill="#29193D" p-id="23033"></path><path d="M342.42 504.73h52.11v196.94h-52.11z" fill="#29193D" p-id="23034"></path></svg>