<?xml version="1.0" standalone="no"?><!DOCTYPE svg PUBLIC "-//W3C//DTD SVG 1.1//EN" "http://www.w3.org/Graphics/SVG/1.1/DTD/svg11.dtd"><svg t="1735313769256" class="icon" viewBox="0 0 1024 1024" version="1.1" xmlns="http://www.w3.org/2000/svg" p-id="105376" xmlns:xlink="http://www.w3.org/1999/xlink" width="200" height="200"><path d="M512 537.6c-4.266667-2.133333-14.933333-2.133333-32-2.133333h-29.866667v49.066666h34.133334c12.8 0 21.333333 0 25.6-2.133333 6.4 0 10.666667-4.266667 12.8-6.4s4.266667-8.533333 4.266666-14.933333c0-6.4-2.133333-10.666667-4.266666-14.933334s-6.4-6.4-10.666667-8.533333zM659.2 503.466667c6.4 0 10.666667-2.133333 14.933333-6.4s6.4-8.533333 6.4-14.933334c0-6.4-2.133333-10.666667-4.266666-12.8s-8.533333-6.4-14.933334-6.4h-53.333333v42.666667h23.466667c17.066667-2.133333 25.6-2.133333 27.733333-2.133333zM501.333333 503.466667c6.4 0 10.666667-2.133333 14.933334-6.4s6.4-8.533333 6.4-14.933334c0-6.4-2.133333-10.666667-4.266667-12.8s-8.533333-6.4-14.933333-6.4h-53.333334v42.666667h23.466667c14.933333-2.133333 23.466667-2.133333 27.733333-2.133333zM294.4 541.866667h51.2L320 473.6zM672 537.6c-4.266667-2.133333-14.933333-2.133333-32-2.133333h-29.866667v49.066666h34.133334c12.8 0 21.333333 0 25.6-2.133333 6.4 0 10.666667-4.266667 12.8-6.4s4.266667-8.533333 4.266666-14.933333c0-6.4-2.133333-10.666667-4.266666-14.933334s-6.4-6.4-10.666667-8.533333z" fill="#E85454" p-id="105377"></path><path d="M0 234.666667v576h1024V234.666667H0z m561.066667 349.866666c-4.266667 8.533333-8.533333 14.933333-14.933334 19.2s-14.933333 8.533333-25.6 8.533334c-6.4 0-21.333333 2.133333-44.8 2.133333h-100.266666l-17.066667-42.666667h-72.533333l-14.933334 42.666667H89.6v-34.133333l96-119.466667h-85.333333v-32H234.666667v27.733333l-100.266667 123.733334h104.533333v4.266666l61.866667-157.866666h38.4l72.533333 181.333333V426.666667h72.533334c14.933333 0 25.6 0 32 2.133333s12.8 4.266667 19.2 8.533333 10.666667 8.533333 14.933333 14.933334 6.4 12.8 6.4 21.333333-2.133333 17.066667-6.4 23.466667-10.666667 12.8-19.2 17.066666c10.666667 4.266667 19.2 8.533333 25.6 17.066667s8.533333 17.066667 8.533333 27.733333-2.133333 19.2-4.266666 25.6z m157.866666 0c-4.266667 8.533333-8.533333 14.933333-14.933333 19.2s-14.933333 8.533333-25.6 8.533334c-6.4 0-21.333333 2.133333-44.8 2.133333h-61.866667v-183.466667h72.533334c14.933333 0 25.6 0 32 2.133334s12.8 4.266667 19.2 8.533333 10.666667 8.533333 14.933333 14.933333 6.4 12.8 6.4 21.333334-2.133333 17.066667-6.4 23.466666-10.666667 12.8-19.2 17.066667c10.666667 4.266667 19.2 8.533333 25.6 17.066667s8.533333 17.066667 8.533333 27.733333c0 6.4-2.133333 14.933333-6.4 21.333333z m170.666667 29.866667l-40.533333-64-40.533334 64h-76.8v-183.466667H768v179.2l59.733333-91.733333-57.6-87.466667h42.666667l36.266667 59.733334 36.266666-59.733334h42.666667l-57.6 89.6 61.866667 93.866667h-42.666667z" fill="#E85454" p-id="105378"></path></svg>