<?xml version="1.0" encoding="UTF-8"?>
<svg version="1.1" xmlns="http://www.w3.org/2000/svg" width="769" height="769">
<path d="M0 0 C1.98 0 3.96 0 6 0 C6.0825 0.61875 6.165 1.2375 6.25 1.875 C7.23825442 4.67505419 8.40359985 4.74113932 11 6 C12.25 8.125 12.25 8.125 13 10 C13.66 10 14.32 10 15 10 C15 10.66 15 11.32 15 12 C15.66 12 16.32 12 17 12 C17 12.66 17 13.32 17 14 C17.66 14 18.32 14 19 14 C19 14.66 19 15.32 19 16 C19.66 16 20.32 16 21 16 C21 16.66 21 17.32 21 18 C21.56460938 18.24621094 22.12921875 18.49242187 22.7109375 18.74609375 C25.39079272 20.21406905 27.37958803 21.9935669 29.625 24.0625 C32.58789167 26.85780458 32.58789167 26.85780458 36 29 C36 29.66 36 30.32 36 31 C37.32 31 38.64 31 40 31 C40 31.66 40 32.32 40 33 C40.66 33 41.32 33 42 33 C42 31.68 42 30.36 42 29 C41.34 29 40.68 29 40 29 C40 25.7 40 22.4 40 19 C40.66 19 41.32 19 42 19 C42.33 17.68 42.66 16.36 43 15 C44.98 15 46.96 15 49 15 C49 15.66 49 16.32 49 17 C50.485 17.495 50.485 17.495 52 18 C52 18.66 52 19.32 52 20 C52.66 20 53.32 20 54 20 C54 20.99 54 21.98 54 23 C54.66 23 55.32 23 56 23 C56 23.99 56 24.98 56 26 C56.66 26 57.32 26 58 26 C58 27.32 58 28.64 58 30 C58.66 30 59.32 30 60 30 C60.29132813 30.59167969 60.58265625 31.18335938 60.8828125 31.79296875 C63.65642448 37.13958555 66.24498007 40.35079866 71 44 C71 44.66 71 45.32 71 46 C71.99 46 72.98 46 74 46 C74 46.66 74 47.32 74 48 C74.763125 48.28875 75.52625 48.5775 76.3125 48.875 C79 50 79 50 82 52 C82 52.66 82 53.32 82 54 C82.54914063 54.10441406 83.09828125 54.20882812 83.6640625 54.31640625 C86.51164656 55.14972934 88.80149109 56.46331912 91.375 57.9375 C95.1830885 60.06330041 98.76487128 61.85537062 103 63 C103 63.66 103 64.32 103 65 C104.32 65 105.64 65 107 65 C107 65.66 107 66.32 107 67 C108.32 67 109.64 67 111 67 C111 67.66 111 68.32 111 69 C111.99 69 112.98 69 114 69 C114 69.66 114 70.32 114 71 C115.32 71 116.64 71 118 71 C118 71.66 118 72.32 118 73 C118.99 73 119.98 73 121 73 C121 73.66 121 74.32 121 75 C121.556875 75.061875 122.11375 75.12375 122.6875 75.1875 C126.00943148 76.35466511 127.59981091 78.43235585 130 81 C131.18672652 82.1466344 132.37426575 83.29242811 133.5625 84.4375 C137.45564663 88.33912843 141.1347013 92.37555845 142 98 C142.66 98 143.32 98 144 98 C145.60355101 101.50776784 146.22036864 104.14354879 146 108 C146.66 108 147.32 108 148 108 C148 108.66 148 109.32 148 110 C148.721875 110.268125 149.44375 110.53625 150.1875 110.8125 C152.99766383 111.99901362 155.48416557 113.27485639 158 115 C158 115.66 158 116.32 158 117 C158.70125 117.2475 159.4025 117.495 160.125 117.75 C163.39514548 119.17180238 166.141122 120.87246288 169 123 C169 123.66 169 124.32 169 125 C169.66 125 170.32 125 171 125 C171 125.66 171 126.32 171 127 C171.58193115 127.12383057 172.1638623 127.24766113 172.76342773 127.37524414 C175.02224448 128.00621369 176.75230247 128.83791539 178.78515625 129.99609375 C179.48060547 130.38990234 180.17605469 130.78371094 180.89257812 131.18945312 C181.60865234 131.60130859 182.32472656 132.01316406 183.0625 132.4375 C183.78244141 132.84548828 184.50238281 133.25347656 185.24414062 133.67382812 C188.23179573 135.37432263 191.13735206 137.09156804 194 139 C194 139.66 194 140.32 194 141 C194.66 141 195.32 141 196 141 C198.25998595 144.59462331 198.20868087 147.56595675 198.125 151.75 C198.10695313 152.92046875 198.08890625 154.0909375 198.0703125 155.296875 C198.03550781 156.63492188 198.03550781 156.63492188 198 158 C197.34 158 196.68 158 196 158 C196 159.32 196 160.64 196 162 C195.34 162 194.68 162 194 162 C194 162.99 194 163.98 194 165 C193.34 165 192.68 165 192 165 C192 165.66 192 166.32 192 167 C191.34 167 190.68 167 190 167 C190 167.66 190 168.32 190 169 C184.4174808 172.32575612 180.50313209 173.46450943 174 173 C173.4465236 170.92446352 173 169.15634036 173 167 C172.50371094 167.28875 172.00742187 167.5775 171.49609375 167.875 C166.68992145 170.501523 163.4662716 171.45552263 158 171 C158 171.66 158 172.32 158 173 C157.34 173 156.68 173 156 173 C155.62184369 168.62756771 156.65694173 166.34852855 159 162.6875 C159.556875 161.80449219 160.11375 160.92148437 160.6875 160.01171875 C161.120625 159.34785156 161.55375 158.68398438 162 158 C160.02 158.33 158.04 158.66 156 159 C156 157.68 156 156.36 156 155 C155.34 155 154.68 155 154 155 C153.67 154.34 153.34 153.68 153 153 C150.47266765 152.34444881 150.47266765 152.34444881 148 152 C148 152.66 148 153.32 148 154 C145.03 154 142.06 154 139 154 C139 154.66 139 155.32 139 156 C137.35 156 135.7 156 134 156 C132 150.25 132 150.25 132 148 C130.68 148 129.36 148 128 148 C128 147.34 128 146.68 128 146 C127.175 146.061875 126.35 146.12375 125.5 146.1875 C121.27957135 145.96140561 117.88087401 144.53144458 114 143 C112.59707127 142.46296666 111.19342964 141.92779176 109.7890625 141.39453125 C107.68262659 140.59424369 105.57634204 139.79382276 103.47265625 138.98632812 C99.83908005 137.51540751 99.83908005 137.51540751 96 137 C96 137.66 96 138.32 96 139 C97.32 139.33 98.64 139.66 100 140 C100 140.66 100 141.32 100 142 C100.66 142 101.32 142 102 142 C102 142.66 102 143.32 102 144 C102.66 144 103.32 144 104 144 C104 144.66 104 145.32 104 146 C104.66 146 105.32 146 106 146 C106 146.66 106 147.32 106 148 C106.58265625 148.268125 107.1653125 148.53625 107.765625 148.8125 C110.02786601 150.01480991 111.80576318 151.33825913 113.75 153 C114.36359375 153.515625 114.9771875 154.03125 115.609375 154.5625 C117 156 117 156 117 158 C117.66 158 118.32 158 119 158 C119 158.66 119 159.32 119 160 C119.66 160 120.32 160 121 160 C122.62109375 161.64453125 122.62109375 161.64453125 124.4375 163.8125 C126.97339332 166.82463265 126.97339332 166.82463265 129.72265625 169.63671875 C131 171 131 171 131 173 C131.66 173 132.32 173 133 173 C133.33 174.32 133.66 175.64 134 177 C134.66 177 135.32 177 136 177 C137.4375 178.828125 137.4375 178.828125 139 181.25 C139.515625 182.03890625 140.03125 182.8278125 140.5625 183.640625 C143.27591744 188.09416884 144.24135186 190.69025901 144 196 C145.32 196 146.64 196 148 196 C148 195.34 148 194.68 148 194 C149.32 194.33 150.64 194.66 152 195 C151.33333333 197.66666667 150.66666667 200.33333333 150 203 C149.34 203 148.68 203 148 203 C147.67 203.99 147.34 204.98 147 206 C146.01 206 145.02 206 144 206 C144 206.66 144 207.32 144 208 C139.05 208 134.1 208 129 208 C129 208.66 129 209.32 129 210 C127.02 210 125.04 210 123 210 C123 209.34 123 208.68 123 208 C121.02 208 119.04 208 117 208 C117 207.34 117 206.68 117 206 C116.01 206 115.02 206 114 206 C114 205.34 114 204.68 114 204 C113.34 204 112.68 204 112 204 C112 203.34 112 202.68 112 202 C111.34 202 110.68 202 110 202 C109.61781233 200.34385343 109.28604898 198.67542976 109 197 C110 196 110 196 112.50390625 195.90234375 C114.01791016 195.91974609 114.01791016 195.91974609 115.5625 195.9375 C116.57441406 195.94652344 117.58632813 195.95554687 118.62890625 195.96484375 C119.80259766 195.98224609 119.80259766 195.98224609 121 196 C121 195.34 121 194.68 121 194 C121.66 194 122.32 194 123 194 C123 193.01 123 192.02 123 191 C122.34 191 121.68 191 121 191 C121 190.01 121 189.02 121 188 C120.34 188 119.68 188 119 188 C119 187.34 119 186.68 119 186 C116.03 185.01 113.06 184.02 110 183 C110 182.34 110 181.68 110 181 C108.02 181 106.04 181 104 181 C104 180.34 104 179.68 104 179 C100.37 179 96.74 179 93 179 C92.67 177.35 92.34 175.7 92 174 C93 173 93 173 95.5625 172.9375 C96.366875 172.958125 97.17125 172.97875 98 173 C98 172.34 98 171.68 98 171 C101.3 171 104.6 171 108 171 C108 171.66 108 172.32 108 173 C108.66 173 109.32 173 110 173 C109.34 171.02 108.68 169.04 108 167 C107.34 167 106.68 167 106 167 C106 166.34 106 165.68 106 165 C105.34 165 104.68 165 104 165 C104 164.34 104 163.68 104 163 C103.2575 162.731875 102.515 162.46375 101.75 162.1875 C98.36389494 160.72531827 95.68203902 159.36407804 94 156 C93.01 156 92.02 156 91 156 C91 155.34 91 154.68 91 154 C89.68 154 88.36 154 87 154 C87 153.34 87 152.68 87 152 C86.01 152 85.02 152 84 152 C84 151.34 84 150.68 84 150 C83.278125 149.87625 82.55625 149.7525 81.8125 149.625 C79.02534355 149.0056319 76.64235625 148.06952515 74 147 C67.51588625 144.61808066 59.55233272 143.25637068 52.9296875 145.79296875 C50.0954292 147.57978377 49.06737159 148.79788522 48 152 C46.33388095 152.042721 44.66617115 152.04063832 43 152 C42 151 42 151 41.90234375 148.71484375 C41.91394531 147.79832031 41.92554688 146.88179687 41.9375 145.9375 C41.94652344 145.01839844 41.95554687 144.09929687 41.96484375 143.15234375 C41.97644531 142.44207031 41.98804688 141.73179687 42 141 C42.66 141 43.32 141 44 141 C44 139.35 44 137.7 44 136 C44.66 136 45.32 136 46 136 C46 134.68 46 133.36 46 132 C46.66 132 47.32 132 48 132 C48.66 130.35 49.32 128.7 50 127 C49.34 127 48.68 127 48 127 C48 127.66 48 128.32 48 129 C47.34 129 46.68 129 46 129 C45.34 130.65 44.68 132.3 44 134 C43.34 134 42.68 134 42 134 C42 134.66 42 135.32 42 136 C41.34 136 40.68 136 40 136 C39.01 138.97 39.01 138.97 38 142 C37.34 142 36.68 142 36 142 C36.33 142.99 36.66 143.98 37 145 C36.34 145 35.68 145 35 145 C35 146.65 35 148.3 35 150 C34.34 150 33.68 150 33 150 C33.495 162.375 33.495 162.375 34 175 C32.68 175 31.36 175 30 175 C27 171.78571429 27 171.78571429 27 169 C26.34 169 25.68 169 25 169 C25 169.99 25 170.98 25 172 C25.66 172 26.32 172 27 172 C27.2475 172.804375 27.495 173.60875 27.75 174.4375 C28.72238859 177.171081 28.72238859 177.171081 31.125 177.8125 C31.74375 177.874375 32.3625 177.93625 33 178 C33 179.32 33 180.64 33 182 C32.34 182 31.68 182 31 182 C31 183.98 31 185.96 31 188 C31.66 188 32.32 188 33 188 C33 190.31 33 192.62 33 195 C33.66 195 34.32 195 35 195 C35 196.65 35 198.3 35 200 C32.33333333 200 29.66666667 200 27 200 C27.54269531 200.19335938 28.08539063 200.38671875 28.64453125 200.5859375 C29.35996094 200.84632813 30.07539063 201.10671875 30.8125 201.375 C31.52019531 201.63023437 32.22789062 201.88546875 32.95703125 202.1484375 C35 203 35 203 38 205 C38 205.99 38 206.98 38 208 C38.66 208 39.32 208 40 208 C41.4375 209.71484375 41.4375 209.71484375 43 211.9375 C45.04816804 214.98632637 45.04816804 214.98632637 48 217 C48 217.66 48 218.32 48 219 C48.99 219 49.98 219 51 219 C51 219.66 51 220.32 51 221 C51.99 221 52.98 221 54 221 C54 221.66 54 222.32 54 223 C55.65 223 57.3 223 59 223 C59.495 225.475 59.495 225.475 60 228 C59.01 228.33 58.02 228.66 57 229 C57 229.66 57 230.32 57 231 C56.01 231.33 55.02 231.66 54 232 C59.36737869 232.32204272 62.27584336 231.41456895 67 229 C70.03011876 229.46857507 72.69543998 230.66903919 75.5 231.875 C83.36190622 235.0685365 91.57396876 237.04249645 100 238 C100 238.66 100 239.32 100 240 C100.77085937 239.97679687 101.54171875 239.95359375 102.3359375 239.9296875 C103.33882812 239.91164063 104.34171875 239.89359375 105.375 239.875 C106.37273437 239.85179687 107.37046875 239.82859375 108.3984375 239.8046875 C111 240 111 240 113 242 C111.66749209 245.5875213 110.169283 248.8364623 108 252 C107.34 252 106.68 252 106 252 C105.34 253.32 104.68 254.64 104 256 C103.34 256 102.68 256 102 256 C102 256.66 102 257.32 102 258 C101.01 258.66 100.02 259.32 99 260 C99.81404297 259.566875 99.81404297 259.566875 100.64453125 259.125 C101.35996094 258.75375 102.07539063 258.3825 102.8125 258 C103.52019531 257.62875 104.22789062 257.2575 104.95703125 256.875 C107 256 107 256 110 256 C110 255.34 110 254.68 110 254 C110.66 254 111.32 254 112 254 C112 253.34 112 252.68 112 252 C112.78375 251.38125 113.5675 250.7625 114.375 250.125 C117.327594 248.03448358 117.327594 248.03448358 119 244 C130.88 244 142.76 244 155 244 C155 243.34 155 242.68 155 242 C156.65 242 158.3 242 160 242 C160 241.34 160 240.68 160 240 C162.31 239.67 164.62 239.34 167 239 C166.67 240.65 166.34 242.3 166 244 C165.01 244 164.02 244 163 244 C163 244.66 163 245.32 163 246 C162.34 246 161.68 246 161 246 C161 246.66 161 247.32 161 248 C158.525 248.99 158.525 248.99 156 250 C156 250.66 156 251.32 156 252 C155.01 252 154.02 252 153 252 C153 252.66 153 253.32 153 254 C152.01 254 151.02 254 150 254 C150 254.66 150 255.32 150 256 C149.01 256 148.02 256 147 256 C147 256.66 147 257.32 147 258 C144.73272667 259.17407021 142.46165376 260.33939739 140.1875 261.5 C139.54490234 261.83386719 138.90230469 262.16773438 138.24023438 262.51171875 C135.30452301 264.00239084 133.33873483 265 130 265 C130 265.66 130 266.32 130 267 C128.44219668 267.67756882 126.87849904 268.34159457 125.3125 269 C124.44238281 269.37125 123.57226562 269.7425 122.67578125 270.125 C119.9427998 271.01870488 117.85299066 271.16449676 115 271 C115 271.66 115 272.32 115 273 C113.02 273 111.04 273 109 273 C109 273.66 109 274.32 109 275 C103.75614911 276.7479503 99.52677733 277.19392201 94 277 C94 277.66 94 278.32 94 279 C90.7 279 87.4 279 84 279 C84 279.66 84 280.32 84 281 C79.05 281 74.1 281 69 281 C69 280.34 69 279.68 69 279 C67.72769531 279.0928125 67.72769531 279.0928125 66.4296875 279.1875 C62.36648025 278.96536566 59.76709667 277.78388408 56.125 276 C54.97257812 275.443125 53.82015625 274.88625 52.6328125 274.3125 C51.76398438 273.879375 50.89515625 273.44625 50 273 C50 272.34 50 271.68 50 271 C49.443125 270.896875 48.88625 270.79375 48.3125 270.6875 C45.5230899 269.85821592 43.3860936 268.65700944 41 267 C41 266.34 41 265.68 41 265 C40.42765625 264.7421875 39.8553125 264.484375 39.265625 264.21875 C36.78871005 262.88634058 34.8658834 261.34943882 32.75 259.5 C32.04359375 258.8915625 31.3371875 258.283125 30.609375 257.65625 C29 256 29 256 29 254 C28.34 254 27.68 254 27 254 C27 253.34 27 252.68 27 252 C26.34 252 25.68 252 25 252 C21 247.52941176 21 247.52941176 21 245 C20.34 245 19.68 245 19 245 C18.71125 244.030625 18.4225 243.06125 18.125 242.0625 C17.35785318 238.89335797 17.35785318 238.89335797 15 238 C13.61769605 235.45550419 12.3200502 232.91759024 11.0625 230.3125 C10.71509766 229.60416016 10.36769531 228.89582031 10.00976562 228.16601562 C9.32435463 226.76808699 8.64192468 225.36869236 7.96264648 223.96777344 C7.09212077 222.18830672 6.19226704 220.42326101 5.2890625 218.66015625 C4.03337012 216.06886379 3.41721617 213.83706996 3 211 C2.505 214.96 2.505 214.96 2 219 C2.66 219 3.32 219 4 219 C4 221.64 4 224.28 4 227 C4.66 227 5.32 227 6 227 C6 229.31 6 231.62 6 234 C6.66 234 7.32 234 8 234 C8 235.65 8 237.3 8 239 C8.66 239 9.32 239 10 239 C10.185625 240.216875 10.37125 241.43375 10.5625 242.6875 C11.7945856 248.42810624 14.61834804 253.13698458 17.5390625 258.1796875 C19 261 19 261 19 264 C19.66 264 20.32 264 21 264 C21 264.99 21 265.98 21 267 C21.66 267 22.32 267 23 267 C23 267.99 23 268.98 23 270 C23.66 270 24.32 270 25 270 C25.66 271.98 26.32 273.96 27 276 C27.66 276 28.32 276 29 276 C29 276.66 29 277.32 29 278 C29.66 278 30.32 278 31 278 C31 278.66 31 279.32 31 280 C28.59454362 281.20272819 27.05003047 281.10071472 24.375 281.0625 C23.55773437 281.05347656 22.74046875 281.04445313 21.8984375 281.03515625 C20.95871094 281.01775391 20.95871094 281.01775391 20 281 C20 280.34 20 279.68 20 279 C17.36 279 14.72 279 12 279 C12 278.34 12 277.68 12 277 C10.02 277 8.04 277 6 277 C6 276.34 6 275.68 6 275 C4.35 275 2.7 275 1 275 C1 274.34 1 273.68 1 273 C-0.65 273 -2.3 273 -4 273 C-4 272.34 -4 271.68 -4 271 C-5.65 271 -7.3 271 -9 271 C-9 270.34 -9 269.68 -9 269 C-9.66 269 -10.32 269 -11 269 C-13.70820793 261.45570648 -15.14215232 254.04417685 -15.75390625 246.06640625 C-15.88896254 243.94015553 -15.88896254 243.94015553 -17 242 C-17.2114461 239.18365546 -17.3753235 236.38280766 -17.5 233.5625 C-17.79379243 227.46660939 -18.18103988 221.42167018 -18.9140625 215.359375 C-19.01958252 212.46237077 -18.49125946 209.85632288 -18 207 C-17.85374335 204.45946788 -17.73031307 201.91755848 -17.625 199.375 C-17.24608345 192.27376311 -15.9398446 185.84849483 -14 179 C-13.25334861 176.08764707 -12.53352516 173.16878693 -11.8125 170.25 C-11.46528518 168.85926472 -11.11766674 167.4686301 -10.76953125 166.078125 C-10.51558594 165.06234375 -10.26164062 164.0465625 -10 163 C-9.34 163 -8.68 163 -8 163 C-8.33 161.68 -8.66 160.36 -9 159 C-9.26554687 159.71027344 -9.53109375 160.42054688 -9.8046875 161.15234375 C-10.15789062 162.07144531 -10.51109375 162.99054688 -10.875 163.9375 C-11.22304688 164.85402344 -11.57109375 165.77054688 -11.9296875 166.71484375 C-13 169 -13 169 -15 170 C-15 171.98 -15 173.96 -15 176 C-15.66 176 -16.32 176 -17 176 C-17 177.98 -17 179.96 -17 182 C-17.66 182 -18.32 182 -19 182 C-19 184.31 -19 186.62 -19 189 C-19.66 189 -20.32 189 -21 189 C-21 192.3 -21 195.6 -21 199 C-21.66 199 -22.32 199 -23 199 C-22.98839844 200.07121094 -22.97679687 201.14242187 -22.96484375 202.24609375 C-22.95546701 203.64322743 -22.94636669 205.04036299 -22.9375 206.4375 C-22.92912109 207.14455078 -22.92074219 207.85160156 -22.91210938 208.58007812 C-22.90346412 210.38693559 -22.94779989 212.19387603 -23 214 C-23.33 214.33 -23.66 214.66 -24 215 C-24.1007812 217.36398468 -24.13973215 219.69811311 -24.1328125 222.0625 C-24.13376923 222.76898682 -24.13472595 223.47547363 -24.13571167 224.20336914 C-24.13639333 225.69970793 -24.13454005 227.19604967 -24.13037109 228.69238281 C-24.12502257 230.99030157 -24.13031651 233.28802486 -24.13671875 235.5859375 C-24.13605797 237.03645877 -24.1347768 238.48697991 -24.1328125 239.9375 C-24.13483673 240.6291626 -24.13686096 241.3208252 -24.13894653 242.03344727 C-24.40230733 245.29735638 -24.40230733 245.29735638 -23 248 C-22.92741054 250.18639453 -22.91626217 252.37500389 -22.9375 254.5625 C-22.94652344 255.76003906 -22.95554687 256.95757812 -22.96484375 258.19140625 C-22.97644531 259.11824219 -22.98804688 260.04507812 -23 261 C-24.32 260.67 -25.64 260.34 -27 260 C-27 259.34 -27 258.68 -27 258 C-27.66 258 -28.32 258 -29 258 C-29 256.35 -29 254.7 -29 253 C-29.66 253 -30.32 253 -31 253 C-31 252.01 -31 251.02 -31 250 C-31.66 250 -32.32 250 -33 250 C-33 248.35 -33 246.7 -33 245 C-33.66 245 -34.32 245 -35 245 C-36.08567608 242.01439078 -37.06297756 239.03454128 -38 236 C-38.53947266 234.31777344 -38.53947266 234.31777344 -39.08984375 232.6015625 C-43.06768142 218.94970795 -42.38891954 205.09534162 -42 191 C-43.65 191.33 -45.3 191.66 -47 192 C-47 192.66 -47 193.32 -47 194 C-50.82320557 195.42258812 -53.91281305 196.24042276 -58 196 C-58.1875 193.625 -58.1875 193.625 -58 191 C-56.515 190.01 -56.515 190.01 -55 189 C-54.67 188.01 -54.34 187.02 -54 186 C-53.34 186 -52.68 186 -52 186 C-51.855625 185.401875 -51.71125 184.80375 -51.5625 184.1875 C-51.1127561 182.43849596 -50.57107659 180.71322977 -50 179 C-49.34 179 -48.68 179 -48 179 C-47.855625 178.2575 -47.71125 177.515 -47.5625 176.75 C-47.09812508 174.47972261 -46.58136431 172.24240521 -46 170 C-45.34 170 -44.68 170 -44 170 C-44 168.68 -44 167.36 -44 166 C-43.34 166 -42.68 166 -42 166 C-42.061875 165.278125 -42.12375 164.55625 -42.1875 163.8125 C-41.960574 160.40860993 -40.75528645 158.90150964 -39 156 C-38.24657405 154.12163117 -37.53764597 152.22478148 -36.875 150.3125 C-35.06726457 145.13452915 -35.06726457 145.13452915 -34 143 C-40.90408576 142.43409133 -45.23827586 143.61913793 -51.421875 146.7109375 C-56.72883559 149.36441779 -61.14097709 150.40416716 -67 151 C-67 149.35 -67 147.7 -67 146 C-66.42709229 145.9182251 -65.85418457 145.8364502 -65.26391602 145.75219727 C-62.29209815 144.76479612 -60.93323328 143.22581556 -58.77734375 140.96484375 C-57.99166016 140.15595703 -57.20597656 139.34707031 -56.39648438 138.51367188 C-55.58501953 137.66353516 -54.77355469 136.81339844 -53.9375 135.9375 C-52.32866426 134.25235584 -50.71309203 132.57360923 -49.08984375 130.90234375 C-48.02044556 129.78073853 -48.02044556 129.78073853 -46.92944336 128.63647461 C-45 127 -45 127 -42 127 C-42 126.34 -42 125.68 -42 125 C-41.34 125 -40.68 125 -40 125 C-40 124.34 -40 123.68 -40 123 C-39.01 123 -38.02 123 -37 123 C-37 122.34 -37 121.68 -37 121 C-36.01 121 -35.02 121 -34 121 C-34 120.34 -34 119.68 -34 119 C-33.01 119 -32.02 119 -31 119 C-31 118.34 -31 117.68 -31 117 C-29.68 117 -28.36 117 -27 117 C-27 116.34 -27 115.68 -27 115 C-26.01 115 -25.02 115 -24 115 C-24 114.34 -24 113.68 -24 113 C-23.31035156 112.75765625 -22.62070312 112.5153125 -21.91015625 112.265625 C-20.50056641 111.76289063 -20.50056641 111.76289063 -19.0625 111.25 C-18.14597656 110.92515625 -17.22945313 110.6003125 -16.28515625 110.265625 C-12.12766069 108.66392635 -8.07135687 106.80949194 -4 105 C-10.6 104.67 -17.2 104.34 -24 104 C-24 103.34 -24 102.68 -24 102 C-24.86625 102.04125 -25.7325 102.0825 -26.625 102.125 C-30.12358468 101.99542279 -32.74551597 101.23980344 -36 100 C-36 99.34 -36 98.68 -36 98 C-37.32 98 -38.64 98 -40 98 C-40.33 96.35 -40.66 94.7 -41 93 C-38.525 92.505 -38.525 92.505 -36 92 C-36 92.66 -36 93.32 -36 94 C-30.39 94 -24.78 94 -19 94 C-19 93.34 -19 92.68 -19 92 C-14.71 92 -10.42 92 -6 92 C-6 91.34 -6 90.68 -6 90 C-2.37 89.67 1.26 89.34 5 89 C5 88.67 5 88.34 5 88 C5.98742187 87.93941406 6.97484375 87.87882812 7.9921875 87.81640625 C9.27351563 87.73261719 10.55484375 87.64882812 11.875 87.5625 C13.15117187 87.48128906 14.42734375 87.40007812 15.7421875 87.31640625 C18.88300152 87.20793973 18.88300152 87.20793973 21 86 C22.53668865 85.77532169 24.07968054 85.59203195 25.625 85.4375 C26.85089844 85.31181641 26.85089844 85.31181641 28.1015625 85.18359375 C28.72804688 85.12300781 29.35453125 85.06242187 30 85 C27.94077598 82.94077598 23.78291876 83.58572421 20.9375 83.4375 C20.17888672 83.39431641 19.42027344 83.35113281 18.63867188 83.30664062 C16.75934562 83.20026367 14.87969756 83.09960066 13 83 C13 82.34 13 81.68 13 81 C8.71 81 4.42 81 0 81 C0 80.34 0 79.68 0 79 C-3.63 79 -7.26 79 -11 79 C-11 78.34 -11 77.68 -11 77 C-13.97 77 -16.94 77 -20 77 C-20 76.34 -20 75.68 -20 75 C-22.64 75 -25.28 75 -28 75 C-28 74.34 -28 73.68 -28 73 C-30.31 73 -32.62 73 -35 73 C-35 72.34 -35 71.68 -35 71 C-35.68191406 71.06703125 -36.36382812 71.1340625 -37.06640625 71.203125 C-40.83750496 70.94201031 -43.6546294 69.48154639 -46.9375 67.75 C-47.53240234 67.44964844 -48.12730469 67.14929688 -48.74023438 66.83984375 C-60.47479292 60.8122563 -60.47479292 60.8122563 -63 55 C-63.76398678 49.50067173 -64.26341735 43.14531436 -61.25 38.25 C-58.90633113 35.90633113 -58.17528256 35.40274724 -55 35 C-52.859375 35.55859375 -52.859375 35.55859375 -50.75 36.4375 C-49.69039063 36.86869141 -49.69039063 36.86869141 -48.609375 37.30859375 C-48.07828125 37.53675781 -47.5471875 37.76492187 -47 38 C-47 38.66 -47 39.32 -47 40 C-45.68 40 -44.36 40 -43 40 C-43 40.66 -43 41.32 -43 42 C-42.01 42 -41.02 42 -40 42 C-40 42.66 -40 43.32 -40 44 C-39.01 44 -38.02 44 -37 44 C-37 44.66 -37 45.32 -37 46 C-36.401875 46.144375 -35.80375 46.28875 -35.1875 46.4375 C-33.43849596 46.8872439 -31.71322977 47.42892341 -30 48 C-30 48.66 -30 49.32 -30 50 C-28.68 50 -27.36 50 -26 50 C-26 50.66 -26 51.32 -26 52 C-25.26910156 52.12632812 -24.53820312 52.25265625 -23.78515625 52.3828125 C-21.13133671 52.97089593 -18.92186665 53.79045415 -16.4375 54.875 C-9.49565208 57.72426594 -2.25432514 59.63377329 5.1875 60.625 C8 61 8 61 9 62 C10.51469448 62.23192865 12.03754562 62.41215238 13.5625 62.5625 C14.38878906 62.64628906 15.21507812 62.73007813 16.06640625 62.81640625 C16.70449219 62.87699219 17.34257812 62.93757813 18 63 C17.67 62.67 17.34 62.34 17 62 C17 61.34 17 60.68 17 60 C16.34 59.67 15.68 59.34 15 59 C13.94230922 57.93108703 12.92549473 56.82114506 11.9375 55.6875 C11.41027344 55.09324219 10.88304687 54.49898437 10.33984375 53.88671875 C8.9309677 51.90279125 8.42496611 50.37666231 8 48 C7.34 48 6.68 48 6 48 C6 47.01 6 46.02 6 45 C5.34 45 4.68 45 4 45 C3.34 42.69 2.68 40.38 2 38 C3.5625 35.9375 3.5625 35.9375 6 34 C11.53435692 34 14.56471164 35.90154504 19 39 C18.0615625 38.15695313 17.123125 37.31390625 16.15625 36.4453125 C14.93724077 35.3388272 13.71850482 34.23204076 12.5 33.125 C11.87996094 32.56941406 11.25992188 32.01382813 10.62109375 31.44140625 C10.03457031 30.90644531 9.44804687 30.37148437 8.84375 29.8203125 C8.02680664 29.08192139 8.02680664 29.08192139 7.19335938 28.32861328 C6 27 6 27 6 25 C5.34 25 4.68 25 4 25 C3.01 22.525 3.01 22.525 2 20 C1.34 20 0.68 20 0 20 C-1.85776765 16.86501708 -2.20140476 14.62528568 -2 11 C-2.66 11 -3.32 11 -4 11 C-4 9.68 -4 8.36 -4 7 C-3.34 7 -2.68 7 -2 7 C-2 5.35 -2 3.7 -2 2 C-1.34 2 -0.68 2 0 2 C0 1.34 0 0.68 0 0 Z M20 40 C23.47736026 43.78034623 23.47736026 43.78034623 28 46 C28 45.34 28 44.68 28 44 C24.36676311 41.03764305 24.36676311 41.03764305 20 40 Z M28 46 C28 46.66 28 47.32 28 48 C28.99 48 29.98 48 31 48 C31 47.34 31 46.68 31 46 C30.01 46 29.02 46 28 46 Z M31 48 C31 48.66 31 49.32 31 50 C35.06573561 53.19560041 35.06573561 53.19560041 40 54 C40 53.34 40 52.68 40 52 C39.01 52 38.02 52 37 52 C37 51.34 37 50.68 37 50 C35.02 49.34 33.04 48.68 31 48 Z M40 54 C40 54.66 40 55.32 40 56 C41.76505435 56.86604534 43.53728074 57.71748642 45.3125 58.5625 C46.29863281 59.03816406 47.28476562 59.51382813 48.30078125 60.00390625 C51.03953529 61.33410703 51.03953529 61.33410703 54 60 C52.2335343 58.9923048 50.46166177 57.99408286 48.6875 57 C47.70136719 56.443125 46.71523438 55.88625 45.69921875 55.3125 C43.05057529 53.78135247 43.05057529 53.78135247 40 54 Z M54 61 C54.66 61.66 55.32 62.32 56 63 C56.99 62.67 57.98 62.34 59 62 C57.35 61.67 55.7 61.34 54 61 Z M59 63 C59.33 63.66 59.66 64.32 60 65 C60.99 64.67 61.98 64.34 63 64 C61.68 63.67 60.36 63.34 59 63 Z M54 86 C58 87 58 87 58 87 Z M116 109 C117.26974972 113.41522109 117.26974972 113.41522109 120 117 C122.57061311 117.64767793 122.57061311 117.64767793 125 118 C125.23489828 115.83092754 125.23489828 115.83092754 123.28515625 114.2734375 C122.55167969 113.64695312 121.81820312 113.02046875 121.0625 112.375 C120.33160156 111.74335938 119.60070312 111.11171875 118.84765625 110.4609375 C117.26184003 108.8966274 117.26184003 108.8966274 116 109 Z M51 124 C50.67 124.66 50.34 125.32 50 126 C50.66 126 51.32 126 52 126 C51.67 125.34 51.34 124.68 51 124 Z M-1 145 C-1 148 -1 148 -1 148 Z M-3 148 C-3.33 148.99 -3.66 149.98 -4 151 C-3.34 151 -2.68 151 -2 151 C-2.33 150.01 -2.66 149.02 -3 148 Z M-5 151 C-7.58777208 154.05580974 -7.58777208 154.05580974 -8 158 C-7.34 158 -6.68 158 -6 158 C-4.87483915 156.16715557 -4.87483915 156.16715557 -4 154 C-4.33 153.01 -4.66 152.02 -5 151 Z M21 162 C22 164 22 164 22 164 Z M23 166 C23.33 166.99 23.66 167.98 24 169 C24 168.01 24 167.02 24 166 C23.67 166 23.34 166 23 166 Z M20 196 C20.33 196.66 20.66 197.32 21 198 C21.66 197.67 22.32 197.34 23 197 C22.01 196.67 21.02 196.34 20 196 Z M0 203 C0.33 205.31 0.66 207.62 1 210 C1.33 210 1.66 210 2 210 C1.67 207.69 1.34 205.38 1 203 C0.67 203 0.34 203 0 203 Z " fill="#D61417" transform="translate(322,153)"/>
<path d="M0 0 C2.22889496 -0.05428973 4.45817471 -0.09292338 6.6875 -0.125 C8.54955078 -0.15980469 8.54955078 -0.15980469 10.44921875 -0.1953125 C13.81237857 -0.01032021 15.9985587 0.54232105 19 2 C19 2.99 19 3.98 19 5 C19.66 5 20.32 5 21 5 C21 5.66 21 6.32 21 7 C21.66 7 22.32 7 23 7 C23.495 8.485 23.495 8.485 24 10 C35.55 10 47.1 10 59 10 C59.66 8.68 60.32 7.36 61 6 C62.4375 3.75 62.4375 3.75 64 2 C64.99 2 65.98 2 67 2 C67 2.66 67 3.32 67 4 C67.99 4 68.98 4 70 4 C70 4.66 70 5.32 70 6 C70.66 6 71.32 6 72 6 C72 6.66 72 7.32 72 8 C72.99 8 73.98 8 75 8 C75 8.66 75 9.32 75 10 C75.66 10 76.32 10 77 10 C77 10.66 77 11.32 77 12 C77.66 12 78.32 12 79 12 C79 13.32 79 14.64 79 16 C77.515 16.495 77.515 16.495 76 17 C75.99857498 17.87839035 75.99714996 18.7567807 75.99568176 19.66178894 C75.97784159 27.94568609 75.93619818 36.22904956 75.86790943 44.51269054 C75.8336393 48.77130849 75.80852948 53.02956771 75.80444336 57.28833008 C75.80016034 61.39947109 75.77169856 65.50980288 75.72656822 69.6206913 C75.71359311 71.18789262 75.70928563 72.75519079 75.71384621 74.32243919 C75.7187527 76.52077638 75.69266466 78.71674877 75.65942383 80.91479492 C75.65276199 82.16499924 75.64610016 83.41520355 75.63923645 84.70329285 C74.83060733 88.87360168 73.22435846 90.33004216 70 93 C66.86365218 95.06208695 64.46936636 95.22287806 60.75 95.125 C59.85796875 95.10695313 58.9659375 95.08890625 58.046875 95.0703125 C57.37140625 95.04710937 56.6959375 95.02390625 56 95 C55.01 91.04 55.01 91.04 54 87 C53.34 87 52.68 87 52 87 C52 86.34 52 85.68 52 85 C45.07 84.505 45.07 84.505 38 84 C37.67 82.68 37.34 81.36 37 80 C34.03 80 31.06 80 28 80 C27.505 81.98 27.505 81.98 27 84 C22.81537205 86.09231398 17.67855628 85 13 85 C12.505 72.625 12.505 72.625 12 60 C10.02 60 8.04 60 6 60 C6 70.56 6 81.12 6 92 C3.525 92.495 3.525 92.495 1 93 C1 93.66 1 94.32 1 95 C-2.63 95 -6.26 95 -10 95 C-10 67.61 -10 40.22 -10 12 C-4.72 12 0.56 12 6 12 C5.34 10.02 4.68 8.04 4 6 C3.34 6 2.68 6 2 6 C2 5.34 2 4.68 2 4 C1.34 4 0.68 4 0 4 C0 2.68 0 1.36 0 0 Z M26 14 C26.78786972 16.14907779 26.78786972 16.14907779 28.7421875 16.6328125 C29.79792969 16.87644531 29.79792969 16.87644531 30.875 17.125 C31.57367188 17.29257812 32.27234375 17.46015625 32.9921875 17.6328125 C35.15165752 18.08994791 35.15165752 18.08994791 38 18 C37.75 20.375 37.75 20.375 37 23 C34.9375 24.3125 34.9375 24.3125 33 25 C37.65052872 25.26932521 37.65052872 25.26932521 42 24 C42 23.34 42 22.68 42 22 C42.66 22 43.32 22 44 22 C44.66 21.01 45.32 20.02 46 19 C49.8731119 19.5483282 51.55381931 21.26081717 54.1875 24.0625 C55.44389675 25.38882606 56.71111809 26.70521931 58 28 C58.33 28 58.66 28 59 28 C59.33 23.38 59.66 18.76 60 14 C48.78 14 37.56 14 26 14 Z M7 18 C4.78663586 21.32004621 4.79237026 22.07410932 5.0234375 25.88671875 C5.075 26.82451172 5.1265625 27.76230469 5.1796875 28.72851562 C5.24414062 29.70498047 5.30859375 30.68144531 5.375 31.6875 C5.43171875 32.67556641 5.4884375 33.66363281 5.546875 34.68164062 C5.68833519 37.12182885 5.83974274 39.56098591 6 42 C7.56249809 40.68798827 7.56249809 40.68798827 9 39 C9 38.01 9 37.02 9 36 C9.66 36 10.32 36 11 36 C11 34.68 11 33.36 11 32 C11.66 32 12.32 32 13 32 C13 30.35 13 28.7 13 27 C13.66 27 14.32 27 15 27 C15 25.35 15 23.7 15 22 C15.66 22 16.32 22 17 22 C16.67 21.01 16.34 20.02 16 19 C13.03 18.67 10.06 18.34 7 18 Z M29.0625 30.5 C28.711875 30.995 28.36125 31.49 28 32 C28.99 32.33 29.98 32.66 31 33 C31 33.66 31 34.32 31 35 C31.99 35 32.98 35 34 35 C34 34.34 34 33.68 34 33 C34.66 33 35.32 33 36 33 C36 32.34 36 31.68 36 31 C36.66 31 37.32 31 38 31 C38 30.34 38 29.68 38 29 C33.20691658 28.53477707 33.20691658 28.53477707 29.0625 30.5 Z M58 31 C58 31.66 58 32.32 58 33 C57.40703125 33.08121094 56.8140625 33.16242188 56.203125 33.24609375 C53.32442051 34.23118234 52.47537614 35.59207507 50.75 38.0625 C50.22921875 38.79597656 49.7084375 39.52945313 49.171875 40.28515625 C48.59179688 41.13400391 48.59179688 41.13400391 48 42 C48.62648438 42.06058594 49.25296875 42.12117188 49.8984375 42.18359375 C50.71570313 42.26738281 51.53296875 42.35117187 52.375 42.4375 C53.59316406 42.55931641 53.59316406 42.55931641 54.8359375 42.68359375 C57 43 57 43 59 44 C59 39.71 59 35.42 59 31 C58.67 31 58.34 31 58 31 Z M22 38 C19.9600281 39.36323743 19.9600281 39.36323743 18 41 C18 41.66 18 42.32 18 43 C17.01 43 16.02 43 15 43 C15 43.66 15 44.32 15 45 C13.02 45.66 11.04 46.32 9 47 C9 47.66 9 48.32 9 49 C8.01 48.67 7.02 48.34 6 48 C6 50.64 6 53.28 6 56 C6.71027344 55.56558594 7.42054688 55.13117187 8.15234375 54.68359375 C11.82258627 52.51366984 15.59691974 50.56470887 19.37890625 48.59765625 C22.01376906 46.99160724 23.92059451 45.26532881 26 43 C24.68 41.35 23.36 39.7 22 38 Z M58 50 C55.96006486 54.92984325 54.59347032 58.57960425 55 64 C54.01 64 53.02 64 52 64 C52 69.28 52 74.56 52 80 C54.31 80 56.62 80 59 80 C59 70.1 59 60.2 59 50 C58.67 50 58.34 50 58 50 Z M26 55 C29.157776 57.105184 29.95397134 57.25289344 33.5625 57.1875 C34.34753906 57.18105469 35.13257813 57.17460938 35.94140625 57.16796875 C38.06354672 57.12364089 38.06354672 57.12364089 40 56 C40 55.34 40 54.68 40 54 C34.93094113 50.89315747 31.07767373 52.94238058 26 55 Z M27 62 C27 65.96 27 69.92 27 74 C30.63 74.33 34.26 74.66 38 75 C38 70.71 38 66.42 38 62 C34.37 62 30.74 62 27 62 Z " fill="#AFAEAE" transform="translate(303,463)"/>
<path d="M0 0 C2.64 0.33 5.28 0.66 8 1 C8 1.66 8 2.32 8 3 C9.65 3 11.3 3 13 3 C13 3.66 13 4.32 13 5 C14.65 5 16.3 5 18 5 C18.495 6.98 18.495 6.98 19 9 C19.66 9 20.32 9 21 9 C21 9.66 21 10.32 21 11 C22.65 11 24.3 11 26 11 C26 11.66 26 12.32 26 13 C26.804375 13.2475 27.60875 13.495 28.4375 13.75 C31 15 31 15 31.8125 17.125 C31.874375 17.74375 31.93625 18.3625 32 19 C32.66 19 33.32 19 34 19 C34.19658808 20.41543415 34.38187546 21.83244031 34.5625 23.25 C34.71912109 24.43335938 34.71912109 24.43335938 34.87890625 25.640625 C35.00027349 28.00532874 34.69633257 29.7511037 34 32 C33.34 32 32.68 32 32 32 C32 34.64 32 37.28 32 40 C30.68 40 29.36 40 28 40 C28.495 51.385 28.495 51.385 29 63 C29.99 63 30.98 63 32 63 C32.14695312 64.35544922 32.14695312 64.35544922 32.296875 65.73828125 C32.44640625 66.91777344 32.5959375 68.09726562 32.75 69.3125 C32.88921875 70.48425781 33.0284375 71.65601563 33.171875 72.86328125 C33.73584315 75.96076883 33.73584315 75.96076883 35.50488281 77.68432617 C39.21611169 79.64125498 42.62573937 79.32087161 46.75 79.1875 C47.54277344 79.17396484 48.33554687 79.16042969 49.15234375 79.14648438 C51.10185564 79.11125223 53.05101626 79.05744821 55 79 C54.99777939 78.03755875 54.99555878 77.07511749 54.99327087 76.08351135 C54.97303888 67.03339593 54.95802758 57.98328507 54.94818783 48.9331522 C54.94295915 44.27988814 54.93586177 39.62664226 54.92456055 34.97338867 C54.91373114 30.48655454 54.90772305 25.99973796 54.90512276 21.51289177 C54.9032686 19.79719707 54.89964818 18.08150338 54.89426994 16.36581612 C54.88705879 13.97115087 54.88600909 11.57655904 54.88647461 9.18188477 C54.88287933 8.46547318 54.87928406 7.74906158 54.87557983 7.01094055 C54.88594784 2.11405216 54.88594784 2.11405216 56 1 C58.82256491 0.89992992 61.6152319 0.86124402 64.4375 0.875 C65.22705078 0.87113281 66.01660156 0.86726563 66.83007812 0.86328125 C72.74673867 0.87336933 72.74673867 0.87336933 75 2 C75 3.65 75 5.3 75 7 C74.01 7.33 73.02 7.66 72 8 C71.67 35.06 71.34 62.12 71 90 C70.34 90 69.68 90 69 90 C68.896875 90.61875 68.79375 91.2375 68.6875 91.875 C68 94 68 94 65 96 C63.68 96 62.36 96 61 96 C61 96.66 61 97.32 61 98 C57.37 98 53.74 98 50 98 C49.7834375 96.3603125 49.7834375 96.3603125 49.5625 94.6875 C49.11711896 91.06877013 49.11711896 91.06877013 48 88 C47.34 88 46.68 88 46 88 C46 87.34 46 86.68 46 86 C45.4225 85.855625 44.845 85.71125 44.25 85.5625 C42.16666667 85.04166667 40.08333333 84.52083333 38 84 C37.855625 84.61875 37.71125 85.2375 37.5625 85.875 C37 88 37 88 36 90 C31.71781776 92.31938766 27.49271866 92.29119182 22.7421875 92.265625 C21.56488571 92.26849518 21.56488571 92.26849518 20.36380005 92.27142334 C18.71144285 92.27277974 17.05907479 92.2691215 15.40673828 92.26074219 C12.87638533 92.25000588 10.34673767 92.26067045 7.81640625 92.2734375 C6.20833177 92.27211637 4.60025772 92.26955494 2.9921875 92.265625 C2.23590057 92.26967346 1.47961365 92.27372192 0.70040894 92.27789307 C-3.07193728 92.24413002 -4.78257296 92.14495136 -8 90 C-8 89.34 -8 88.68 -8 88 C-8.66 88 -9.32 88 -10 88 C-10.33 73.48 -10.66 58.96 -11 44 C-11.66 44 -12.32 44 -13 44 C-13 44.66 -13 45.32 -13 46 C-13.99 46 -14.98 46 -16 46 C-16 46.66 -16 47.32 -16 48 C-16.99 48 -17.98 48 -19 48 C-19 48.66 -19 49.32 -19 50 C-19.99 49.67 -20.98 49.34 -22 49 C-22 47.02 -22 45.04 -22 43 C-21.34 43 -20.68 43 -20 43 C-19.34 41.35 -18.68 39.7 -18 38 C-17.34 38 -16.68 38 -16 38 C-16 37.01 -16 36.02 -16 35 C-15.34 35 -14.68 35 -14 35 C-14 34.01 -14 33.02 -14 32 C-13.34 32 -12.68 32 -12 32 C-12 31.01 -12 30.02 -12 29 C-11.34 29 -10.68 29 -10 29 C-10 27.68 -10 26.36 -10 25 C-9.34 25 -8.68 25 -8 25 C-8 23.68 -8 22.36 -8 21 C-7.34 21 -6.68 21 -6 21 C-6 19.35 -6 17.7 -6 16 C-5.34 16 -4.68 16 -4 16 C-4.061875 15.319375 -4.12375 14.63875 -4.1875 13.9375 C-3.94704912 10.17043618 -2.55415948 7.41915085 -1 4 C-0.62691369 2.67723944 -0.26953585 1.34767923 0 0 Z M12 18 C11.67 19.32 11.34 20.64 11 22 C10.34 22 9.68 22 9 22 C6.03764305 25.63323689 6.03764305 25.63323689 5 30 C4.34 30 3.68 30 3 30 C3 30.66 3 31.32 3 32 C10.05172973 33.43174033 10.05172973 33.43174033 16.625 31.25 C17.40875 30.5075 18.1925 29.765 19 29 C19 28.01 19 27.02 19 26 C18.34 26 17.68 26 17 26 C17 24.68 17 23.36 17 22 C16.34 22 15.68 22 15 22 C14.67 20.68 14.34 19.36 14 18 C13.34 18 12.68 18 12 18 Z M5 38 C5 44.6 5 51.2 5 58 C6.32 57.34 7.64 56.68 9 56 C10.3303125 55.7525 10.3303125 55.7525 11.6875 55.5 C12.8321875 55.2525 12.8321875 55.2525 14 55 C15.53266582 51.93466836 15.10276471 48.73245728 15.0625 45.375 C15.05798828 44.66859375 15.05347656 43.9621875 15.04882812 43.234375 C15.03703875 41.48954725 15.01910324 39.744763 15 38 C11.7 38 8.4 38 5 38 Z M5 60 C4.97315321 62.64590014 4.95323643 65.29153096 4.9375 67.9375 C4.92912109 68.69224609 4.92074219 69.44699219 4.91210938 70.22460938 C4.90347559 72.14994313 4.94775667 74.07535581 5 76 C7.03480984 78.03480984 11.08720017 77.18507583 13.875 77.1875 C14.97521484 77.20586914 14.97521484 77.20586914 16.09765625 77.22460938 C19.93563514 77.23509566 21.73347074 77.17768617 25 75 C26.04652032 72.89283945 26.04652032 72.89283945 26.75 70.5 C27.01296875 69.7059375 27.2759375 68.911875 27.546875 68.09375 C28.238501 65.9550979 28.238501 65.9550979 27 64 C26.34 65.65 25.68 67.3 25 69 C24.01 69 23.02 69 22 69 C22 69.66 22 70.32 22 71 C18.37 71 14.74 71 11 71 C11 68.36 11 65.72 11 63 C10.34 63 9.68 63 9 63 C9 62.34 9 61.68 9 61 C7.68 60.67 6.36 60.34 5 60 Z " fill="#AEAEAE" transform="translate(407,462)"/>
<path d="M0 0 C5.61 0 11.22 0 17 0 C17 0.66 17 1.32 17 2 C17.99 2 18.98 2 20 2 C21.47075246 6.41225737 22.36884358 9.48281619 21 14 C21.66 13.67 22.32 13.34 23 13 C25.41741134 13.05783281 27.83414367 13.14578659 30.25 13.25 C36.49570658 13.46603064 36.49570658 13.46603064 41.875 10.625 C43.98275821 8.21379819 43.98275821 8.21379819 45 6 C46.32 6 47.64 6 49 6 C49 6.66 49 7.32 49 8 C49.66 8 50.32 8 51 8 C51 8.66 51 9.32 51 10 C52.65 10.66 54.3 11.32 56 12 C56 12.66 56 13.32 56 14 C56.66 14 57.32 14 58 14 C58 14.66 58 15.32 58 16 C58.66 16 59.32 16 60 16 C60 17.32 60 18.64 60 20 C59.34 20 58.68 20 58 20 C58 20.66 58 21.32 58 22 C54.68885166 23.12880057 51.41021743 24.21302675 48 25 C48 25.66 48 26.32 48 27 C46.02 27.66 44.04 28.32 42 29 C42 29.66 42 30.32 42 31 C42.66 31 43.32 31 44 31 C44 32.32 44 33.64 44 35 C42.35 35 40.7 35 39 35 C39 35.66 39 36.32 39 37 C38.34 37 37.68 37 37 37 C37 37.66 37 38.32 37 39 C36.34 39 35.68 39 35 39 C35 39.66 35 40.32 35 41 C34.34 41 33.68 41 33 41 C33 41.66 33 42.32 33 43 C32.01 43 31.02 43 30 43 C29.67 43.99 29.34 44.98 29 46 C36.48777205 47.71850506 43.93624837 48.59076069 51.57348633 49.30224609 C52.37423584 49.37910645 53.17498535 49.4559668 54 49.53515625 C54.721875 49.600979 55.44375 49.66680176 56.1875 49.73461914 C58 50 58 50 60 51 C60 52.98 60 54.96 60 57 C59.05125 57.4125 58.1025 57.825 57.125 58.25 C53.99283376 60.0040131 53.13499394 60.70851757 52 64 C51.34 64 50.68 64 50 64 C50 65.98 50 67.96 50 70 C47.03 70 44.06 70 41 70 C40.96241577 70.99181274 40.96241577 70.99181274 40.92407227 72.00366211 C40.80846898 74.98182305 40.68558246 77.9596392 40.5625 80.9375 C40.52318359 81.97841797 40.48386719 83.01933594 40.44335938 84.09179688 C40.40146484 85.08115234 40.35957031 86.07050781 40.31640625 87.08984375 C40.27974854 88.00628662 40.24309082 88.92272949 40.20532227 89.86694336 C40 92 40 92 39 93 C37.00041636 93.04080783 34.99954746 93.04254356 33 93 C33 93.66 33 94.32 33 95 C30.36 95 27.72 95 25 95 C25 92.36 25 89.72 25 87 C17.41 87 9.82 87 2 87 C2 88.98 2 90.96 2 93 C-2 95 -2 95 -13 95 C-13 86.09 -13 77.18 -13 68 C-14.98 68 -16.96 68 -19 68 C-19 68.66 -19 69.32 -19 70 C-21.97 70 -24.94 70 -28 70 C-28 70.66 -28 71.32 -28 72 C-29.98 72 -31.96 72 -34 72 C-34.20086443 68.28400809 -34.1519437 67.22791555 -32 64 C-28.875 63.8125 -28.875 63.8125 -26 64 C-26 63.34 -26 62.68 -26 62 C-24.845 61.690625 -23.69 61.38125 -22.5 61.0625 C-16.81504607 59.19769027 -11.81634906 56.22848728 -6.67382812 53.22485352 C-3.18508676 51.19244894 0.18213253 49.36880907 4 48 C4 47.34 4 46.68 4 46 C3.34 46 2.68 46 2 46 C1 44.33333333 0 42.66666667 -1 41 C-1.66 41 -2.32 41 -3 41 C-3 41.66 -3 42.32 -3 43 C-3.99 43 -4.98 43 -6 43 C-6 43.66 -6 44.32 -6 45 C-6.99 45 -7.98 45 -9 45 C-9 45.66 -9 46.32 -9 47 C-9.99 47 -10.98 47 -12 47 C-12 47.66 -12 48.32 -12 49 C-13.32 49 -14.64 49 -16 49 C-16 49.66 -16 50.32 -16 51 C-17.41396902 51.50757862 -18.83131729 52.00574925 -20.25 52.5 C-21.03890625 52.7784375 -21.8278125 53.056875 -22.640625 53.34375 C-25 54 -25 54 -29 54 C-29 52.02 -29 50.04 -29 48 C-27.02 47.505 -27.02 47.505 -25 47 C-25 46.34 -25 45.68 -25 45 C-24.34 45 -23.68 45 -23 45 C-23 44.34 -23 43.68 -23 43 C-22.34 43 -21.68 43 -21 43 C-21 42.34 -21 41.68 -21 41 C-20.34 41 -19.68 41 -19 41 C-19 40.34 -19 39.68 -19 39 C-18.34 39 -17.68 39 -17 39 C-16.7525 38.29875 -16.505 37.5975 -16.25 36.875 C-14.83960489 33.63109126 -12.97350947 30.92843341 -11 28 C-10.67 27.01 -10.34 26.02 -10 25 C-9.34 25 -8.68 25 -8 25 C-8 23.68 -8 22.36 -8 21 C-7.34 21 -6.68 21 -6 21 C-6 20.34 -6 19.68 -6 19 C-8.97 18.67 -11.94 18.34 -15 18 C-15 21.3 -15 24.6 -15 28 C-15.66 28 -16.32 28 -17 28 C-17.226875 28.61875 -17.45375 29.2375 -17.6875 29.875 C-19.4628632 32.74939757 -20.73488994 33.20186198 -24 34 C-27.8125 33.625 -27.8125 33.625 -31 33 C-31 32.34 -31 31.68 -31 31 C-31.66 31 -32.32 31 -33 31 C-33 30.01 -33 29.02 -33 28 C-33.66 28 -34.32 28 -35 28 C-35 26.68 -35 25.36 -35 24 C-34.34 24 -33.68 24 -33 24 C-33 22.68 -33 21.36 -33 20 C-27.88888889 16 -27.88888889 16 -25 16 C-25 15.34 -25 14.68 -25 14 C-24.34 14 -23.68 14 -23 14 C-22.855625 13.4225 -22.71125 12.845 -22.5625 12.25 C-22.04166667 10.16666667 -21.52083333 8.08333333 -21 6 C-20.01 6 -19.02 6 -18 6 C-18 6.66 -18 7.32 -18 8 C-17.01 8.33 -16.02 8.66 -15 9 C-14.3125 11.0625 -14.3125 11.0625 -14 13 C-12.72382813 12.98839844 -11.44765625 12.97679687 -10.1328125 12.96484375 C-8.46354313 12.95546583 -6.79427217 12.94636563 -5.125 12.9375 C-3.86236328 12.92493164 -3.86236328 12.92493164 -2.57421875 12.91210938 C-1.76855469 12.90888672 -0.96289062 12.90566406 -0.1328125 12.90234375 C0.61081543 12.89710693 1.35444336 12.89187012 2.12060547 12.88647461 C4 13 4 13 6 14 C6 12.68 6 11.36 6 10 C5.34 10 4.68 10 4 10 C4 8.68 4 7.36 4 6 C3.34 6 2.68 6 2 6 C2 5.34 2 4.68 2 4 C1.34 4 0.68 4 0 4 C0 2.68 0 1.36 0 0 Z M7 18 C9.91765 19.9451 11.62537285 20.45276317 15 21 C15 22.65 15 24.3 15 26 C19.14093698 26.20970559 19.14093698 26.20970559 23 25 C23 24.34 23 23.68 23 23 C23.639375 22.87625 24.27875 22.7525 24.9375 22.625 C25.618125 22.41875 26.29875 22.2125 27 22 C27.33 21.34 27.66 20.68 28 20 C29.32 20 30.64 20 32 20 C32.33 20.66 32.66 21.32 33 22 C33.66 22 34.32 22 35 22 C35 22.66 35 23.32 35 24 C35.66 24 36.32 24 37 24 C37.33 24.66 37.66 25.32 38 26 C39.26352314 22.73647686 39.26352314 22.73647686 39 18 C28.44 18 17.88 18 7 18 Z M6 31 C6 31.66 6 32.32 6 33 C5.34 33 4.68 33 4 33 C4 33.99 4 34.98 4 36 C6.88834003 38.10770759 8.38462395 39 12 39 C12 38.34 12 37.68 12 37 C12.66 37 13.32 37 14 37 C14.33 35.68 14.66 34.36 15 33 C15.99 33 16.98 33 18 33 C18 32.34 18 31.68 18 31 C14.04 31 10.08 31 6 31 Z M9 58 C9 58.66 9 59.32 9 60 C7.35 60.33 5.7 60.66 4 61 C4 61.33 4 61.66 4 62 C9.28 62 14.56 62 20 62 C15.17774271 56.95932447 15.17774271 56.95932447 9 58 Z M2 68 C2 72.62 2 77.24 2 82 C9.59 82 17.18 82 25 82 C25 77.38 25 72.76 25 68 C17.41 68 9.82 68 2 68 Z " fill="#AFAEAE" transform="translate(520,465)"/>
<path d="M0 0 C1.98 0 3.96 0 6 0 C6 0.66 6 1.32 6 2 C6.66 2 7.32 2 8 2 C8 2.66 8 3.32 8 4 C8.66 4 9.32 4 10 4 C10 4.66 10 5.32 10 6 C10.99 6 11.98 6 13 6 C13 6.66 13 7.32 13 8 C13.99 8 14.98 8 16 8 C16 8.66 16 9.32 16 10 C16.66 10 17.32 10 18 10 C18 11.32 18 12.64 18 14 C6.45 14 -5.1 14 -17 14 C-17 21.59 -17 29.18 -17 37 C-11.39 37 -5.78 37 0 37 C0 36.34 0 35.68 0 35 C0.66 35 1.32 35 2 35 C2 34.01 2 33.02 2 32 C2.66 32 3.32 32 4 32 C4 31.01 4 30.02 4 29 C6.3125 27.875 6.3125 27.875 9 27 C9.99 27.66 10.98 28.32 12 29 C12 29.66 12 30.32 12 31 C12.66 31 13.32 31 14 31 C14 31.66 14 32.32 14 33 C14.66 33 15.32 33 16 33 C16 33.66 16 34.32 16 35 C17.32 35 18.64 35 20 35 C20 35.66 20 36.32 20 37 C20.66 37 21.32 37 22 37 C22.495 39.97 22.495 39.97 23 43 C9.8 43.33 -3.4 43.66 -17 44 C-17 44.99 -17 45.98 -17 47 C-16.34 47 -15.68 47 -15 47 C-15 48.32 -15 49.64 -15 51 C-14.34 51 -13.68 51 -13 51 C-12.34 52.65 -11.68 54.3 -11 56 C-10.34 56 -9.68 56 -9 56 C-9 56.66 -9 57.32 -9 58 C-8.34 58 -7.68 58 -7 58 C-7 58.66 -7 59.32 -7 60 C-5.02 60.66 -3.04 61.32 -1 62 C-1 62.66 -1 63.32 -1 64 C0.98 64.66 2.96 65.32 5 66 C5 66.66 5 67.32 5 68 C6.32 68 7.64 68 9 68 C9 68.66 9 69.32 9 70 C9.639375 70.103125 10.27875 70.20625 10.9375 70.3125 C15.06477326 71.23903073 19.00642949 72.61660629 23 74 C23 75.98 23 77.96 23 80 C22.071875 80.391875 21.14375 80.78375 20.1875 81.1875 C16.74078196 83.14739849 15.83913242 84.59760503 14 88 C13.34 88 12.68 88 12 88 C12 89.65 12 91.3 12 93 C10.35 93 8.7 93 7 93 C7 92.34 7 91.68 7 91 C6.01 91 5.02 91 4 91 C4 90.34 4 89.68 4 89 C3.01 89 2.02 89 1 89 C1 88.34 1 87.68 1 87 C0.34 87 -0.32 87 -1 87 C-1 86.34 -1 85.68 -1 85 C-1.66 85 -2.32 85 -3 85 C-3 84.34 -3 83.68 -3 83 C-3.66 83 -4.32 83 -5 83 C-5 82.34 -5 81.68 -5 81 C-5.66 81 -6.32 81 -7 81 C-7 80.34 -7 79.68 -7 79 C-7.66 79 -8.32 79 -9 79 C-9 78.01 -9 77.02 -9 76 C-9.66 76 -10.32 76 -11 76 C-11 75.01 -11 74.02 -11 73 C-11.66 73 -12.32 73 -13 73 C-13 72.01 -13 71.02 -13 70 C-13.66 70 -14.32 70 -15 70 C-15 68.68 -15 67.36 -15 66 C-15.66 66 -16.32 66 -17 66 C-17 64.68 -17 63.36 -17 62 C-17.66 62 -18.32 62 -19 62 C-19 60.02 -19 58.04 -19 56 C-19.99 56 -20.98 56 -22 56 C-22.24234375 56.65226563 -22.4846875 57.30453125 -22.734375 57.9765625 C-24.69332715 63.08490694 -26.5968657 67.68936322 -30 72 C-30.66 72 -31.32 72 -32 72 C-32 72.66 -32 73.32 -32 74 C-32.66 74 -33.32 74 -34 74 C-34 74.66 -34 75.32 -34 76 C-36.07289562 77.63820852 -38.13280065 79.14252648 -40.3125 80.625 C-40.90740234 81.04523438 -41.50230469 81.46546875 -42.11523438 81.8984375 C-46.62156301 85 -46.62156301 85 -50 85 C-50 85.66 -50 86.32 -50 87 C-51.55780332 87.67756882 -53.12150096 88.34159457 -54.6875 89 C-55.55761719 89.37125 -56.42773438 89.7425 -57.32421875 90.125 C-60.0572002 91.01870488 -62.14700934 91.16449676 -65 91 C-65 91.66 -65 92.32 -65 93 C-67.64 93 -70.28 93 -73 93 C-73.36067893 88.55162659 -73.36067893 88.55162659 -71.9375 86.375 C-69.70990321 84.79412486 -67.37309549 83.83557617 -64.84375 82.828125 C-62.01540422 81.5577663 -59.56440828 79.72948466 -57 78 C-56.34 78 -55.68 78 -55 78 C-55 77.34 -55 76.68 -55 76 C-53.51766563 74.78119174 -52.03276806 73.56517075 -50.52734375 72.375 C-48.49268277 70.54328475 -47.34871981 68.36025966 -46 66 C-45.34 66 -44.68 66 -44 66 C-44 64.68 -44 63.36 -44 62 C-43.34 62 -42.68 62 -42 62 C-42 60.68 -42 59.36 -42 58 C-41.34 58 -40.68 58 -40 58 C-40 56.02 -40 54.04 -40 52 C-39.34 52 -38.68 52 -38 52 C-38 49.36 -38 46.72 -38 44 C-48.23 43.67 -58.46 43.34 -69 43 C-69 41.02 -69 39.04 -69 37 C-64.6217488 36.97530919 -60.24353433 36.95714443 -55.86523438 36.94506836 C-54.37531834 36.94003486 -52.88540726 36.93320758 -51.39550781 36.92456055 C-49.25584696 36.91245195 -47.11625132 36.90676193 -44.9765625 36.90234375 C-43.68830566 36.89710693 -42.40004883 36.89187012 -41.07275391 36.88647461 C-38 37 -38 37 -36 38 C-36 30.08 -36 22.16 -36 14 C-45.57 14 -55.14 14 -65 14 C-65 12.68 -65 11.36 -65 10 C-64.28669525 10.0030162 -63.5733905 10.00603241 -62.83847046 10.00914001 C-56.09997801 10.0314307 -49.3624646 10.0201229 -42.62409019 9.97153378 C-39.16006094 9.94772807 -35.69699174 9.93669377 -32.23291016 9.95532227 C-28.24590122 9.97619355 -24.26033424 9.94066209 -20.2734375 9.90234375 C-19.03572601 9.91659897 -17.79801453 9.93085419 -16.52279663 9.94554138 C-10.32757976 9.98129826 -10.32757976 9.98129826 -4.88067627 7.45193481 C-2.83135551 5.10964248 -1.38681374 2.77362748 0 0 Z " fill="#AEAEAE" transform="translate(262,467)"/>
<path d="M0 0 C28.71 0 57.42 0 87 0 C87 3.63 87 7.26 87 11 C58.29 11 29.58 11 0 11 C0 7.37 0 3.74 0 0 Z " fill="#B5B4B4" transform="translate(493,589)"/>
<path d="M0 0 C1.20085236 0.00539291 1.20085236 0.00539291 2.42596436 0.01089478 C3.26491745 0.01074875 4.10387054 0.01060272 4.96824646 0.01045227 C7.75487816 0.01115167 10.54144388 0.01894531 13.32806396 0.02676392 C15.25477563 0.028628 17.18148777 0.03005195 19.10820007 0.03105164 C24.18978169 0.03487758 29.27133491 0.04470851 34.35290527 0.05575562 C39.53407405 0.0659681 44.7152474 0.07054891 49.89642334 0.07559204 C60.07026397 0.08633071 70.24408348 0.10340804 80.41790771 0.12442017 C80.41790771 3.75442017 80.41790771 7.38442017 80.41790771 11.12442017 C51.70790771 11.12442017 22.99790771 11.12442017 -6.58209229 11.12442017 C-6.58209229 0.01248037 -6.58209229 0.01248037 0 0 Z " fill="#B4B3B3" transform="translate(193.58209228515625,588.8755798339844)"/>
<path d="M0 0 C6.27 0 12.54 0 19 0 C19 2.64 19 5.28 19 8 C15.04 8 11.08 8 7 8 C7 8.66 7 9.32 7 10 C10.3 10 13.6 10 17 10 C17 12.31 17 14.62 17 17 C14.03 17.33 11.06 17.66 8 18 C8.99563342 19.22370744 8.99563342 19.22370744 10.9609375 19.0625 C12.56510766 19.02096809 14.16927436 18.9793023 15.7734375 18.9375 C18 19 18 19 21 20 C21 19.34 21 18.68 21 18 C24 17 24 17 25.9375 17.9375 C26.9584375 18.4634375 26.9584375 18.4634375 28 19 C29.32 19 30.64 19 32 19 C27.545 17.02 27.545 17.02 23 15 C23 14.34 23 13.68 23 13 C22.34 13 21.68 13 21 13 C20.89175157 11.3973218 20.81429355 9.79254252 20.75 8.1875 C20.70359375 7.29417969 20.6571875 6.40085937 20.609375 5.48046875 C21 3 21 3 22.59375 1.1875 C25.78477675 -0.38729242 28.20901777 -0.29372947 31.75 -0.1875 C32.92046875 -0.16042969 34.0909375 -0.13335938 35.296875 -0.10546875 C36.18890625 -0.07066406 37.0809375 -0.03585937 38 0 C38 0.66 38 1.32 38 2 C38.66 2 39.32 2 40 2 C40 3.98 40 5.96 40 8 C39.34 8 38.68 8 38 8 C37.67 8.99 37.34 9.98 37 11 C37.99 11.33 38.98 11.66 40 12 C41.54927088 14.78868759 42.06677128 16.43912121 41.6875 19.625 C40.16304348 24.89130435 40.16304348 24.89130435 37 27 C33.75 27.265625 33.75 27.265625 30 27.25 C28.7625 27.25515625 27.525 27.2603125 26.25 27.265625 C23 27 23 27 20 25 C19.67 25.66 19.34 26.32 19 27 C12.73 27 6.46 27 0 27 C0 18.09 0 9.18 0 0 Z M29 7 C29 7.66 29 8.32 29 9 C31.31 9.33 33.62 9.66 36 10 C35.67 9.34 35.34 8.68 35 8 C31.97065509 7.34227572 31.97065509 7.34227572 29 7 Z " fill="#B4B2B2" transform="translate(399,581)"/>
<path d="M0 0 C4.95 0 9.9 0 15 0 C15 0.66 15 1.32 15 2 C15.66 2 16.32 2 17 2 C17 3.32 17 4.64 17 6 C16.01 6 15.02 6 14 6 C14 23.49 14 40.98 14 59 C12.02 59.495 12.02 59.495 10 60 C10 60.66 10 61.32 10 62 C6.7 62 3.4 62 0 62 C0 41.54 0 21.08 0 0 Z " fill="#B0B0B0" transform="translate(443,475)"/>
<path d="M0 0 C2.31 0 4.62 0 7 0 C7.33 6.6 7.66 13.2 8 20 C8.78375 17.81375 9.5675 15.6275 10.375 13.375 C11.03628906 11.53035156 11.03628906 11.53035156 11.7109375 9.6484375 C12.84345711 6.44306381 13.93692898 3.22895402 15 0 C17.97 0 20.94 0 24 0 C24.391875 1.423125 24.78375 2.84625 25.1875 4.3125 C26.65008146 9.26980737 28.67585903 13.75655997 31.01171875 18.359375 C32.14610622 21.39038658 32.17367305 23.78939558 32 27 C29.36 27 26.72 27 24 27 C24 25.02 24 23.04 24 21 C21.03 21 18.06 21 15 21 C15 22.98 15 24.96 15 27 C9.72 27 4.44 27 -1 27 C-1.02682299 22.68745917 -1.04675244 18.37508293 -1.0625 14.0625 C-1.07087891 12.83080078 -1.07925781 11.59910156 -1.08789062 10.33007812 C-1.09111328 9.16025391 -1.09433594 7.99042969 -1.09765625 6.78515625 C-1.10289307 5.70113525 -1.10812988 4.61711426 -1.11352539 3.50024414 C-1 1 -1 1 0 0 Z M19 10 C19.33 11.32 19.66 12.64 20 14 C20.33 13.34 20.66 12.68 21 12 C20.34 11.34 19.68 10.68 19 10 Z " fill="#B4B3B3" transform="translate(313,581)"/>
<path d="M0 0 C2.31 0 4.62 0 7 0 C8.9609375 2.1171875 8.9609375 2.1171875 10.375 4.875 C10.85710937 5.77992188 11.33921875 6.68484375 11.8359375 7.6171875 C12.22007812 8.40351562 12.60421875 9.18984375 13 10 C13.33 10.66 13.66 11.32 14 12 C14.06058594 11.21753906 14.12117188 10.43507813 14.18359375 9.62890625 C14.26738281 8.61699219 14.35117187 7.60507812 14.4375 6.5625 C14.51871094 5.55316406 14.59992188 4.54382813 14.68359375 3.50390625 C15 1 15 1 16 0 C18.31 0 20.62 0 23 0 C23 8.91 23 17.82 23 27 C20.03 27 17.06 27 14 27 C12.35 23.7 10.7 20.4 9 17 C8.855625 18.464375 8.71125 19.92875 8.5625 21.4375 C8.125 25.875 8.125 25.875 7 27 C4.69 27 2.38 27 0 27 C0 18.09 0 9.18 0 0 Z " fill="#B6B3B3" transform="translate(347,581)"/>
<path d="M0 0 C1.27230469 0.01804687 2.54460937 0.03609375 3.85546875 0.0546875 C5.31919922 0.08949219 5.31919922 0.08949219 6.8125 0.125 C6.8125 0.785 6.8125 1.445 6.8125 2.125 C7.4725 2.125 8.1325 2.125 8.8125 2.125 C8.9375 4.5 8.9375 4.5 8.8125 7.125 C6.8125 9.125 6.8125 9.125 3.9921875 9.3203125 C2.90164063 9.29710937 1.81109375 9.27390625 0.6875 9.25 C-0.40820312 9.23195313 -1.50390625 9.21390625 -2.6328125 9.1953125 C-3.47585938 9.17210937 -4.31890625 9.14890625 -5.1875 9.125 C-5.1875 12.095 -5.1875 15.065 -5.1875 18.125 C-3.53135343 18.50718767 -1.86292976 18.83895102 -0.1875 19.125 C0.1425 18.795 0.4725 18.465 0.8125 18.125 C-0.1775 17.795 -1.1675 17.465 -2.1875 17.125 C-2.1875 14.815 -2.1875 12.505 -2.1875 10.125 C1.4425 10.125 5.0725 10.125 8.8125 10.125 C8.8125 15.075 8.8125 20.025 8.8125 25.125 C8.1525 25.125 7.4925 25.125 6.8125 25.125 C6.8125 25.785 6.8125 26.445 6.8125 27.125 C1.8625 27.125 -3.0875 27.125 -8.1875 27.125 C-8.1875 26.465 -8.1875 25.805 -8.1875 25.125 C-9.5075 24.465 -10.8275 23.805 -12.1875 23.125 C-12.1875 22.465 -12.1875 21.805 -12.1875 21.125 C-12.8475 21.125 -13.5075 21.125 -14.1875 21.125 C-14.24148987 18.85442623 -14.28028742 16.58348712 -14.3125 14.3125 C-14.33570313 13.04792969 -14.35890625 11.78335938 -14.3828125 10.48046875 C-14.1875 7.125 -14.1875 7.125 -12.1875 4.125 C-11.5275 4.125 -10.8675 4.125 -10.1875 4.125 C-10.1875 3.465 -10.1875 2.805 -10.1875 2.125 C-6.4507157 -0.36618953 -4.44298181 -0.0815226 0 0 Z " fill="#B3B3B3" transform="translate(386.1875,580.875)"/>
<path d="M0 0 C6.27 0 12.54 0 19 0 C19 2.64 19 5.28 19 8 C15.04 8 11.08 8 7 8 C7 8.66 7 9.32 7 10 C10.3 10 13.6 10 17 10 C17 12.31 17 14.62 17 17 C14.03 17.33 11.06 17.66 8 18 C9.00390764 19.23224945 9.00390764 19.23224945 11.03125 19.0625 C12.25328125 19.0315625 12.25328125 19.0315625 13.5 19 C14.99951954 18.96203748 16.50070956 18.95386799 18 19 C19 20 19 20 19 27 C12.73 27 6.46 27 0 27 C0 18.09 0 9.18 0 0 Z " fill="#B5B4B4" transform="translate(443,581)"/>
<path d="M0 0 C2.12472576 -0.05386629 4.24983652 -0.09273071 6.375 -0.125 C7.55835938 -0.14820313 8.74171875 -0.17140625 9.9609375 -0.1953125 C13 0 13 0 15 2 C15.33333333 7.33333333 15.33333333 7.33333333 14 10 C12.68 10 11.36 10 10 10 C10 9.34 10 8.68 10 8 C7.36 8.33 4.72 8.66 2 9 C2 11.97 2 14.94 2 18 C5.17051672 19.58525836 8.25474316 18.54257255 11.6875 18.05859375 C12.8321875 18.02958984 12.8321875 18.02958984 14 18 C16 20 16 20 16.3125 22.5 C16.209375 23.325 16.10625 24.15 16 25 C12.47960293 27.34693138 10.79942991 27.32723764 6.625 27.375 C4.94277344 27.41753906 4.94277344 27.41753906 3.2265625 27.4609375 C-0.62764723 26.91033611 -2.28253402 25.73782153 -5 23 C-5 22.34 -5 21.68 -5 21 C-5.66 21 -6.32 21 -7 21 C-7.05398987 18.72942623 -7.09278742 16.45848712 -7.125 14.1875 C-7.14820313 12.92292969 -7.17140625 11.65835938 -7.1953125 10.35546875 C-7 7 -7 7 -5 4 C-4.34 4 -3.68 4 -3 4 C-3 3.34 -3 2.68 -3 2 C-2.01 2 -1.02 2 0 2 C0 1.34 0 0.68 0 0 Z " fill="#B5B4B4" transform="translate(471,581)"/>
<path d="M0 0 C3.64581687 -0.02887512 7.29160463 -0.04675585 10.9375 -0.0625 C12.49887695 -0.07506836 12.49887695 -0.07506836 14.09179688 -0.08789062 C15.08115234 -0.09111328 16.07050781 -0.09433594 17.08984375 -0.09765625 C18.46450806 -0.10551147 18.46450806 -0.10551147 19.86694336 -0.11352539 C22 0 22 0 23 1 C23.125 4 23.125 4 23 7 C22.67 7.33 22.34 7.66 22 8 C19.69 8 17.38 8 15 8 C15 14.27 15 20.54 15 27 C12.36 27 9.72 27 7 27 C6.67 20.73 6.34 14.46 6 8 C4.02 8 2.04 8 0 8 C-1.125 2.25 -1.125 2.25 0 0 Z " fill="#B5B4B4" transform="translate(286,581)"/>
<path d="M0 0 C0.99 0.495 0.99 0.495 2 1 C4.62431149 1.09305156 7.22184796 1.12579615 9.84619141 1.11352539 C10.65602982 1.11367142 11.46586823 1.11381744 12.30024719 1.1139679 C14.98404596 1.11326977 17.66777581 1.10548204 20.3515625 1.09765625 C22.20958417 1.09579171 24.06760633 1.09436798 25.92562866 1.09336853 C30.82142488 1.08954615 35.71719155 1.07971823 40.61297607 1.06866455 C45.60656331 1.05844444 50.60015532 1.05386962 55.59375 1.04882812 C65.39584634 1.03809573 75.19792071 1.02102264 85 1 C84.67 2.32 84.34 3.64 84 5 C84 4.01 84 3.02 84 2 C57.6 2 31.2 2 4 2 C4 2.99 4 3.98 4 5 C2.68 5 1.36 5 0 5 C0 3.35 0 1.7 0 0 Z " fill="#BCBBBB" transform="translate(187,592)"/>
<path d="M0 0 C10.23 0 20.46 0 31 0 C31 0.33 31 0.66 31 1 C29.75126099 1.029729 29.75126099 1.029729 28.47729492 1.06005859 C25.385235 1.13820742 22.29356617 1.22490206 19.2019043 1.31738281 C17.2070464 1.37444092 15.2119146 1.42164442 13.21679688 1.46875 C11.33637695 1.52675781 11.33637695 1.52675781 9.41796875 1.5859375 C7.68196411 1.63306885 7.68196411 1.63306885 5.91088867 1.68115234 C2.80872972 1.79471033 2.80872972 1.79471033 0 4 C0 2.68 0 1.36 0 0 Z " fill="#BEBEBE" transform="translate(193,504)"/>
<path d="M0 0 C2 1 2 1 2 1 Z " fill="#7F7F7F" transform="translate(345,608)"/>
<path d="" fill="#000000" transform="translate(0,0)"/>
<path d="" fill="#000000" transform="translate(0,0)"/>
<path d="" fill="#000000" transform="translate(0,0)"/>
<path d="" fill="#000000" transform="translate(0,0)"/>
<path d="" fill="#000000" transform="translate(0,0)"/>
<path d="" fill="#000000" transform="translate(0,0)"/>
<path d="" fill="#000000" transform="translate(0,0)"/>
<path d="" fill="#000000" transform="translate(0,0)"/>
<path d="" fill="#000000" transform="translate(0,0)"/>
<path d="" fill="#000000" transform="translate(0,0)"/>
<path d="" fill="#000000" transform="translate(0,0)"/>
<path d="" fill="#000000" transform="translate(0,0)"/>
<path d="" fill="#000000" transform="translate(0,0)"/>
<path d="" fill="#000000" transform="translate(0,0)"/>
<path d="" fill="#FFFFFF" transform="translate(0,0)"/>
<path d="" fill="#000000" transform="translate(0,0)"/>
<path d="" fill="#000000" transform="translate(0,0)"/>
<path d="" fill="#000000" transform="translate(0,0)"/>
<path d="" fill="#000000" transform="translate(0,0)"/>
<path d="" fill="#000000" transform="translate(0,0)"/>
<path d="" fill="#000000" transform="translate(0,0)"/>
<path d="" fill="#000000" transform="translate(0,0)"/>
<path d="" fill="#000000" transform="translate(0,0)"/>
<path d="" fill="#000000" transform="translate(0,0)"/>
<path d="" fill="#000000" transform="translate(0,0)"/>
<path d="" fill="#000000" transform="translate(0,0)"/>
<path d="" fill="#000000" transform="translate(0,0)"/>
<path d="" fill="#000000" transform="translate(0,0)"/>
<path d="" fill="#FF0000" transform="translate(0,0)"/>
<path d="" fill="#000000" transform="translate(0,0)"/>
<path d="" fill="#000000" transform="translate(0,0)"/>
<path d="" fill="#000000" transform="translate(0,0)"/>
<path d="" fill="#000000" transform="translate(0,0)"/>
<path d="" fill="#FF0000" transform="translate(0,0)"/>
<path d="" fill="#000000" transform="translate(0,0)"/>
<path d="" fill="#000000" transform="translate(0,0)"/>
<path d="" fill="#FF0000" transform="translate(0,0)"/>
</svg>
