<?xml version="1.0" encoding="UTF-8"?>
<svg version="1.1" xmlns="http://www.w3.org/2000/svg" width="625" height="625">
<path d="M0 0 C206.25 0 412.5 0 625 0 C625 206.25 625 412.5 625 625 C418.75 625 212.5 625 0 625 C0 418.75 0 212.5 0 0 Z " fill="#FEFEFE" transform="translate(0,0)"/>
<path d="M0 0 C6.85682807 1.87004402 11.05664694 7.87194632 15.5 13.0625 C21.27900073 19.70192973 26.74826665 23.81905971 35 27 C34.505 25.515 34.505 25.515 34 24 C33.9314505 22.10529184 33.91519628 20.2083166 33.9375 18.3125 C33.94652344 17.31863281 33.95554687 16.32476562 33.96484375 15.30078125 C33.97644531 14.54152344 33.98804688 13.78226563 34 13 C36.3671875 12.8671875 36.3671875 12.8671875 39 13 C42.21191503 16.21191503 44.1637707 19.86848407 46 24 C46 24.66 46 25.32 46 26 C46.66 26 47.32 26 48 26 C48.495 27.485 48.495 27.485 49 29 C50.8644281 30.81346266 50.8644281 30.81346266 53.0625 32.5625 C54.41159519 33.66501188 55.73388897 34.80310688 57 36 C57 36.66 57 37.32 57 38 C57.78375 38.309375 58.5675 38.61875 59.375 38.9375 C62 40 62 40 64 41 C64 41.66 64 42.32 64 43 C65.65 43.33 67.3 43.66 69 44 C69 44.66 69 45.32 69 46 C70.98 46.33 72.96 46.66 75 47 C75 47.66 75 48.32 75 49 C75.81082031 49.23589844 76.62164062 49.47179687 77.45703125 49.71484375 C81.77736793 51.281978 85.66136849 53.36358607 89.6875 55.5625 C91.19028509 56.37837058 92.69414905 57.1922579 94.19921875 58.00390625 C94.85752686 58.36299072 95.51583496 58.7220752 96.1940918 59.09204102 C98.1512842 60.13021329 98.1512842 60.13021329 101 61 C102.56618444 62.69102522 104.05780525 64.45206388 105.5 66.25 C106.66015625 67.68085938 106.66015625 67.68085938 107.84375 69.140625 C110.89459398 73.18630941 113.08849791 77.16646465 115.0625 81.8125 C118.56489311 88.95610058 124.85488083 93.69971401 132 97 C132 97.66 132 98.32 132 99 C132.680625 99.226875 133.36125 99.45375 134.0625 99.6875 C137.02716935 101.0121395 139.37826835 102.70735089 141.96875 104.64453125 C144.28464039 106.18994272 146.66513206 107.32413142 149.1875 108.5 C153.15717834 110.45160746 155.9183227 111.93126709 158 116 C158.65884193 121.83545709 157.94701708 125.79360316 155 131 C153.09658786 133.28409456 151.6047599 134.34697929 149 136 C145.125 136.3125 145.125 136.3125 142 136 C142 133.69 142 131.38 142 129 C141.319375 129.78375 140.63875 130.5675 139.9375 131.375 C136.35090228 134.58004477 132.85710523 136 128 136 C128.66 132.7 129.32 129.4 130 126 C128.68 126 127.36 126 126 126 C124.25 123.5 124.25 123.5 123 121 C122.175 121.165 121.35 121.33 120.5 121.5 C116.58727683 122.05896045 112.94816827 122.06807187 109 122 C109 121.01 109 120.02 109 119 C104.02638346 117.24265549 99.2584002 115.67415387 94 115 C94 114.34 94 113.68 94 113 C93.030625 112.9175 92.06125 112.835 91.0625 112.75 C86.30769905 112.07760391 82.30173807 110.04124653 78 108 C76.64876065 107.4099175 75.29486502 106.82585183 73.9375 106.25 C72.968125 105.8375 71.99875 105.425 71 105 C71 105.99 71 106.98 71 108 C71.7425 108.226875 72.485 108.45375 73.25 108.6875 C76.59878921 110.28578576 77.72429565 112.07409441 80 115 C81.1878252 116.08537873 82.39883535 117.14562863 83.625 118.1875 C88.69379028 122.51728908 93.32371206 127.25505531 98 132 C100.44623107 134.46066311 102.88791955 136.89654113 105.4375 139.25 C111.11155033 145.33922474 114.69317749 150.56238106 115 159 C116.32 159 117.64 159 119 159 C118.66258502 161.44625862 118.21148028 162.76584087 116.54296875 164.61328125 C112.64697147 166.73782662 108.9272347 166.43456423 104.5625 166.375 C103.71623047 166.38660156 102.86996094 166.39820313 101.99804688 166.41015625 C97.27242671 166.38795287 93.72489719 166.25832896 90 163 C90 162.01 90 161.02 90 160 C92.64 159.67 95.28 159.34 98 159 C98.50196294 155.71073505 98.50196294 155.71073505 98 152 C92.20438546 145.92840382 84.85431752 143.46101949 77 141 C77 140.67 77 140.34 77 140 C80.96 140 84.92 140 89 140 C86.83144208 134.44895018 86.83144208 134.44895018 83 130 C83 129.34 83 128.68 83 128 C80.69 127.34 78.38 126.68 76 126 C76 125.34 76 124.68 76 124 C75.28972656 123.72285156 74.57945312 123.44570312 73.84765625 123.16015625 C70.04344207 121.61029122 66.34179175 119.86017173 62.62109375 118.12109375 C57.9534603 116.12465441 54.09704402 115.83949706 49 115.8125 C47.1746875 115.79123047 47.1746875 115.79123047 45.3125 115.76953125 C42.21132174 115.98529719 40.5337665 116.26412631 38 118 C37.67 118.66 37.34 119.32 37 120 C36.34 120 35.68 120 35 120 C33.92725987 112.15026664 35.82015603 107.73735668 40.37109375 101.34765625 C42.14985039 99.01877528 42.14985039 99.01877528 43 96 C33.81873461 102.75093043 27.71399527 112.28596425 24 123 C23.71878758 125.26296407 23.51295111 127.53630662 23.375 129.8125 C23.30023438 130.97394531 23.22546875 132.13539063 23.1484375 133.33203125 C23.07496094 134.65267578 23.07496094 134.65267578 23 136 C19.46766245 134.82255415 19.13691925 134.04394359 17.3125 130.9375 C16.87550781 130.20402344 16.43851562 129.47054687 15.98828125 128.71484375 C15.66214844 128.14894531 15.33601563 127.58304687 15 127 C15.92407796 133.9965903 16.83793456 137.09603783 22 142 C23.99616554 143.99616554 23.40983427 147.81701963 23.5625 150.5625 C23.62727539 151.62887695 23.62727539 151.62887695 23.69335938 152.71679688 C23.79971777 154.47761912 23.90038846 156.2387832 24 158 C17.7950962 157.7242265 13.89839001 156.89359206 9 153 C13.24867741 158.46258525 16.3754127 161.65499806 23.4375 162.625 C26.40977171 163.2047158 27.65702329 163.60642017 29.66796875 165.9140625 C30.64851542 167.48609175 31.60400702 169.07399823 32.53515625 170.67578125 C35.70341074 175.70274505 40.30196877 179.27332387 46 181 C44.99562793 183.73919656 44.37175596 184.80379547 41.75 186.1875 C38.84478363 187.04585938 35.99846098 187.5816101 33 188 C38.85298493 188.10556486 44.49745078 187.95723572 50.3125 187.25 C58.53713927 186.53267782 65.98478429 188.87067825 73.51171875 192.06640625 C76.43063212 193.16157155 79.23349736 193.65130729 82.3125 194.125 C83.91544922 194.37636719 83.91544922 194.37636719 85.55078125 194.6328125 C86.35902344 194.75398437 87.16726563 194.87515625 88 195 C87.22162498 200.81785432 84.37513608 203.35117109 80 207 C76.73535626 209.27858808 74.09241264 211 70 211 C70 211.66 70 212.32 70 213 C73.96 212.67 77.92 212.34 82 212 C82 211.34 82 210.68 82 210 C83.64821244 208.96986723 85.32111559 207.97934924 87 207 C88.40933706 206.01912297 89.80452488 205.01770847 91.1875 204 C91.86167969 203.505 92.53585937 203.01 93.23046875 202.5 C95.24393146 200.93312039 95.24393146 200.93312039 97 198 C99.07202148 197.69116211 99.07202148 197.69116211 101.62109375 197.77734375 C102.55228027 197.79732422 103.4834668 197.81730469 104.44287109 197.83789062 C105.9252124 197.88719727 105.9252124 197.88719727 107.4375 197.9375 C115.17858086 198.08277833 122.46201492 198.0197472 130 196 C125.08001071 201.06056041 120.49641809 205.11270307 114 208 C113.34 208 112.68 208 112 208 C112 208.66 112 209.32 112 210 C105.53205339 213.3128507 99.04108586 216.07589308 92.11328125 218.25390625 C89.99278773 218.94772465 89.99278773 218.94772465 88.0859375 219.9921875 C75.33828902 226.15116373 58.54165636 226.62999853 45.34375 222.10546875 C43 221 43 221 42 219 C40.30096969 218.30787968 38.60193073 217.61578054 36.90283203 216.92382812 C33.79331163 215.41415078 31.40060805 213.12392376 28.9375 210.75 C28.4209082 210.26273438 27.90431641 209.77546875 27.37207031 209.2734375 C23.62899149 205.70275285 20.104096 202.13879467 17 198 C17 197.01 17 196.02 17 195 C16.34 195 15.68 195 15 195 C14.4225 193.948125 13.845 192.89625 13.25 191.8125 C11.95059149 189.5156582 10.73954823 187.69885264 9 185.6875 C6.10685071 181.79983064 4.64801753 177.52840215 3 173 C2.5875 171.9275 2.175 170.855 1.75 169.75 C0.92568678 166.72751818 0.85149164 164.11867558 1 161 C0.34 161 -0.32 161 -1 161 C-2.03542656 170.26131537 0.13861855 178.0058898 2.86572266 186.7878418 C3.13690918 187.662229 3.4080957 188.53661621 3.6875 189.4375 C3.93886719 190.21996094 4.19023437 191.00242187 4.44921875 191.80859375 C5 194 5 194 5 198 C5.66 198 6.32 198 7 198 C7 199.32 7 200.64 7 202 C7.66 202 8.32 202 9 202 C9.44730469 202.90621094 9.89460938 203.81242188 10.35546875 204.74609375 C13.74749339 211.59032867 17.19534573 218.37253772 21 225 C4.78676471 223.27205882 4.78676471 223.27205882 1 221 C1 220.34 1 219.68 1 219 C-0.8871875 218.8453125 -0.8871875 218.8453125 -2.8125 218.6875 C-5.25924549 218.36328461 -6.79102409 218.12134085 -8.9375 216.875 C-10.53369912 214.05817802 -10.64629314 211.18336174 -11 208 C-11.33 207.67 -11.66 207.34 -12 207 C-14.06289647 195.07435035 -14.21501102 183.00719208 -14.25 170.9375 C-14.25508575 170.2244873 -14.26017151 169.51147461 -14.26541138 168.77685547 C-14.38474813 147.95543356 -8.77557951 126.83481536 4 110 C4.66 110 5.32 110 6 110 C6.495 108.515 6.495 108.515 7 107 C7.66 107 8.32 107 9 107 C9 106.34 9 105.68 9 105 C-2.00924592 109.71127375 -9.297723 124.4052781 -13.80859375 134.87109375 C-15.23200033 138.60928611 -16.50732189 142.36609549 -17.6875 146.1875 C-17.89004395 146.82123535 -18.09258789 147.4549707 -18.30126953 148.10791016 C-22.20429936 161.425087 -22.28194115 175.25432384 -22.125 189 C-22.11492984 190.56509831 -22.10581126 192.13020304 -22.09765625 193.6953125 C-22.07600877 197.46370563 -22.04171227 201.23177778 -22 205 C-22.66 205 -23.32 205 -24 205 C-31.33369072 191.68514348 -34.18446527 178.78176834 -34.125 163.6875 C-34.13080078 162.18606445 -34.13080078 162.18606445 -34.13671875 160.65429688 C-34.13542969 159.69974609 -34.13414062 158.74519531 -34.1328125 157.76171875 C-34.13168457 156.89506592 -34.13055664 156.02841309 -34.12939453 155.13549805 C-34 153 -34 153 -33 151 C-33.68707031 151.28875 -34.37414062 151.5775 -35.08203125 151.875 C-35.98308594 152.24625 -36.88414062 152.6175 -37.8125 153 C-38.70582031 153.37125 -39.59914062 153.7425 -40.51953125 154.125 C-43 155 -43 155 -46 155 C-44.31326082 150.50202887 -42.18326108 146.27113698 -40 142 C-39.34 142 -38.68 142 -38 142 C-37.814375 140.39125 -37.814375 140.39125 -37.625 138.75 C-37.10356064 135.62136385 -36.59911746 133.66519576 -35 131 C-34.34 131 -33.68 131 -33 131 C-32.90203125 130.38253906 -32.8040625 129.76507813 -32.703125 129.12890625 C-31.60941374 122.93435198 -29.79970361 117.62658881 -27 112 C-33.30933328 112.88145097 -38.61968347 114.01431928 -44.20703125 117.11328125 C-46.72682462 118.35945357 -49.22321235 118.72232123 -52 119 C-52 116 -52 116 -50.625 114.3125 C-49 113 -49 113 -47 113 C-46.67 112.01 -46.34 111.02 -46 110 C-45.34 110 -44.68 110 -44 110 C-44 109.34 -44 108.68 -44 108 C-40.8880031 105.06701177 -37.41871923 102.5629074 -34 100 C-33.11957031 99.33226562 -32.23914063 98.66453125 -31.33203125 97.9765625 C-23.15075299 92.13773768 -14.32685164 88.48600575 -5.0078125 84.83447266 C-2.9630808 83.9846559 -0.98052847 82.99026423 1 82 C-5.6 82 -12.2 82 -19 82 C-19 81.34 -19 80.68 -19 80 C-22.3 79.67 -25.6 79.34 -29 79 C-29 78.34 -29 77.68 -29 77 C-29.66 76.67 -30.32 76.34 -31 76 C-30.1234375 75.96261719 -29.246875 75.92523438 -28.34375 75.88671875 C-19.53437844 75.43013547 -10.81770192 74.58331275 -2.0625 73.5 C-0.99 73.36940186 0.0825 73.23880371 1.1875 73.10424805 C2.18652344 72.97703369 3.18554688 72.84981934 4.21484375 72.71875 C5.11323975 72.60466797 6.01163574 72.49058594 6.93725586 72.37304688 C8.98489961 72.20509392 8.98489961 72.20509392 10 71 C17.50077961 69.88118623 24.92754078 69.84633971 32.5 69.875 C33.73073242 69.87693359 34.96146484 69.87886719 36.22949219 69.88085938 C45.51580425 69.9246972 54.74419886 70.25953591 64 71 C61.11446494 69.55723247 58.29419979 69.45386374 55.09375 69.0625 C54.41324585 68.97750244 53.7327417 68.89250488 53.03161621 68.80493164 C50.85482679 68.53312935 48.67750486 68.26600611 46.5 68 C43.63488167 67.64999437 40.77041112 67.29524463 37.90625 66.9375 C36.63072266 66.78152344 35.35519531 66.62554687 34.04101562 66.46484375 C31 66 31 66 29 65 C26.48262805 64.75126701 23.98007323 64.55229507 21.45703125 64.38671875 C19.89123171 64.27208839 18.3254779 64.15683193 16.75976562 64.04101562 C14.30773327 63.86366966 11.85569866 63.69034898 9.40258789 63.52856445 C-1.54661561 62.79667481 -11.49237648 61.21573195 -22 58 C-24.33252363 57.33050586 -26.66572165 56.66335018 -29 56 C-37.31615902 53.59415466 -46.36660172 50.67611794 -51.26171875 43.0390625 C-52.69448257 39.08190529 -52.10253738 34.99395993 -51 31 C-49 29 -49 29 -46 28.8125 C-43 29 -43 29 -41 30 C-41 30.66 -41 31.32 -41 32 C-40.484375 32.103125 -39.96875 32.20625 -39.4375 32.3125 C-36.13973565 33.24263866 -33.13366668 34.61395512 -30 36 C-30 36.66 -30 37.32 -30 38 C-29.071875 38.28875 -28.14375 38.5775 -27.1875 38.875 C-24 40 -24 40 -21 42 C-19.05791164 42.67378576 -17.0961957 43.29183453 -15.125 43.875 C-11.62107498 44.91839101 -8.1218048 45.96090916 -4.640625 47.078125 C2.18899591 49.267525 8.90822205 50.91988953 16 52 C14.28940462 48.95373426 12.40297818 46.16131854 10.265625 43.40625 C9.52892578 42.44912109 9.52892578 42.44912109 8.77734375 41.47265625 C7.75323049 40.14995242 6.71920908 38.83486498 5.67578125 37.52734375 C1.96228004 32.65152652 1.96228004 32.65152652 2.171875 29.03125 C2.44515625 28.3609375 2.7184375 27.690625 3 27 C4.98 27 6.96 27 9 27 C9.495 28.485 9.495 28.485 10 30 C10.5775 30.12375 11.155 30.2475 11.75 30.375 C15.04610957 31.29058599 16.59316567 33.59316567 19 36 C21.10378366 37.37509882 23.24013099 38.64643293 25.42578125 39.88671875 C25.94527344 40.25410156 26.46476562 40.62148437 27 41 C27 41.66 27 42.32 27 43 C27.680625 43.0825 28.36125 43.165 29.0625 43.25 C32.06470915 44.01652148 34.25411993 45.28533757 36.88671875 46.87890625 C41.04413172 49.08440999 45.5534376 50.4883296 50 52 C50 52.66 50 53.32 50 54 C51.175625 54.0825 52.35125 54.165 53.5625 54.25 C60.55372682 55.02802054 67.25446676 57.08192517 74 59 C74.67482422 59.19062012 75.34964844 59.38124023 76.04492188 59.57763672 C80.03382269 60.70514302 84.01848124 61.84664788 88 63 C80.83633856 59.01158309 74.21454398 56.34301011 66.1796875 54.71484375 C62.14769798 53.8083891 58.3863171 52.4469752 54.53515625 50.96484375 C52.77294126 50.29417025 50.98719588 49.68349871 49.1875 49.12109375 C45.27113277 47.74364596 41.64291434 45.9863566 37.9375 44.125 C37.24333984 43.78597656 36.54917969 43.44695312 35.83398438 43.09765625 C31.81660241 41.09087286 28.45695239 38.90310967 25 36 C23.25603884 35.01704007 21.51187481 34.03438709 19.76171875 33.0625 C14.89686389 30.12848554 10.9404898 26.041528 7 22 C6.0925 21.154375 5.185 20.30875 4.25 19.4375 C2.11767389 17.12748005 1.33978908 16.05810168 1 13 C0.34 13 -0.32 13 -1 13 C-2.17673198 10.64653604 -2.16623866 9.1193967 -2.1875 6.5 C-2.20167969 5.7059375 -2.21585937 4.911875 -2.23046875 4.09375 C-2 2 -2 2 0 0 Z " fill="#D71C1F" transform="translate(263,126)"/>
<path d="M0 0 C3.3 0 6.6 0 10 0 C10 0.66 10 1.32 10 2 C12.475 2.495 12.475 2.495 15 3 C15 4.98 15 6.96 15 9 C14.34 9 13.68 9 13 9 C13 9.66 13 10.32 13 11 C19.27 11 25.54 11 32 11 C32 10.34 32 9.68 32 9 C33.25 7.3125 33.25 7.3125 35 6 C37.62660052 6.26911891 38.78287716 6.79233893 40.703125 8.62890625 C41.21359375 9.26699219 41.7240625 9.90507812 42.25 10.5625 C42.77078125 11.20316406 43.2915625 11.84382813 43.828125 12.50390625 C44.21484375 12.99761719 44.6015625 13.49132812 45 14 C43.57632161 14.94911893 42.15231659 15.89775202 40.7265625 16.84375 C39.05629084 17.96230297 37.40278386 19.10576502 35.75 20.25 C33 22 33 22 31 22 C31.33 19.03 31.66 16.06 32 13 C22.76 13.33 13.52 13.66 4 14 C6.475 15.485 6.475 15.485 9 17 C8.505 18.485 8.505 18.485 8 20 C7.34 20 6.68 20 6 20 C6 20.66 6 21.32 6 22 C7.58409994 21.88512252 9.16728963 21.75765492 10.75 21.625 C11.63171875 21.55539062 12.5134375 21.48578125 13.421875 21.4140625 C15.99066382 21.00149945 17.75841015 20.28839043 20 19 C20 18.34 20 17.68 20 17 C21.734375 16.26171875 21.734375 16.26171875 24 16 C26.140625 17.58203125 26.140625 17.58203125 28.25 19.8125 C28.95640625 20.54082031 29.6628125 21.26914062 30.390625 22.01953125 C32 24 32 24 32 26 C31.01 26 30.02 26 29 26 C28.731875 26.639375 28.46375 27.27875 28.1875 27.9375 C27 30 27 30 24 31 C24 31.66 24 32.32 24 33 C22.02 33.495 22.02 33.495 20 34 C20 34.66 20 35.32 20 36 C19.34 36 18.68 36 18 36 C18.85343696 38.23760846 18.85343696 38.23760846 21.3828125 39.0546875 C26.18742223 40.31031985 30.93563198 40.71673245 35.875 41.125 C36.84953125 41.21136719 37.8240625 41.29773438 38.828125 41.38671875 C41.21826446 41.59761341 43.60877625 41.80184637 46 42 C46 42.66 46 43.32 46 44 C45.236875 44.4125 44.47375 44.825 43.6875 45.25 C40.40698115 47.38615181 39.50066356 49.44579683 38 53 C35.69 53 33.38 53 31 53 C31 59.27 31 65.54 31 72 C26.55007426 73.77997029 24.56288469 74.21222719 20 74 C20 72.35 20 70.7 20 69 C13.4 69 6.8 69 0 69 C0 70.65 0 72.3 0 74 C-3.94020358 75.26086514 -6.47580299 75 -11 75 C-11 67.41 -11 59.82 -11 52 C-14.3 52.99 -17.6 53.98 -21 55 C-22.65 55 -24.3 55 -26 55 C-24.36822576 51.73645152 -20.80451857 51.12516314 -17.5625 49.8125 C-11.42429106 47.24978066 -6.11750462 44.37027899 -0.8203125 40.28515625 C1 39 1 39 3 39 C2.34 37.02 1.68 35.04 1 33 C0.34 33 -0.32 33 -1 33 C-1 32.34 -1 31.68 -1 31 C-2.04800781 31.5775 -3.09601563 32.155 -4.17578125 32.75 C-5.55450902 33.50032804 -6.93342514 34.25031008 -8.3125 35 C-9.00279297 35.3815625 -9.69308594 35.763125 -10.40429688 36.15625 C-15.66015625 39 -15.66015625 39 -19 39 C-19 39.66 -19 40.32 -19 41 C-20.32 41 -21.64 41 -23 41 C-23 40.34 -23 39.68 -23 39 C-22.34 39 -21.68 39 -21 39 C-21 38.34 -21 37.68 -21 37 C-19.3545622 35.31237149 -17.68711423 33.6459651 -16 32 C-15.67 31.34 -15.34 30.68 -15 30 C-14.34 30 -13.68 30 -13 30 C-12.73445313 29.29488281 -12.46890625 28.58976562 -12.1953125 27.86328125 C-10.93501033 24.84432214 -9.46042006 22.04814924 -7.875 19.1875 C-7.33617187 18.21167969 -6.79734375 17.23585938 -6.2421875 16.23046875 C-5.83226562 15.49441406 -5.42234375 14.75835937 -5 14 C-8.3 13.67 -11.6 13.34 -15 13 C-15.1546875 15.1346875 -15.1546875 15.1346875 -15.3125 17.3125 C-15.51239672 20.07107468 -15.66279895 21.55754545 -17.3515625 23.7734375 C-19.88229196 25.65649212 -21.94763272 25.32471992 -25 25 C-27 23 -27 23 -27.5625 20.25 C-26.82201668 15.97165196 -25.02211463 15.00720999 -21.69140625 12.45703125 C-19.52403395 10.58998767 -18.72542431 8.74049185 -18 6 C-17.34 6 -16.68 6 -16 6 C-15.67 7.65 -15.34 9.3 -15 11 C-8.73 11 -2.46 11 4 11 C3.01 8.36 2.02 5.72 1 3 C0.67 2.01 0.34 1.02 0 0 Z " fill="#303030" transform="translate(424,378)"/>
<path d="M0 0 C1.9375 0.3125 1.9375 0.3125 4 1 C4.495 2.485 4.495 2.485 5 4 C6.33076989 4.34342449 7.66431979 4.67619874 9 5 C9.66 5.99 10.32 6.98 11 8 C10.01 8.33 9.02 8.66 8 9 C8.00222061 9.7052179 8.00444122 10.41043579 8.00672913 11.13702393 C8.02677753 17.78747187 8.04199736 24.43791137 8.05181217 31.08838272 C8.0570277 34.50733989 8.0641012 37.92627206 8.07543945 41.34521484 C8.0883967 45.27701517 8.09323922 49.20880542 8.09765625 53.140625 C8.10281754 54.36678528 8.10797882 55.59294556 8.11329651 56.85626221 C8.11337204 57.99714294 8.11344757 59.13802368 8.11352539 60.31347656 C8.115746 61.31719299 8.11796661 62.32090942 8.12025452 63.3550415 C8.01216762 65.73237715 7.68064995 67.7289895 7 70 C2.46298506 71.45184478 -1.18061476 72.23509196 -6 72 C-6 70.35 -6 68.7 -6 67 C-7.2065625 66.5359375 -7.2065625 66.5359375 -8.4375 66.0625 C-11 65 -11 65 -12 64 C-13.34747084 63.76924918 -14.70377565 63.58846937 -16.0625 63.4375 C-17.361875 63.293125 -18.66125 63.14875 -20 63 C-20 62.01 -20 61.02 -20 60 C-23.63 60 -27.26 60 -31 60 C-31 60.99 -31 61.98 -31 63 C-35.455 63.495 -35.455 63.495 -40 64 C-40 57.07 -40 50.14 -40 43 C-42.97 43.495 -42.97 43.495 -46 44 C-34.46153846 34 -34.46153846 34 -29 34 C-29 32.68 -29 31.36 -29 30 C-29.66 30 -30.32 30 -31 30 C-31.33 28.68 -31.66 27.36 -32 26 C-33.5159375 26.86625 -33.5159375 26.86625 -35.0625 27.75 C-38.70833333 29.83333333 -42.35416667 31.91666667 -46 34 C-44.37096774 27.48387097 -44.37096774 27.48387097 -42.5625 25.125 C-40.71280602 22.60941618 -39.8295911 20.19605697 -38.8125 17.25 C-38.46832031 16.26515625 -38.12414062 15.2803125 -37.76953125 14.265625 C-37.51558594 13.51796875 -37.26164062 12.7703125 -37 12 C-36.34 12 -35.68 12 -35 12 C-35 11.01 -35 10.02 -35 9 C-29.06 10.485 -29.06 10.485 -23 12 C-23 12.99 -23 13.98 -23 15 C-23.99 15.33 -24.98 15.66 -26 16 C-26.33 16.66 -26.66 17.32 -27 18 C-24.03 18 -21.06 18 -18 18 C-17.67 17.01 -17.34 16.02 -17 15 C-16.34 15 -15.68 15 -15 15 C-15 14.34 -15 13.68 -15 13 C-12 13 -12 13 -9.3125 15.25 C-7 18 -7 18 -7 22 C-7.66 22 -8.32 22 -9 22 C-9.2475 22.53625 -9.495 23.0725 -9.75 23.625 C-11.29696975 26.56424252 -13.13014369 29.25754408 -15 32 C-13.4221875 31.9690625 -13.4221875 31.9690625 -11.8125 31.9375 C-8 32 -8 32 -3 33 C-3 24.42 -3 15.84 -3 7 C-12.24 7 -21.48 7 -31 7 C-31 6.34 -31 5.68 -31 5 C-30.16750732 4.9906543 -29.33501465 4.98130859 -28.47729492 4.97167969 C-25.38497711 4.92763634 -22.29365054 4.86601225 -19.2019043 4.79248047 C-17.20710869 4.75041351 -15.21191918 4.72862136 -13.21679688 4.70703125 C-11.96318359 4.67480469 -10.70957031 4.64257812 -9.41796875 4.609375 C-7.68196411 4.5779541 -7.68196411 4.5779541 -5.91088867 4.54589844 C-2.88013147 4.27532735 -2.88013147 4.27532735 -1.09887695 1.96191406 C-0.73624756 1.31448242 -0.37361816 0.66705078 0 0 Z " fill="#333333" transform="translate(298,379)"/>
<path d="M0 0 C4.84659077 0.59104765 8.60748167 1.97944157 13 4 C13 4.99 13 5.98 13 7 C13.515625 7.0825 14.03125 7.165 14.5625 7.25 C18.11629969 8.34347683 20.86110581 9.98636976 24 12 C25.1845131 15.55353929 25.26641894 18.27013478 25 22 C23.4375 23.6875 23.4375 23.6875 22 25 C22.22757731 27.16299211 22.22757731 27.16299211 23 29 C22.34 29 21.68 29 21 29 C21.00523682 29.55985596 21.01047363 30.11971191 21.01586914 30.6965332 C21.03666691 33.23517737 21.04966904 35.77380359 21.0625 38.3125 C21.07087891 39.19357422 21.07925781 40.07464844 21.08789062 40.98242188 C21.09111328 41.82998047 21.09433594 42.67753906 21.09765625 43.55078125 C21.10289307 44.33106689 21.10812988 45.11135254 21.11352539 45.9152832 C21 48 21 48 20 51 C16.58517997 53.56111503 14.25191465 54.36444983 10 54 C9.67 52.02 9.34 50.04 9 48 C7.35 47.67 5.7 47.34 4 47 C4 46.34 4 45.68 4 45 C6.31 44.34 8.62 43.68 11 43 C11.33 38.05 11.66 33.1 12 28 C8.7 28 5.4 28 2 28 C2 39.22 2 50.44 2 62 C9.92 61.505 9.92 61.505 18 61 C19.32 57.7 20.64 54.4 22 51 C22.66 51 23.32 51 24 51 C24 54.63 24 58.26 24 62 C25.32 62.33 26.64 62.66 28 63 C28.6875 64.8125 28.6875 64.8125 29 67 C27.05133167 69.76916025 25.23351087 70.38381183 22 71 C17.50354793 71.27739344 13.0040822 71.27727517 8.5 71.3125 C6.64568359 71.35600586 6.64568359 71.35600586 4.75390625 71.40039062 C2.97306641 71.41295898 2.97306641 71.41295898 1.15625 71.42578125 C0.07150391 71.44036377 -1.01324219 71.45494629 -2.13085938 71.4699707 C-5 71 -5 71 -7.36035156 69.48999023 C-9.66837384 65.98499928 -9.49970643 62.78592527 -9.390625 58.734375 C-9.38496521 57.94097717 -9.37930542 57.14757935 -9.37347412 56.33013916 C-9.35113147 53.80280527 -9.30094176 51.27690335 -9.25 48.75 C-9.22993214 47.03387468 -9.21168187 45.31772708 -9.1953125 43.6015625 C-9.15127395 39.4004922 -9.08226326 35.20048865 -9 31 C-10.32 31.33 -11.64 31.66 -13 32 C-13 32.66 -13 33.32 -13 34 C-14.65 34.66 -16.3 35.32 -18 36 C-16.05119657 31.94234648 -13.6958185 28.17046284 -11.33984375 24.33984375 C-9.88020843 21.96895375 -9.88020843 21.96895375 -9 19 C-8.34 19 -7.68 19 -7 19 C-7 18.01 -7 17.02 -7 16 C-6.34 16 -5.68 16 -5 16 C-4.87625 15.13375 -4.7525 14.2675 -4.625 13.375 C-4.01941879 10.10486147 -3.11693965 7.12743101 -2 4 C-1.34 4 -0.68 4 0 4 C0 2.68 0 1.36 0 0 Z " fill="#2D2D2D" transform="translate(332,377)"/>
<path d="M0 0 C3.96064107 1.74268207 7.74436549 4.14674729 11 7 C11 7.66 11 8.32 11 9 C2.09 9 -6.82 9 -16 9 C-15.96064501 14.3695593 -15.96064501 14.3695593 -15.90991211 19.73901367 C-15.89557675 23.62944463 -16.03319861 27.20130793 -17 31 C-7.43444142 31.53520248 -7.43444142 31.53520248 1.0703125 28.375 C2.487934 26.24454577 2.487934 26.24454577 4 23 C7 23 7 23 9.4375 25.375 C10.7059375 26.674375 10.7059375 26.674375 12 28 C14.16620544 29.29519995 14.16620544 29.29519995 16 30 C16 30.99 16 31.98 16 33 C0.16 33.495 0.16 33.495 -16 34 C-15.505 35.98 -15.505 35.98 -15 38 C-14.34 38 -13.68 38 -13 38 C-12.608125 39.051875 -12.21625 40.10375 -11.8125 41.1875 C-9.97342079 45.50495738 -7.26399355 48.86800323 -3 51 C-3 51.66 -3 52.32 -3 53 C0.62197194 54.49140021 4.27566618 55.7874262 8 57 C8 57.66 8 58.32 8 59 C10.97 59.33 13.94 59.66 17 60 C15.7632378 63.7102866 13.99979707 64.60016234 11 67 C10.505 68.485 10.505 68.485 10 70 C9.34 70 8.68 70 8 70 C8 70.99 8 71.98 8 73 C1.14798128 71.60560669 -4.17953432 66.71883373 -8 61 C-9.61773052 58.15891108 -11.16476867 55.29390326 -12.66796875 52.390625 C-13.90692792 49.91072463 -13.90692792 49.91072463 -16 48 C-16.4140625 45.3984375 -16.4140625 45.3984375 -16.625 42.375 C-16.69976562 41.37210937 -16.77453125 40.36921875 -16.8515625 39.3359375 C-16.90054688 38.56507813 -16.94953125 37.79421875 -17 37 C-17.66 37 -18.32 37 -19 37 C-19.03738281 37.58007812 -19.07476562 38.16015625 -19.11328125 38.7578125 C-19.53903667 43.81678864 -20.37138991 47.54279158 -23 52 C-23.66 52 -24.32 52 -25 52 C-25.20625 52.53625 -25.4125 53.0725 -25.625 53.625 C-27.53250426 56.91978009 -30.04819384 59.59363628 -33 62 C-33.66 62 -34.32 62 -35 62 C-35 62.66 -35 63.32 -35 64 C-35.886875 64.433125 -36.77375 64.86625 -37.6875 65.3125 C-40.88952531 66.87135443 -40.88952531 66.87135443 -43.3125 68.5 C-48.31295736 71.29095294 -53.26473041 73 -59 73 C-59 72.34 -59 71.68 -59 71 C-58.12988281 70.54560547 -58.12988281 70.54560547 -57.2421875 70.08203125 C-53.42163595 68.03305559 -49.84542547 66.03867597 -46.5625 63.1875 C-44 61 -44 61 -42 61 C-41.773125 60.484375 -41.54625 59.96875 -41.3125 59.4375 C-40.16536061 57.30709827 -38.94754528 55.55079033 -37.5 53.625 C-35.25966958 50.56519768 -33.9900201 47.69007491 -33 44 C-32.34 44 -31.68 44 -31 44 C-31.020625 42.741875 -31.04125 41.48375 -31.0625 40.1875 C-31.10886083 37.35948913 -30.91692961 35.75078884 -30 33 C-38.58 33 -47.16 33 -56 33 C-56 32.34 -56 31.68 -56 31 C-47.42 31 -38.84 31 -30 31 C-30 23.74 -30 16.48 -30 9 C-37.59 9 -45.18 9 -53 9 C-53 8.34 -53 7.68 -53 7 C-52.1146331 7.00119339 -52.1146331 7.00119339 -51.21138 7.00241089 C-45.06267044 7.00485043 -38.91522262 6.96564298 -32.7668457 6.90234375 C-30.47296004 6.88418592 -28.17896497 6.87661484 -25.88500977 6.87988281 C-22.58523957 6.88274037 -19.28773734 6.84741831 -15.98828125 6.8046875 C-14.45207878 6.8183284 -14.45207878 6.8183284 -12.88484192 6.83224487 C-7.69959146 6.84511078 -7.69959146 6.84511078 -3.20907593 4.61090088 C-1.6313732 2.81597224 -1.6313732 2.81597224 0 0 Z " fill="#353535" transform="translate(214,380)"/>
<path d="M0 0 C1.9375 0.3125 1.9375 0.3125 4 1 C4.495 2.485 4.495 2.485 5 4 C6.33076989 4.34342449 7.66431979 4.67619874 9 5 C9.66 5.99 10.32 6.98 11 8 C10.01 8.33 9.02 8.66 8 9 C8.00222061 9.7052179 8.00444122 10.41043579 8.00672913 11.13702393 C8.02677753 17.78747187 8.04199736 24.43791137 8.05181217 31.08838272 C8.0570277 34.50733989 8.0641012 37.92627206 8.07543945 41.34521484 C8.0883967 45.27701517 8.09323922 49.20880542 8.09765625 53.140625 C8.10281754 54.36678528 8.10797882 55.59294556 8.11329651 56.85626221 C8.11337204 57.99714294 8.11344757 59.13802368 8.11352539 60.31347656 C8.115746 61.31719299 8.11796661 62.32090942 8.12025452 63.3550415 C8.01216762 65.73237715 7.68064995 67.7289895 7 70 C2.46298506 71.45184478 -1.18061476 72.23509196 -6 72 C-6 70.35 -6 68.7 -6 67 C-7.485 66.505 -7.485 66.505 -9 66 C-9 65.34 -9 64.68 -9 64 C-6.03 63.505 -6.03 63.505 -3 63 C-3 44.52 -3 26.04 -3 7 C-12.24 7 -21.48 7 -31 7 C-31 6.34 -31 5.68 -31 5 C-30.16750732 4.9906543 -29.33501465 4.98130859 -28.47729492 4.97167969 C-25.38497711 4.92763634 -22.29365054 4.86601225 -19.2019043 4.79248047 C-17.20710869 4.75041351 -15.21191918 4.72862136 -13.21679688 4.70703125 C-11.96318359 4.67480469 -10.70957031 4.64257812 -9.41796875 4.609375 C-7.68196411 4.5779541 -7.68196411 4.5779541 -5.91088867 4.54589844 C-2.88013147 4.27532735 -2.88013147 4.27532735 -1.09887695 1.96191406 C-0.73624756 1.31448242 -0.37361816 0.66705078 0 0 Z " fill="#2C2C2C" transform="translate(298,379)"/>
<path d="M0 0 C3.96 0.33 7.92 0.66 12 1 C11.67 1.66 11.34 2.32 11 3 C10.89491559 5.03613532 10.85395137 7.07569012 10.84228516 9.11450195 C10.82689194 11.04209099 10.82689194 11.04209099 10.81118774 13.00862122 C10.80774982 13.69757792 10.8043119 14.38653461 10.80076981 15.09636879 C10.78898253 17.25291258 10.76952942 19.40925595 10.74765015 21.5657196 C10.68603494 27.69763495 10.63202804 33.82953087 10.59863281 39.96166992 C10.57765899 43.71185734 10.54233217 47.46168109 10.49787521 51.21166039 C10.48373372 52.63931172 10.47499694 54.06702742 10.47182083 55.49474525 C10.46689928 57.49568056 10.4421087 59.49653692 10.41650391 61.49731445 C10.40841705 62.634897 10.4003302 63.77247955 10.39199829 64.9445343 C9.95145285 68.37840509 9.12284174 70.27935764 7 73 C3.8125 73.8125 3.8125 73.8125 1 74 C1 74.66 1 75.32 1 76 C-0.98 76 -2.96 76 -5 76 C-5 73.69 -5 71.38 -5 69 C-6.11375 68.5978125 -6.11375 68.5978125 -7.25 68.1875 C-10 67 -10 67 -14 64 C-7.565 63.505 -7.565 63.505 -1 63 C-0.67 42.21 -0.34 21.42 0 0 Z " fill="#252525" transform="translate(377,377)"/>
<path d="M0 0 C10 0 10 0 14 1 C14 1.66 14 2.32 14 3 C13.01 3 12.02 3 11 3 C11 22.8 11 42.6 11 63 C6 65 6 65 0 65 C0 43.55 0 22.1 0 0 Z " fill="#2A2A2A" transform="translate(239,386)"/>
<path d="M0 0 C5.14075497 -0.17726741 9.21705726 -0.16371219 14 2 C16.1519437 5.22791555 16.20086443 6.28400809 16 10 C16.99 10.33 17.98 10.66 19 11 C18.01 11.495 18.01 11.495 17 12 C16.34 11.67 15.68 11.34 15 11 C15 11.99 15 12.98 15 14 C14.34 14 13.68 14 13 14 C12.79310547 14.87398438 12.79310547 14.87398438 12.58203125 15.765625 C10.89707531 22.23404647 8.05868812 28.09356778 5 34 C8.38095667 32.87301444 10.49441326 31.21594763 13.28125 29.05859375 C15 28 15 28 18 28 C18.33 29.32 18.66 30.64 19 32 C19.66 32 20.32 32 21 32 C21 33.32 21 34.64 21 36 C20.00097656 36.56589844 19.00195312 37.13179688 17.97265625 37.71484375 C16.66922254 38.4556442 15.36583975 39.19653425 14.0625 39.9375 C13.0734668 40.49727539 13.0734668 40.49727539 12.06445312 41.06835938 C8.84167167 42.76962813 8.84167167 42.76962813 6 45 C6.66 45.66 7.32 46.32 8 47 C6.35 47 4.7 47 3 47 C3 55.25 3 63.5 3 72 C2.67 72 2.34 72 2 72 C2 52.2 2 32.4 2 12 C2.99 12 3.98 12 5 12 C5 11.34 5 10.68 5 10 C3.68 9.67 2.36 9.34 1 9 C1.99 9 2.98 9 4 9 C2.68 6.03 1.36 3.06 0 0 Z " fill="#E7E7E7" transform="translate(248,377)"/>
<path d="M0 0 C3.3 0 6.6 0 10 0 C10 0.66 10 1.32 10 2 C12.475 2.495 12.475 2.495 15 3 C15 4.98 15 6.96 15 9 C14.34 9 13.68 9 13 9 C13 9.66 13 10.32 13 11 C19.27 11 25.54 11 32 11 C32 10.34 32 9.68 32 9 C33.25 7.3125 33.25 7.3125 35 6 C37.62660052 6.26911891 38.78287716 6.79233893 40.703125 8.62890625 C41.21359375 9.26699219 41.7240625 9.90507812 42.25 10.5625 C42.77078125 11.20316406 43.2915625 11.84382813 43.828125 12.50390625 C44.21484375 12.99761719 44.6015625 13.49132812 45 14 C43.57632161 14.94911893 42.15231659 15.89775202 40.7265625 16.84375 C39.05629084 17.96230297 37.40278386 19.10576502 35.75 20.25 C33 22 33 22 31 22 C31.33 19.03 31.66 16.06 32 13 C16.16 13.495 16.16 13.495 0 14 C0 13.34 0 12.68 0 12 C-0.54140625 12.16371094 -1.0828125 12.32742188 -1.640625 12.49609375 C-4.40222593 13.08590587 -6.92818139 13.09609308 -9.75 13.0625 C-10.73484375 13.05347656 -11.7196875 13.04445313 -12.734375 13.03515625 C-13.48203125 13.02355469 -14.2296875 13.01195312 -15 13 C-15.03738281 13.61488281 -15.07476562 14.22976563 -15.11328125 14.86328125 C-15.17902344 15.67152344 -15.24476563 16.47976563 -15.3125 17.3125 C-15.37050781 18.11300781 -15.42851562 18.91351563 -15.48828125 19.73828125 C-16.09395421 22.41526328 -16.81359246 23.373147 -19 25 C-22.0625 25.3125 -22.0625 25.3125 -25 25 C-27 23 -27 23 -27.5625 20.25 C-26.82201668 15.97165196 -25.02211463 15.00720999 -21.69140625 12.45703125 C-19.52403395 10.58998767 -18.72542431 8.74049185 -18 6 C-17.34 6 -16.68 6 -16 6 C-15.67 7.65 -15.34 9.3 -15 11 C-8.73 11 -2.46 11 4 11 C3.01 8.36 2.02 5.72 1 3 C0.67 2.01 0.34 1.02 0 0 Z " fill="#444444" transform="translate(424,378)"/>
<path d="M0 0 C1.32 0 2.64 0 4 0 C4 0.66 4 1.32 4 2 C5.11375 2.185625 5.11375 2.185625 6.25 2.375 C8.80141485 2.95486701 10.7267573 3.73708739 13 5 C12.67 5.99 12.34 6.98 12 8 C11.34 8 10.68 8 10 8 C10 8.66 10 9.32 10 10 C11.58409994 9.88512252 13.16728963 9.75765492 14.75 9.625 C15.63171875 9.55539062 16.5134375 9.48578125 17.421875 9.4140625 C19.99066382 9.00149945 21.75841015 8.28839043 24 7 C24 6.34 24 5.68 24 5 C25.32 4.67 26.64 4.34 28 4 C28.495 4.99 28.495 4.99 29 6 C27.88625 6.5878125 27.88625 6.5878125 26.75 7.1875 C23.7972433 9.1336351 22.17455536 11.24556322 20 14 C19.01 14.33 18.02 14.66 17 15 C16.0409375 16.5159375 16.0409375 16.5159375 15.0625 18.0625 C14.381875 19.031875 13.70125 20.00125 13 21 C11.68 21 10.36 21 9 21 C9 20.34 9 19.68 9 19 C7.35 18.67 5.7 18.34 4 18 C3.67 18.99 3.34 19.98 3 21 C3 20.34 3 19.68 3 19 C1.95199219 19.5775 0.90398437 20.155 -0.17578125 20.75 C-1.55450902 21.50032804 -2.93342514 22.25031008 -4.3125 23 C-5.00279297 23.3815625 -5.69308594 23.763125 -6.40429688 24.15625 C-11.66015625 27 -11.66015625 27 -15 27 C-15 27.66 -15 28.32 -15 29 C-16.32 29 -17.64 29 -19 29 C-19 28.34 -19 27.68 -19 27 C-18.34 27 -17.68 27 -17 27 C-17 26.34 -17 25.68 -17 25 C-15.3545622 23.31237149 -13.68711423 21.6459651 -12 20 C-11.67 19.34 -11.34 18.68 -11 18 C-10.34 18 -9.68 18 -9 18 C-8.73316406 17.29230469 -8.46632813 16.58460938 -8.19140625 15.85546875 C-6.95018527 12.88060796 -5.50183544 10.12984122 -3.9375 7.3125 C-1.91741708 3.68323434 -1.91741708 3.68323434 0 0 Z " fill="#363636" transform="translate(420,390)"/>
<path d="M0 0 C3.63 0.33 7.26 0.66 11 1 C11 1.66 11 2.32 11 3 C10.34 3 9.68 3 9 3 C9 17.19 9 31.38 9 46 C5 48 5 48 0 48 C0 32.16 0 16.32 0 0 Z " fill="#282828" transform="translate(361,386)"/>
<path d="M0 0 C22.77 0 45.54 0 69 0 C69 1.98 69 3.96 69 6 C46.23 6 23.46 6 0 6 C0 4.02 0 2.04 0 0 Z " fill="#3B3B3B" transform="translate(401,480)"/>
<path d="M0 0 C22.77 0 45.54 0 69 0 C69 1.98 69 3.96 69 6 C46.23 6 23.46 6 0 6 C0 4.02 0 2.04 0 0 Z " fill="#3A3A3A" transform="translate(153,480)"/>
<path d="M0 0 C3.3 0 6.6 0 10 0 C10.05383848 2.45862401 10.09359038 4.9160755 10.125 7.375 C10.14175781 8.07367188 10.15851563 8.77234375 10.17578125 9.4921875 C10.19344267 11.32897486 10.10303261 13.16601963 10 15 C8 17 8 17 4.875 17.125 C3.451875 17.063125 3.451875 17.063125 2 17 C2 17.66 2 18.32 2 19 C3.65 19.33 5.3 19.66 7 20 C7.33 21.98 7.66 23.96 8 26 C9.60875 25.5359375 9.60875 25.5359375 11.25 25.0625 C13.82866222 24.33187904 16.39512102 23.62517096 19 23 C19.43541601 27.93471481 18.49400294 29.01199411 16 34 C10.72 34 5.44 34 0 34 C0 22.78 0 11.56 0 0 Z " fill="#E7E7E7" transform="translate(334,405)"/>
<path d="M0 0 C0.33 0.66 0.66 1.32 1 2 C10.24 2 19.48 2 29 2 C29 10.58 29 19.16 29 28 C25.04 27.67 21.08 27.34 17 27 C21.66666667 17.66666667 21.66666667 17.66666667 25 16 C23.63016497 12.83884224 23.0109362 12.0072908 20 10 C20 9.34 20 8.68 20 8 C19.01 8 18.02 8 17 8 C17 8.66 17 9.32 17 10 C15.79296875 11.61328125 15.79296875 11.61328125 14 13 C11.73828125 13.29296875 11.73828125 13.29296875 9.3125 13.1875 C8.10013672 13.14689453 8.10013672 13.14689453 6.86328125 13.10546875 C6.24839844 13.07066406 5.63351562 13.03585937 5 13 C5.33 12.01 5.66 11.02 6 10 C6.99 10 7.98 10 9 10 C9 9.01 9 8.02 9 7 C8.0925 6.9175 7.185 6.835 6.25 6.75 C2.59922161 5.90751268 1.36615417 4.82118382 -1 2 C-0.67 1.34 -0.34 0.68 0 0 Z " fill="#F1F1F1" transform="translate(266,384)"/>
<path d="M0 0 C6.27 0 12.54 0 19 0 C19 4.29 19 8.58 19 13 C12.73 13 6.46 13 0 13 C0 8.71 0 4.42 0 0 Z " fill="#FFFFFF" transform="translate(424,432)"/>
<path d="M0 0 C0 0.99 0 1.98 0 3 C1.175625 3.185625 1.175625 3.185625 2.375 3.375 C5 4 5 4 7 6 C6.98251781 8.91952568 6.86055367 11.72297885 6.625 14.625 C6.56828125 15.42679687 6.5115625 16.22859375 6.453125 17.0546875 C6.31152018 19.03715498 6.15697741 21.01869051 6 23 C3.03 23.33 0.06 23.66 -3 24 C-3 17.07 -3 10.14 -3 3 C-4.98 3.33 -6.96 3.66 -9 4 C-4.5 0 -4.5 0 0 0 Z " fill="#272727" transform="translate(261,419)"/>
<path d="M0 0 C9.9 0 19.8 0 30 0 C29.67 2.97 29.34 5.94 29 9 C29.66 9.33 30.32 9.66 31 10 C28 10 28 10 26.53515625 8.6875 C25.55451042 7.56378913 24.57533866 6.43879014 23.59765625 5.3125 C21.82947896 3.57681353 21.82947896 3.57681353 18 4 C18 4.66 18 5.32 18 6 C15.80564299 8.11745198 14.47610949 8.94589665 11.421875 9.29296875 C10.54015625 9.25816406 9.6584375 9.22335937 8.75 9.1875 C7.85796875 9.16042969 6.9659375 9.13335937 6.046875 9.10546875 C5.37140625 9.07066406 4.6959375 9.03585937 4 9 C4 7 4 7 5.5 5.375 C5.995 4.92125 6.49 4.4675 7 4 C6.21625 3.71125 5.4325 3.4225 4.625 3.125 C2 2 2 2 0 0 Z " fill="#F0F0F0" transform="translate(426,391)"/>
<path d="M0 0 C0.33 1.32 0.66 2.64 1 4 C-0.98567708 3.93489583 -2.97135417 3.86979167 -4.95703125 3.8046875 C-7.31359719 3.86745538 -7.31359719 3.86745538 -10 6 C-10.38024775 10.65145592 -10.38024775 10.65145592 -9 15 C-6.67843403 15.40729228 -4.3431213 15.74438677 -2 16 C-2 14.68 -2 13.36 -2 12 C-3.32 11.67 -4.64 11.34 -6 11 C-6 10.34 -6 9.68 -6 9 C-3.03 9 -0.06 9 3 9 C3 11.97 3 14.94 3 18 C-2.66835472 19.41708868 -7.6314952 20.06341032 -13.0625 17.625 C-15.63265279 14.14285752 -15.70052006 11.60244124 -15.5 7.34765625 C-15 5 -15 5 -12.625 2.4375 C-7.94078798 -0.12766373 -5.33949985 -0.08612097 0 0 Z " fill="#7D7D7D" transform="translate(318,473)"/>
<path d="M0 0 C1.32 0 2.64 0 4 0 C4 6.27 4 12.54 4 19 C-1 18 -1 18 -3.01953125 15.27734375 C-3.61121094 14.17519531 -4.20289063 13.07304687 -4.8125 11.9375 C-5.41707031 10.83277344 -6.02164062 9.72804688 -6.64453125 8.58984375 C-7.09183594 7.73519531 -7.53914063 6.88054687 -8 6 C-8.33 10.29 -8.66 14.58 -9 19 C-9.99 19 -10.98 19 -12 19 C-12 13.06 -12 7.12 -12 1 C-10.35 1 -8.7 1 -7 1 C-5.19921875 3.1875 -5.19921875 3.1875 -3.6875 6 C-3.17574219 6.928125 -2.66398437 7.85625 -2.13671875 8.8125 C-1.76160156 9.534375 -1.38648438 10.25625 -1 11 C-0.67 7.37 -0.34 3.74 0 0 Z " fill="#6F6F6F" transform="translate(295,473)"/>
<path d="M0 0 C0.66 0 1.32 0 2 0 C2 8.91 2 17.82 2 27 C-0.64 27 -3.28 27 -6 27 C-6 21.72 -6 16.44 -6 11 C-5.34 11 -4.68 11 -4 11 C-4.33 9.68 -4.66 8.36 -5 7 C-4.01 7 -3.02 7 -2 7 C-1.855625 6.401875 -1.71125 5.80375 -1.5625 5.1875 C-1.1127561 3.43849596 -0.57107659 1.71322977 0 0 Z " fill="#EFEFEF" transform="translate(293,415)"/>
<path d="M0 0 C3.56891712 2.37927808 4.4085808 4.05934294 6 8 C6.60532931 13.14529915 6.60532931 13.14529915 4.82421875 15.66015625 C2.2982997 17.51538159 0.53808949 17.33257229 -2.5625 17.25 C-3.53316406 17.23453125 -4.50382812 17.2190625 -5.50390625 17.203125 C-8 17 -8 17 -10 16 C-9.41896004 12.07798027 -7.5083255 9.99605546 -5 7 C-3.30364996 4.6867954 -1.65434879 2.34366079 0 0 Z " fill="#E8E8E8" transform="translate(341,386)"/>
<path d="M0 0 C1.98 0 3.96 0 6 0 C9.30199356 5.9435884 10.95518663 11.29119838 12 18 C10.68 18 9.36 18 8 18 C7.67 16.35 7.34 14.7 7 13 C4.36 12.67 1.72 12.34 -1 12 C-1.33 13.65 -1.66 15.3 -2 17 C-3.32 17.33 -4.64 17.66 -6 18 C-4.36307418 11.86152818 -2.21682402 5.95098874 0 0 Z " fill="#565656" transform="translate(267,474)"/>
<path d="M0 0 C2.97 0 5.94 0 9 0 C9.66 1.32 10.32 2.64 11 4 C8.03 4 5.06 4 2 4 C2.99 5.485 2.99 5.485 4 7 C4.825 7.165 5.65 7.33 6.5 7.5 C7.7375 7.7475 7.7375 7.7475 9 8 C11.15502531 11.23253796 11.46856135 12.25150923 11 16 C9.36954494 18.16706052 8.52059739 18.92204959 5.80859375 19.328125 C5.02613281 19.30234375 4.24367188 19.2765625 3.4375 19.25 C2.25994141 19.22679687 2.25994141 19.22679687 1.05859375 19.203125 C-1 19 -1 19 -3 18 C-3 17.01 -3 16.02 -3 15 C0.63 15.33 4.26 15.66 8 16 C8 15.01 8 14.02 8 13 C7.34 13 6.68 13 6 13 C6 12.34 6 11.68 6 11 C4.88625 10.87625 3.7725 10.7525 2.625 10.625 C-1 10 -1 10 -3 8 C-3.125 5.375 -3.125 5.375 -3 3 C-2.01 2.67 -1.02 2.34 0 2 C0 1.34 0 0.68 0 0 Z " fill="#575757" transform="translate(345,473)"/>
<path d="M0 0 C4.29 0 8.58 0 13 0 C13 0.99 13 1.98 13 3 C10.03 3 7.06 3 4 3 C4 4.65 4 6.3 4 8 C6.64 8 9.28 8 12 8 C12 8.99 12 9.98 12 11 C9.36 11 6.72 11 4 11 C4 12.65 4 14.3 4 16 C6.97 16 9.94 16 13 16 C13 16.99 13 17.98 13 19 C8.71 19 4.42 19 0 19 C0 12.73 0 6.46 0 0 Z " fill="#616161" transform="translate(325,473)"/>
<path d="M0 0 C2.97 0 5.94 0 9 0 C9.05383848 2.45862401 9.09359038 4.9160755 9.125 7.375 C9.14175781 8.07367188 9.15851563 8.77234375 9.17578125 9.4921875 C9.19344267 11.32897486 9.10303261 13.16601963 9 15 C7 17 7 17 3.875 17.125 C2.451875 17.063125 2.451875 17.063125 1 17 C0.67 17.66 0.34 18.32 0 19 C0 12.73 0 6.46 0 0 Z " fill="#F5F5F5" transform="translate(335,405)"/>
<path d="M0 0 C0.66 0 1.32 0 2 0 C3.95755973 3.91511947 3.36425271 8.72157408 3 13 C1.82755696 15.54878922 0.93702622 17.06297378 -1 19 C-3.9375 19.1875 -3.9375 19.1875 -7 19 C-9 17 -9 17 -9.5625 14.25 C-8.82201668 9.97165196 -7.02211463 9.00720999 -3.69140625 6.45703125 C-1.52403395 4.58998767 -0.72542431 2.74049185 0 0 Z " fill="#303030" transform="translate(406,384)"/>
<path d="M0 0 C3.63 0 7.26 0 11 0 C11 4.29 11 8.58 11 13 C7.37 13 3.74 13 0 13 C0 8.71 0 4.42 0 0 Z " fill="#EDEDED" transform="translate(267,425)"/>
<path d="M0 0 C4.62 0 9.24 0 14 0 C13.67 1.32 13.34 2.64 13 4 C10.03 4 7.06 4 4 4 C4 5.32 4 6.64 4 8 C6.31 8 8.62 8 11 8 C11 8.66 11 9.32 11 10 C8.36 10 5.72 10 3 10 C3 12.31 3 14.62 3 17 C6.3 17 9.6 17 13 17 C13 17.66 13 18.32 13 19 C8.71 19 4.42 19 0 19 C0 12.73 0 6.46 0 0 Z " fill="#434343" transform="translate(361,473)"/>
<path d="M0 0 C3.3 0 6.6 0 10 0 C10.33 1.32 10.66 2.64 11 4 C10.28972656 4.06058594 9.57945312 4.12117188 8.84765625 4.18359375 C7.92855469 4.26738281 7.00945312 4.35117187 6.0625 4.4375 C5.14597656 4.51871094 4.22945313 4.59992188 3.28515625 4.68359375 C1.03840268 4.76044976 1.03840268 4.76044976 0 6 C-0.30523962 10.65088715 -0.30523962 10.65088715 1 15 C4.3 15 7.6 15 11 15 C10.34 16.32 9.68 17.64 9 19 C4.56330548 19.34797604 1.05041662 19.47161563 -3.0625 17.625 C-5.63766447 14.13606749 -5.51978788 11.58236727 -5.46875 7.33984375 C-4.92142354 4.60777252 -4.21135583 3.65309688 -2 2 C-1.34 2 -0.68 2 0 2 C0 1.34 0 0.68 0 0 Z " fill="#7C7C7C" transform="translate(383,473)"/>
<path d="M0 0 C2.47947529 -0.05476142 4.9577009 -0.09403016 7.4375 -0.125 C8.46907227 -0.15013672 8.46907227 -0.15013672 9.52148438 -0.17578125 C14.08737973 -0.2182547 18.09420965 0.38856525 22.52075195 1.46972656 C28.46626454 2.74138125 34.60128976 3.15747788 40.64453125 3.76757812 C42.19333984 3.94256836 42.19333984 3.94256836 43.7734375 4.12109375 C44.70591309 4.2183374 45.63838867 4.31558105 46.59912109 4.41577148 C49.28316091 5.06890422 50.28200814 5.88414611 52 8 C51.071875 7.9278125 50.14375 7.855625 49.1875 7.78125 C33.47526393 6.68627305 17.74018082 6.90580816 2 7 C4.3968665 4.6031335 5.07028314 4.71718867 8.3515625 4.5859375 C9.20234375 4.54726562 10.053125 4.50859375 10.9296875 4.46875 C12.26386719 4.42234375 12.26386719 4.42234375 13.625 4.375 C14.5221875 4.33632812 15.419375 4.29765625 16.34375 4.2578125 C18.5622927 4.16340643 20.78082403 4.07783252 23 4 C22.14535156 3.93941406 21.29070312 3.87882813 20.41015625 3.81640625 C19.30542969 3.73261719 18.20070313 3.64882812 17.0625 3.5625 C15.96035156 3.48128906 14.85820312 3.40007812 13.72265625 3.31640625 C11 3 11 3 10 2 C8.31816052 1.76712992 6.6287584 1.58735834 4.9375 1.4375 C4.01839844 1.35371094 3.09929687 1.26992187 2.15234375 1.18359375 C1.08693359 1.09271484 1.08693359 1.09271484 0 1 C0 0.67 0 0.34 0 0 Z " fill="#F2B8B9" transform="translate(276,190)"/>
<path d="M0 0 C3.3 0 6.6 0 10 0 C8.81728926 7.56934874 5.49102837 14.25870383 2 21 C1.34 21 0.68 21 0 21 C0 14.07 0 7.14 0 0 Z " fill="#F8F8F8" transform="translate(251,390)"/>
<path d="M0 0 C0 0.99 0 1.98 0 3 C-3.62484999 3.08681476 -7.24943443 3.14032721 -10.875 3.1875 C-12.42380859 3.22520508 -12.42380859 3.22520508 -14.00390625 3.26367188 C-14.99003906 3.27333984 -15.97617187 3.28300781 -16.9921875 3.29296875 C-18.35899658 3.31653442 -18.35899658 3.31653442 -19.75341797 3.34057617 C-20.49479004 3.22818604 -21.23616211 3.1157959 -22 3 C-22.66 2.01 -23.32 1.02 -24 0 C-21.35261084 -1.4606285 -20.10551666 -2 -17 -2 C-17 -2.66 -17 -3.32 -17 -4 C-10.86010897 -6.04663034 -5.54556878 -2.59759758 0 0 Z " fill="#D7D7D7" transform="translate(445,427)"/>
<path d="M0 0 C5.61 0 11.22 0 17 0 C17 0.99 17 1.98 17 3 C14.69 3 12.38 3 10 3 C10 8.28 10 13.56 10 19 C8.68 19 7.36 19 6 19 C6 13.72 6 8.44 6 3 C4.02 3 2.04 3 0 3 C0 2.01 0 1.02 0 0 Z " fill="#5F5F5F" transform="translate(233,473)"/>
<path d="M0 0 C2.0625 0.6875 2.0625 0.6875 4.125 1.375 C4.95515625 1.64957031 5.7853125 1.92414063 6.640625 2.20703125 C8.3953403 2.79677828 10.13861349 3.42079194 11.875 4.0625 C14.65292685 4.89587806 17.13976428 5.29557266 20 5.6875 C27.34851277 6.91394144 33.53267346 10.46893412 40 14 C36.25260175 15.24913275 34.95696914 14.55276704 31.25 13.3125 C20.97256194 9.99756741 10.56986681 7.22523512 0 5 C1.32 4.34 2.64 3.68 4 3 C2.68 2.34 1.36 1.68 0 1 C0 0.67 0 0.34 0 0 Z " fill="#F2B4B5" transform="translate(313,175)"/>
<path d="M0 0 C5.38422078 -0.27377394 8.54453408 -0.37535297 13 3 C14 4 14 4 14.125 7.5 C14 11 14 11 13 12 C10.3125 12.6875 10.3125 12.6875 7 12 C4.10495286 8.31114961 2.08934534 4.17869069 0 0 Z " fill="#2C2C2C" transform="translate(248,377)"/>
<path d="M0 0 C3.7952131 1.49097658 5.61042731 3.75700849 8 7 C-1 13 -1 13 -5 13 C-4.64989059 4.80743982 -4.64989059 4.80743982 -1.9375 1.4375 C-1.298125 0.963125 -0.65875 0.48875 0 0 Z " fill="#292929" transform="translate(461,385)"/>
<path d="M0 0 C5.28 0 10.56 0 16 0 C16 4.95 16 9.9 16 15 C13 11 13 11 11.640625 9.18359375 C8.1528422 4.80427097 5.30462184 2.80357142 0 1 C0 0.67 0 0.34 0 0 Z " fill="#000000" transform="translate(609,0)"/>
<path d="M0 0 C0.99 1.32 1.98 2.64 3 4 C6.54325157 8.61515961 9.45802281 11.75681876 15 14 C15 14.33 15 14.66 15 15 C10.05 15 5.1 15 0 15 C0 10.05 0 5.1 0 0 Z " fill="#000000" transform="translate(0,610)"/>
<path d="M0 0 C1.77503906 0.03480469 1.77503906 0.03480469 3.5859375 0.0703125 C5.36871094 0.09738281 5.36871094 0.09738281 7.1875 0.125 C8.10273438 0.14820313 9.01796875 0.17140625 9.9609375 0.1953125 C9.06179051 1.70587944 8.14097649 3.20356679 7.2109375 4.6953125 C6.70046875 5.530625 6.19 6.3659375 5.6640625 7.2265625 C4.82101562 8.20109375 4.82101562 8.20109375 3.9609375 9.1953125 C2.6409375 9.1953125 1.3209375 9.1953125 -0.0390625 9.1953125 C-0.0390625 8.5353125 -0.0390625 7.8753125 -0.0390625 7.1953125 C-1.3590625 6.8653125 -2.6790625 6.5353125 -4.0390625 6.1953125 C-4.6640625 4.3203125 -4.6640625 4.3203125 -5.0390625 2.1953125 C-3.0390625 0.1953125 -3.0390625 0.1953125 0 0 Z " fill="#F0F0F0" transform="translate(429.0390625,401.8046875)"/>
<path d="M0 0 C4.95 0 9.9 0 15 0 C12 2 12 2 9.125 3.5625 C5.04129748 6.74778796 3.22252581 10.39760143 1 15 C0.67 15 0.34 15 0 15 C0 10.05 0 5.1 0 0 Z " fill="#000000" transform="translate(0,0)"/>
<path d="M0 0 C3 0 3 0 5.5 2.25 C8 5 8 5 11 9 C5.39 9 -0.22 9 -6 9 C-1.60546875 1.96875 -1.60546875 1.96875 0 0 Z " fill="#313131" transform="translate(218,403)"/>
<path d="M0 0 C0.99 0.33 1.98 0.66 3 1 C1.71937515 2.7074998 0.38232443 4.37373596 -1 6 C-1.66 6 -2.32 6 -3 6 C-3.268125 6.54785156 -3.53625 7.09570312 -3.8125 7.66015625 C-5.63069287 11.24271391 -7.60953066 14.73563137 -9.5625 18.24609375 C-10.88934744 20.78801616 -11.98815609 23.31958655 -13 26 C-14 24 -14 24 -14 21 C-14.66 21 -15.32 21 -16 21 C-13.06699099 12.60500992 -6.34837858 6.03095965 0 0 Z " fill="#FBE8E9" transform="translate(270,230)"/>
<path d="M0 0 C0.33 0 0.66 0 1 0 C1 4.95 1 9.9 1 15 C-3.95 15 -8.9 15 -14 15 C-12.45620382 13.97080255 -10.9083859 12.94515908 -9.31640625 11.9921875 C-4.34809679 8.82751822 -2.16849931 5.42798274 0 0 Z " fill="#000000" transform="translate(624,610)"/>
<path d="M0 0 C0 0.66 0 1.32 0 2 C0.99 2.33 1.98 2.66 3 3 C1.2223623 5.26678633 0.38499623 5.94993857 -2.5234375 6.328125 C-3.46445312 6.30234375 -4.40546875 6.2765625 -5.375 6.25 C-6.31085938 6.23453125 -7.24671875 6.2190625 -8.2109375 6.203125 C-10.88458912 6.00840527 -13.3875919 5.58897928 -16 5 C-16 4.34 -16 3.68 -16 3 C-13.36 2.67 -10.72 2.34 -8 2 C-8 1.34 -8 0.68 -8 0 C-4.71023192 -1.09658936 -3.28696233 -0.79953138 0 0 Z " fill="#EDEDED" transform="translate(278,417)"/>
<path d="M0 0 C1.9375 0.5625 1.9375 0.5625 4 2 C4.75 5.625 4.75 5.625 5 9 C5.99 9.33 6.98 9.66 8 10 C7.01 10.495 7.01 10.495 6 11 C5.34 10.67 4.68 10.34 4 10 C4 10.99 4 11.98 4 13 C0.04 12.67 -3.92 12.34 -8 12 C-8 19.26 -8 26.52 -8 34 C-8.33 34 -8.66 34 -9 34 C-9 26.41 -9 18.82 -9 11 C-8.01 11 -7.02 11 -6 11 C-6 10.34 -6 9.68 -6 9 C-7.32 8.67 -8.64 8.34 -10 8 C-9.01 8 -8.02 8 -7 8 C-7.33 6.68 -7.66 5.36 -8 4 C-5.2160817 5.39195915 -5.02101003 7.15575779 -4 10 C-2.02 10 -0.04 10 2 10 C2.29562367 4.67829506 2.29562367 4.67829506 0 0 Z " fill="#CECECE" transform="translate(259,378)"/>
<path d="M0 0 C0.33 0 0.66 0 1 0 C1 15.84 1 31.68 1 48 C0.67 48 0.34 48 0 48 C-0.495 30.675 -0.495 30.675 -1 13 C-1.99 13.99 -2.98 14.98 -4 16 C-4.66 15.67 -5.32 15.34 -6 15 C-5.34 14.34 -4.68 13.68 -4 13 C-3.75746187 10.78927023 -3.75746187 10.78927023 -3.875 8.375 C-3.89304687 7.55773437 -3.91109375 6.74046875 -3.9296875 5.8984375 C-3.95289063 5.27195312 -3.97609375 4.64546875 -4 4 C-3.34 4.33 -2.68 4.66 -2 5 C-1.67 5.99 -1.34 6.98 -1 8 C-0.67 5.36 -0.34 2.72 0 0 Z " fill="#D9D9D9" transform="translate(360,386)"/>
<path d="M0 0 C2.50839019 1.00335608 5.01350295 2.00573875 7.5 3.0625 C9.99334215 3.99750331 12.37963467 4.55079451 15 5 C15.33 4.34 15.66 3.68 16 3 C16.625 4.8125 16.625 4.8125 17 7 C16.01 8.485 16.01 8.485 15 10 C8.84962603 9.87186721 6.00868247 7.78588027 1.50390625 3.69140625 C0 2 0 2 0 0 Z " fill="#FBE8E9" transform="translate(272,279)"/>
<path d="M0 0 C1.98 0 3.96 0 6 0 C6.99088067 3.08273985 6.92482533 4.91724891 6 8 C6 8.66 6 9.32 6 10 C3.03 10 0.06 10 -3 10 C-2.01 6.7 -1.02 3.4 0 0 Z " fill="#606060" transform="translate(267,474)"/>
<path d="M0 0 C-0.66 1.32 -1.32 2.64 -2 4 C-2.66 4 -3.32 4 -4 4 C-4.33 4.99 -4.66 5.98 -5 7 C-5.66 7 -6.32 7 -7 7 C-7.66 8.32 -8.32 9.64 -9 11 C-7.68 11 -6.36 11 -5 11 C-4.34 11.33 -3.68 11.66 -3 12 C-7.64203897 14.53309233 -11.65155992 16.46515599 -17 17 C-17 14 -17 14 -15.625 12.3125 C-14 11 -14 11 -12 11 C-11.67 10.01 -11.34 9.02 -11 8 C-10.34 8 -9.68 8 -9 8 C-9 7.34 -9 6.68 -9 6 C-7.5390625 4.4921875 -7.5390625 4.4921875 -5.625 2.875 C-4.68527344 2.06675781 -4.68527344 2.06675781 -3.7265625 1.2421875 C-2 0 -2 0 0 0 Z " fill="#DF4447" transform="translate(228,228)"/>
<path d="M0 0 C1.33664955 -0.01429802 1.33664955 -0.01429802 2.70030212 -0.02888489 C3.66488846 -0.02797348 4.62947479 -0.02706207 5.62329102 -0.02612305 C6.61216812 -0.03040817 7.60104523 -0.0346933 8.61988831 -0.03910828 C10.71386956 -0.04485816 12.8078708 -0.04534701 14.90185547 -0.04101562 C18.11077887 -0.03785795 21.31877874 -0.06129897 24.52758789 -0.08666992 C26.55948777 -0.08894302 28.59139013 -0.08964636 30.62329102 -0.08862305 C32.06713417 -0.10243767 32.06713417 -0.10243767 33.54014587 -0.11653137 C34.43439774 -0.11030258 35.3286496 -0.10407379 36.25 -0.09765625 C37.03672592 -0.09828568 37.82345184 -0.0989151 38.63401794 -0.0995636 C41.177709 0.36349727 42.06775073 1.31544299 43.68969727 3.2746582 C42.76157227 3.2024707 41.83344727 3.1302832 40.87719727 3.0559082 C25.1649612 1.96093125 9.42987809 2.18046636 -6.31030273 2.2746582 C-3.89206472 -0.14357981 -3.30709305 0.01938731 0 0 Z " fill="#EE9D9F" transform="translate(284.310302734375,194.725341796875)"/>
<path d="M0 0 C0.33 1.32 0.66 2.64 1 4 C-0.2375 3.938125 -1.475 3.87625 -2.75 3.8125 C-5.43321024 3.83146262 -6.89304544 3.95215191 -9.375 5.0625 C-11.65932535 7.78611869 -12.22453429 10.57502645 -13 14 C-13.33 14 -13.66 14 -14 14 C-14.30031949 4.99041534 -14.30031949 4.99041534 -12 2 C-8.39073335 -0.77635896 -4.34273654 -0.14475788 0 0 Z " fill="#6E6E6E" transform="translate(318,473)"/>
<path d="M0 0 C4.26823714 0.47424857 6.17492731 2.95761403 9 6 C9.598125 6.556875 10.19625 7.11375 10.8125 7.6875 C12 9 12 9 12 11 C12.66 11.33 13.32 11.66 14 12 C4.7027027 10.7027027 4.7027027 10.7027027 1.1875 7.1875 C-0.21712593 4.60003118 -0.24182753 2.90193042 0 0 Z " fill="#F9DCDC" transform="translate(355,211)"/>
<path d="M0 0 C2.97 0 5.94 0 9 0 C9.66 1.32 10.32 2.64 11 4 C8.03 4 5.06 4 2 4 C2.66 5.32 3.32 6.64 4 8 C0.125 6.25 0.125 6.25 -1 4 C-0.49396008 6.16874252 -0.00016187 7.99967627 1 10 C-0.32 9.34 -1.64 8.68 -3 8 C-3 6.35 -3 4.7 -3 3 C-2.01 2.67 -1.02 2.34 0 2 C0 1.34 0 0.68 0 0 Z " fill="#858585" transform="translate(345,473)"/>
<path d="M0 0 C-3.3 2.64 -6.6 5.28 -10 8 C-10.33 6.68 -10.66 5.36 -11 4 C-11.59538574 3.98018066 -12.19077148 3.96036133 -12.80419922 3.93994141 C-15.49492153 3.84483874 -18.18485148 3.73510158 -20.875 3.625 C-21.81214844 3.5940625 -22.74929688 3.563125 -23.71484375 3.53125 C-24.61074219 3.49257813 -25.50664062 3.45390625 -26.4296875 3.4140625 C-27.25710449 3.3826416 -28.08452148 3.3512207 -28.93701172 3.31884766 C-31 3 -31 3 -33 1 C-32.37544922 1.01047363 -31.75089844 1.02094727 -31.10742188 1.03173828 C-28.23832329 1.07368106 -25.36928952 1.09944653 -22.5 1.125 C-21.02660156 1.15013672 -21.02660156 1.15013672 -19.5234375 1.17578125 C-14.98894337 1.20601121 -10.86090428 1.12626799 -6.46875 -0.0703125 C-3 -1 -3 -1 0 0 Z " fill="#DA2A2D" transform="translate(393,323)"/>
<path d="M0 0 C1.32 0 2.64 0 4 0 C3.67 5.94 3.34 11.88 3 18 C2.01 18 1.02 18 0 18 C0 12.06 0 6.12 0 0 Z " fill="#3D3D3D" transform="translate(283,474)"/>
<path d="M0 0 C0.66 0 1.32 0 2 0 C1.125 4.875 1.125 4.875 0 6 C4.29 6 8.58 6 13 6 C13.33 6.66 13.66 7.32 14 8 C12.824375 7.979375 11.64875 7.95875 10.4375 7.9375 C7.74460042 7.93279213 5.36813293 8.09537616 2.6875 8.5 C-2.22086897 9.16554156 -7.05502384 9.08047882 -12 9 C-12.33 8.34 -12.66 7.68 -13 7 C-12.39671875 6.87882812 -11.7934375 6.75765625 -11.171875 6.6328125 C-10.37265625 6.46523438 -9.5734375 6.29765625 -8.75 6.125 C-7.96109375 5.96257812 -7.1721875 5.80015625 -6.359375 5.6328125 C-4.03168856 5.00849925 -2.10968048 4.15161458 0 3 C0 2.01 0 1.02 0 0 Z " fill="#F5C8C9" transform="translate(308,306)"/>
<path d="M0 0 C0.99 0 1.98 0 3 0 C3 5.94 3 11.88 3 18 C2.01 18 1.02 18 0 18 C0 12.06 0 6.12 0 0 Z " fill="#414141" transform="translate(255,474)"/>
<path d="M0 0 C3.33727786 1.17255709 5.77437487 2.18868404 8 5 C8 5.66 8 6.32 8 7 C3.71 7 -0.58 7 -5 7 C-3.35 4.69 -1.7 2.38 0 0 Z " fill="#292929" transform="translate(215,381)"/>
<path d="M0 0 C1.22589844 0.01353516 1.22589844 0.01353516 2.4765625 0.02734375 C3.41628906 0.04474609 3.41628906 0.04474609 4.375 0.0625 C4.065625 0.660625 3.75625 1.25875 3.4375 1.875 C2.27290296 4.15206772 2.27290296 4.15206772 1.375 7.0625 C-1.99962715 6.51526317 -3.70735 6.0076 -6.625 4.0625 C-6.625 3.0725 -6.625 2.0825 -6.625 1.0625 C-4.21954362 -0.14022819 -2.67503047 -0.03821472 0 0 Z " fill="#EDEDED" transform="translate(273.625,398.9375)"/>
<path d="M0 0 C0 0.99 0 1.98 0 3 C-0.33 3.33 -0.66 3.66 -1 4 C0.65 4 2.3 4 4 4 C3.67 4.66 3.34 5.32 3 6 C2.01 6 1.02 6 0 6 C0 6.66 0 7.32 0 8 C-4.0527516 8.98248524 -7.83861737 9.08159574 -12 9 C-12 8.34 -12 7.68 -12 7 C-11.30132812 6.66226562 -10.60265625 6.32453125 -9.8828125 5.9765625 C-8.97273438 5.53054688 -8.06265625 5.08453125 -7.125 4.625 C-6.22007812 4.18414062 -5.31515625 3.74328125 -4.3828125 3.2890625 C-1.90465528 2.09497301 -1.90465528 2.09497301 0 0 Z " fill="#F2BBBC" transform="translate(345,330)"/>
<path d="M0 0 C3.29875972 4.94813958 3.37720138 9.15337867 3 15 C2.01 15.66 1.02 16.32 0 17 C-1.49341703 14.01316593 -1.13175178 11.25600226 -1.125 7.9375 C-1.12757813 6.66777344 -1.13015625 5.39804687 -1.1328125 4.08984375 C-1 1 -1 1 0 0 Z " fill="#E7797B" transform="translate(260,272)"/>
<path d="M0 0 C0.66 0.33 1.32 0.66 2 1 C1.34 1.66 0.68 2.32 0 3 C3.465 2.505 3.465 2.505 7 2 C6 4 6 4 3.41796875 5.0703125 C2.35191406 5.41835938 1.28585938 5.76640625 0.1875 6.125 C-0.87082031 6.47820312 -1.92914063 6.83140625 -3.01953125 7.1953125 C-6 8 -6 8 -10 8 C-10 7.34 -10 6.68 -10 6 C-9.36191406 5.65066406 -8.72382813 5.30132812 -8.06640625 4.94140625 C-7.24011719 4.48636719 -6.41382813 4.03132813 -5.5625 3.5625 C-4.73878906 3.11003906 -3.91507813 2.65757812 -3.06640625 2.19140625 C-1.07691202 1.16337603 -1.07691202 1.16337603 0 0 Z " fill="#767676" transform="translate(165,445)"/>
<path d="M0 0 C0.33 1.32 0.66 2.64 1 4 C1.66 4 2.32 4 3 4 C3.33 6.97 3.66 9.94 4 13 C3.34 13 2.68 13 2 13 C2 15.31 2 17.62 2 20 C-0.56780471 16.1584024 -0.22688882 12.1860825 -0.125 7.75 C-0.11597656 7.00492187 -0.10695313 6.25984375 -0.09765625 5.4921875 C-0.07418358 3.66131941 -0.03831525 1.83061762 0 0 Z " fill="#F7D4D4" transform="translate(261,283)"/>
<path d="M0 0 C2.64 0.66 5.28 1.32 8 2 C8.33 1.34 8.66 0.68 9 0 C12.63 1.98 16.26 3.96 20 6 C20 6.33 20 6.66 20 7 C12.63927766 6.57534294 6.67862176 4.01651083 0 1 C0 0.67 0 0.34 0 0 Z " fill="#F8DBDC" transform="translate(298,172)"/>
<path d="M0 0 C0.66 0 1.32 0 2 0 C2 5.94 2 11.88 2 18 C0.68 17.67 -0.64 17.34 -2 17 C-2 16.01 -2 15.02 -2 14 C-1.34 14 -0.68 14 0 14 C0 9.38 0 4.76 0 0 Z " fill="#393939" transform="translate(296,474)"/>
<path d="M0 0 C0.33 0 0.66 0 1 0 C1.33 8.91 1.66 17.82 2 27 C1.34 27 0.68 27 0 27 C-3 21.25 -3 21.25 -3 19 C-2.34 18.67 -1.68 18.34 -1 18 C-0.505 9.09 -0.505 9.09 0 0 Z " fill="#DC3538" transform="translate(239,304)"/>
<path d="M0 0 C4.62 0 9.24 0 14 0 C13.67 1.32 13.34 2.64 13 4 C10.03 4 7.06 4 4 4 C3.67 5.32 3.34 6.64 3 8 C3.0928125 6.576875 3.0928125 6.576875 3.1875 5.125 C3.125625 4.09375 3.06375 3.0625 3 2 C2.01 1.34 1.02 0.68 0 0 Z " fill="#9E9E9E" transform="translate(361,473)"/>
<path d="M0 0 C0.66 0.33 1.32 0.66 2 1 C0.35 2.98 -1.3 4.96 -3 7 C0.96 7.33 4.92 7.66 9 8 C9.33 7.34 9.66 6.68 10 6 C10.33 6.99 10.66 7.98 11 9 C5.39 9 -0.22 9 -6 9 C-2 2 -2 2 0 0 Z " fill="#454545" transform="translate(214,380)"/>
<path d="M0 0 C1.485 0.99 1.485 0.99 3 2 C3 2.99 3 3.98 3 5 C3.66 5 4.32 5 5 5 C5.33 6.65 5.66 8.3 6 10 C5.01 9.67 4.02 9.34 3 9 C3.33 11.31 3.66 13.62 4 16 C3.34 15.67 2.68 15.34 2 15 C1.60406879 12.15649404 1.49150146 9.3351283 1.34375 6.46875 C1.2303125 5.6540625 1.116875 4.839375 1 4 C0.34 3.67 -0.32 3.34 -1 3 C-0.67 2.01 -0.34 1.02 0 0 Z " fill="#7F7F7F" transform="translate(196,413)"/>
<path d="M0 0 C0.33 0 0.66 0 1 0 C1 5.61 1 11.22 1 17 C0.01 17 -0.98 17 -2 17 C-1.85978195 14.35375716 -1.71310224 11.70815422 -1.5625 9.0625 C-1.52318359 8.30775391 -1.48386719 7.55300781 -1.44335938 6.77539062 C-1.11328125 1.11328125 -1.11328125 1.11328125 0 0 Z " fill="#F2B7B8" transform="translate(287,248)"/>
<path d="M0 0 C2.97 0.495 2.97 0.495 6 1 C4.7632378 4.7102866 2.99979707 5.60016234 0 8 C-0.33 8.99 -0.66 9.98 -1 11 C-1.66 11 -2.32 11 -3 11 C-3 11.99 -3 12.98 -3 14 C-4.32 13.67 -5.64 13.34 -7 13 C-6.13375 12.1646875 -6.13375 12.1646875 -5.25 11.3125 C-2.9519507 8.950616 -0.84602583 6.73485309 1 4 C0.87436418 1.73575649 0.87436418 1.73575649 0 0 Z " fill="#838383" transform="translate(225,439)"/>
<path d="M0 0 C0.99 0.33 1.98 0.66 3 1 C0.38485683 3.12038635 -2.19637616 5.13091744 -5 7 C-4.67 5.68 -4.34 4.36 -4 3 C-3.34 3 -2.68 3 -2 3 C-2 2.34 -2 1.68 -2 1 C-1.34 0.67 -0.68 0.34 0 0 Z M-19 7 C-14.38 7 -9.76 7 -5 7 C-5.33 7.99 -5.66 8.98 -6 10 C-6.66 9.67 -7.32 9.34 -8 9 C-9.87056791 8.7724985 -11.74685958 8.59037189 -13.625 8.4375 C-14.62789063 8.35371094 -15.63078125 8.26992188 -16.6640625 8.18359375 C-17.43492187 8.12300781 -18.20578125 8.06242187 -19 8 C-19 7.67 -19 7.34 -19 7 Z " fill="#5C5C5C" transform="translate(446,394)"/>
<path d="M0 0 C4.29 0 8.58 0 13 0 C12.67 1.32 12.34 2.64 12 4 C8.7 3.67 5.4 3.34 2 3 C2 2.34 2 1.68 2 1 C1.34 0.67 0.68 0.34 0 0 Z " fill="#DD3F42" transform="translate(232,202)"/>
<path d="M0 0 C-0.66 1.32 -1.32 2.64 -2 4 C-4.97 4 -7.94 4 -11 4 C-11.33 3.01 -11.66 2.02 -12 1 C-10.37512529 0.83211627 -8.75009558 0.66573213 -7.125 0.5 C-6.22007812 0.4071875 -5.31515625 0.314375 -4.3828125 0.21875 C-2 0 -2 0 0 0 Z " fill="#646464" transform="translate(394,488)"/>
<path d="M0 0 C0.33 0 0.66 0 1 0 C1.28580155 4.03932853 1.45551292 7.97005043 1 12 C-1.5 14.75 -1.5 14.75 -4 16 C-4.66 15.67 -5.32 15.34 -6 15 C-5.34 14.34 -4.68 13.68 -4 13 C-3.75746187 10.78927023 -3.75746187 10.78927023 -3.875 8.375 C-3.89304687 7.55773437 -3.91109375 6.74046875 -3.9296875 5.8984375 C-3.95289063 5.27195312 -3.97609375 4.64546875 -4 4 C-3.34 4.33 -2.68 4.66 -2 5 C-1.67 5.99 -1.34 6.98 -1 8 C-0.67 5.36 -0.34 2.72 0 0 Z " fill="#B3B3B3" transform="translate(360,386)"/>
<path d="M0 0 C1.9375 0.5625 1.9375 0.5625 4 2 C4.75 5.625 4.75 5.625 5 9 C5.99 9.33 6.98 9.66 8 10 C7.01 10.495 7.01 10.495 6 11 C5.34 10.67 4.68 10.34 4 10 C4 10.99 4 11.98 4 13 C1.69 12.67 -0.62 12.34 -3 12 C-3 11.67 -3 11.34 -3 11 C-1.35 10.67 0.3 10.34 2 10 C2.29562367 4.67829506 2.29562367 4.67829506 0 0 Z " fill="#8C8C8C" transform="translate(259,378)"/>
<path d="M0 0 C0.5625 1.9375 0.5625 1.9375 1 4 C0.67 4.33 0.34 4.66 0 5 C-0.23481693 7.18292774 -0.41363323 9.37203174 -0.5625 11.5625 C-0.68818359 13.35880859 -0.68818359 13.35880859 -0.81640625 15.19140625 C-0.87699219 16.11824219 -0.93757813 17.04507812 -1 18 C-4 17 -4 17 -5.6875 13.9375 C-6.120625 12.968125 -6.55375 11.99875 -7 11 C-6.34 11 -5.68 11 -5 11 C-5 11.66 -5 12.32 -5 13 C-4.34 13 -3.68 13 -3 13 C-2.95101563 12.39671875 -2.90203125 11.7934375 -2.8515625 11.171875 C-2.73941406 9.97304687 -2.73941406 9.97304687 -2.625 8.75 C-2.55539062 7.96109375 -2.48578125 7.1721875 -2.4140625 6.359375 C-1.98492887 3.914123 -1.21399362 2.15163097 0 0 Z " fill="#DD3E40" transform="translate(287,244)"/>
<path d="M0 0 C0.33 0.66 0.66 1.32 1 2 C10.24 2 19.48 2 29 2 C29 2.33 29 2.66 29 3 C19.43 3.33 9.86 3.66 0 4 C-0.33 3.34 -0.66 2.68 -1 2 C-0.67 1.34 -0.34 0.68 0 0 Z " fill="#E9E9E9" transform="translate(266,384)"/>
<path d="M0 0 C0 0.66 0 1.32 0 2 C2.97 1.34 5.94 0.68 9 0 C7.53706784 2.92586433 5.59729902 3.05946588 2.5625 4.125 C1.57378906 4.47820312 0.58507812 4.83140625 -0.43359375 5.1953125 C-3 6 -3 6 -5 6 C-5 3 -5 3 -3.625 1.3125 C-2 0 -2 0 0 0 Z " fill="#E36062" transform="translate(216,239)"/>
<path d="M0 0 C0.99 0.33 1.98 0.66 3 1 C1.71937515 2.7074998 0.38232443 4.37373596 -1 6 C-1.66 6 -2.32 6 -3 6 C-3.33 6.99 -3.66 7.98 -4 9 C-6.5625 10.1875 -6.5625 10.1875 -9 11 C-7.59155282 7.78475695 -5.89655214 5.67816132 -3.375 3.25 C-2.74335938 2.63640625 -2.11171875 2.0228125 -1.4609375 1.390625 C-0.73777344 0.70226562 -0.73777344 0.70226562 0 0 Z " fill="#F3BBBB" transform="translate(270,230)"/>
<path d="M0 0 C1.4783226 2.95664519 1.06032783 5.74229737 1 9 C1.33 7.02 1.66 5.04 2 3 C2.33 3 2.66 3 3 3 C3.66 5.97 4.32 8.94 5 12 C4.01 12.33 3.02 12.66 2 13 C1.01 12.34 0.02 11.68 -1 11 C-1.328125 8.65234375 -1.328125 8.65234375 -1.25 5.9375 C-1.23453125 5.03902344 -1.2190625 4.14054687 -1.203125 3.21484375 C-1 1 -1 1 0 0 Z " fill="#787878" transform="translate(379,477)"/>
<path d="M0 0 C0.66 0.33 1.32 0.66 2 1 C2.6328125 3.28515625 2.6328125 3.28515625 3.125 6.0625 C3.29257812 6.98160156 3.46015625 7.90070313 3.6328125 8.84765625 C3.75398438 9.55792969 3.87515625 10.26820313 4 11 C2.68 11 1.36 11 0 11 C-1.125 3.375 -1.125 3.375 0 0 Z " fill="#5D5D5D" transform="translate(275,481)"/>
<path d="M0 0 C0.66 0 1.32 0 2 0 C1.40339753 3.34097385 0.36924875 5.54300129 -2 8 C-3.32 8 -4.64 8 -6 8 C-6 8.66 -6 9.32 -6 10 C-6.66 9.67 -7.32 9.34 -8 9 C-7.34 8.01 -6.68 7.02 -6 6 C-5.34 6 -4.68 6 -4 6 C-3.67 5.01 -3.34 4.02 -3 3 C-2.34 3 -1.68 3 -1 3 C-0.67 2.01 -0.34 1.02 0 0 Z " fill="#F6CDCE" transform="translate(304,222)"/>
<path d="M0 0 C0 0.66 0 1.32 0 2 C1.65 1.67 3.3 1.34 5 1 C1.59141414 4.40858586 -3.32201465 4.93008394 -8 5.125 C-8.66 5.08375 -9.32 5.0425 -10 5 C-8.28489314 1.56978628 -3.75681361 0 0 0 Z " fill="#626262" transform="translate(408,428)"/>
<path d="M0 0 C-0.33 7.92 -0.66 15.84 -1 24 C-1.33 24 -1.66 24 -2 24 C-2 16.74 -2 9.48 -2 2 C-2.99 1.67 -3.98 1.34 -5 1 C-3 0 -3 0 0 0 Z " fill="#F1B3B4" transform="translate(230,277)"/>
<path d="M0 0 C0 0.99 0 1.98 0 3 C1.65 3.33 3.3 3.66 5 4 C1.77208445 6.1519437 0.71599191 6.20086443 -3 6 C-3.33 6.66 -3.66 7.32 -4 8 C-4 7.01 -4 6.02 -4 5 C-4.66 4.67 -5.32 4.34 -6 4 C-4.02 2.68 -2.04 1.36 0 0 Z " fill="#595959" transform="translate(265,414)"/>
<path d="M0 0 C0.125 6.625 0.125 6.625 -1 10 C2.465 9.505 2.465 9.505 6 9 C5.67 9.66 5.34 10.32 5 11 C2.35139573 11.59355614 -0.29197322 11.74209269 -3 12 C-2.34 8.7 -1.68 5.4 -1 2 C-2.32 1.67 -3.64 1.34 -5 1 C-2 0 -2 0 0 0 Z " fill="#E77B7C" transform="translate(394,250)"/>
<path d="M0 0 C2.83328987 2.83328987 3.7191375 4.35446828 5 8 C4.01 7.67 3.02 7.34 2 7 C1.67 9.31 1.34 11.62 1 14 C0.67 14 0.34 14 0 14 C0 9.38 0 4.76 0 0 Z " fill="#C5C5C5" transform="translate(286,478)"/>
<path d="M0 0 C0.66 0 1.32 0 2 0 C1.690625 0.5775 1.38125 1.155 1.0625 1.75 C0.07416636 3.84294184 -0.5168613 5.74535275 -1 8 C-2.65 7.67 -4.3 7.34 -6 7 C-6 6.34 -6 5.68 -6 5 C-5.34 5 -4.68 5 -4 5 C-4 4.34 -4 3.68 -4 3 C-2.68 2.67 -1.36 2.34 0 2 C0 1.34 0 0.68 0 0 Z " fill="#C9C9C9" transform="translate(448,409)"/>
<path d="M0 0 C2.21368294 2.21368294 3.86552921 3.93016625 4.265625 7.11328125 C4.25166986 9.07746787 4.13286356 11.0402625 4 13 C2 12 2 12 0.875 9.3125 C0.01110926 6.0420565 -0.16013991 3.36293818 0 0 Z " fill="#EEA2A3" transform="translate(277,251)"/>
<path d="M0 0 C0.33 0.99 0.66 1.98 1 3 C-1.31 2.67 -3.62 2.34 -6 2 C-6 1.34 -6 0.68 -6 0 C-6.99 -0.33 -7.98 -0.66 -9 -1 C-5.19881294 -2.26706235 -3.6149628 -1.57172296 0 0 Z " fill="#DD4042" transform="translate(359,191)"/>
<path d="M0 0 C2.31 0 4.62 0 7 0 C7 2.31 7 4.62 7 7 C6.01 7 5.02 7 4 7 C4 5.02 4 3.04 4 1 C2.68 0.67 1.36 0.34 0 0 Z " fill="#3B3B3B" transform="translate(313,483)"/>
<path d="M0 0 C0.99 0.33 1.98 0.66 3 1 C3.33 2.98 3.66 4.96 4 7 C2.35 7 0.7 7 -1 7 C-0.67 4.69 -0.34 2.38 0 0 Z " fill="#D5D5D5" transform="translate(269,477)"/>
<path d="M0 0 C0.33 0.66 0.66 1.32 1 2 C1.66 2.33 2.32 2.66 3 3 C2.01 5.64 1.02 8.28 0 11 C-1 9 -1 9 -1 6 C-1.66 6 -2.32 6 -3 6 C-1.125 1.125 -1.125 1.125 0 0 Z " fill="#F4C4C5" transform="translate(257,245)"/>
<path d="M0 0 C4.50802601 1.25805377 7.4912812 2.90407165 11 6 C9.53984709 5.71758359 8.08190207 5.42373386 6.625 5.125 C5.81289063 4.96257812 5.00078125 4.80015625 4.1640625 4.6328125 C2 4 2 4 0 2 C0 1.34 0 0.68 0 0 Z " fill="#EC9293" transform="translate(342,184)"/>
<path d="M0 0 C1.65 0 3.3 0 5 0 C4.67 0.66 4.34 1.32 4 2 C3.34 2 2.68 2 2 2 C1.67 4.97 1.34 7.94 1 11 C0.67 11 0.34 11 0 11 C0 7.37 0 3.74 0 0 Z " fill="#DC282B" transform="translate(297,139)"/>
<path d="M0 0 C0.66 0.33 1.32 0.66 2 1 C0.02 3.97 0.02 3.97 -2 7 C-2.33 6.34 -2.66 5.68 -3 5 C-5.97 5 -8.94 5 -12 5 C-12 4.67 -12 4.34 -12 4 C-6.555 3.505 -6.555 3.505 -1 3 C-0.67 2.01 -0.34 1.02 0 0 Z " fill="#6B6B6B" transform="translate(281,394)"/>
<path d="M0 0 C3.3 0 6.6 0 10 0 C10 0.66 10 1.32 10 2 C4.58461538 3.23076923 4.58461538 3.23076923 1.625 2.0625 C1.08875 1.711875 0.5525 1.36125 0 1 C0 0.67 0 0.34 0 0 Z " fill="#DD3234" transform="translate(340,266)"/>
<path d="M0 0 C2.31 0.33 4.62 0.66 7 1 C7 1.66 7 2.32 7 3 C8.65 3.33 10.3 3.66 12 4 C12 4.66 12 5.32 12 6 C7.53866273 4.86279638 3.79558613 3.64540851 0 1 C0 0.67 0 0.34 0 0 Z " fill="#E25355" transform="translate(220,175)"/>
<path d="M0 0 C0.33 0 0.66 0 1 0 C1.33 4.62 1.66 9.24 2 14 C0.35 13.67 -1.3 13.34 -3 13 C-3.33 12.34 -3.66 11.68 -4 11 C-2.68 11.33 -1.36 11.66 0 12 C0 8.04 0 4.08 0 0 Z " fill="#F0ABAC" transform="translate(296,139)"/>
<path d="M0 0 C-2.31 1.65 -4.62 3.3 -7 5 C-7 4.01 -7 3.02 -7 2 C-8.32 1.67 -9.64 1.34 -11 1 C-3.375 -1.125 -3.375 -1.125 0 0 Z " fill="#DF4346" transform="translate(393,323)"/>
<path d="M0 0 C3.3 0.99 6.6 1.98 10 3 C10 3.33 10 3.66 10 4 C3.375 5.25 3.375 5.25 0 3 C0 2.01 0 1.02 0 0 Z " fill="#F1B2B3" transform="translate(334,231)"/>
<path d="M0 0 C2.31 0.33 4.62 0.66 7 1 C6.625 3.4375 6.625 3.4375 6 6 C5.01 6.495 5.01 6.495 4 7 C3.566875 5.824375 3.566875 5.824375 3.125 4.625 C2.15087746 1.90328368 2.15087746 1.90328368 0 0 Z " fill="#E35A5C" transform="translate(344,320)"/>
<path d="M0 0 C2.4375 0.8125 2.4375 0.8125 5 2 C5.33 2.99 5.66 3.98 6 5 C6.66 5.33 7.32 5.66 8 6 C7.67 6.66 7.34 7.32 7 8 C5.8274869 7.04882866 4.66212985 6.08882991 3.5 5.125 C2.8503125 4.59132813 2.200625 4.05765625 1.53125 3.5078125 C1.0259375 3.01023437 0.520625 2.51265625 0 2 C0 1.34 0 0.68 0 0 Z " fill="#F3BCBD" transform="translate(272,279)"/>
<path d="M0 0 C0.66 0 1.32 0 2 0 C1.88637738 1.4800841 1.75877092 2.95910074 1.625 4.4375 C1.52058594 5.67306641 1.52058594 5.67306641 1.4140625 6.93359375 C1.27742188 7.61550781 1.14078125 8.29742187 1 9 C0.01 9.495 0.01 9.495 -1 10 C-1.125 2.25 -1.125 2.25 0 0 Z " fill="#3B3B3B" transform="translate(380,477)"/>
<path d="M0 0 C0.66 0 1.32 0 2 0 C1.88637738 1.4800841 1.75877092 2.95910074 1.625 4.4375 C1.52058594 5.67306641 1.52058594 5.67306641 1.4140625 6.93359375 C1.27742188 7.61550781 1.14078125 8.29742187 1 9 C0.01 9.495 0.01 9.495 -1 10 C-1.125 2.25 -1.125 2.25 0 0 Z " fill="#3B3B3B" transform="translate(305,477)"/>
<path d="M0 0 C0.433125 0.639375 0.86625 1.27875 1.3125 1.9375 C2.91239177 4.26746003 2.91239177 4.26746003 6 5 C6 5.66 6 6.32 6 7 C1.25 6.25 1.25 6.25 -1 4 C-0.625 1.875 -0.625 1.875 0 0 Z " fill="#3D3D3D" transform="translate(344,476)"/>
<path d="M0 0 C0.99 0.495 0.99 0.495 2 1 C2 2.65 2 4.3 2 6 C2.99 6 3.98 6 5 6 C5 7.98 5 9.96 5 12 C3 11 3 11 2.1484375 9.00390625 C1.89320313 8.19824219 1.63796875 7.39257812 1.375 6.5625 C1.11460937 5.75941406 0.85421875 4.95632813 0.5859375 4.12890625 C0 2 0 2 0 0 Z " fill="#E46264" transform="translate(264,291)"/>
<path d="M0 0 C1.27875 -0.061875 2.5575 -0.12375 3.875 -0.1875 C4.95394531 -0.23970703 4.95394531 -0.23970703 6.0546875 -0.29296875 C6.69664062 -0.19628906 7.33859375 -0.09960938 8 0 C8.66 0.99 9.32 1.98 10 3 C4.58461538 3.36923077 4.58461538 3.36923077 1.625 1.5 C1.08875 1.005 0.5525 0.51 0 0 Z " fill="#F7D2D3" transform="translate(333,183)"/>
<path d="M0 0 C2.31 0.33 4.62 0.66 7 1 C6.67 1.66 6.34 2.32 6 3 C3.69 3 1.38 3 -1 3 C-0.67 2.01 -0.34 1.02 0 0 Z " fill="#E36264" transform="translate(329,338)"/>
<path d="M0 0 C3.3 0.33 6.6 0.66 10 1 C10 1.33 10 1.66 10 2 C8.576875 2.2165625 8.576875 2.2165625 7.125 2.4375 C4.1065506 2.82935399 4.1065506 2.82935399 2 4 C1.34 3.67 0.68 3.34 0 3 C0 2.01 0 1.02 0 0 Z " fill="#7B7B7B" transform="translate(342,488)"/>
<path d="M0 0 C0.99 0.33 1.98 0.66 3 1 C3.33 2.98 3.66 4.96 4 7 C3.01 7 2.02 7 1 7 C0.67 4.69 0.34 2.38 0 0 Z " fill="#4F4F4F" transform="translate(272,477)"/>
<path d="M0 0 C0.66 0.33 1.32 0.66 2 1 C1.67 2.65 1.34 4.3 1 6 C0.67 5.34 0.34 4.68 0 4 C-1.65 4.66 -3.3 5.32 -5 6 C-4.34 4.68 -3.68 3.36 -3 2 C-2.01 2 -1.02 2 0 2 C0 1.34 0 0.68 0 0 Z " fill="#7E7E7E" transform="translate(423,405)"/>
<path d="M0 0 C0.66 0.33 1.32 0.66 2 1 C2 1.99 2 2.98 2 4 C-4.15234375 3.4140625 -4.15234375 3.4140625 -6 3 C-6.33 2.34 -6.66 1.68 -7 1 C-4.69 1.33 -2.38 1.66 0 2 C0 1.34 0 0.68 0 0 Z " fill="#ED9A9C" transform="translate(287,282)"/>
<path d="M0 0 C0.12375 0.61875 0.2475 1.2375 0.375 1.875 C0.87197356 4.19120832 0.87197356 4.19120832 3 6 C1.02 6.33 -0.96 6.66 -3 7 C-1.125 2.25 -1.125 2.25 0 0 Z " fill="#DF4C4F" transform="translate(220,274)"/>
<path d="M0 0 C-0.33 0.99 -0.66 1.98 -1 3 C-1.66 3 -2.32 3 -3 3 C-3 3.66 -3 4.32 -3 5 C-4.32 4.67 -5.64 4.34 -7 4 C-2.25 0 -2.25 0 0 0 Z " fill="#E4686A" transform="translate(278,225)"/>
</svg>
