<?xml version="1.0" standalone="no"?><!DOCTYPE svg PUBLIC "-//W3C//DTD SVG 1.1//EN" "http://www.w3.org/Graphics/SVG/1.1/DTD/svg11.dtd"><svg t="1735375234846" class="icon" viewBox="0 0 1024 1024" version="1.1" xmlns="http://www.w3.org/2000/svg" p-id="33699" xmlns:xlink="http://www.w3.org/1999/xlink" width="200" height="200"><path d="M512 1013.290667c276.885333 0 501.333333-224.448 501.333333-501.333334S788.885333 10.624 512 10.624 10.666667 235.072 10.666667 511.957333s224.448 501.333333 501.333333 501.333334z" fill="#1B77BF" p-id="33700"></path><path d="M512 10.624C235.114667 10.624 10.666667 235.072 10.666667 511.957333c0 140.8 58.325333 268.053333 151.402666 358.762667L864.298667 155.541333C773.546667 66.005333 649.258667 10.624 512 10.624z" fill="#3D96D7" p-id="33701"></path><path d="M295.253333 396.501333H192.746667v237.418667h102.506666a97.28 97.28 0 0 0 97.194667-97.216v-43.008a97.28 97.28 0 0 0-97.194667-97.194667z m45.354667 144.917334a52.8 52.8 0 0 1-53.013333 53.013333h-41.813334v-158.464h41.813334a52.8 52.8 0 0 1 53.013333 53.013333v52.437334zM632.789333 396.501333H583.893333v153.749334l-86.613333-153.749334h-63.018667v237.418667h47.701334v-160.853333l90.730666 160.853333h60.096v-237.44zM810.666667 400.042667s-31.210667-15.317333-74.816-10.602667c-44.757333 4.714667-68.906667 28.864-69.504 61.269333-0.597333 44.181333 21.205333 62.442667 49.493333 73.045334 28.266667 10.026667 57.130667 20.053333 53.610667 49.493333-3.541333 28.864-27.093333 28.266667-43.605334 25.322667-17.066667-3.52-57.728-24.746667-57.728-24.746667l2.944 57.173333s41.237333 16.469333 68.330667 16.469334c32.405333 0 81.28-11.776 87.786667-65.984 6.464-53.610667-25.344-73.045333-48.896-84.224-23.573333-11.2-53.610667-17.685333-54.805334-42.432-0.576-16.490667 6.485333-25.322667 28.288-24.149334 20.032 1.173333 61.269333 17.685333 61.269334 17.685334L810.666667 400.042667z" fill="#FFFFFF" p-id="33702"></path><path d="M878.464 228.586667a493.184 493.184 0 0 0-40.64-45.952c-83.669333-82.474667-198.528-133.717333-325.781333-133.717334A460.309333 460.309333 0 0 0 190.378667 179.114667c-14.72 14.144-28.266667 29.44-41.237334 45.354666a462.677333 462.677333 0 0 0-100.138666 287.488c0 110.762667 38.869333 212.074667 103.68 291.626667 12.970667 15.893333 27.093333 31.210667 41.813333 44.757333a459.52 459.52 0 0 0 298.112 126.08c5.290667 0.576 10.602667 1.173333 15.317333 1.173334 4.693333 0 9.408-0.597333 13.546667-0.597334 121.941333-2.346667 231.509333-51.84 313.386667-130.197333 14.741333-14.144 28.288-29.44 41.258666-45.354667a461.418667 461.418667 0 0 0 100.138667-287.488c-1.173333-106.624-37.12-205.013333-97.792-283.370666z m-89.536-19.413334a536.042667 536.042667 0 0 1-86.613333 31.210667c-18.837333-48.32-42.410667-89.557333-70.101334-120.768a403.477333 403.477333 0 0 1 156.714667 89.536z m-281.6-106.048c55.381333 0 104.277333 58.304 137.258667 150.208a726.634667 726.634667 0 0 1-272.746667-3.541333c32.384-89.536 80.704-146.666667 135.488-146.666667z m-128.426667 20.608c-24.746667 29.44-46.528 67.157333-64.213333 111.36a550.912 550.912 0 0 1-75.989333-29.482666A414.4 414.4 0 0 1 378.88 123.733333zM243.413333 822.4c22.378667-10.581333 46.528-19.413333 71.274667-27.093333 15.914667 40.064 35.946667 75.413333 57.728 103.104a423.829333 423.829333 0 0 1-129.002667-75.989334z m288.64 99.584c-6.464 0.576-13.525333 0.576-20.010666 0.576-11.2 0-21.802667-0.576-32.405334-1.173333-43.008-15.893333-80.704-67.157333-107.797333-140.8a726.634667 726.634667 0 0 1 272.746667-3.52c-28.266667 76.586667-67.733333 130.176-112.512 144.917333z m106.666667-19.456c24.725333-30.037333 45.930667-68.330667 63.594667-113.088 28.885333 8.234667 56.554667 17.664 82.496 29.44a409.685333 409.685333 0 0 1-146.112 83.669333z m187.904-127.232c-32.981333-14.72-69.504-26.517333-107.221333-36.522667 5.888-20.629333 11.2-41.834667 15.317333-64.213333h-64.213333a1134.272 1134.272 0 0 1-11.178667 51.84 849.706667 849.706667 0 0 0-141.973333-11.797333c-56.576 0-110.762667 5.312-161.429334 15.317333a698.304 698.304 0 0 1-12.373333-55.36h-63.616c4.693333 24.149333 10.602667 47.125333 17.066667 69.504a666.88 666.88 0 0 0-96.597334 34.773333c-54.784-64.213333-90.730667-145.514667-97.792-235.072h47.722667v-61.866666H102.613333a406.506667 406.506667 0 0 1 94.250667-232.682667 716.928 716.928 0 0 0 100.16 36.522667 620.885333 620.885333 0 0 0-15.317333 61.269333h63.616c2.944-16.490667 6.485333-31.808 10.602666-47.146667 51.242667 10.026667 105.450667 15.338667 161.408 15.338667 48.917333 0 96.64-4.138667 141.994667-11.797333 3.52 14.144 7.04 28.288 9.408 43.605333h64.213333a704.554667 704.554667 0 0 0-14.122666-55.957333c39.466667-10.026667 76.586667-22.976 110.741333-37.717334a409.941333 409.941333 0 0 1 91.306667 229.162667h-51.84v62.442667h51.264c-5.888 87.189333-40.064 166.72-93.653334 230.357333z" fill="#D8EAF0" p-id="33703"></path></svg>