<?xml version="1.0" standalone="no"?><!DOCTYPE svg PUBLIC "-//W3C//DTD SVG 1.1//EN" "http://www.w3.org/Graphics/SVG/1.1/DTD/svg11.dtd"><svg t="1735375148113" class="icon" viewBox="0 0 1024 1024" version="1.1" xmlns="http://www.w3.org/2000/svg" p-id="24893" xmlns:xlink="http://www.w3.org/1999/xlink" width="200" height="200"><path d="M496 736a16 16 0 0 1 15.744 13.12l0.256 2.88V832h64a32 32 0 0 1 32 32h304a16 16 0 0 1 2.88 31.744L912 896H608a32 32 0 0 1-32 32h-160a32 32 0 0 1-32-32H112a16 16 0 0 1-2.88-31.744L112 864H384a32 32 0 0 1 32-32h64v-80a16 16 0 0 1 16-16z" fill="#5D6D7E" p-id="24894"></path><path d="M416 864.544h160v32h-160z" fill="#95A1AF" p-id="24895"></path><path d="M881.92 288.672a32 32 0 0 1 30.72 41.088l-104.32 352a32 32 0 0 1-30.72 22.912H217.12a32 32 0 0 1-31.2-24.832l-80.896-352a32 32 0 0 1 31.2-39.168H881.92z m-498.08 127.392h-127.68v160.448h31.584v-64.64h64.48v-31.04H287.744V448.32h96.096v-32.256z m192.352 0h-159.648v32.256h63.904v128.192h32V448.32h63.744v-32.256z m112.288 0h-80.096v160.448h31.936V512.32l48.16-0.224a48.128 48.128 0 0 0 47.904-48.096c0-26.464-21.44-47.904-47.904-47.904zM640.32 448.32h48.192a16.448 16.448 0 0 1 0 32.896H640.32v-32.896z" fill="#C49F74" p-id="24896"></path><path d="M388.256 96.544a48 48 0 0 1 28.288 9.216l3.936 3.2 52.384 47.456a16 16 0 0 0 7.808 3.872l2.944 0.256h300.704a48 48 0 0 1 47.808 43.392l0.192 4.608v32.448a16 16 0 0 1-31.744 2.88l-0.256-2.88V208.544a16 16 0 0 0-13.12-15.712l-2.88-0.288h-300.704a48 48 0 0 1-28.288-9.216l-3.936-3.2-52.384-47.424a16 16 0 0 0-7.808-3.872l-2.944-0.288H208.64a16 16 0 0 0-15.744 13.12l-0.256 2.88v96.448a16 16 0 0 1-31.744 2.88l-0.256-2.88V144.544a48 48 0 0 1 43.36-47.776l4.64-0.224h179.648z" fill="#C49F74" p-id="24897"></path></svg>