<?xml version="1.0" standalone="no"?><!DOCTYPE svg PUBLIC "-//W3C//DTD SVG 1.1//EN" "http://www.w3.org/Graphics/SVG/1.1/DTD/svg11.dtd"><svg t="1735313448798" class="icon" viewBox="0 0 1024 1024" version="1.1" xmlns="http://www.w3.org/2000/svg" p-id="76738" xmlns:xlink="http://www.w3.org/1999/xlink" width="200" height="200"><path d="M426.666667 170.666667H170.666667c-47.36 0-85.333333 37.973333-85.333334 85.333333v512c0 46.805333 38.528 85.333333 85.333334 85.333333h682.666666c46.805333 0 85.333333-38.528 85.333334-85.333333V341.333333a85.333333 85.333333 0 0 0-85.333334-85.333333h-341.333333l-85.333333-85.333333z" fill="#0097A7" p-id="76739"></path><path d="M1000.149333 436.437333c-22.272-40.106667-62.122667-52.053333-90.24-52.608-34.517333-0.682667-62.848 18.432-57.514666 30.976 1.152 2.688 7.637333 16.768 11.605333 22.570667 5.76 8.362667 16.042667 1.92 19.626667 0 10.794667-5.717333 22.314667-7.552 35.370666-6.016 12.458667 1.408 29.013333 9.130667 40.149334 30.464 26.154667 50.304-54.613333 153.770667-155.733334 82.133333-101.077333-71.68-199.381333-47.914667-243.925333-33.493333-44.501333 14.464-64.981333 28.970667-47.36 62.549333 23.893333 45.653333 15.957333 31.658667 39.125333 69.418667 36.821333 59.989333 117.418667-27.605333 117.418667-27.605333-60.032 88.490667-111.488 67.114667-131.242667 36.181333-17.792-27.904-31.573333-60.032-31.573333-60.032-152.064 53.632-110.933333 290.346667-110.933333 290.346667h75.52c19.2-87.168 88.064-83.925333 99.84 0h57.6c50.986667-170.24 180.138667 0 180.138666 0h75.093334c-21.034667-116.053333 42.24-152.576 82.133333-220.629334 39.893333-68.096 77.653333-151.338667 34.901333-224.256z m-193.706666 224.170667c-39.722667-12.970667-25.514667-52.48-25.514667-52.48s34.688 11.221333 81.578667 26.496c-2.688 12.288-26.026667 35.797333-56.064 25.984z" fill="#B2EBF2" p-id="76740"></path></svg>