<?xml version="1.0" standalone="no"?><!DOCTYPE svg PUBLIC "-//W3C//DTD SVG 1.1//EN" "http://www.w3.org/Graphics/SVG/1.1/DTD/svg11.dtd"><svg t="1735313497414" class="icon" viewBox="0 0 1024 1024" version="1.1" xmlns="http://www.w3.org/2000/svg" p-id="80485" xmlns:xlink="http://www.w3.org/1999/xlink" width="200" height="200"><path d="M512 512m-448 0a448 448 0 1 0 896 0 448 448 0 1 0-896 0Z" fill="#0769AD" p-id="80486"></path><path d="M725.024 429.472c40.224 0 77.056-13.44 105.536-35.648-29.568 38.944-78.528 64.416-133.952 64.416-90.272 0-163.456-67.584-163.456-150.944 0-46.24 22.496-87.616 57.92-115.296a142.496 142.496 0 0 0-29.504 86.528c0 83.36 73.184 150.944 163.456 150.944z" fill="#78CFF5" p-id="80487"></path><path d="M828.992 533.088c-43.36 34.016-99.52 54.528-160.8 54.528-137.408 0-248.768-102.976-248.768-230.016 0-49.28 16.768-94.912 45.28-132.352-53.76 42.176-87.936 105.152-87.936 175.488 0 127.04 111.36 230.016 248.768 230.016 84.096 0 158.432-38.592 203.456-97.664z" fill="#78CFF5" p-id="80488"></path><path d="M832 664.64c-61.792 58.976-147.392 95.488-242.016 95.488-188.384 0-341.12-144.832-341.12-323.456 0-56.64 15.328-109.824 42.272-156.096C229.856 339.04 192 419.616 192 508.544 192 687.168 344.736 832 533.12 832c128.736 0 240.8-67.584 298.88-167.36z" fill="#78CFF5" p-id="80489"></path></svg>