<?xml version="1.0" standalone="no"?><!DOCTYPE svg PUBLIC "-//W3C//DTD SVG 1.1//EN" "http://www.w3.org/Graphics/SVG/1.1/DTD/svg11.dtd"><svg t="1735313609318" class="icon" viewBox="0 0 1024 1024" version="1.1" xmlns="http://www.w3.org/2000/svg" p-id="93287" xmlns:xlink="http://www.w3.org/1999/xlink" width="200" height="200"><path d="M0 512c0 283.306667 228.693333 512 512 512s512-228.693333 512-512S795.306667 0 512 0 0 228.693333 0 512z" fill="#CEDFE8" p-id="93288"></path><path d="M369.777778 816.924444h-25.031111c-1.137778-35.271111-3.413333-70.542222-6.826667-105.813333l-37.546667 105.813333h-19.342222l-37.546667-105.813333c-3.413333 35.271111-4.551111 70.542222-5.688888 105.813333h-22.755556c1.137778-47.786667 5.688889-92.16 11.377778-133.12h30.72l36.408889 97.848889 36.408889-97.848889h29.582222c4.551111 44.373333 9.102222 88.746667 10.24 133.12z m108.088889-97.848888c-10.24 48.924444-23.893333 85.333333-39.822223 106.951111-12.515556 17.066667-27.306667 26.168889-42.097777 26.168889-4.551111 0-9.102222-1.137778-14.791111-3.413334v-11.377778c3.413333 0 6.826667 1.137778 10.24 1.137778 6.826667 0 12.515556-2.275556 17.066666-5.688889 5.688889-4.551111 7.964444-9.102222 7.964445-14.791111 0-3.413333-2.275556-11.377778-5.688889-22.755555l-27.306667-76.231111h25.031111l19.342222 56.888888c4.551111 12.515556 5.688889 21.617778 5.688889 27.306667 11.377778-27.306667 18.204444-54.613333 22.755556-84.195555H477.866667z" fill="#5D87A0" p-id="93289"></path><path d="M587.093333 780.515556c0 11.377778-4.551111 21.617778-13.653333 27.306666-9.102222 6.826667-21.617778 11.377778-37.546667 11.377778-14.791111 0-28.444444-4.551111-42.097777-12.515556l6.826666-11.377777c11.377778 5.688889 22.755556 7.964444 31.857778 7.964444 9.102222 0 15.928889-2.275556 21.617778-5.688889 4.551111-3.413333 7.964444-7.964444 7.964444-14.791111 0-7.964444-5.688889-14.791111-17.066666-20.48-10.24-4.551111-31.857778-15.928889-31.857778-15.928889-11.377778-7.964444-17.066667-14.791111-17.066667-28.444444 0-10.24 4.551111-19.342222 12.515556-26.168889 7.964444-6.826667 19.342222-10.24 32.995555-10.24s26.168889 3.413333 37.546667 10.24l-5.688889 11.377778c-9.102222-3.413333-19.342222-5.688889-28.444444-5.688889-7.964444 0-13.653333 1.137778-18.204445 4.551111-4.551111 3.413333-6.826667 7.964444-6.826667 12.515555 0 7.964444 6.826667 14.791111 18.204445 20.48 10.24 5.688889 31.857778 15.928889 31.857778 15.928889 11.377778 7.964444 17.066667 15.928889 17.066666 29.582223z m133.12 39.822222l-10.24 14.791111-35.271111-18.204445c-5.688889 1.137778-12.515556 2.275556-19.342222 2.275556-19.342222 0-32.995556-4.551111-42.097778-14.791111-10.24-11.377778-15.928889-28.444444-15.928889-51.2 0-23.893333 5.688889-42.097778 17.066667-54.613333 10.24-11.377778 25.031111-17.066667 44.373333-17.066667 38.684444 0 58.026667 21.617778 58.026667 65.991111 0 23.893333-5.688889 42.097778-17.066667 54.613333-2.275556 2.275556-4.551111 4.551111-6.826666 5.688889l27.306666 12.515556z m-88.746666-29.582222c5.688889 7.964444 14.791111 12.515556 26.168889 12.515555 22.755556 0 34.133333-17.066667 34.133333-51.2 0-19.342222-3.413333-32.995556-9.102222-40.96-5.688889-7.964444-14.791111-12.515556-26.168889-12.515555-22.755556 0-34.133333 17.066667-34.133334 50.062222 0 19.342222 3.413333 32.995556 9.102223 42.097778z m178.631111 26.168888H739.555556V683.804444h22.755555v117.191112h46.648889c1.137778 0 1.137778 15.928889 1.137778 15.928888z" fill="#F29013" p-id="93290"></path><path d="M764.586667 539.306667c3.413333 4.551111 3.413333 11.377778 0 15.928889-3.413333 4.551111-9.102222 7.964444-15.928889 7.964444h-63.715556c9.102222 9.102222 19.342222 18.204444 28.444445 27.306667 4.551111 3.413333 6.826667 10.24 4.551111 15.928889-2.275556 5.688889-6.826667 10.24-13.653334 11.377777-6.826667 1.137778-12.515556 0-18.204444-4.551111-19.342222-18.204444-37.546667-36.408889-55.751111-55.751111-4.551111-4.551111-5.688889-11.377778-2.275556-17.066667s10.24-9.102222 17.066667-9.102222h56.888889c-3.413333-2.275556-6.826667-4.551111-11.377778-6.826666-23.893333-14.791111-48.924444-27.306667-73.955555-37.546667-4.551111-1.137778-7.964444-4.551111-9.102223-9.102222-15.928889-39.822222-48.924444-93.297778-98.986666-158.151111-46.648889-61.44-97.848889-85.333333-155.875556-71.68-6.826667 1.137778-12.515556 0-18.204444-4.551112-9.102222-7.964444-18.204444-15.928889-28.444445-22.755555-9.102222-6.826667-37.546667-13.653333-52.337778-14.791111 4.551111 7.964444 15.928889 26.168889 46.648889 61.44 1.137778 1.137778 2.275556 2.275556 2.275556 4.551111 11.377778 27.306667 15.928889 47.786667 15.928889 62.577778 0 4.551111 2.275556 15.928889 26.168889 42.097777 3.413333 4.551111 4.551111 9.102222 3.413333 14.791112-2.275556 5.688889-9.102222 27.306667-20.48 62.577777-12.515556 35.271111 11.377778 83.057778 27.306667 98.986667 3.413333-7.964444 9.102222-28.444444 11.377777-73.955556 0-6.826667 5.688889-13.653333 14.791112-14.791111 7.964444-1.137778 15.928889 1.137778 20.48 7.964445 9.102222 14.791111 21.617778 40.96 39.822222 80.782222 21.617778 46.648889 36.408889 56.888889 40.96 59.164444 9.102222 3.413333 12.515556 12.515556 9.102222 20.48-3.413333 7.964444-13.653333 11.377778-22.755556 9.102223-21.617778-7.964444-40.96-32.995556-61.44-76.231111-3.413333-7.964444-6.826667-14.791111-10.24-22.755556-6.826667 29.582222-15.928889 40.96-28.444444 44.373333-5.688889 2.275556-18.204444 3.413333-32.995556-7.964444-27.306667-21.617778-58.026667-85.333333-40.96-134.257778l18.204445-54.613333c-19.342222-22.755556-28.444444-39.822222-28.444445-55.751111 0-6.826667-2.275556-21.617778-13.653333-50.062223-56.888889-65.991111-61.44-85.333333-48.924444-98.986666 5.688889-5.688889 13.653333-9.102222 25.031111-10.24 25.031111-2.275556 67.128889 9.102222 85.333333 21.617778 7.964444 5.688889 15.928889 12.515556 23.893333 19.342222 69.404444-11.377778 130.844444 18.204444 184.32 87.608889 50.062222 64.853333 83.057778 118.328889 101.262223 159.288889 25.031111 11.377778 48.924444 23.893333 71.68 37.546666 36.408889 19.342222 46.648889 30.72 51.2 38.684445zM336.782222 290.133333c10.24-2.275556 40.96-2.275556 51.2 9.102223 18.204444 15.928889 9.102222 40.96-2.275555 46.648888l-1.137778 1.137778c-6.826667-10.24-17.066667-18.204444-23.893333-28.444444-7.964444-9.102222-15.928889-18.204444-23.893334-28.444445z" fill="#00758F" p-id="93291"></path></svg>