<?xml version="1.0" standalone="no"?><!DOCTYPE svg PUBLIC "-//W3C//DTD SVG 1.1//EN" "http://www.w3.org/Graphics/SVG/1.1/DTD/svg11.dtd"><svg t="1735375377904" class="icon" viewBox="0 0 1024 1024" version="1.1" xmlns="http://www.w3.org/2000/svg" p-id="49301" xmlns:xlink="http://www.w3.org/1999/xlink" width="200" height="200"><path d="M819.39 352.624v-89.516H0v408.268h204.61v89.516H1024V352.624H819.39zM187.004 436.014c-15.434 5.64-25.8 29.9-25.8 65.11v103.16L119.06 613.44v-163.866c0-24.26-5.63-32.44-25.576-34.26v-8.166h66.872v31.304c5.876-13.914 10.022-24.554 26.29-31.228 9.28-3.806 29.744-4.472 43.36 5.234l-16.774 33.964c-9.752-9.232-18.094-13.38-26.228-10.41z m82.83 31.232s19.518 13.882 55.532 31.388c36.016 17.504 26.464 59.07 26.464 59.07-11.964 37.834-75.988 71.764-128.442 23.268l33.146-24.224s60.492 44.144 63.106 4.144c2.174-33.28-58.286-31.732-80.056-68.49-9.934-16.772-9.636-44.61 9.992-67.45 9.772-11.372 20.7-21.056 35.02-22.78 52.212-6.28 73.926 25.824 73.926 25.824l-28.304 27.47c-27.82-27.938-54.162-31.598-64.582-19.094-7.138 8.564-6.2 19.43 4.2 30.874z m182.686 166.002c-14.736 34.628-48.008 49.656-93.442 46.632v-8.088c55.574-14.486 43.956-22.84 81.07-87.554l-81.844-174.156 37.592-7.614 62.334 141.8 61.384-142.752 41.114 12.396-108.208 219.336z m300.252-34.854c-11.776 0-57.576 2.022-57.576 2.022s14.276-96.952 14.752-120.862c-1.06-31.808-14.502-51.01-48.536-49.25-16.068 1.548-27.734 13.168-29.324 42.588-4.58 84.818-7.316 125.62-7.316 125.62l-42.348 4.284a1750.83 1750.83 0 0 0 6.66-175.228c0-7.256-11.242-13.626-27.794-17.396v-11.784h68.64l-3.18 34.228s28.072-35.94 61.784-34.788c41.756 1.428 60.33 27.632 62.812 53.89 4.28 45.322-13.8 133.71-13.8 133.71h24.744s2.26 12.966-9.518 12.966z m94.114-58.54c14.104 22.14 27.042 48.34 71.834 22.852 14.99-8.208 8.208 12.134 8.208 12.134s-33.536 26.052-59.954 26.052c-35.456 0-58.528-27.122-66.38-50.498-10.374-30.886-13.584-62.92-10.44-84.672 8.834-61.112 77.89-67.536 77.89-67.536 19.958-0.034 42.162 13.68 65.488 34.26l-31.108 21.3s-31.212-38.15-52.34-30.208c-9.726 3.654-16.296 17.28-18.38 41.74-2.724 31.93 4.186 57.312 15.182 74.576z" fill="#B428B1" p-id="49302"></path></svg>