<?xml version="1.0" standalone="no"?><!DOCTYPE svg PUBLIC "-//W3C//DTD SVG 1.1//EN" "http://www.w3.org/Graphics/SVG/1.1/DTD/svg11.dtd"><svg t="1735386610536" class="icon" viewBox="0 0 1152 1024" version="1.1" xmlns="http://www.w3.org/2000/svg" p-id="11677" xmlns:xlink="http://www.w3.org/1999/xlink" width="225" height="200"><path d="M1086.2 563.4a31.894 31.894 0 0 0-20.12-21.38l-282.8-99.88 274.4-21.04c12.25-1 22.88-8.812 27.38-20.24l64.82-165.04c6.438-16.436-1.688-35-18.124-41.5-16.312-6.5-35 1.624-41.5 18.124l-57.44 146.36L786 377.6l188.06-97.26c13.562-7 20.32-22.62 16.062-37.3l-63.44-219.8c-4.938-16.936-22.74-27-39.62-21.88-17 4.874-26.74 22.62-21.88 39.62l56.18 194.6-185.44 95.9 0.12-11.464c0-68.2-45.08-136.56-107.14-158.26-15.812-5.562-33.24 2.068-39.86 17.316L575.4 210.2l-15.2-32.94c-7-15.5-25-22.44-40.8-16.38-59.8 23.82-103.8 90.72-103.8 159.12l0.31 11.458L230.6 235.6l56.18-194.6c4.874-16.998-4.874-34.74-21.88-39.62C248-3.784 230.2 6.276 225.2 23.22L161.82 243c-4.24 14.8 2.5 30.4 16.06 37.4l188.06 97.26-246.68-18.86-57.42-146.4c-6.5-16.52-25.2-24.64-41.5-18.14-16.436 6.5-24.56 25.06-18.124 41.5l64.82 165.04c4.5 11.436 15.124 19.248 27.38 20.24l274.4 21.04L85.9 540.2c-9.82 5.2-17.32 13.2-20.14 23.2L3.56 785.6c-4.874 16.998 4.938 34.74 21.94 39.56 2.938 0.874 5.938 1.25 8.812 1.25 13.938 0 26.74-9.124 30.74-23.18L122.76 596.8l223.8-79.02-206.2 160.96a32.112 32.112 0 0 0-10.688 35.38l94.2 286.2C230.2 1015.6 242.6 1024 256 1024c3.374 0 6.75-0.5 10.124-1.624 16.75-5.624 25.82-23.74 20.24-40.5l-88.88-266.6 159.6-124.56C349.2 614.2 344 638.6 344 664c0 127.92 104.06 230.2 230.2 230.2S804.4 790.14 804.4 664c0-25.48-5.176-49.84-13.098-73.22l159.58 124.54-88.88 266.6c-5.562 16.748 3.5 34.88 20.24 40.5 6.958 1.18 10.358 1.58 11.958 1.58 13.374 0 25.88-8.5 30.38-21.88l94.2-286.2c4.25-12.874 0-27-10.688-35.38l-206.2-160.96 223.8 79.02 59.5 208.2c2.2 14.062 16.812 23.18 30.74 23.18 2.876 0 5.874-0.376 8.812-1.25 17-4.812 26.82-22.56 21.94-39.56L1086.2 563.4zM576 832c-92.62 0-166.2-75.36-166.2-167.98 0-47.5 19.936-91.62 56.24-124.3l5.25-4.75a32.03 32.03 0 0 0 10.5-23.74V320c0-31.5 14.874-63.24 37.18-83.3l29.74 64.68C552.2 312.8 563.6 320 576 320c12.562-0.126 24.18-7.562 29.24-19.062l28.24-63.94c23.06 19.248 38.5 50.86 38.5 83V511.2c0 9.062 3.812 17.686 10.5 23.74l5.312 4.75c36.24 32.68 56.18 76.8 56.18 124.3C742.2 756.6 668.6 832 576 832z" p-id="11678" fill="#2c2c2c"></path></svg>