<?xml version="1.0" standalone="no"?><!DOCTYPE svg PUBLIC "-//W3C//DTD SVG 1.1//EN" "http://www.w3.org/Graphics/SVG/1.1/DTD/svg11.dtd"><svg t="1735378929727" class="icon" viewBox="0 0 1024 1024" version="1.1" xmlns="http://www.w3.org/2000/svg" p-id="12065" xmlns:xlink="http://www.w3.org/1999/xlink" width="200" height="200"><path d="M846.0288 691.456c-100.864 134.3488-316.2112 89.0112-454.2976 95.488 0 0-24.4736 1.408-49.0752 5.4528 0 0 9.3184-3.968 21.1968-8.0896 96.9728-33.536 142.8224-40.2688 201.7536-70.5536 110.6944-56.6784 220.9024-180.2496 243.328-308.608-42.1632 123.4432-170.3424 229.7088-287.0272 272.8192-79.872 29.4912-224.3328 58.1888-224.384 58.1888a219.4688 219.4688 0 0 1-5.8368-3.1232c-98.2272-47.7952-101.12-260.608 77.3632-329.1904 78.2592-30.0544 153.0624-13.568 237.6448-33.6896 90.1888-21.4528 194.688-89.0368 237.1328-177.4336 47.5648 141.2352 104.7552 362.1376 2.2016 498.7392z m1.7152-542.464a376.32 376.32 0 0 1-43.52 77.2096A407.7312 407.7312 0 0 0 511.488 102.4C285.8752 102.4 102.4 285.8752 102.4 511.4368A407.7824 407.7824 0 0 0 233.3184 811.008l8.96 7.936a34.9696 34.9696 0 1 1 0.0512 0.0512l6.0928 5.376a406.8352 406.8352 0 0 0 263.0656 96.1536c215.5776 0 392.6528-167.808 407.808-379.5456 11.2128-103.7056-19.456-235.4176-71.552-391.9616z" fill="#5DA831" p-id="12066"></path></svg>