<?xml version="1.0" standalone="no"?><!DOCTYPE svg PUBLIC "-//W3C//DTD SVG 1.1//EN" "http://www.w3.org/Graphics/SVG/1.1/DTD/svg11.dtd"><svg t="1735375353138" class="icon" viewBox="0 0 1024 1024" version="1.1" xmlns="http://www.w3.org/2000/svg" p-id="47441" xmlns:xlink="http://www.w3.org/1999/xlink" width="200" height="200"><path d="M177.92 624.96c11.52 14.4 24.64 28.8 38.72 43.52-41.6 12.48-68.48 35.52-85.44 56-26.88 32.32-40.96 75.2-37.76 111.68H22.08c14.4-30.72 71.36-120.64 155.84-211.2zM1004.8 856h-86.72C719.04 752 544 678.72 358.4 662.72c0.32-25.92 5.12-55.04 13.76-87.68l-16.96-4.48c-8.96 33.6-13.76 63.68-14.4 90.88-19.2-1.28-38.72-1.92-58.56-1.92-16.64 0-31.68 1.6-45.76 4.16-17.92-17.92-33.28-35.2-46.4-51.52 85.76-89.28 226.56-169.92 349.44-200.32 34.56 114.88 108.8 193.6 198.72 246.72 6.72-3.84 13.12-7.68 19.52-11.84l157.12 169.28 7.04-0.64c42.88-3.84 67.2 19.52 73.6 26.88 4.8 5.12 7.68 9.92 9.28 13.76z" fill="#D1A41A" p-id="47442"></path><path d="M928 290.24c3.2 156.16-76.48 280.32-187.84 344-189.12-94.4-224.96-333.12-192.64-461.12 8.96 48.96 25.28 79.68 60.48 94.72 76.8-22.08 182.72-23.68 260.48-2.24 32.32-23.68 45.12-59.52 51.84-91.2 8.64 36.48 7.68 115.84 7.68 115.84z" fill="#FFDC76" p-id="47443"></path><path d="M452.16 438.08l28.8 85.44-87.68-58.88zM367.68 475.52l31.04 53.44-65.28-33.28zM296.96 517.12l15.04 53.44-44.8-31.04zM775.04 660.48l-27.84 42.88 49.28-22.72zM818.88 709.76l-44.8 34.24 62.08-16.32zM709.76 245.44l33.28 72.64 21.44-73.6zM542.08 351.36l52.16 27.84-47.04 3.2zM554.88 408l32 12.8-26.88 7.68zM928.96 371.52l-42.56 18.24 35.2 5.44zM912 424l-33.28 9.6 26.88 9.6z" p-id="47444"></path><path d="M524.8 504.32h103.36v12.8H524.8zM524.8 473.6h103.36v12.8H524.8zM840 504.32h103.36v12.8h-103.36zM840 473.6h103.36v12.8h-103.36zM803.52 398.08h-168v-11.52h52.48c6.4-27.52 7.68-54.08 0-67.2a15.232 15.232 0 0 0-14.4-8.32c-30.08 0-42.24 31.68-42.88 32.96l-10.88-4.16c0.64-1.6 15.68-40.32 53.44-40.32 10.56 0 18.88 4.8 24.32 14.08 9.6 16.32 8.32 44.48 1.92 72.96h91.84c12.16-35.84 37.76-52.8 80.32-52.8v11.52c-46.08 0-59.2 19.52-68.16 41.28h50.24v11.52h-50.24zM811.2 454.72c-13.44-20.16-17.92-37.12-12.16-56.64h-11.84c-4.16 13.12-2.56 32.64 7.68 49.28h-116.8c7.04-14.08 13.76-31.68 18.56-49.28h-11.84c-5.44 18.88-12.8 37.44-21.12 52.16l-2.56 4.8 65.6 41.28-36.8 24.32 6.4 9.6 41.28-27.2 44.48 29.12 6.08-9.6-41.28-25.6c-0.64 0 61.12-40 64.32-42.24 0 0.32 0 0 0 0z m-74.24 34.88l-48.32-30.4h94.72l-46.4 30.4z" p-id="47445"></path><path d="M947.52 276.48c0-19.84-6.4-104.32-17.6-127.36-31.04 11.84-87.36 49.92-100.16 88.96-61.12-9.28-129.92-8-190.4 2.24-9.92-41.92-60.8-73.92-98.88-92.16-16 27.2-23.36 90.24-21.44 134.72h-0.32c7.04 187.52 99.2 304.32 219.52 375.04 123.84-70.4 212.48-208.32 209.28-381.44-0.32-0.32-0.32 0 0 0z m-103.04-36.16c0.32 0 0.96 0.32 1.28 0.32-0.64-0.32-0.96-0.32-1.28-0.32z m-7.68-1.6c0.96 0.32 2.24 0.32 3.2 0.64-1.28 0-2.24-0.32-3.2-0.64zM928 289.92c3.2 156.16-76.48 280.32-187.84 344C551.04 539.52 515.2 300.8 547.52 172.8c8.96 48.96 25.28 79.68 60.48 94.72 76.8-22.08 182.72-23.68 260.48-2.24 32.32-23.68 45.12-59.52 51.84-91.2 8.64 36.48 7.68 115.84 7.68 115.84z" p-id="47446"></path><path d="M1008.96 830.08c-19.52-21.76-57.6-32-89.28-31.36-22.72-26.88-153.28-164.48-153.28-164.48l-8.96 11.52 158.08 169.92 6.72-0.64c42.88-3.52 67.2 19.52 73.92 26.88 4.8 5.44 7.68 10.24 9.28 13.76h-86.72C719.04 751.68 544 678.4 358.4 662.4c0.32-25.92 5.12-55.04 13.76-87.68l-16.96-4.48c-8.96 33.6-13.76 64-14.4 90.88-19.2-1.28-38.72-1.92-58.56-1.92-16.64 0-31.68 1.6-45.76 4.16-17.92-17.92-33.28-35.2-46.4-51.52 86.4-89.92 228.8-171.2 352-200.96l-3.84-17.28c-132.8 32-278.4 119.36-359.36 203.52-37.76-50.88-52.48-92.48-56.96-124.16-5.44-40 3.84-76.48 27.52-105.92 36.8-45.76 89.6-49.28 143.36-40-0.96 8.64 0 16.64 3.52 21.76 14.4 21.12 90.88 28.48 136.96 8-33.92-47.36-102.4-70.4-121.28-61.12-6.4 3.2-11.2 8.96-14.4 15.68-18.56-3.2-37.12-5.76-50.88-5.76-47.68 0.32-84.16 16.96-111.36 50.88-26.88 33.28-37.44 74.56-31.36 119.36 6.08 42.56 26.88 87.68 62.08 134.4-5.76 6.4-11.52 12.48-16.96 18.56-85.76 96-148.8 199.04-148.8 216.32v8.96h113.28l-1.92-10.56c-6.4-33.92 6.4-76.16 32.64-107.84 16.32-19.84 43.52-42.56 86.4-52.8 38.08 37.12 86.4 76.48 140.16 114.56h84.16v-8.96c0-9.92-4.8-18.88-14.08-24.64-13.44-8.64-33.92-9.92-52.8-3.52-17.92-20.16-28.16-46.72-30.4-80 182.72 16.32 357.44 89.92 554.88 192.96h108.48l1.28-7.04c3.2-10.24-2.24-23.68-13.44-36.16zM131.2 724.48c-26.88 32.32-40.96 75.2-37.76 111.68H22.08c14.4-31.04 71.36-120.64 155.84-211.52 11.52 14.4 24.64 28.8 38.72 43.52a175.488 175.488 0 0 0-85.44 56.32z" p-id="47447"></path></svg>