<?xml version="1.0" standalone="no"?><!DOCTYPE svg PUBLIC "-//W3C//DTD SVG 1.1//EN" "http://www.w3.org/Graphics/SVG/1.1/DTD/svg11.dtd"><svg t="1735380674572" class="icon" viewBox="0 0 1024 1024" version="1.1" xmlns="http://www.w3.org/2000/svg" p-id="50456" xmlns:xlink="http://www.w3.org/1999/xlink" width="200" height="200"><path d="M512 6.144C233.472 6.144 6.144 233.472 6.144 512S233.472 1017.856 512 1017.856 1017.856 790.528 1017.856 512 790.528 6.144 512 6.144z m0 45.056c256 0 460.8 206.848 460.8 460.8S768 972.8 512 972.8 51.2 768 51.2 512 256 51.2 512 51.2z m-30.72 141.312c-172.032 40.96-372.736 249.856-354.304 409.6 94.208-165.888 157.696-188.416 174.08-188.416s26.624 10.24 26.624 28.672v245.76c0 30.72-28.672 26.624-49.152 24.576 73.728 108.544 241.664 116.736 241.664 116.736l75.776-81.92 73.728 63.488c112.64-71.68 186.368-194.56 186.368-212.992-55.296 61.44-102.4 71.68-112.64 71.68s-28.672-2.048-28.672-16.384V360.448c0-24.576 69.632-108.544 92.16-137.216-145.408 38.912-200.704 110.592-200.704 110.592s-20.48-14.336-63.488-14.336c16.384 14.336 38.912 38.912 38.912 67.584V655.36s-47.104 34.816-75.776 34.816-47.104-12.288-47.104-32.768V337.92s-40.96 28.672-40.96-55.296c2.048-40.96 63.488-90.112 63.488-90.112z" fill="#434345" p-id="50457"></path></svg>