<?xml version="1.0" standalone="no"?><!DOCTYPE svg PUBLIC "-//W3C//DTD SVG 1.1//EN" "http://www.w3.org/Graphics/SVG/1.1/DTD/svg11.dtd"><svg t="1735386786619" class="icon" viewBox="0 0 1024 1024" version="1.1" xmlns="http://www.w3.org/2000/svg" p-id="26924" xmlns:xlink="http://www.w3.org/1999/xlink" width="200" height="200"><path d="M904.533333 740.693333c32.426667-58.026667 8.533333-141.653333-63.146666-230.4 75.093333-90.453333 98.986667-172.373333 66.56-232.106666-32.426667-58.026667-116.053333-76.8-230.4-56.32-39.253333-109.226667-98.986667-170.666667-163.84-170.666667s-126.293333 63.146667-165.546667 174.08C237.226667 204.8 151.893333 225.28 119.466667 283.306667c-34.133333 58.026667-8.533333 141.653333 63.146666 230.4-75.093333 90.453333-98.986667 172.373333-66.56 232.106666 10.24 17.066667 25.6 30.72 40.96 40.96 42.666667 23.893333 107.52 30.72 187.733334 17.066667 27.306667 78.506667 64.853333 131.413333 107.52 155.306667 17.066667 10.24 35.84 15.36 56.32 15.36 64.853333 0 126.293333-63.146667 165.546666-174.08 114.346667 18.773333 197.973333-3.413333 230.4-59.733334z" fill="#00BE74" p-id="26925"></path><path d="M686.08 395.946667c11.946667-10.24 15.36-27.306667 6.826667-42.666667-10.24-17.066667-30.72-22.186667-46.08-11.946667l-8.533334 5.12c-34.133333-25.6-78.506667-39.253333-126.293333-39.253333-112.64 0-204.8 83.626667-204.8 187.733333v17.066667c0 10.24 6.826667 17.066667 17.066667 17.066667h375.466666c10.24 0 17.066667-6.826667 17.066667-17.066667v-17.066667c0-35.84-11.946667-69.973333-30.72-98.986666z m-61.44-22.186667l29.013333-17.066667c8.533333-5.12 18.773333-1.706667 23.893334 6.826667 5.12 8.533333 1.706667 18.773333-6.826667 23.893333l-29.013333 17.066667c-8.533333 5.12-18.773333 1.706667-23.893334-6.826667-3.413333-8.533333 0-18.773333 6.826667-23.893333zM409.6 494.933333c1.706667-13.653333 5.12-25.6 11.946667-35.84l6.826666 6.826667c10.24 10.24 25.6 10.24 35.84 0 10.24-10.24 10.24-25.6 0-35.84l-6.826666-6.826667c15.36-8.533333 34.133333-13.653333 52.906666-13.653333 52.906667 0 97.28 37.546667 102.4 85.333333H409.6z m6.826667-78.506666c3.413333-3.413333 8.533333-3.413333 11.946666 0l23.893334 23.893333c3.413333 3.413333 3.413333 8.533333 0 11.946667-3.413333 3.413333-8.533333 3.413333-11.946667 0l-23.893333-23.893334c-3.413333-3.413333-3.413333-8.533333 0-11.946666zM631.466667 494.933333c-5.12-58.026667-56.32-102.4-119.466667-102.4-23.893333 0-46.08 6.826667-64.853333 18.773334l-5.12-5.12c-10.24-10.24-25.6-10.24-35.84 0-10.24 10.24-10.24 25.6 0 35.84l5.12 5.12c-10.24 13.653333-17.066667 30.72-18.773334 47.786666h-51.2c0-85.333333 76.8-153.6 170.666667-153.6 35.84 0 68.266667 10.24 95.573333 25.6-8.533333 10.24-10.24 25.6-3.413333 37.546667 10.24 17.066667 30.72 22.186667 46.08 11.946667l6.826667-3.413334c15.36 23.893333 25.6 51.2 25.6 80.213334h-51.2z m-100.693334 85.333334c-8.533333-1.706667-32.426667 23.893333-30.72 35.84-54.613333 69.973333-68.266667 75.093333-75.093333 76.8-5.12 1.706667-6.826667-6.826667-6.826667-11.946667 0-6.826667 10.24-25.6 56.32-85.333333 3.413333-3.413333 10.24-11.946667 10.24-15.36 0-3.413333-8.533333-17.066667-17.066666-17.066667-18.773333 0-98.986667 32.426667-112.64 42.666667-8.533333 6.826667-13.653333 17.066667-13.653334 27.306666 0 1.706667 0 11.946667 5.12 11.946667 3.413333 0 20.48-8.533333 44.373334-11.946667 1.706667 0 11.946667-1.706667 11.946666-3.413333 0-3.413333-8.533333-1.706667-10.24-1.706667h-15.36c20.48-13.653333 44.373333-23.893333 68.266667-32.426666-51.2 66.56-54.613333 85.333333-54.613333 93.866666 0 15.36 18.773333 29.013333 30.72 29.013334 13.653333 0 39.253333-27.306667 47.786666-37.546667 68.266667-71.68 73.386667-97.28 61.44-100.693333z m98.986667-6.826667c-17.066667 0-35.84 1.706667-51.2 6.826667-10.24 3.413333-25.6 8.533333-25.6 18.773333 0 6.826667 5.12 11.946667 13.653333 11.946667 6.826667 0 18.773333 0 23.893334-1.706667 1.706667 0 5.12 0 5.12-1.706667s-8.533333-3.413333-10.24-3.413333H580.266667c18.773333-5.12 37.546667-8.533333 56.32-8.533333 6.826667 0 27.306667 0 27.306666 8.533333 0 13.653333-73.386667 23.893333-88.746666 25.6-18.773333 1.706667-27.306667 8.533333-29.013334 22.186667 0 1.706667 0 5.12 3.413334 5.12h8.533333c8.533333-1.706667 15.36-1.706667 23.893333-1.706667 10.24 0 49.493333 0 49.493334 11.946667 0 6.826667-39.253333 25.6-78.506667 25.6-10.24 0-17.066667-1.706667-25.6-5.12 1.706667-1.706667 6.826667-5.12 6.826667-6.826667 0-1.706667-1.706667-1.706667-3.413334-1.706667-6.826667 0-23.893333 15.36-23.893333 20.48 0 5.12 11.946667 17.066667 47.786667 17.066667 68.266667 0 98.986667-32.426667 97.28-46.08-1.706667-23.893333-34.133333-25.6-54.613334-29.013333l39.253334-6.826667c10.24-1.706667 22.186667-3.413333 30.72-8.533333s15.36-13.653333 15.36-22.186667c0-29.013333-30.72-30.72-52.906667-30.72z" fill="#FFFFFF" p-id="26926"></path></svg>