<?xml version="1.0" standalone="no"?><!DOCTYPE svg PUBLIC "-//W3C//DTD SVG 1.1//EN" "http://www.w3.org/Graphics/SVG/1.1/DTD/svg11.dtd"><svg t="1739356399599" class="icon" viewBox="0 0 1024 1024" version="1.1" xmlns="http://www.w3.org/2000/svg" p-id="12831" xmlns:xlink="http://www.w3.org/1999/xlink" width="256" height="256"><path d="M411.096956 277.966407h354.601233a70.193537 70.193537 0 0 1 51.695475 23.287738 82.580632 82.580632 0 0 1 21.470965 55.989668v519.267013a82.580632 82.580632 0 0 1-21.470965 55.989669 70.193537 70.193537 0 0 1-51.695475 23.287738H411.096956a70.193537 70.193537 0 0 1-51.530315-23.287738 82.580632 82.580632 0 0 1-21.470964-55.989669V357.243813a82.580632 82.580632 0 0 1 21.470964-55.989668 70.193537 70.193537 0 0 1 51.530315-23.287738z" fill="#FFE777" p-id="12832"></path><path d="M335.287936 125.852883a317.109626 317.109626 0 0 1 102.399983-90.012889A288.371566 288.371566 0 0 1 576.588542 0a293.161243 293.161243 0 0 1 192.908356 73.496762 340.232203 340.232203 0 0 1 107.354821 181.67739 265.579312 265.579312 0 0 1 105.703209 100.087726 294.812856 294.812856 0 0 1 41.455477 151.948363 290.353502 290.353502 0 0 1-75.148375 197.037387 246.255444 246.255444 0 0 1-181.67739 81.754826h-13.212901V425.455415a52.686443 52.686443 0 0 0-13.708385-35.674833 44.758702 44.758702 0 0 0-33.032253-14.864513H352.79503a44.758702 44.758702 0 0 0-33.032253 14.864513 52.686443 52.686443 0 0 0-13.708385 35.674833v360.547039h-49.548379a246.255444 246.255444 0 0 1-181.67739-81.754826A290.353502 290.353502 0 0 1 0.01057 507.210241 295.473501 295.473501 0 0 1 37.337016 363.35478a269.21286 269.21286 0 0 1 93.811598-99.096758v-5.615483a156.738039 156.738039 0 0 1 40.629671-106.363854 132.954817 132.954817 0 0 1 98.10579-44.098057 128.495463 128.495463 0 0 1 39.803865 6.276128 131.138043 131.138043 0 0 1 25.930318 11.726449z m114.126433-64.578054a291.674792 291.674792 0 0 0-100.252887 91.829662l-7.432257 10.900644-10.40516-7.432257a107.850305 107.850305 0 0 0-29.398705-14.864514 104.216757 104.216757 0 0 0-33.032252-5.119999 107.685144 107.685144 0 0 0-79.442568 35.674833 127.009012 127.009012 0 0 0-33.032253 86.21418v12.387094l0.990968 9.579354-7.927741 4.459354a240.309639 240.309639 0 0 0-91.169018 92.325146 265.248989 265.248989 0 0 0-33.032252 129.816754 260.624474 260.624474 0 0 0 68.541924 177.052874 220.82061 220.82061 0 0 0 162.849006 73.16644h22.957416V425.455415a82.580632 82.580632 0 0 1 21.470964-55.989668A70.193537 70.193537 0 0 1 352.79503 346.838654h354.601233A70.193537 70.193537 0 0 1 759.752383 369.465747a82.580632 82.580632 0 0 1 21.470965 55.989668v331.478656a221.811577 221.811577 0 0 0 149.801266-72.836117 260.624474 260.624474 0 0 0 66.559989-176.887713 264.258022 264.258022 0 0 0-37.161284-136.423204 237.501897 237.501897 0 0 0-100.252887-92.490308l-6.110967-2.972902-1.486452-7.101935a311.824466 311.824466 0 0 0-99.096758-172.59352 268.221892 268.221892 0 0 0-176.887713-67.055473 264.258022 264.258022 0 0 0-127.174173 32.70193z" fill="#377DFF" p-id="12833"></path><path d="M352.79503 346.838654h354.601233A70.193537 70.193537 0 0 1 759.752383 369.465747a82.580632 82.580632 0 0 1 21.470965 55.989668V944.722428a82.580632 82.580632 0 0 1-21.470965 55.989669A70.193537 70.193537 0 0 1 707.396263 1023.999835H352.79503a70.193537 70.193537 0 0 1-51.530315-23.287738 82.580632 82.580632 0 0 1-21.470964-55.989669V425.455415a82.580632 82.580632 0 0 1 21.470964-55.989668A70.193537 70.193537 0 0 1 352.79503 346.838654z m354.601233 28.077415H352.79503a44.758702 44.758702 0 0 0-33.032253 14.864513 52.686443 52.686443 0 0 0-13.708385 35.674833V944.722428a52.686443 52.686443 0 0 0 13.708385 35.674833 44.758702 44.758702 0 0 0 33.032253 14.864514h354.601233a44.758702 44.758702 0 0 0 33.032252-14.864514 52.686443 52.686443 0 0 0 13.708385-35.674833V425.455415a52.686443 52.686443 0 0 0-13.708385-35.674833 44.758702 44.758702 0 0 0-33.032252-14.864513z" fill="#377DFF" p-id="12834"></path><path d="M736.794968 1004.015322l-143.194816-159.710942a11.891611 11.891611 0 0 0-3.798709-2.972903 11.065805 11.065805 0 0 0-4.624515-0.825806h-144.516106v-28.73806h52.686443a11.396127 11.396127 0 0 0 8.092902-3.633548 13.378062 13.378062 0 0 0 3.468386-8.918708v-11.396127a43.10709 43.10709 0 0 1 11.230966-29.233544 36.665801 36.665801 0 0 1 26.921286-12.056772h110.162563a11.396127 11.396127 0 0 0 8.258063-3.633548 13.378062 13.378062 0 0 0 3.468387-8.918708V578.064423a13.212901 13.212901 0 0 0-3.468387-8.918708 11.230966 11.230966 0 0 0-8.258063-3.798709H406.802763a11.230966 11.230966 0 0 0-8.258063 3.798709 13.212901 13.212901 0 0 0-3.468387 8.918708v154.921265a13.212901 13.212901 0 0 0 3.468387 8.918708 11.230966 11.230966 0 0 0 8.258063 3.79871h11.396127a11.065805 11.065805 0 0 0 4.789677-0.990968 11.891611 11.891611 0 0 0 3.96387-3.138064l47.731605-57.971604a38.317413 38.317413 0 0 1 11.891611-9.744514 35.509672 35.509672 0 0 1 14.36903-3.96387 35.014188 35.014188 0 0 1 14.699353 2.147096 37.491607 37.491607 0 0 1 12.717417 8.258063l3.798709 3.633548a11.065805 11.065805 0 0 0 16.516126 0l45.254187-49.548379 18.663222 20.149674-45.254186 49.548379a36.665801 36.665801 0 0 1-25.930318 12.056772 36.335478 36.335478 0 0 1-26.425803-10.570321l-3.798709-3.633547a11.72645 11.72645 0 0 0-3.96387-2.642581 12.056772 12.056772 0 0 0-9.083869 0 11.891611 11.891611 0 0 0-3.633548 3.138064L445.945982 759.741813a38.152252 38.152252 0 0 1-12.882578 10.239998 35.34451 35.34451 0 0 1-15.525159 3.633548h-11.396127a36.665801 36.665801 0 0 1-26.260641-12.056772 43.10709 43.10709 0 0 1-11.230966-29.233544V578.064423a43.10709 43.10709 0 0 1 11.230966-29.894189 36.665801 36.665801 0 0 1 26.921286-12.221933h246.420605a36.665801 36.665801 0 0 1 26.921286 12.221933 43.10709 43.10709 0 0 1 11.230966 29.894189v156.242555a43.10709 43.10709 0 0 1-11.230966 29.233544 36.665801 36.665801 0 0 1-26.921286 12.056772h-110.162563a11.230966 11.230966 0 0 0-8.258063 3.798709 13.212901 13.212901 0 0 0-3.468386 8.918709v11.396127a43.932896 43.932896 0 0 1-1.816774 12.717417h55.659346a35.179349 35.179349 0 0 1 14.864513 3.303225 37.656768 37.656768 0 0 1 12.552256 9.249031l143.194816 159.710942z" fill="#377DFF" p-id="12835"></path><path d="M567.17435 643.963767a37.656768 35.674833 90 1 0 71.349666 0 37.656768 35.674833 90 1 0-71.349666 0Z" fill="#377DFF" p-id="12836"></path><path d="M685.429815 1023.999835v-13.04774l-119.246433-132.954817H292.841491v53.512249a88.85676 88.85676 0 0 0 84.892889 92.490308z" fill="#377DFF" p-id="12837"></path></svg>