<?xml version="1.0" standalone="no"?><!DOCTYPE svg PUBLIC "-//W3C//DTD SVG 1.1//EN" "http://www.w3.org/Graphics/SVG/1.1/DTD/svg11.dtd"><svg t="1735386853176" class="icon" viewBox="0 0 1024 1024" version="1.1" xmlns="http://www.w3.org/2000/svg" p-id="30246" xmlns:xlink="http://www.w3.org/1999/xlink" width="200" height="200"><path d="M294.414002 943.987498a30.948836 30.948836 0 0 1-30.852821-30.852821v-78.700297a30.852821 30.852821 0 0 1 61.705642 0v78.668292a32.005001 32.005001 0 0 1-30.852821 30.852821z m107.984873 0a30.948836 30.948836 0 0 1-30.852821-30.852821v-78.700297a30.852821 30.852821 0 0 1 61.705642 0v78.668292a30.948836 30.948836 0 0 1-30.852821 30.852821z m109.553117 0a30.948836 30.948836 0 0 1-30.85282-30.852821v-78.700297a30.852821 30.852821 0 0 1 61.705641 0v78.668292a30.948836 30.948836 0 0 1-30.852821 30.852821z m109.553118 0a30.948836 30.948836 0 0 1-30.852821-30.852821v-78.700297a30.852821 30.852821 0 0 1 61.705642 0v78.668292a33.157181 33.157181 0 0 1-30.852821 30.852821z m107.984873 0a30.948836 30.948836 0 0 1-30.852821-30.852821v-78.700297a30.852821 30.852821 0 0 1 61.705642 0v78.668292a30.948836 30.948836 0 0 1-30.852821 30.852821z" fill="#999999" p-id="30247"></path><path d="M294.414002 220.386435a30.948836 30.948836 0 0 1-30.852821-30.85282V110.929333a30.852821 30.852821 0 1 1 61.705642 0v78.700297a32.005001 32.005001 0 0 1-30.852821 30.756805z m107.984873 0a30.948836 30.948836 0 0 1-30.852821-30.85282V110.929333a30.852821 30.852821 0 0 1 61.705642 0v78.700297a30.948836 30.948836 0 0 1-30.852821 30.756805z m109.553117 0a30.948836 30.948836 0 0 1-30.85282-30.85282V110.929333a30.852821 30.852821 0 0 1 61.705641 0v78.700297a30.948836 30.948836 0 0 1-30.852821 30.756805z m109.553118 0a30.948836 30.948836 0 0 1-30.852821-30.85282V110.929333a30.852821 30.852821 0 1 1 61.705642 0v78.700297a33.157181 33.157181 0 0 1-30.852821 30.756805z m107.984873 0a30.948836 30.948836 0 0 1-30.852821-30.85282V110.929333a30.852821 30.852821 0 0 1 61.705642 0v78.700297a30.948836 30.948836 0 0 1-30.852821 30.756805z" fill="#999999" p-id="30248"></path><path d="M913.102672 760.374809h-78.668292a30.852821 30.852821 0 0 1 0-61.705642h78.668292a30.852821 30.852821 0 1 1 0 61.705642z m0-109.553118h-78.668292a30.852821 30.852821 0 0 1 0-61.705642h78.668292a30.852821 30.852821 0 1 1 0 61.705642z m0-107.984873h-78.668292a30.852821 30.852821 0 0 1 0-61.705641h78.668292a30.852821 30.852821 0 1 1 0 61.705641z m0-109.553117h-78.668292a30.852821 30.852821 0 0 1 0-61.705642h78.668292a30.852821 30.852821 0 1 1 0 61.705642z m0-109.553118h-78.668292a30.852821 30.852821 0 0 1 0-61.705642h78.668292a30.948836 30.948836 0 0 1 30.852821 30.852821 29.988686 29.988686 0 0 1-30.852821 30.884826z" fill="#999999" p-id="30249"></path><path d="M189.50161 760.374809H110.897328a30.852821 30.852821 0 1 1 0-61.705642h78.700297a30.852821 30.852821 0 1 1 0 61.705642z m0-109.553118H110.897328a30.852821 30.852821 0 0 1 0-61.705642h78.700297a30.852821 30.852821 0 0 1 0 61.705642z m0-107.984873H110.897328a30.852821 30.852821 0 0 1 0-61.705641h78.700297a30.852821 30.852821 0 0 1 0 61.705641z m0-109.553117H110.897328a30.852821 30.852821 0 1 1 0-61.705642h78.700297a30.852821 30.852821 0 1 1 0 61.705642z m0-109.553118H110.897328a30.852821 30.852821 0 1 1 0-61.705642h78.700297a30.948836 30.948836 0 0 1 30.85282 30.852821 29.988686 29.988686 0 0 1-30.85282 30.852821z" fill="#999999" p-id="30250"></path><path d="M450.246351 410.17609h-1.53624a61.929677 61.929677 0 0 1-4.640725 23.139616l-30.852821 95.662947h72.523332l-30.852821-95.662947a200.671355 200.671355 0 0 1-4.640725-23.139616z" fill="#999999" p-id="30251"></path><path d="M789.691389 171.002719H234.276606a61.897672 61.897672 0 0 0-61.705642 61.705642v556.887013a61.897672 61.897672 0 0 0 61.705642 61.705642h555.414783a61.897672 61.897672 0 0 0 61.705642-61.705642v-556.887013a61.897672 61.897672 0 0 0-61.705642-61.705642z m-268.457946 465.928802l-21.603376-63.241882h-100.271667l-20.067136 63.241882H316.049383l100.271667-274.634912h67.882607l98.735427 274.634912h-61.705641z m155.832349 0h-58.633162v-274.730927h58.729177z" fill="#999999" p-id="30252"></path></svg>