<?xml version="1.0" standalone="no"?><!DOCTYPE svg PUBLIC "-//W3C//DTD SVG 1.1//EN" "http://www.w3.org/Graphics/SVG/1.1/DTD/svg11.dtd"><svg t="1735379919846" class="icon" viewBox="0 0 1024 1024" version="1.1" xmlns="http://www.w3.org/2000/svg" p-id="44039" xmlns:xlink="http://www.w3.org/1999/xlink" width="200" height="200"><path d="M265.096739 105.706114V26.218697a26.026853 26.026853 0 0 0-51.989758 0v79.359521h51.989758z m129.494785 0V26.218697a26.026853 26.026853 0 0 0-51.989758 0v79.359521h51.989758z m129.494786 0V26.218697a26.026853 26.026853 0 0 0-51.989758 0v79.359521h51.989758z m129.558733 0V26.218697a26.026853 26.026853 0 0 0-51.989758 0v79.359521h51.989758z m129.494786 0V26.218697a26.026853 26.026853 0 0 0-51.989758 0v79.359521h51.989758z m-51.989758 813.483045v79.35952a26.026853 26.026853 0 0 0 51.989758 0v-79.295572h-51.989758z m-129.494786 0v79.35952a26.026853 26.026853 0 0 0 51.989758 0v-79.295572h-51.989758z m-129.558733 0v79.35952a26.026853 26.026853 0 0 0 51.989758 0v-79.295572H472.096552z m-129.494786 0v79.35952a26.026853 26.026853 0 0 0 51.989758 0v-79.295572h-51.989758z m-129.494785 0v79.35952a26.026853 26.026853 0 0 0 51.989758 0v-79.295572H213.106981z m704.963217-640.119903h79.295572a26.026853 26.026853 0 0 0 0-51.989758h-79.295572v51.989758z m0 129.68663h79.295572a26.026853 26.026853 0 0 0 0-52.053707h-79.295572v52.053707z m0 129.686629h79.295572a26.026853 26.026853 0 0 0 0-52.053706h-79.295572v52.053706z m0 129.68663h79.295572a26.026853 26.026853 0 0 0 0-52.053706h-79.295572v52.053706z m0 129.68663h79.295572a26.026853 26.026853 0 0 0 0-52.053707h-79.295572v52.053707z m-812.651721-52.053707H26.122905a26.026853 26.026853 0 0 0 0 52.053707h79.295572v-52.053707z m0-129.686629H26.122905a26.026853 26.026853 0 0 0 0 52.053706h79.295572V616.011491z m0-129.68663H26.122905a26.026853 26.026853 0 0 0 0 52.053706h79.295572v-52.053706z m0-129.68663H26.122905a26.026853 26.026853 0 0 0 0 52.053707h79.295572v-52.053707z m0-129.622681H26.122905a26.026853 26.026853 0 0 0 0 51.989758h79.295572v-51.989758z" fill="#515151" p-id="44040"></path><path d="M847.7913 121.18154c30.439268 0 55.18716 24.747892 55.18716 55.18716v672.093924a55.18716 55.18716 0 0 1-55.18716 55.187161H175.697376a55.18716 55.18716 0 0 1-55.187161-55.187161V176.3687c0-30.439268 24.747892-55.18716 55.187161-55.18716zM298.413669 436.573284c-23.277087 0-41.566227 3.836883-54.931368 12.341972-15.859114 9.14457-25.707113 23.916568-29.543996 43.996253l39.775682 3.197403a31.590333 31.590333 0 0 1 15.091738-21.166802c6.714544-4.220571 15.475426-6.011116 26.79423-6.011116 26.026853 0 39.008306 11.638544 39.008306 35.555111v7.034285l-39.711734 1.087116c-26.79423 0.703428-47.513395 6.394804-62.349342 16.882284-16.178855 10.871167-23.916568 26.79423-23.916567 47.193655 0 15.155686 5.627428 27.497658 16.882283 37.281708 10.871167 9.528258 25.707113 14.452258 44.763629 14.452258 15.795166 0 29.543996-2.813714 41.118591-8.121402 10.231687-4.923999 19.056517-11.574596 26.090802-20.719165v23.916568h37.281708V507.299819c0-22.126023-5.627428-39.008306-16.882283-50.64685-12.661712-13.429089-32.741398-20.079685-59.471679-20.079685z m204.505839 0a43.484669 43.484669 0 0 0-28.904515 9.847999 62.029601 62.029601 0 0 0-17.265972 21.102854v-26.026854H417.101235v181.996129h39.775683V527.059764c0-15.539374 4.540311-27.817398 14.388309-37.345657a39.008306 39.008306 0 0 1 28.520827-12.278024c8.441142 0 16.946231 1.023169 26.090801 3.836883v-40.095423a51.094486 51.094486 0 0 0-22.893399-4.604259z m249.589209 0a65.866483 65.866483 0 0 0-30.695061 6.394804 72.261288 72.261288 0 0 0-26.346593 23.149192c-11.638544-19.695997-30.69506-29.543996-57.361394-29.543996-17.64966 0-34.148255 7.737713-49.30394 23.596828V441.433335h-40.159371v181.996129h40.159371V514.334104c0-12.022232 3.517142-22.573659 10.551427-31.014801a32.933242 32.933242 0 0 1 27.817398-13.429089c23.916568 0 35.874852 13.812777 35.874852 41.566228v111.909074h40.15937V512.287766c0-13.365141 3.197402-23.53288 10.231687-30.950852a30.822956 30.822956 0 0 1 24.619996-11.254856c14.068569 0 23.916568 3.197402 30.247424 9.847999 6.011116 6.394804 9.14457 16.882283 9.14457 31.334541v112.292762h40.159371V504.102417c0-20.079685-6.394804-36.25854-18.28914-48.920253a63.116718 63.116718 0 0 0-46.809967-18.672828zM334.608261 540.424905v9.14457c0 14.068569-5.627428 25.707113-16.242803 34.851683a59.087991 59.087991 0 0 1-39.008306 13.429089 34.723787 34.723787 0 0 1-21.486542-6.714545 18.736776 18.736776 0 0 1-8.121401-15.859114c0-21.806282 15.859114-33.125086 47.897083-33.828515l36.961969-1.023168z" fill="#515151" p-id="44041"></path></svg>