<?xml version="1.0" standalone="no"?><!DOCTYPE svg PUBLIC "-//W3C//DTD SVG 1.1//EN" "http://www.w3.org/Graphics/SVG/1.1/DTD/svg11.dtd"><svg t="1735363183368" class="icon" viewBox="0 0 1024 1024" version="1.1" xmlns="http://www.w3.org/2000/svg" p-id="20086" xmlns:xlink="http://www.w3.org/1999/xlink" width="200" height="200"><path d="M0 0.01809h1023.98191v1023.98191H0z" fill="#D8D8D8" opacity=".2" p-id="20087"></path><path d="M336.326858 579.677183c0 14.813605 12.100053 26.794193 27.033123 26.794193 14.916003 0 26.99899-11.980588 26.998989-26.794193 0-14.796539-12.082987-26.794193-26.998989-26.794193-14.93307 0-27.033122 11.997655-27.033123 26.794193m297.261949 0c0 14.813605 12.117119 26.794193 27.033122 26.794193 14.898937 0 26.99899-11.980588 26.99899-26.794193 0-14.796539-12.100053-26.794193-26.99899-26.794193-14.916003 0-27.033122 11.997655-27.033122 26.794193M187.730017 699.739062a362.011738 362.011738 0 0 1 59.681079-162.676593 302.125862 302.125862 0 0 1 98.916652-94.581795l11.093138-6.178025L302.825583 344.92933a13.584827 13.584827 0 0 1 4.607919-18.773001A13.584827 13.584827 0 0 1 325.967575 330.832513l56.301938 93.984473a343.716594 343.716594 0 0 1 130.779556-24.131841c43.997089-0.546124 87.635785 7.679864 128.373199 24.131841L697.33168 330.98611a13.618959 13.618959 0 0 1 18.49994-4.812715l0.443726 0.255995a13.618959 13.618959 0 0 1 4.300724 18.773002l-54.578236 91.646381 13.516561 7.509201a306.887378 306.887378 0 0 1 98.080401 97.005219A386.621436 386.621436 0 0 1 836.268959 699.739062H187.730017z" fill="#5AB879" p-id="20088"></path></svg>