<?xml version="1.0" standalone="no"?><!DOCTYPE svg PUBLIC "-//W3C//DTD SVG 1.1//EN" "http://www.w3.org/Graphics/SVG/1.1/DTD/svg11.dtd"><svg t="1735313919368" class="icon" viewBox="0 0 1024 1024" version="1.1" xmlns="http://www.w3.org/2000/svg" p-id="127033" xmlns:xlink="http://www.w3.org/1999/xlink" width="200" height="200"><path d="M1016.32 512a246.656 246.656 0 0 0-246.56-241.952l-4.544 0.032h0.224c-12.384 0-25.6 0.864-38.4 2.144-107.52 15.776-179.2 93.024-218.88 152.32-40.544-59.296-112.64-136.544-219.296-152.32-12.8-1.28-25.6-2.144-38.4-2.144l-3.872-0.032a246.624 246.624 0 0 0-246.56 241.696V512a246.656 246.656 0 0 0 246.56 241.952l4.096-0.032h-0.192c12.8 0 25.6-0.864 39.264-2.56 107.52-15.36 179.2-92.576 219.296-151.904 40.544 59.296 112.224 136.544 219.296 152.32 13.216 1.28 25.6 2.144 38.816 2.144h2.592a246.624 246.624 0 0 0 246.56-241.696v-0.256zM276.48 665.6c-8.544 1.696-18.336 1.696-26.88 1.696l-3.488 0.032a160.832 160.832 0 0 1-160.768-155.968v-0.224a161.344 161.344 0 0 1 164.864-156.16h-0.192c8.544 0 17.92 0.864 26.88 1.696 101.12 14.944 162.976 113.92 183.904 154.464-21.344 40.544-83.2 140.8-184.32 154.464z m278.176-153.6c20.896-39.68 82.784-139.52 183.904-154.464 8.544-1.696 17.92-1.696 26.464-1.696a160.384 160.384 0 0 1 165.088 155.936V512a161.344 161.344 0 0 1-161.216 156.192l-3.68-0.032h0.192c-8.544 0-17.92-0.864-26.464-1.696-100.704-14.944-162.976-114.784-184.32-154.464z m-375.04 25.184h151.04V487.68H180.032z m602.88 0h50.784V487.68h-51.2v-50.784h-48.224v51.2h-51.2v49.056h51.2v50.336h49.056zM1024 301.216c0 12.8-9.376 21.76-22.624 21.76l-0.864 0.032a21.76 21.76 0 0 1-21.76-21.344v-0.032c0-11.936 10.24-22.176 22.624-22.176 13.216 0 22.624 9.376 22.624 21.76z m-38.816 0c0 9.376 6.816 17.056 17.056 17.056 9.376 0 16.224-7.68 16.224-17.056s-6.816-17.056-16.224-17.056c-10.24-0.864-17.056 6.816-17.056 17.056z m12.8 11.104h-4.256v-22.176l8.544-0.416c3.84 0 5.984 0.416 7.68 1.28s2.56 2.56 2.56 4.704c0 2.56-1.696 4.256-4.704 4.704 2.144 0.864 2.976 2.56 3.84 5.536l1.28 5.536h-5.12c-0.864-0.864-0.864-2.976-1.696-5.536-0.864-2.144-1.696-2.976-4.704-2.976h-2.144z m0.832-12.8h2.56c2.976 0 4.256-0.416 4.256-2.976 0-2.144-1.28-2.976-4.256-2.976H998.4v5.984z" fill="#00979D" p-id="127034"></path></svg>