<?xml version="1.0" standalone="no"?><!DOCTYPE svg PUBLIC "-//W3C//DTD SVG 1.1//EN" "http://www.w3.org/Graphics/SVG/1.1/DTD/svg11.dtd"><svg t="1735375215742" class="icon" viewBox="0 0 1216 1024" version="1.1" xmlns="http://www.w3.org/2000/svg" p-id="31685" xmlns:xlink="http://www.w3.org/1999/xlink" width="237.5" height="200"><path d="M705.088 742.4c-20.672 167.488-63.552 281.6-111.552 281.6-48 0-91.52-114.816-111.488-281.6z m371.456 0a515.84 515.84 0 0 1-336 272.064 865.088 865.088 0 0 0 84.864-272.064h251.136z m-694.208 0c11.52 92.416 38.208 182.4 79.04 266.24a515.584 515.584 0 0 1-313.856-266.24h234.88z m654.784-401.088a170.688 170.688 0 0 1 0 341.376H170.688a170.688 170.688 0 0 1 0-341.376h866.432z m-276.672 30.656a117.952 117.952 0 0 0-88.64 38.016 151.232 151.232 0 0 0-36.16 105.344 145.408 145.408 0 0 0 35.456 108.992c22.272 24.704 54.4 38.336 87.872 37.248a107.52 107.52 0 0 0 72.32-32.128 15.36 15.36 0 0 0 0-24.192 16.256 16.256 0 0 0-27.264 0c-13.312 10.24-29.696 15.68-46.528 15.36a74.112 74.112 0 0 1-58.368-27.776 122.752 122.752 0 0 1-21.376-77.504c0.128-26.432 8.96-52.096 25.088-73.152 12.672-20.16 34.432-32.96 58.368-34.368 14.272 0 28.16 4.288 39.872 12.416a17.792 17.792 0 0 0 27.328 0c7.36-8.768 7.36-16.832 0-23.424a102.464 102.464 0 0 0-67.968-24.832z m200.896 6.592h-59.136a23.04 23.04 0 0 0-17.664 6.592 22.528 22.528 0 0 0-6.656 17.536v228.16c0 14.656 6.656 21.952 21.376 21.952 6.336 1.28 12.8-0.64 17.536-4.928a19.648 19.648 0 0 0 6.144-17.024v-81.92h41.344c26.24 1.024 52.16-6.4 73.856-21.184 19.648-16.448 30.592-41.024 29.504-66.56 0-55.616-32.512-82.624-106.304-82.624z m-742.208-0.64l-11.072 0.64h-47.232a23.68 23.68 0 0 0-14.72 6.528 21.824 21.824 0 0 0-7.424 17.6v233.28c0.128 4.672 1.92 9.088 5.12 12.48a17.856 17.856 0 0 0 12.608 4.352h55.36a126.976 126.976 0 0 0 96.768-35.84 145.408 145.408 0 0 0 36.16-101.632 134.528 134.528 0 0 0-36.16-102.4 129.088 129.088 0 0 0-78.4-34.56l-11.008-0.384z m352.256 0.64c-14.72 0-22.144 6.528-22.144 21.184v90.688H431.104V399.744c0-14.656-7.36-21.184-22.144-21.184-14.784 0-22.144 6.528-22.144 21.184v235.584a19.648 19.648 0 0 0 17.6 17.536h4.48a20.032 20.032 0 0 0 16.512-5.696c4.288-4.288 6.4-10.24 5.696-16.32V527.744h118.144v103.104a19.648 19.648 0 0 0 5.76 16.32c4.288 4.288 10.304 6.4 16.384 5.632 14.784 0 21.44-7.296 21.44-21.952V399.744c0-14.656-6.656-21.184-21.44-21.184z m-363.328 35.072c60.544 0 91.584 34.368 91.584 101.696a112.64 112.64 0 0 1-23.68 73.152 86.016 86.016 0 0 1-67.84 29.248h-25.152V413.632h25.088z m799.744 9.536a42.944 42.944 0 0 1 16.256 38.016 49.472 49.472 0 0 1-15.488 40.256c-14.72 9.152-32.064 13.504-49.472 12.416h-37.696V412.928h36.224c17.344-1.088 34.688 2.496 50.176 10.24z m-283.52-416.64a515.84 515.84 0 0 1 336 272.128h-254.784a852.608 852.608 0 0 0-81.28-272.064zM594.304 0c48.704 0 90.112 113.344 111.488 278.656H482.816C504.192 113.344 545.536 0 594.304 0z m-149.12 11.712a867.072 867.072 0 0 0-78.336 266.24h-235.52A515.584 515.584 0 0 1 445.056 11.712z" p-id="31686"></path></svg>