<?xml version="1.0" standalone="no"?><!DOCTYPE svg PUBLIC "-//W3C//DTD SVG 1.1//EN" "http://www.w3.org/Graphics/SVG/1.1/DTD/svg11.dtd"><svg t="1735313379498" class="icon" viewBox="0 0 1024 1024" version="1.1" xmlns="http://www.w3.org/2000/svg" p-id="69404" xmlns:xlink="http://www.w3.org/1999/xlink" width="200" height="200"><path d="M727.2 492.8l0.8-16V472h-6.4c-9.6 0-20 2.4-27.2 7.2-11.2 6.4-17.6 18.4-17.6 35.2 0 24 12 37.6 32.8 37.6 6.4 0 10.4-0.8 18.4-3.2v-34.4l-0.8-21.6z m-596.8 20.8c0 25.6 12.8 39.2 37.6 39.2 5.6 0 8 0 16-1.6v-76c-8-1.6-9.6-2.4-16-2.4-24 0-37.6 15.2-37.6 40.8z m236.8 31.2c0 9.6 5.6 13.6 18.4 13.6 7.2 0 14.4-0.8 22.4-2.4v-32c-32 3.2-40.8 8-40.8 20.8z m504-72.8c-18.4 0-29.6 15.2-29.6 41.6 0 26.4 10.4 41.6 29.6 41.6 18.4 0 28.8-15.2 28.8-41.6 0-25.6-10.4-41.6-28.8-41.6zM1008 351.2c0-30.4-24.8-55.2-55.2-55.2H63.2C32.8 296 8 320.8 8 351.2V672c0 31.2 24.8 56 55.2 56H952c30.4 0 55.2-24.8 55.2-55.2V351.2zM82.4 514.4c0-48 32-80 81.6-80 8 0 12.8 0.8 20.8 2.4V368h48v216c-24 4.8-42.4 6.4-61.6 6.4-58.4 0-88.8-25.6-88.8-76zM304 548c0 37.6-1.6 56-9.6 72-8 15.2-16.8 24.8-37.6 35.2l-44-20.8c20.8-9.6 29.6-18.4 36-32 6.4-13.6 7.2-29.6 7.2-70.4V440h48v108zM304 416h-48v-48h48v48z m144 170.4c-16 3.2-46.4 5.6-66.4 5.6-40 0-56.8-13.6-56.8-44.8 0-33.6 26.4-48.8 82.4-53.6v-10.4c0-8.8-4-12-16-12-17.6 0-40 4.8-56 14.4v-36.8c24-9.6 40.8-14.4 62.4-14.4 24 0 38.4 6.4 45.6 19.2 4 7.2 4 16 4 36v96.8z m168 5.6h-48V497.6c0-18.4-8-24.8-24.8-24.8-6.4 0-15.2 0.8-23.2 3.2V592h-48V445.6c32-7.2 52-10.4 75.2-10.4 24 0 43.2 5.6 53.6 16C611.2 461.6 616 472 616 496v96z m154.4-92.8L776 544v13.6c0 40.8-4.8 60-15.2 75.2-14.4 23.2-40.8 34.4-77.6 34.4-18.4 0-36-2.4-52-9.6v-44c16 8.8 33.6 12.8 51.2 12.8 31.2 0 44.8-12.8 44.8-42.4v-0.8c-8 4.8-19.2 6.4-31.2 6.4-41.6 0-68-27.2-68-70.4 0-53.6 39.2-84 108-84 20 0 39.2 2.4 61.6 6.4l-18.4 34.4c-12.8-2.4 10.4 0-5.6-1.6m96.8 118.4c-47.2 0-76.8-29.6-76.8-77.6 0-49.6 30.4-80.8 78.4-80.8 47.2 0 76 29.6 76 78.4 0.8 48.8-29.6 80-77.6 80z" fill="#003A2B" p-id="69405"></path></svg>