<?xml version="1.0" standalone="no"?><!DOCTYPE svg PUBLIC "-//W3C//DTD SVG 1.1//EN" "http://www.w3.org/Graphics/SVG/1.1/DTD/svg11.dtd"><svg t="1735386731028" class="icon" viewBox="0 0 1024 1024" version="1.1" xmlns="http://www.w3.org/2000/svg" p-id="23433" xmlns:xlink="http://www.w3.org/1999/xlink" width="200" height="200"><path d="M454.4 672c-3.2-19.2-6.4-41.6-6.4-64 0-140.8 102.4-259.2 240-284.8-6.4 0-9.6-3.2-16-3.2h-32V192c0-105.6-86.4-192-192-192h-64C278.4 0 192 86.4 192 192v128H160c-19.2 0-32 12.8-32 32v384c0 19.2 12.8 32 32 32h198.4l96-96zM256 192c0-70.4 57.6-128 128-128h64c70.4 0 128 57.6 128 128v128H256V192z" fill="#FFB115" p-id="23434"></path><path d="M736 384c-124.8 0-224 99.2-224 224 0 28.8 6.4 54.4 16 80L320 896v128h128v-64h64v-64h64l80-80c25.6 9.6 51.2 16 80 16 124.8 0 224-99.2 224-224s-99.2-224-224-224z m32 256c-35.2 0-64-28.8-64-64s28.8-64 64-64 64 28.8 64 64-28.8 64-64 64z" fill="#727272" p-id="23435"></path></svg>