<?xml version="1.0" standalone="no"?><!DOCTYPE svg PUBLIC "-//W3C//DTD SVG 1.1//EN" "http://www.w3.org/Graphics/SVG/1.1/DTD/svg11.dtd"><svg t="1735379832611" class="icon" viewBox="0 0 1024 1024" version="1.1" xmlns="http://www.w3.org/2000/svg" p-id="36806" xmlns:xlink="http://www.w3.org/1999/xlink" width="200" height="200"><path d="M197.205333 214.634667v101.696h27.221334c8.448 0 15.189333-1.152 20.181333-3.434667 5.013333-2.282667 8.917333-5.568 11.733333-9.856 2.517333-4.266667 4.224-9.536 5.162667-15.786667 0.938667-6.272 1.408-13.525333 1.408-21.76 0-8.256-0.469333-15.509333-1.408-21.76a42.837333 42.837333 0 0 0-5.632-16.277333c-5.930667-8.533333-17.194667-12.8-33.792-12.8H197.205333zM149.333333 496.810667V170.666667h76.970667c56.32 0 84.48 31.914667 84.48 95.744 0 19.221333-3.029333 35.562667-9.130667 49.002666-6.101333 13.44-16.832 24.277333-32.170666 32.533334l51.626666 148.864h-50.688l-44.586666-139.264H197.205333v139.264H149.333333zM492.906667 170.666667v43.968h-59.968v282.176h-51.84V214.613333h-59.968V170.666667h171.776z m85.909333 0c10.368 0 20.672 1.642667 30.890667 4.949333 10.197333 3.306667 19.498667 8.106667 27.861333 14.421333 8.042667 6.613333 14.570667 14.869333 19.605333 24.768 5.013333 9.92 7.530667 21.333333 7.530667 34.24v169.386667c0 13.504-2.517333 25.066667-7.530667 34.688-5.034667 9.6-11.562667 17.557333-19.605333 23.872-8.362667 6.613333-17.664 11.562667-27.861333 14.848a99.84 99.84 0 0 1-30.890667 4.970667 99.84 99.84 0 0 1-30.890667-4.970667 82.794667 82.794667 0 0 1-27.392-14.848 70.08 70.08 0 0 1-20.096-23.893333c-5.013333-9.6-7.530667-21.162667-7.530666-34.666667v-169.386667c0-12.906667 2.517333-24.32 7.530666-34.24 5.034667-9.898667 11.733333-18.154667 20.096-24.768 8.042667-6.314667 17.173333-11.093333 27.392-14.421333A99.84 99.84 0 0 1 578.816 170.666667z m0 45.952c-9.386667 0-17.493333 2.624-24.362667 7.893333-6.869333 5.248-10.304 13.44-10.304 24.533333v169.386667c0 11.093333 3.413333 19.285333 10.304 24.533333 6.848 5.269333 14.976 7.893333 24.362667 7.893334 9.386667 0 17.493333-2.624 24.362667-7.893334 6.848-5.248 10.282667-13.44 10.282666-24.533333v-169.386667c0-11.093333-3.413333-19.285333-10.282666-24.533333a38.912 38.912 0 0 0-24.362667-7.893333zM874.666667 265.706667h-50.069334v-10.346667c0-10.517333-2.688-19.605333-8.106666-27.264-5.376-7.658667-14.464-11.477333-27.221334-11.477333-6.869333 0-12.437333 1.194667-16.704 3.605333-4.245333 2.389333-7.68 5.397333-10.304 9.002667-2.602667 3.904-4.416 8.32-5.397333 13.290666a79.829333 79.829333 0 0 0-1.472 15.530667c0 6.314667 0.256 11.562667 0.746667 15.786667 0.490667 4.202667 1.706667 7.957333 3.669333 11.242666 1.962667 3.306667 4.821333 6.165333 8.597333 8.576 3.754667 2.389333 8.917333 4.8 15.466667 7.189334l38.272 13.973333c11.136 3.904 20.138667 8.490667 27.008 13.738667 6.869333 5.248 12.266667 11.328 16.192 18.24 3.605333 7.210667 6.058667 15.402667 7.36 24.554666 1.301333 9.173333 1.962667 19.605333 1.962667 31.317334a152.106667 152.106667 0 0 1-4.416 37.610666 76.224 76.224 0 0 1-14.229334 29.504 69.909333 69.909333 0 0 1-27.008 19.818667c-11.114667 4.8-24.704 7.210667-40.746666 7.210667a96.170667 96.170667 0 0 1-33.856-5.866667 79.018667 79.018667 0 0 1-44.906667-40.32 68.053333 68.053333 0 0 1-6.613333-29.952v-17.109333h50.048v14.421333c0 8.405333 2.709333 16 8.106666 22.741333 5.397333 6.762667 14.464 10.133333 27.242667 10.133334 8.490667 0 15.146667-1.130667 19.861333-3.370667a25.6 25.6 0 0 0 11.050667-9.685333c2.624-4.202667 4.181333-9.237333 4.672-15.104 0.490667-5.845333 0.725333-12.373333 0.725333-19.584a178.346667 178.346667 0 0 0-0.981333-20.736 33.450667 33.450667 0 0 0-3.925333-13.056 26.666667 26.666667 0 0 0-9.066667-8.106667 120.917333 120.917333 0 0 0-14.976-6.762667l-35.84-13.504c-21.589333-8.106667-36.053333-18.858667-43.434667-32.213333-7.36-13.354667-11.050667-30.101333-11.050666-50.218667 0-12.032 1.813333-23.424 5.397333-34.24 3.626667-10.816 9.002667-20.117333 16.213333-27.946666a73.728 73.728 0 0 1 26.24-18.688C763.861333 173.013333 776.512 170.666667 791.253333 170.666667c12.437333 0 23.808 2.112 34.112 6.314666 10.304 4.202667 19.2 9.749333 26.752 16.64 15.04 14.442667 22.570667 30.933333 22.570667 49.578667v22.506667zM195.413333 851.498667V632.938667h92.821334v29.461333H226.56v64.170667h53.76v29.44h-53.76v64.170666h61.674667v31.317334H195.413333z m232.853334-155.626667h-31.146667v-7.061333c0-7.168-1.685333-13.354667-5.034667-18.56-3.370667-5.226667-9.024-7.850667-16.96-7.850667-4.266667 0-7.722667 0.832-10.389333 2.453333a20.522667 20.522667 0 0 0-6.4 6.144 26.026667 26.026667 0 0 0-3.370667 9.066667 59.413333 59.413333 0 0 0-0.917333 10.581333c0 4.309333 0.170667 7.893333 0.469333 10.752a20.48 20.48 0 0 0 2.282667 7.68c1.237333 2.24 3.008 4.181333 5.333333 5.824 2.346667 1.642667 5.546667 3.264 9.642667 4.906667l23.808 9.514667c6.933333 2.666667 12.522667 5.781333 16.810667 9.365333 4.266667 3.584 7.637333 7.722667 10.069333 12.437333 2.24 4.906667 3.776 10.474667 4.586667 16.725334 0.810667 6.229333 1.216 13.354667 1.216 21.333333 0 9.194667-0.917333 17.749333-2.752 25.621333-1.834667 7.893333-4.778667 14.592-8.853334 20.117334-4.266667 5.717333-9.877333 10.24-16.789333 13.504-6.933333 3.264-15.36 4.906667-25.344 4.906666-7.552 0-14.570667-1.322667-21.077333-3.989333a50.090667 50.090667 0 0 1-16.810667-11.050667 53.781333 53.781333 0 0 1-11.136-16.426666 50.090667 50.090667 0 0 1-4.117333-20.416v-11.648h31.146666v9.813333c0 5.738667 1.685333 10.88 5.034667 15.509333 3.370667 4.586667 9.002667 6.890667 16.96 6.890667 5.290667 0 9.408-0.768 12.373333-2.304a16.469333 16.469333 0 0 0 6.848-6.592 24.32 24.32 0 0 0 2.901334-10.282667 176.256 176.256 0 0 0-0.149334-27.477333 24.384 24.384 0 0 0-2.432-8.896 17.216 17.216 0 0 0-5.653333-5.525333 72.256 72.256 0 0 0-9.322667-4.608l-22.293333-9.194667c-13.44-5.546667-22.442667-12.842667-27.029333-21.973333-4.565333-9.088-6.869333-20.48-6.869334-34.218667 0-8.170667 1.130667-15.957333 3.370667-23.317333 2.24-7.36 5.589333-13.717333 10.069333-19.029334 4.266667-5.333333 9.728-9.578667 16.341334-12.736 6.613333-3.178667 14.506667-4.757333 23.68-4.757333 7.722667 0 14.805333 1.429333 21.205333 4.288 6.421333 2.858667 11.968 6.656 16.64 11.370667 9.386667 9.813333 14.08 21.077333 14.08 33.749333v15.36z m42.304 155.626667V632.938667h46.72c8.554667 0 16.085333 1.130667 22.613333 3.370666 6.506667 2.261333 12.416 6.250667 17.706667 11.968 5.290667 5.76 8.96 12.437333 10.986666 20.117334 2.048 7.68 3.050667 18.048 3.050667 31.146666 0 9.813333-0.554667 18.133333-1.664 24.874667a52.138667 52.138667 0 0 1-7.189333 19.029333c-4.266667 7.168-9.962667 12.736-17.088 16.725334-7.125333 3.989333-16.490667 5.973333-28.096 5.973333h-15.893334v85.333333h-31.146666z m31.146666-189.098667v74.282667h14.976c6.293333 0 11.178667-0.917333 14.656-2.773334a17.344 17.344 0 0 0 7.637334-7.658666 28.16 28.16 0 0 0 2.901333-11.349334c0.298667-4.501333 0.448-9.514667 0.448-15.04 0-5.12-0.106667-9.984-0.298667-14.592a31.68 31.68 0 0 0-2.773333-12.117333 17.386667 17.386667 0 0 0-7.317333-7.978667c-3.242667-1.834667-7.936-2.773333-14.037334-2.773333h-16.192z m144.917334 62.634667c9.365333 0 15.829333-1.130667 19.392-3.392 3.562667-2.24 5.333333-7.466667 5.333333-15.637334V677.76a15.296 15.296 0 0 0-4.117333-11.050667c-2.752-2.858667-6.464-4.309333-11.136-4.309333-5.504 0-9.429333 1.749333-11.754667 5.226667a18.176 18.176 0 0 0-3.52 10.133333v17.792h-31.146667v-18.112a45.696 45.696 0 0 1 13.738667-32.853333c4.266667-4.074667 9.258667-7.338667 14.954667-9.813334 5.717333-2.453333 11.818667-3.669333 18.346666-3.669333 8.533333 0 15.616 1.685333 21.205334 5.056 5.610667 3.370667 9.813333 6.826667 12.672 10.282667 2.048 2.453333 3.84 4.906667 5.333333 7.36 1.557333 2.474667 2.816 5.44 3.84 8.917333 1.834667 6.741333 2.752 16.768 2.752 30.08 0 7.573333-0.149333 13.717333-0.469333 18.410667-0.298667 4.693333-1.066667 8.597333-2.282667 11.669333-1.429333 3.264-3.413333 6.037333-5.973333 8.277333a70.613333 70.613333 0 0 1-10.517334 7.381334c4.885333 3.072 8.597333 5.930667 11.136 8.597333 2.56 2.645333 4.437333 5.717333 5.653334 9.194667 1.216 3.690667 1.92 8.042667 2.133333 13.056 0.213333 5.013333 0.32 11.413333 0.32 19.178666 0 7.168-0.149333 13.098667-0.469333 17.813334-0.298667 4.693333-0.768 8.576-1.365334 11.648a36.522667 36.522667 0 0 1-6.4 15.36 49.450667 49.450667 0 0 1-14.826666 14.272c-6.016 3.776-13.888 5.674667-23.68 5.674666-4.885333 0-10.069333-0.810667-15.573334-2.453333a42.389333 42.389333 0 0 1-14.954666-7.978667 43.306667 43.306667 0 0 1-11.157334-14.421333c-2.944-5.952-4.416-13.226667-4.416-21.802667v-17.813333h31.146667v16.277333c0 4.906667 1.365333 8.96 4.117333 12.117334a13.994667 13.994667 0 0 0 11.157334 4.757333c4.693333 0 8.384-1.578667 11.136-4.757333 2.773333-3.157333 4.138667-7.402667 4.138666-12.736v-31.296c0-8.597333-1.642667-14.229333-4.906666-16.896a13.546667 13.546667 0 0 0-7.466667-3.072 100.053333 100.053333 0 0 0-12.373333-0.597334v-27.626666z m95.744 126.464v-29.482667l56.192-106.496c2.858667-5.333333 4.48-9.984 4.906666-13.973333 0.384-3.989333 0.597333-8.96 0.597334-14.890667 0-2.666667-0.064-5.482667-0.149334-8.448a20.565333 20.565333 0 0 0-1.706666-7.829333 14.506667 14.506667 0 0 0-4.565334-5.674667c-2.026667-1.536-4.992-2.304-8.853333-2.304-4.693333 0-8.405333 1.344-11.157333 3.989333-2.730667 2.666667-4.117333 6.549333-4.117334 11.669334v17.813333H742.4v-17.194667c0-6.549333 1.216-12.693333 3.669333-18.410666 2.432-5.738667 5.802667-10.752 10.069334-15.04a45.738667 45.738667 0 0 1 32.981333-14.122667c8.149333 0 15.125333 1.493333 20.906667 4.437333 5.824 2.986667 10.666667 7.018667 14.506666 12.138667 3.690667 5.12 6.4 10.944 8.106667 17.493333 1.728 6.549333 2.602667 13.504 2.602667 20.864 0 5.333333-0.106667 9.770667-0.298667 13.354667-0.213333 3.584-0.618667 7.018667-1.237333 10.282667a45.482667 45.482667 0 0 1-3.050667 9.813333c-1.429333 3.285333-3.349333 7.274667-5.802667 11.989333l-45.802666 88.704h56.192v31.317334h-92.842667z" fill="#B2B8C5" p-id="36807"></path></svg>