<?xml version="1.0" standalone="no"?><!DOCTYPE svg PUBLIC "-//W3C//DTD SVG 1.1//EN" "http://www.w3.org/Graphics/SVG/1.1/DTD/svg11.dtd"><svg t="1735375166188" class="icon" viewBox="0 0 1259 1024" version="1.1" xmlns="http://www.w3.org/2000/svg" p-id="27010" xmlns:xlink="http://www.w3.org/1999/xlink" width="245.8984375" height="200"><path d="M238.738286 932.717714c233.491081 121.709714 612.021267 121.709714 845.486907 0 233.45928-121.709714 233.48472-319.030062 0-440.739776-233.491081-121.709714-611.995826-121.709714-845.486907 0-233.48472 121.709714-233.548323 319.030062 0 440.739776z" fill="#F5F5F5" opacity=".8" p-id="27011"></path><path d="M130.55682 536.168944s0.387975-44.521739-22.718808-71.578236c-23.106783-27.069217-51.028273-22.165466-60.994782-17.013665-9.966509 5.151801-16.708373 19.398758 0.496099 29.810485 17.204472 10.418087 53.540571 30.97441 59.582808 49.393689l23.634683 9.387727z" fill="#F5275F" opacity=".8" p-id="27012"></path><path d="M111.234385 516.248646c-5.787826-13.102112-12.338882-18.998062-31.152497-15.86882-18.826335 3.129242-16.034186 2.766708-39.17277-3.211925-23.132224-5.984994-38.975602 3.599901-40.781913 12.434285-1.844472 9.616696 17.007304 13.852621 31.095255 20.085665 14.08795 6.233043 23.723727 14.208795 20.352795 26.814807-2.785789 10.799702-1.062161 19.945739 15.671652 23.850932 14.863901 3.491776 30.624596-5.043677 36.85764 9.114236 3.510857 8.058435 17.40164 16.867379 30.179378 9.336845 22.108224-22.165466 15.900621-49.088398 1.698187-66.846211-6.264845-7.867627-21.268671-7.842186-24.747727-15.709814z" fill="#F5275F" opacity=".8" p-id="27013"></path><path d="M111.234385 516.248646c-5.787826-13.102112-12.338882-18.998062-31.152497-15.86882-18.826335 3.129242-16.034186 2.766708-39.17277-3.211925-23.132224-5.984994-38.975602 3.599901-40.781913 12.434285-1.844472 9.616696 17.007304 13.852621 31.095255 20.085665 14.08795 6.233043 23.723727 14.208795 20.352795 26.814807-2.785789 10.799702-1.062161 19.945739 15.671652 23.850932 14.863901 3.491776 30.624596-5.043677 36.85764 9.114236 3.510857 8.058435 17.40164 16.867379 30.179378 9.336845 22.108224-22.165466 15.900621-49.088398 1.698187-66.846211-6.264845-7.867627-21.268671-7.842186-24.747727-15.709814z" fill="#000000" opacity=".2" p-id="27014"></path><path d="M351.607255 957.395478c-8.077516 4.630261-25.421913 5.37441-29.42887-8.586335-4.006957-13.960745-3.116522-20.944298-13.922584-23.354832-10.799702-2.404174-31.038012 7.982112-38.975602-7.613218-7.93123-15.595329 8.351006-23.577441-1.640944-32.106534-9.99195-8.535453-28.284025-17.897739-19.18251-28.977292s20.963379-8.007553 31.038013-4.185043c10.558012 3.962435 26.61764 0.807752 40.45118 1.749068 13.839901 0.941317 16.956422 11.741019 17.293515 20.136547 0.337093 8.395528 5.209043 18.037665 17.236274 15.87518l-2.868472 67.062459z" fill="#F5275F" opacity=".8" p-id="27015"></path><path d="M1005.237267 432.89759c15.646211 0 22.26723-4.401292 26.191503-14.514087 3.924273-10.112795 2.423255-20.416398 15.175553-24.404273 12.745938-3.987876 20.352795-1.494658 26.693963-14.100671 6.347528-12.606012-9.966509-27.953292-2.111603-36.704994 7.848547-8.751702 26.026137-17.427081 22.27359-28.258584-2.423255-7.314286-10.138236-9.998311-17.293515-9.584894-4.579379 0.616944-8.904348 2.467776-12.497888 5.348969a24.219826 24.219826 0 0 1-13.280199 4.185043c-4.642981 0.25441-9.298683 0.101764-13.922584-0.445217a19.576845 19.576845 0 0 0-9.540373 1.055801c-5.298087 2.404174-7.68954 8.859826-7.078956 14.59677a36.991205 36.991205 0 0 1 0 13.102112c-1.475578 6.506534-9.966509 8.312845-14.641292 13.159354-10.831503 11.079553-3.008398 30.662758-1.952596 44.318211 0.782311 9.311404 1.252969 23.024099 1.978037 32.24646z" fill="#F5275F" opacity=".8" p-id="27016"></path><path d="M425.786832 414.478311l-17.726012-1.742709V22.089143l17.726012 1.717267z" fill="#E0E0E0" opacity=".8" p-id="27017"></path><path d="M361.033143 161.467627L293.62723 322.795329l-44.311851-35.83364a7.695901 7.695901 0 0 0-10.806062 1.138485c-0.387975 0.50882-0.725068 1.055801-0.992199 1.634584L137.591255 509.125168v29.543354c0 3.549019 2.493217 4.992795 5.533416 3.218285l39.140969-22.617043 220.255403-127.24313c3.262807-2.143404 5.317168-5.711503 5.539777-9.616696V208.63523l-33.620273-48.554137a7.67046 7.67046 0 0 0-10.666137-1.971677c-1.221168 0.826832-2.175205 1.990758-2.734907 3.358211zM158.389267 190.762932V266.558012c8.503652 3.103801 19.386037 1.634584 31.209739-5.215403 27.285466-15.767056 49.41277-54.093913 49.41277-85.634385 0-14.577689-4.706584-25.110261-12.491528-30.70728l-62.591205 36.024447c-3.307329 2.162484-5.36805 5.787826-5.533416 9.73118z" fill="#E0E0E0" opacity=".8" p-id="27018"></path><path d="M392.382807 169.367056l-20.467279-11.639255v23.469317zM268.974907 297.99036L248.202335 286.21118l-0.330733 23.342112z" fill="#E0E0E0" opacity=".8" p-id="27019"></path><path d="M439.219677 15.576248a2.773068 2.773068 0 0 0 0-0.699627 12.338882 12.338882 0 0 0-5.342609-8.007553L424.120447 1.335652a12.211677 12.211677 0 0 0-11.079553 0L132.827429 163.102211a11.639255 11.639255 0 0 0-3.962435 4.159603 11.397565 11.397565 0 0 0-1.602783 5.539776v419.859081c0.222609 3.898832 2.276969 7.466932 5.533416 9.616695l9.699379 5.539777a12.313441 12.313441 0 0 0 9.801143 0.585143l0.387975-0.139926 0.915876-0.445217 123.242534-70.980373 157.002733-90.678062c3.269168-2.143404 5.323528-5.711503 5.533416-9.616696V16.460323a2.773068 2.773068 0 0 1-0.159006-0.890435z m-13.432845 380.470063a12.364323 12.364323 0 0 1-5.539776 9.616695l-143.264596 82.810435-113.053417 65.300671c-3.046559 1.774509-5.533416 0.330733-5.533416-3.211926v-359.799254a12.364323 12.364323 0 0 1 5.533416-9.616696L420.221615 33.03513c3.072-1.79995 5.533416-0.362534 5.533416 3.186485l0.031801 359.824696z" fill="#F5F5F5" opacity=".8" p-id="27020"></path><path d="M276.98246 488.479801c0 16.981863-0.171727 33.257739-0.25441 48.223404L153.542758 607.931627l-0.915876 0.445218-0.381615 0.133565a12.313441 12.313441 0 0 1-9.807503-0.578783l-9.693019-5.546136A12.364323 12.364323 0 0 1 127.204969 592.775155V172.80795c0.050882-1.952596 0.604224-3.860671 1.609143-5.539776l20.798012 12.052671 10.437168 6.016795c-1.01764 1.666385-1.590062 3.58082-1.634584 5.539776v359.824696c0 3.549019 2.493217 4.992795 5.539776 3.218286l113.021615-65.434237z" fill="#E0E0E0" opacity=".8" p-id="27021"></path><path d="M381.831155 173.272248L314.425242 334.523627l-44.311851-35.84a7.67046 7.67046 0 0 0-11.830062 2.773069L158.370186 520.904348v57.509366c0 3.517217 2.493217 4.960994 5.533416 3.186485l39.134609-22.585242 217.215205-125.551305c3.262807-2.149764 5.317168-5.717863 5.533416-9.616695V222.138037l-30.46559-50.277764a7.695901 7.695901 0 0 0-13.483726 1.411975z" fill="#F5F5F5" opacity=".8" p-id="27022"></path><path d="M439.219677 15.576248a2.773068 2.773068 0 0 0 0-0.699627c-0.667826-2.321491-2.773068-3.097441-5.342609-1.602782L153.536398 175.161242c-3.307329 2.098882-5.37441 5.692422-5.533417 9.616696v419.884522c0 3.021118 1.825391 4.515776 4.229566 3.797068h0.387975l0.915876-0.445217 123.299776-71.171181 157.002733-90.684422c3.269168-2.143404 5.323528-5.711503 5.533416-9.616696V16.460323a2.773068 2.773068 0 0 1-0.159006-0.890435z m-13.432845 408.188025a12.364323 12.364323 0 0 1-5.539776 9.616696l-143.264596 82.810435-113.053417 65.300671c-3.046559 1.774509-5.533416 0.330733-5.533416-3.218286V190.762932a12.364323 12.364323 0 0 1 5.533416-9.616696L420.221615 33.03513c3.072-1.79995 5.533416-0.362534 5.533416 3.186485l0.031801 387.542658z" fill="#F0F0F0" opacity=".8" p-id="27023"></path><path d="M498.649839 456.551354l-17.726013-1.749068v-390.64646l17.726013 1.717267zM433.896149 203.540671L366.496596 365.008298l-44.311851-35.83364a7.695901 7.695901 0 0 0-11.798261 2.766708L210.460621 551.17913v29.543354c0 3.542658 2.486857 4.986435 5.533416 3.211926l39.134609-22.617044 220.255404-127.23677c3.269168-2.143404 5.329888-5.711503 5.539776-9.616695V250.682832l-33.620273-48.560497a7.67046 7.67046 0 0 0-13.401044 1.418336zM231.258634 232.835975v75.801441c8.497292 3.103801 19.386037 1.634584 31.209739-5.215404 27.196422-15.773416 49.355528-54.100273 49.355528-85.640745 0-14.577689-4.706584-25.103901-12.491528-30.707279l-62.591205 36.030807a12.338882 12.338882 0 0 0-5.488895 9.73118z" fill="#E0E0E0" opacity=".8" p-id="27024"></path><path d="M465.252174 211.440099l-20.46728-11.639254v23.469316zM341.844273 340.063404l-20.772571-11.77918-0.330733 23.342111z" fill="#E0E0E0" opacity=".8" p-id="27025"></path><path d="M512.057242 57.649292a2.773068 2.773068 0 0 0 0-0.699627 12.447006 12.447006 0 0 0-5.342608-7.893069l-9.750261-5.546136a12.211677 12.211677 0 0 0-11.079553 0L205.690435 205.181615a11.855503 11.855503 0 0 0-3.956075 4.153242 11.588373 11.588373 0 0 0-1.609143 5.546137v419.859081c0.216248 3.898832 2.270609 7.473292 5.539777 9.616695l9.693018 5.539777a12.205317 12.205317 0 0 0 9.807504 0.585142l0.381614-0.139925 0.915876-0.445217L349.70554 578.782609 506.708273 488.085466c3.269168-2.143404 5.323528-5.711503 5.539777-9.616696V58.533366a2.773068 2.773068 0 0 1-0.190808-0.890434zM498.643478 438.119354a12.307081 12.307081 0 0 1-5.533416 9.616696l-143.270956 82.810434L236.79205 595.853516c-3.046559 1.774509-5.533416 0.330733-5.533416-3.218286v-359.799255a12.389764 12.389764 0 0 1 5.533416-9.610335l256.292571-148.111106c3.072-1.79995 5.533416-0.362534 5.533416 3.180124l0.031802 359.831056z" fill="#F5F5F5" opacity=".8" p-id="27026"></path><path d="M349.845466 530.552845c0 16.981863-0.165366 33.257739-0.25441 48.223403l-123.185292 71.228423-0.909516 0.445217-0.387975 0.133565a12.205317 12.205317 0 0 1-9.807503-0.578782l-9.693018-5.546137a12.307081 12.307081 0 0 1-5.533417-9.616695v-419.967205c0.057242-1.952596 0.610584-3.860671 1.602783-5.546137l20.798012 12.03359 10.443528 6.010435c-1.01764 1.679106-1.577342 3.58718-1.634583 5.546136v359.710212c0 3.549019 2.493217 4.992795 5.533416 3.218285l113.027975-65.29431z" fill="#E0E0E0" opacity=".8" p-id="27027"></path><path d="M454.694161 215.345292L387.294609 376.672994l-44.311851-35.83364a7.721342 7.721342 0 0 0-11.830062 2.773068l-99.919503 219.364969v57.369441c0 3.517217 2.493217 4.960994 5.539776 3.186485l39.051925-22.585242 217.208845-125.551305c3.269168-2.143404 5.323528-5.711503 5.539777-9.616695V264.20472l-30.465591-50.271403a7.695901 7.695901 0 0 0-10.685217-2.022559c-1.214807 0.864994-2.156124 2.05436-2.715826 3.434534z" fill="#F5F5F5" opacity=".8" p-id="27028"></path><path d="M512.057242 57.649292a2.773068 2.773068 0 0 0 0-0.699627c-0.667826-2.321491-2.773068-3.097441-5.342608-1.602783L226.399404 217.227925a12.084472 12.084472 0 0 0-5.533416 9.616696v419.884522c0 3.021118 1.825391 4.515776 4.235925 3.797068h0.381615l0.915876-0.445217 123.299776-71.17118 157.002733-90.678062c3.269168-2.143404 5.323528-5.717863 5.539776-9.623056V58.533366a2.773068 2.773068 0 0 1-0.190807-0.890434zM498.643478 465.837317a12.307081 12.307081 0 0 1-5.533416 9.616695l-143.270956 82.810435L236.79205 623.558758c-3.046559 1.78087-5.533416 0.337093-5.533416-3.211926V232.835975a12.389764 12.389764 0 0 1 5.533416-9.616695l256.292571-148.111106c3.072-1.79995 5.533416-0.362534 5.533416 3.180124l0.031802 387.549019z" fill="#F0F0F0" opacity=".8" p-id="27029"></path><path d="M571.544646 498.592596l-17.726012-1.742708v-390.646459l17.726012 1.717267z" fill="#263238" opacity=".8" p-id="27030"></path><path d="M506.790957 245.581913L439.385043 406.909615l-44.31185-35.83364a7.695901 7.695901 0 0 0-10.799702 1.138485c-0.394335 0.50882-0.725068 1.055801-0.998559 1.634583l-99.919503 219.364969v29.543354c0 3.549019 2.486857 4.986435 5.533416 3.218286l39.134608-22.617043 220.255404-127.243131c3.269168-2.143404 5.323528-5.711503 5.539777-9.616695V292.724075L520.20472 244.169938a7.67046 7.67046 0 0 0-13.407403 1.411975zM304.147081 274.877217v75.801441c8.503652 3.103801 19.386037 1.634584 31.216099-5.215403 27.279106-15.767056 49.40641-54.093913 49.40641-85.634385 0-14.577689-4.706584-25.110261-12.491528-30.70728l-62.584845 36.030808c-3.307329 2.162484-5.36805 5.781466-5.546136 9.73118z" fill="#F5275F" opacity=".8" p-id="27031"></path><path d="M506.790957 245.581913L439.385043 406.909615l-44.31185-35.83364a7.695901 7.695901 0 0 0-10.799702 1.138485c-0.394335 0.50882-0.725068 1.055801-0.998559 1.634583l-99.919503 219.364969v29.543354c0 3.549019 2.486857 4.986435 5.533416 3.218286l39.134608-22.617043 220.255404-127.243131c3.269168-2.143404 5.323528-5.711503 5.539777-9.616695V292.724075L520.20472 244.169938a7.67046 7.67046 0 0 0-13.407403 1.411975z" fill="#FFFFFF" opacity=".5" p-id="27032"></path><path d="M538.140621 253.481342l-20.460919-11.639255v23.469317zM414.73272 382.104646l-20.766211-11.77918-0.337093 23.342112z" fill="#F5275F" opacity=".8" p-id="27033"></path><path d="M538.140621 253.481342l-20.460919-11.639255v23.469317zM414.73272 382.104646l-20.766211-11.77918-0.337093 23.342112z" fill="#FFFFFF" opacity=".5" p-id="27034"></path><path d="M584.95205 99.690534a2.773068 2.773068 0 0 0 0-0.693267c-0.636025-3.281888-2.56318-6.169441-5.342609-8.013913l-9.756621-5.533416a12.211677 12.211677 0 0 0-11.073193 0L278.578882 247.210137a11.639255 11.639255 0 0 0-3.962435 4.159602 11.51205 11.51205 0 0 0-1.602782 5.539777v419.85908c0.216248 3.905193 2.270609 7.473292 5.533416 9.616696l9.699379 5.546137a12.313441 12.313441 0 0 0 9.801142 0.578782l0.387976-0.139925 0.915875-0.445218 123.242535-71.107577L579.603081 530.126708c3.269168-2.143404 5.323528-5.711503 5.539776-9.616696V100.574609a2.773068 2.773068 0 0 1-0.190807-0.890435z m-13.407404 380.470062a12.307081 12.307081 0 0 1-5.533416 9.623056l-143.270957 82.810435-113.053416 65.294311c-3.046559 1.78087-5.533416 0.337093-5.533416-3.211926v-359.799255a12.364323 12.364323 0 0 1 5.533416-9.616695l256.292572-148.111106c3.072-1.79995 5.533416-0.356174 5.533416 3.186485l0.031801 359.824695z" fill="#455A64" opacity=".8" p-id="27035"></path><path d="M422.740273 572.594087c0 16.988224-0.165366 33.257739-0.25441 48.223404l-123.185292 71.228422-0.909515 0.445217h-0.387975a12.313441 12.313441 0 0 1-9.807503-0.585142l-9.693019-5.539777a12.307081 12.307081 0 0 1-5.533416-9.616695V256.915876a11.51205 11.51205 0 0 1 1.602782-5.539777l20.798013 12.02723 10.443528 6.016795c-1.03036 1.666385-1.590062 3.58082-1.634584 5.539777v359.716571c0 3.549019 2.493217 4.986435 5.533416 3.211926l113.021615-65.294311z" fill="#263238" opacity=".8" p-id="27036"></path><path d="M304.147081 274.877217v75.801441c8.503652 3.103801 19.386037 1.634584 31.216099-5.215403 27.279106-15.767056 49.40641-54.093913 49.40641-85.634385 0-14.577689-4.706584-25.110261-12.491528-30.70728l-62.584845 36.030808c-3.307329 2.162484-5.36805 5.781466-5.546136 9.73118z" fill="#FFFFFF" opacity=".7" p-id="27037"></path><path d="M527.595329 257.386534l-67.418633 161.334062-44.305491-35.84a7.695901 7.695901 0 0 0-11.830062 2.773069l-99.919503 219.364969v57.369441c0 3.523578 2.493217 4.960994 5.533416 3.192844l39.140969-22.591602 217.208845-125.551305c3.262807-2.149764 5.317168-5.711503 5.539776-9.616695V306.252323l-30.46559-50.277764a7.695901 7.695901 0 0 0-13.483727 1.411975z" fill="#F5275F" opacity=".8" p-id="27038"></path><path d="M584.95205 99.690534a2.773068 2.773068 0 0 0 0-0.693267c-0.667826-2.327851-2.773068-3.103801-5.342609-1.609143L299.294211 259.275528a12.059031 12.059031 0 0 0-5.533416 9.616696v419.884521c0 3.021118 1.825391 4.515776 4.235925 3.797069l0.381615-0.139926 0.915876-0.445217 123.299777-71.17118 157.002732-90.684423c3.269168-2.143404 5.323528-5.711503 5.539777-9.616695V100.574609a2.773068 2.773068 0 0 1-0.190808-0.890435z m-13.407404 408.188025a12.307081 12.307081 0 0 1-5.533416 9.616696l-143.270957 82.810434-113.053416 65.300671c-3.046559 1.774509-5.533416 0.330733-5.533416-3.218285V274.877217a12.364323 12.364323 0 0 1 5.533416-9.616695l256.292572-148.111106c3.072-1.79995 5.533416-0.356174 5.533416 3.186485l0.031801 387.542658z" fill="#37474F" opacity=".8" p-id="27039"></path><path d="M366.095901 779.989068v180.262162c0 4.560298 2.798509 6.65918 6.6719 5.253565a18.228472 18.228472 0 0 1-14.723975-0.636025l-6.557416-3.758907A17.630609 17.630609 0 0 1 343.453416 947.289043v-180.262161c0.108124-2.779429 0.915876-5.482534 2.340572-7.880348l22.680646 12.962186c-1.462857 2.378733-2.283329 5.088199-2.372373 7.880348z" fill="#263238" opacity=".8" p-id="27040"></path><path d="M675.140373 567.970186c5.056398-2.544099 11.035031-2.544099 16.091428 0l6.582857 3.752547a17.865938 17.865938 0 0 1 7.92487 12.326161c-0.642385-3.975155-3.962435-5.38713-7.92487-3.116521l-323.793888 185.153192a16.339478 16.339478 0 0 0-5.577938 5.940472l-22.674285-12.962186c1.335652-2.397814 3.256447-4.439453 5.577937-5.940472L675.140373 567.970186z" fill="#455A64" opacity=".8" p-id="27041"></path><path d="M366.095901 779.989068v180.262162c0 5.088199 3.606261 7.16164 8.064795 4.61754l323.793888-185.159553A17.630609 17.630609 0 0 0 705.987578 765.901118V585.543553c0-5.088199-3.599901-7.129839-8.032994-4.585739l-323.793888 185.153192a17.547925 17.547925 0 0 0-8.058435 13.878062z" fill="#37474F" opacity=".8" p-id="27042"></path><path d="M655.697093 613.674932c2.792149-1.54554 4.827429-0.305292 4.827429 2.766708v170.397416a10.538932 10.538932 0 0 1-4.827429 8.293764l-239.590559 137.069714c-2.785789 1.520099-4.821068 0.273491-4.821068-2.760348v-170.429217c0.178087-3.370932 1.971677-6.449292 4.827428-8.293764l239.590559-137.044273z" fill="#F5F5F5" opacity=".8" p-id="27043"></path><path d="M378.231255 863.111155a6.290286 6.290286 0 0 1 2.792149-4.85923c1.564621-0.890435 2.792149-0.165366 2.792149 1.628224a6.290286 6.290286 0 0 1-2.792149 4.86559c-1.507379 0.884075-2.792149 0.165366-2.792149-1.634584zM672.042932 694.952547a24.442435 24.442435 0 0 1 11.155875-19.347876c6.169441-3.536298 11.155876-0.661466 11.155876 6.41749a24.467876 24.467876 0 0 1-11.155876 19.17615c-6.163081 3.784348-11.155876 0.909516-11.155875-6.245764zM389.781466 825.916422c0.190807-3.936994 2.264248-7.543255 5.577938-9.73118 3.122882-1.79359 5.577938-0.330733 5.577938 3.237367a12.383404 12.383404 0 0 1-5.577938 9.73118c-3.040199 1.79359-5.577938 0.330733-5.577938-3.237367zM395.671056 838.40795c2.06072-1.214807 3.758907 0 3.758907 2.429615v42.645466a8.656298 8.656298 0 0 1-3.765267 6.767304c-2.092522 1.189366-3.790708 0-3.790708-2.455055v-42.613665c0.082683-2.734907 1.501019-5.253565 3.790708-6.773665z" fill="#263238" opacity=".8" p-id="27044"></path><path d="M411.285466 759.012969v36.921242c5.189963 3.59354 12.656894 3.453615 20.976099-1.329292 15.646211-8.923429 28.334907-30.700919 28.334907-48.611379 0-7.873988-2.480497-13.81446-6.551056-16.969142l-37.932522 21.694807c-2.862112 1.844472-4.655702 4.922832-4.827428 8.293764z" fill="#F5275F" opacity=".8" p-id="27045"></path><path d="M411.285466 759.012969v36.921242c5.189963 3.59354 12.656894 3.453615 20.976099-1.329292 15.646211-8.923429 28.334907-30.700919 28.334907-48.611379 0-7.873988-2.480497-13.81446-6.551056-16.969142l-37.932522 21.694807c-2.862112 1.844472-4.655702 4.922832-4.827428 8.293764z" fill="#FFFFFF" opacity=".7" p-id="27046"></path><path d="M660.524522 725.958758l-40.858236-49.164721a4.006957 4.006957 0 0 0-5.584298-1.405615 4.038758 4.038758 0 0 0-1.838112 2.372373l-53.693218 116.844124-50.621217-28.93913a7.772224 7.772224 0 0 0-10.011031 2.219727l-86.632944 123.859478v37.665391c0 3.06564 2.149764 4.312248 4.827428 2.766708l239.590559-137.076074c2.849391-1.844472 4.642981-4.916472 4.821069-8.287404v-60.854857z" fill="#F5275F" opacity=".8" p-id="27047"></path><path d="M761.429863 329.772522c0 36.138932-24.881292 80.050087-55.792099 98.202236-12.828621 7.517814-24.607801 9.368646-34.001888 6.366608-7.301565-6.760944-11.639255-18.094907-11.639255-33.136894 0-36.081689 24.881292-80.018286 55.81754-98.202236 12.79682-7.492373 24.607801-9.343205 34.02733-6.341168 7.276124 6.818186 11.588373 18.101267 11.588372 33.111454z" fill="#F5275F" opacity=".8" p-id="27048"></path><path d="M771.549019 335.744795c0 36.113491-24.881292 79.992845-55.7921 98.062311-15.200994 8.897988-28.970932 9.877466-39.039205 4.242285l-0.826832-0.477018a26.204224 26.204224 0 0 1-4.312248-3.339131c-7.301565-6.767304-11.639255-18.101267-11.639255-33.136894 0-36.08805 24.881292-80.024646 55.81754-98.202236 12.80318-7.492373 24.607801-9.349565 34.03369-6.347528 1.570981 0.483379 3.091081 1.119404 4.534857 1.908074l0.25441 0.146286 1.570981 0.922236c9.591255 6.283925 15.398161 18.718211 15.398162 36.221615z" fill="#F5275F" opacity=".8" p-id="27049"></path><path d="M745.840894 293.601789l-1.691826-0.979478c-9.97923-5.329888-23.552-4.261366-38.479503 4.490335-30.885366 18.037665-55.766658 61.94882-55.766658 98.062311a60.276075 60.276075 0 0 0 2.429615 17.757813 34.726957 34.726957 0 0 0 10.036472 16.161391c1.074882 0.928596 2.226087 1.768149 3.434534 2.499578h0.190807l0.24805 0.165367 0.941317 0.53426 8.732621 5.132721a26.204224 26.204224 0 0 1-4.312248-3.33913c-7.295205-6.760944-11.639255-18.094907-11.639255-33.136895 0-36.081689 24.881292-80.018286 55.81754-98.202236 12.80318-7.486012 24.614161-9.343205 34.03369-6.341168 1.577342 0.483379 3.091081 1.119404 4.534857 1.908075l-8.510013-4.706584z" fill="#455A64" opacity=".8" p-id="27050"></path><path d="M662.318112 429.094161c1.068522 0.928596 2.213366 1.768149 3.428174 2.499578l-19.767652-11.588373h-0.222609C635.834037 414.026733 629.664596 401.39528 629.664596 383.522981c0-36.081689 24.881292-80.018286 55.7921-98.202236a50.036075 50.036075 0 0 1 24.881292-7.714981 28.614758 28.614758 0 0 1 14.571329 3.752547l19.354236 11.225838c-9.98559-5.329888-23.55836-4.261366-38.485864 4.490335-30.993491 18.069466-55.874783 61.980621-55.874782 98.094112a60.276075 60.276075 0 0 0 2.429615 17.757814 33.912845 33.912845 0 0 0 9.98559 16.161391z" fill="#263238" opacity=".8" p-id="27051"></path><path d="M832.372075 371.406708c0 36.113491-24.881292 79.992845-55.7921 98.202236a50.086957 50.086957 0 0 1-24.881292 7.746783 28.767404 28.767404 0 0 1-14.456844-3.733466l-60.466882-35.604671-0.826833-0.477019a26.204224 26.204224 0 0 1-4.312248-3.33913c-7.301565-6.760944-11.639255-18.094907-11.639255-33.136894 0-36.081689 24.881292-80.018286 55.81754-98.202236 12.79682-7.492373 24.607801-9.343205 34.02733-6.341168 1.577342 0.477019 3.097441 1.119404 4.541217 1.908074l0.24805 0.139926 1.577341 0.928596 59.849938 35.044969c10.125516 6.054957 16.314037 18.762733 16.314038 36.864z" fill="#263238" opacity=".8" p-id="27052"></path><path d="M799.610435 562.653019c-11.944547 5.10728-28.748323 4.458534-39.503503-1.825392l-37.907081-22.197267a48.687702 48.687702 0 0 1-21.624845-38.015205V396.80318a36.507826 36.507826 0 0 1 0.973118-8.109317c0.190807-0.928596 0.445217-1.825391 0.718708-2.804869v-0.25441c0.24805-0.839553 0.52154-1.653665 0.826833-2.499578 0.305292-0.839553 0.826832-2.162484 1.303851-3.224646l1.017639-2.187925 1.163926-2.130683 0.25441-0.50882 81.16313 47.701863a45.208646 45.208646 0 0 0-6.360248 21.624845v103.818335c0.089043 12.434286 7.823106 18.298435 17.974062 14.425044z" fill="#263238" opacity=".8" p-id="27053"></path><path d="M1004.919255 313.522087v103.818335a48.547776 48.547776 0 0 1-21.624845 38.015205l-179.925068 105.446559-0.470659 0.25441a8.249242 8.249242 0 0 1-1.100323 0.585143l-1.221167 0.591503-0.966758 0.387975c-10.144596 3.879752-17.885019-1.990758-17.885019-14.475925V444.333317a48.827627 48.827627 0 0 1 21.643926-38.021565c20.683528-12.567851 34.726957-33.881043 38.263254-58.081789a31.540472 31.540472 0 0 1 4.070559-10.799702 23.978137 23.978137 0 0 1 7.708621-8.141118l39.230013-23.005019c2.366012-1.653665 5.425292-1.908075 8.020273-0.642385l0.77595 0.445218c2.098882 1.558261 3.752547 3.663503 4.782907 6.093118a27.190062 27.190062 0 0 0 15.627131 13.801739c6.805466 2.31513 14.246957 1.79359 20.670807-1.462857l1.462857-0.807752 39.287255-22.979578c11.391205-6.678261 20.708969-1.850832 21.567602 10.74882 0.057242 0.782311 0.082683 1.424696 0.082684 2.04164z" fill="#37474F" opacity=".8" p-id="27054"></path><path d="M801.963727 311.951106l-37.493665-21.968299a30.97441 30.97441 0 0 0-4.064199 10.806063c-3.58082 24.143503-17.617888 45.399453-38.263254 57.941863a44.623503 44.623503 0 0 0-15.290038 16.352199l81.175851 47.701863a44.095602 44.095602 0 0 1 15.290038-16.39036c20.715329-12.574211 34.777839-33.925565 38.314136-58.164472a31.540472 31.540472 0 0 1 4.070559-10.799702l-43.739428-25.479155zM983.29441 275.506882l-37.900721-22.197267a47.040398 47.040398 0 0 0-43.236969 0l-39.369937 22.954137a26.426832 26.426832 0 0 1-7.441491 3.002037l1.189366 0.674186 44.01292 25.809888 0.77595 0.451578c2.105242 1.558261 3.752547 3.663503 4.782907 6.086758a27.190062 27.190062 0 0 0 15.63349 13.801739c6.805466 2.321491 14.246957 1.79359 20.670808-1.456497l1.462857-0.814112 39.287255-22.979577c11.384845-6.678261 20.708969-1.844472 21.561242 10.748819a48.490534 48.490534 0 0 0-21.421317-36.081689z" fill="#37474F" opacity=".8" p-id="27055"></path><path d="M856.649143 279.939975l-1.189367-0.674186-35.280298-20.677168-0.686907-0.394335a7.861267 7.861267 0 0 0-7.994832 0.642385l-39.255453 22.979577c-3.180124 2.06072-5.819627 4.85923-7.714982 8.166559l37.436423 21.968299 43.650385 25.593639a23.978137 23.978137 0 0 1 7.714981-8.141118l39.230013-23.005018c2.366012-1.653665 5.425292-1.908075 8.013913-0.648746l-43.923876-25.809888z" fill="#455A64" opacity=".8" p-id="27056"></path><path d="M860.878708 336.838758l29.746882-17.427081c2.989317-1.761789 5.533416-0.330733 5.533416 3.148323v17.058186a12.122634 12.122634 0 0 1-5.533416 9.514932l-29.746882 17.427081c-2.989317 1.761789-5.533416 0.330733-5.533416-3.148323v-17.058187c0.25441-3.879752 2.30241-7.41605 5.533416-9.514931z" fill="#E0E0E0" opacity=".8" p-id="27057"></path><path d="M748.766609 366.948174c-4.197764 2.442335-3.733466 6.703702 1.024 9.508571l13.133913 7.695901a17.706932 17.706932 0 0 0 16.256795 0.610584c4.229565-2.442335 3.758907-6.703702-1.024-9.508572l-13.133913-7.721341a17.789615 17.789615 0 0 0-16.256795-0.585143z" fill="#263238" opacity=".8" p-id="27058"></path><path d="M748.766609 363.77441c-4.197764 2.442335-3.733466 6.741863 1.024 9.514932l13.133913 7.714981a17.789615 17.789615 0 0 0 16.256795 0.591503c4.229565-2.442335 3.758907-6.710062-1.024-9.514932l-13.133913-7.68954a17.706932 17.706932 0 0 0-16.256795-0.616944z" fill="#455A64" opacity=".8" p-id="27059"></path><path d="M927.260621 299.300571l-3.898832-1.011279-8.96159-5.247205a13.483727 13.483727 0 0 0-12.243479-0.477019h-0.165366l-2.022559-0.534261v3.650783a5.12636 5.12636 0 0 0 2.957516 3.981516l9.902906 5.781465c3.790708 2.098882 8.331925 2.270609 12.27528 0.477019a3.701665 3.701665 0 0 0 2.124323-3.141963v-3.479056h0.031801z" fill="#263238" opacity=".8" p-id="27060"></path><path d="M902.15672 289.060571c-3.180124 1.876273-2.766708 5.075478 0.769591 7.180721l9.902906 5.806907a13.451925 13.451925 0 0 0 12.27528 0.477018c3.148323-1.850832 2.760348-5.075478-0.801391-7.18708l-9.902907-5.800547a13.483727 13.483727 0 0 0-12.243479-0.477019z" fill="#455A64" opacity=".8" p-id="27061"></path><path d="M961.955776 269.222957a39.484422 39.484422 0 0 0-35.808198 0h-7.600497V279.850932c0 3.84159 2.493217 7.657739 7.466931 10.577093a39.369938 39.369938 0 0 0 36.08169 0c4.973714-2.80487 7.460571-6.735503 7.460571-10.577093v-10.634336h-7.600497z" fill="#263238" opacity=".8" p-id="27062"></path><path d="M926.014012 258.671304c-9.953789 5.838708-9.953789 15.290037 0 21.128746a39.369938 39.369938 0 0 0 36.08169 0c9.953789-5.838708 9.953789-15.290037 0-21.128746a39.369938 39.369938 0 0 0-36.08169 0z" fill="#455A64" opacity=".8" p-id="27063"></path><path d="M888.081491 282.242385a11.104994 11.104994 0 0 0-9.788423 0h-2.289689v3.027478a3.618981 3.618981 0 0 0 2.098882 3.002038 11.162236 11.162236 0 0 0 10.144596 0 3.58718 3.58718 0 0 0 2.098882-2.976597v-3.052919h-2.264248zM910.641292 273.40164v-3.05292h-2.264249a11.104994 11.104994 0 0 0-9.788422 0h-2.289689v3.05292a3.561739 3.561739 0 0 0 2.098882 2.976596 11.162236 11.162236 0 0 0 10.144596 0 3.561739 3.561739 0 0 0 2.098882-2.976596z" fill="#263238" opacity=".8" p-id="27064"></path><path d="M878.095901 279.265789a3.141963 3.141963 0 0 0-2.092522 2.976596c0 1.342012 0.845913 2.537739 2.098882 2.970236a11.162236 11.162236 0 0 0 10.144596 0 3.141963 3.141963 0 0 0 2.098882-2.970236c0-1.348373-0.845913-2.544099-2.098882-2.976596a10.914186 10.914186 0 0 0-10.144596 0zM898.397814 267.372124a3.141963 3.141963 0 0 0-2.098882 2.970236c0 1.348373 0.839553 2.544099 2.098882 2.976597a11.162236 11.162236 0 0 0 10.144596 0 3.141963 3.141963 0 0 0 2.098882-2.976597c0-1.342012-0.845913-2.544099-2.098882-2.970236a11.162236 11.162236 0 0 0-10.144596 0z" fill="#455A64" opacity=".8" p-id="27065"></path><path d="M977.684671 391.638658c1.908075-3.523578 2.963876-7.460571 3.072-11.473888a10.519851 10.519851 0 0 0-3.122882-8.249242l8.293764-14.482286c3.733466 2.81123 5.775106 8.001193 5.775105 14.870261a51.072795 51.072795 0 0 1-6.633739 23.628323l-7.377888-4.293168zM956.231553 419.140373a12.198957 12.198957 0 0 1-4.897392-0.985839l8.300125-14.450484c0.839553 0.279851 1.717267 0.419776 2.594981 0.419776 2.117963-0.063602 4.178683-0.699627 5.978634-1.825391 3.370932-2.105242 6.213963-4.986435 8.287403-8.414609l7.301566 4.293168a50.341366 50.341366 0 0 1-16.835578 17.649689c-3.231006 2.03528-6.932671 3.180124-10.729739 3.307329zM949.184398 416.888845c-3.733466-2.798509-5.781466-7.994832-5.781466-14.83846a51.072795 51.072795 0 0 1 6.66554-23.660124l7.327006 4.299528a25.33923 25.33923 0 0 0-3.097441 11.499329c-0.216248 3.08472 0.928596 6.105839 3.122882 8.249242l-8.236521 14.450485z" fill="#263238" opacity=".8" p-id="27066"></path><path d="M978.377938 380.838957a24.372472 24.372472 0 0 1-10.837863 19.017142c-2.124323 1.920795-5.215404 2.238807-7.683181 0.801392a6.741863 6.741863 0 0 1-3.180124-7.136199 24.56964 24.56964 0 0 1 10.863305-19.055304c2.130683-1.901714 5.215404-2.207006 7.670459-0.76323 2.455056 1.443776 3.733466 4.312248 3.167404 7.136199z" fill="#263238" opacity=".8" p-id="27067"></path><path d="M951.257839 376.291379a49.896149 49.896149 0 0 1 16.835577-17.64969 21.885615 21.885615 0 0 1 10.697938-3.370931c1.672745-0.019081 3.33277 0.318012 4.86559 0.985838l-8.293764 14.475926a7.314286 7.314286 0 0 0-2.56954-0.445218 11.874584 11.874584 0 0 0-5.972274 1.850833 24.486957 24.486957 0 0 0-8.293764 8.414608l-7.269763-4.261366zM944.318807 440.32l5.832348-3.396373c1.189366-0.699627 2.156124-0.139925 2.156125 1.26569v6.818186a4.897391 4.897391 0 0 1-2.162485 3.816149l-5.825988 3.390013c-1.189366 0.699627-2.162484 0.139925-2.162484-1.25933V444.136149a4.897391 4.897391 0 0 1 2.162484-3.816149zM984.903553 416.551752l5.832348-3.421814a1.335652 1.335652 0 0 1 1.501018-0.082683c0.477019 0.279851 0.731429 0.826832 0.655106 1.373813v6.760944a4.840149 4.840149 0 0 1-2.156124 3.790708l-5.832348 3.421814a1.310211 1.310211 0 0 1-1.513739 0.127205 1.354733 1.354733 0 0 1-0.642385-1.392894V420.34882a4.840149 4.840149 0 0 1 2.156124-3.790708zM944.318807 345.259727l5.832348-3.421814a1.310211 1.310211 0 0 1 1.513739-0.133565 1.354733 1.354733 0 0 1 0.636025 1.399254v6.811827a4.897391 4.897391 0 0 1-2.149764 3.816149l-5.832348 3.396372c-1.189366 0.731429-2.162484 0.139925-2.162484-1.265689V349.050435a4.840149 4.840149 0 0 1 2.162484-3.784348zM984.903553 321.466037l5.832348-3.396372c1.189366-0.699627 2.162484-0.139925 2.162484 1.265689v6.818186a4.897391 4.897391 0 0 1-2.162484 3.816149l-5.832348 3.390013c-1.189366 0.699627-2.162484 0.139925-2.162485-1.259329v-6.818187a4.897391 4.897391 0 0 1 2.162485-3.816149z" fill="#263238" opacity=".8" p-id="27068"></path><path d="M923.775205 367.11354v91.778385a14.60313 14.60313 0 0 1-6.500174 11.423007l-108.760248 63.716969c-3.59354 2.105242-6.500174 0.394335-6.500174-3.784348V438.437366a14.545888 14.545888 0 0 1 6.500174-11.384844l108.760248-63.755131c3.568099-2.073441 6.500174-0.387975 6.500174 3.816149z" fill="#F0F0F0" opacity=".8" p-id="27069"></path><path d="M814.537938 458.891925a38.555826 38.555826 0 0 0 17.14723-30.160298c0-6.118559-2.327851-10.214559-6.029516-11.753739l-17.140869 10.068273a14.545888 14.545888 0 0 0-6.500174 11.391205v21.383156c3.129242 2.098882 7.575056 1.965317 12.529689-0.928597z" fill="#F5275F" opacity=".8" p-id="27070"></path><path d="M814.537938 458.891925a38.555826 38.555826 0 0 0 17.14723-30.160298c0-6.118559-2.327851-10.214559-6.029516-11.753739l-17.140869 10.068273a14.545888 14.545888 0 0 0-6.500174 11.391205v21.383156c3.129242 2.098882 7.575056 1.965317 12.529689-0.928597z" fill="#FFFFFF" opacity=".7" p-id="27071"></path><path d="M906.386286 405.24959a2.753988 2.753988 0 0 0-5.062758 0.445217l-28.284025 60.803976-24.881292-15.207354a4.935553 4.935553 0 0 0-6.805466 1.679105l-39.389018 67.037019v10.24c0 4.178683 2.900273 5.88959 6.493813 3.784348l108.760249-63.716969c3.816149-2.544099 6.226683-6.767304 6.500174-11.391205v-29.040895l-17.331677-24.633242z" fill="#F5275F" opacity=".8" p-id="27072"></path><path d="M979.567304 392.789863c1.908075-3.529938 2.963876-7.479652 3.06564-11.505689a10.519851 10.519851 0 0 0-3.116522-8.249242l8.287404-14.450485c3.733466 2.80487 5.781466 8.001193 5.781466 14.84482a51.435329 51.435329 0 0 1-6.633739 23.653764l-7.384249-4.293168zM958.107826 420.259776a12.148075 12.148075 0 0 1-4.85923-0.954037l8.293764-14.482286c0.826832 0.292571 1.691826 0.445217 2.569541 0.445218 2.130683-0.050882 4.197764-0.693267 5.997714-1.844472 3.377292-2.111602 6.220323-4.992795 8.293764-8.420969l7.327006 4.293168a49.896149 49.896149 0 0 1-16.835578 17.649689 21.879255 21.879255 0 0 1-10.780621 3.307329zM951.060671 418.04005c-3.733466-2.80487-5.749665-8.026634-5.749665-14.870261a51.072795 51.072795 0 0 1 6.633739-23.621963l7.327007 4.261367a25.33923 25.33923 0 0 0-3.097441 11.505689c-0.209888 3.08472 0.934957 6.105839 3.129242 8.249242l-8.242882 14.475926z" fill="#455A64" opacity=".8" p-id="27073"></path><path d="M980.260571 381.901118a24.423354 24.423354 0 0 1-10.837863 19.055304 6.538335 6.538335 0 0 1-9.317764-0.616944 6.690981 6.690981 0 0 1-1.52646-5.616099c0.133565-3.822509 1.233888-7.555975 3.180125-10.831503 1.812671-3.358211 4.452174-6.182161 7.664099-8.192a6.531975 6.531975 0 0 1 7.651379-0.76323c2.448696 1.431056 3.733466 4.286807 3.180124 7.104397v-0.139925z" fill="#455A64" opacity=".8" p-id="27074"></path><path d="M953.216795 377.328099a49.896149 49.896149 0 0 1 16.841938-17.649689 22.02554 22.02554 0 0 1 10.697938-3.33913c1.653665-0.019081 3.307329 0.305292 4.833789 0.954037l-8.293764 14.482285a7.963031 7.963031 0 0 0-2.569541-0.426136c-2.111602 0.063602-4.172323 0.699627-5.972273 1.825391-3.370932 2.111602-6.213963 4.992795-8.293764 8.420969l-7.244323-4.261366zM946.226882 441.464845l5.800547-3.415454a1.310211 1.310211 0 0 1 1.513739-0.133565 1.354733 1.354733 0 0 1 0.648745 1.392894v6.818187a4.897391 4.897391 0 0 1-2.162484 3.816149l-5.800547 3.396373a1.310211 1.310211 0 0 1-1.513739 0.127205 1.354733 1.354733 0 0 1-0.642385-1.392895v-6.818186a4.840149 4.840149 0 0 1 2.156124-3.784348zM986.811627 417.677516l5.806907-3.396373a1.310211 1.310211 0 0 1 1.507379-0.127205 1.354733 1.354733 0 0 1 0.648745 1.392894v6.818187a4.840149 4.840149 0 0 1-2.162484 3.784347l-5.800547 3.421814a1.335652 1.335652 0 0 1-1.513739 0.120845 1.380174 1.380174 0 0 1-0.674186-1.380174V421.493665a4.840149 4.840149 0 0 1 2.187925-3.816149zM946.226882 346.37913l5.800547-3.396372a1.310211 1.310211 0 0 1 1.513739-0.127205 1.354733 1.354733 0 0 1 0.648745 1.392894v6.792746a4.840149 4.840149 0 0 1-2.162484 3.784347l-5.800547 3.421814a1.310211 1.310211 0 0 1-1.513739 0.127205 1.354733 1.354733 0 0 1-0.642385-1.386534V350.19528a4.897391 4.897391 0 0 1 2.156124-3.81615zM986.811627 322.617242l5.806907-3.421813c1.189366-0.699627 2.156124-0.146286 2.156124 1.259329v6.818186a4.897391 4.897391 0 0 1-2.162484 3.816149l-5.800547 3.396373c-1.214807 0.699627-2.187925 0.139925-2.187925-1.26569V326.40795a4.808348 4.808348 0 0 1 2.187925-3.784348z" fill="#455A64" opacity=".8" p-id="27075"></path><path d="M1055.292422 205.436025c-13.928944-5.749665-30.122137 2.467776-36.380621 11.575652-6.245764 9.114236-8.94887 20.022062-10.736099 30.847205a244.150857 244.150857 0 0 0-1.704547 67.227826c0.737789 6.589217 2.073441 13.763578 7.314286 18.075826 5.247205 4.312248 12.237118 4.445814 18.68641 3.358211 5.825988-0.966758 11.747379-3.097441 15.531727-7.466931 5.825988-6.703702 5.069118-16.447602 4.452174-25.173864A251.598708 251.598708 0 0 1 1062.161491 214.607503" fill="#263238" opacity=".8" p-id="27076"></path><path d="M1024 219.962832c6.233043-12.599652 25.167503-19.398758 40.470261-15.181913 12.911304 3.542658 26.713043 17.032745 27.667081 30.828124 1.335652 20.123826-9.336845 40.661068-3.014758 59.741814 7.365168 22.235429 34.485267 33.009689 41.411577 55.378683a35.776398 35.776398 0 0 1-2.970236 28.023255c-2.442335 4.293168-6.169441 8.268323-11.003229 9.076075-6.004075 0.979478-11.550211-3.122882-16.282236-7.015354-12.822261-10.481689-25.84805-21.198708-34.790559-35.267578-10.50713-16.549366-14.564969-36.60959-14.730336-56.383603-0.171727-19.767652 3.294609-39.249093 6.741864-58.64149" fill="#263238" opacity=".8" p-id="27077"></path><path d="M1081.006907 242.43995a28.239503 28.239503 0 0 0-6.353888-21.720248 30.262062 30.262062 0 0 0-20.569044-10.704298c-15.957863-1.462857-30.166658 10.023752-32.558112 25.34559-2.098882 13.420124-3.886112 26.999255-3.886111 31.915726 0.190807 14.85118 9.196919 20.658087 12.828621 22.362634 1.310211 0.457938 2.664944 0.782311 4.045118 0.979478a0.108124 0.108124 0 0 1 0 0.108125l-3.421814 17.045465c-1.558261 11.174957 4.916472 21.128745 16.441242 22.76333 11.53113 1.628224 20.645366-6.951752 22.413516-18.126709l11.060472-69.969093z" fill="#FFBE9D" opacity=".8" p-id="27078"></path><path d="M1024.038161 237.873292a3.294609 3.294609 0 0 0 2.569541 3.746186 3.07836 3.07836 0 0 0 2.353292-0.445217 3.199205 3.199205 0 0 0 1.361093-2.016199 3.32005 3.32005 0 0 0-2.56318-3.752546 3.027478 3.027478 0 0 0-2.372373 0.432496 3.148323 3.148323 0 0 0-1.348373 2.03528zM1024.038161 232.689689c0.330733 0.674186 2.989317-1.424696 6.411131-0.674186 3.421814 0.750509 5.666981 3.752547 6.105838 3.262808 0.432497-0.489739 0-1.424696-1.049441-2.81123-1.329292-1.844472-3.014758-3.021118-4.827428-3.370932a6.239404 6.239404 0 0 0-5.10728 1.27205c-1.252969 0.973118-1.717267 1.984398-1.53282 2.32149zM1049.479155 244.21446a3.307329 3.307329 0 0 0 2.56318 3.752546c0.807752 0.190807 1.660025 0.044522 2.359653-0.413416a3.154683 3.154683 0 0 0 1.354732-2.028919 3.275528 3.275528 0 0 0-2.56318-3.752547 3.014758 3.014758 0 0 0-2.359652 0.413416 3.154683 3.154683 0 0 0-1.354733 2.02892zM1049.466435 239.018137c0.337093 0.705988 3.014758-1.392894 6.40477-0.636025 3.396373 0.744149 5.692422 3.739826 6.124919 3.256447 0.432497-0.489739 0-1.424696-1.074882-2.849391-1.329292-1.79995-3.002037-2.963876-4.795627-3.33277a6.175801 6.175801 0 0 0-5.100919 1.272049c-1.246609 0.973118-1.710907 1.984398-1.558261 2.28969zM1037.928944 254.409938a26.223304 26.223304 0 0 0-4.85923-1.227528c-0.782311-0.133565-1.494658-0.343453-1.564621-0.75687a2.773068 2.773068 0 0 1 0.877714-1.717267c1.01764-1.348373 2.067081-2.760348 3.199205-4.223205 2.893913-3.561739 5.399851-7.295205 7.498733-11.155875-3.269168 3.377292-6.169441 6.951752-8.675379 10.672496-1.100323 1.481938-2.137043 2.912994-3.103801 4.274087a2.862112 2.862112 0 0 0-0.922236 2.410535c0.152646 0.445217 0.572422 0.814112 1.125764 0.998559a6.15672 6.15672 0 0 0 1.316572 0.292571c1.666385 0.311652 3.383652 0.457938 5.107279 0.432497z" fill="#263238" opacity=".8" p-id="27079"></path><path d="M1037.687255 288.602634s10.303602 1.577342 24.474236-2.391454c0 0-6.042236 8.828025-25.440994 5.679702l0.966758-3.288248zM1043.360596 262.13764c0.954037-1.189366 2.30877-1.640944 3.57446-1.208447a3.758907 3.758907 0 0 1 2.003478 5.406211c-0.801391 0.890435-1.927155 1.043081-2.843031 0.400695a9.254161 9.254161 0 0 1-2.435975-2.633142 3.390012 3.390012 0 0 1-0.51518-0.928597 1.227528 1.227528 0 0 1 0.127205-1.03672" fill="#7C5142" opacity=".8" p-id="27080"></path><path d="M1049.09118 260.770186c-0.572422 0-1.113043 2.620422-4.732025 4.197764-3.625342 1.583702-7.524174 0.877714-7.632298 1.246609-0.101764 0.368894 0.77595 0.610584 2.461416 0.833193 2.194286 0.24805 4.452174-0.063602 6.360249-0.890435 1.831752-0.795031 3.161043-2.067081 3.720745-3.549019 0.362534-1.113043 0.076323-1.819031-0.178087-1.838112zM1049.440994 237.205466c0.171727 1.043081 3.040199 1.125764 6.322087 2.289689 3.288248 1.144845 5.813267 2.747627 6.322087 2.003479 0.25441-0.381615-0.108124-1.431056-1.081243-2.588622a10.182758 10.182758 0 0 0-4.522136-3.07836 8.395528 8.395528 0 0 0-5.100919-0.190807c-1.303851 0.489739-1.997118 1.068522-1.933516 1.564621zM1030.385689 232.994981c0.25441 1.252969 1.577342 0.591503 3.084721 1.144845s2.715826 1.844472 3.097441 0.77595c0.381615-1.074882 0-1.698186-0.489739-2.995677-0.674186-1.615503-1.513739-2.614062-2.404174-2.849391-0.890435-0.318012-1.78087 0.127205-2.56954 1.297491a4.096 4.096 0 0 0-0.718709 2.626782zM1036.720497 207.261416c1.971677 11.435727 10.697938 20.842534 22.515279 24.270708l-0.890434-4.185043c5.228124 9.578534 14.113391 16.962783 24.887652 20.702608 7.664099-12.173516 5.037317-27.730683-6.264845-37.099329-11.308522-9.368646-28.118658-9.928348-40.107727-1.335652M1126.482683 356.173913c1.144845-1.392894 2.124323-2.906634 2.925715-4.515776 2.016199-4.471255 2.544099-9.457689 1.494658-14.240597a29.365267 29.365267 0 0 0-3.663503-9.368646 50.195081 50.195081 0 0 0-7.17436-9.101515c-5.698783-5.959553-13.292919-11.244919-20.072945-17.948621a38.415901 38.415901 0 0 1-8.281043-11.244919 42.99528 42.99528 0 0 1-3.555379-12.491528 108.02882 108.02882 0 0 1 0-21.885615c0.477019-6.201242 0.973118-11.244919 1.291131-14.673094 0.171727-1.666385 0.286211-2.976596 0.381614-3.987875 0.031801-0.464298 0.101764-0.928596 0.209889-1.386534 0.050882 0.464298 0.050882 0.934957 0 1.399254 0 1.01764-0.114484 2.353292-0.209889 3.994236-0.228969 3.58082-0.572422 8.586335-0.985838 14.692174a112.449193 112.449193 0 0 0 0.305292 21.732969c0.553342 4.216845 1.736348 8.331925 3.510857 12.211677a38.097888 38.097888 0 0 0 8.109317 11.022311c6.760944 6.64646 14.278758 11.931826 20.034782 17.986782 2.773068 2.82395 5.196323 5.972273 7.218882 9.362286 1.768149 2.970236 3.008398 6.213963 3.663503 9.597615 0.979478 4.910112 0.318012 10.011031-1.901714 14.520447a17.312596 17.312596 0 0 1-2.257888 3.351851c-0.318012 0.349814-0.674186 0.674186-1.043081 0.973118zM1147.420621 826.832298l9.845665 43.567702 18.794534 32.437267c0.655106 1.119404 0.76323 2.435975 0.305292 3.625342a4.770186 4.770186 0 0 1-2.734907 2.671304 5.577938 5.577938 0 0 1-4.61118-0.25441c-8.929789-4.840149-41.685068-22.78241-42.206609-26.013416-0.623304-3.746186-13.769938-45.329491-13.769938-45.329491l34.377143-10.704298z" fill="#263238" opacity=".8" p-id="27081"></path><path d="M1170.285714 902.65282L1125.763975 871.354037l0.426137 2.009839c0.381615 1.704547 1.335652 3.218286 2.684025 4.261366 3.618981 2.798509 13.763578 10.290882 36.940323 24.83041a4.60482 4.60482 0 0 0 4.452174 0.24169l0.01908-0.044522zM1130.088944 858.811627c1.590062 0.686907 2.397814 2.455056 1.876273 4.096a3.243727 3.243727 0 0 1-4.070559 1.908075 3.561739 3.561739 0 0 1-1.958956-4.34405 3.377292 3.377292 0 0 1 4.433093-1.526459" fill="#FFFFFF" opacity=".6" p-id="27082"></path><path d="M1157.647901 884.074534a13.547329 13.547329 0 0 1 2.442335-4.08964 10.49441 10.49441 0 0 1 3.83523-2.035279c0-0.101764-0.483379-0.305292-1.329292-0.209888-2.251528 0.292571-4.153242 2.143404-4.85923 4.725664-0.241689 0.954037-0.184447 1.590062-0.089043 1.609143zM1157.597019 896.782311c0.222609 0.190807 1.119404-2.226087 2.862111-3.83523 1.138484-0.807752 2.289689-1.52646 3.466336-2.130683-1.303851-0.744149-2.734907-0.387975-3.854311 0.954037-1.997118 1.831752-2.671304 4.910112-2.474136 5.011876zM1144.84472 877.714286c1.768149-1.399255 3.682584-2.690385 5.724224-3.867031 2.251528-0.954037 4.585739-1.78087 6.996273-2.493218-5.552497 0.114484-10.50713 2.575901-12.720497 6.315727V877.714286zM1144.908323 871.315876c0.190807 0.400696 2.652224-2.366012 6.15036-3.854311 3.498137-1.488298 6.462012-1.144845 6.506534-1.685466-4.553938-2.073441-9.457689 0.063602-12.720497 5.533417h0.063603zM1138.497193 852.273292c1.908075-1.863553 3.968795-3.300969 6.105838-4.274087a14.259677 14.259677 0 0 1 6.601938 0.235329c0-0.203528-0.591503-0.979478-1.812671-1.628223-3.288248-1.570981-6.830907-0.438857-9.534012 3.052919-1.01764 1.322932-1.443776 2.480497-1.361093 2.614062z" fill="#263238" opacity=".8" p-id="27083"></path><path d="M1145.684273 845.887602a2.544099 2.544099 0 0 0-0.286211-1.272049 8.802584 8.802584 0 0 0-2.187925-3.091081 5.043677 5.043677 0 0 0-2.607702-1.450137 1.984398 1.984398 0 0 0-1.78723 0.655106 1.857193 1.857193 0 0 0-0.235329 1.634584c0.852273 2.289689 3.58718 3.765267 6.531975 3.523577 2.862112-0.292571 5.234484-1.952596 6.004074-4.197763a1.685466 1.685466 0 0 0-0.337093-1.653665 2.098882 2.098882 0 0 0-1.958956-0.394335 5.838708 5.838708 0 0 0-2.404174 1.653664 9.73118 9.73118 0 0 0-2.098882 3.129242 2.620422 2.620422 0 0 0-0.318013 1.27205c0.725068-1.462857 1.717267-2.830311 2.925715-4.070559a5.565217 5.565217 0 0 1 2.130683-1.450137 1.062161 1.062161 0 0 1 1.081242 0.222609 1.113043 1.113043 0 0 1 0.139926 1.081242c-0.731429 1.946236-2.798509 3.364571-5.291727 3.625342-2.467776 0.190807-4.782907-1.004919-5.597019-2.900273a1.399255 1.399255 0 0 1 0.089044-1.144845c0.190807-0.286211 0.604224-0.445217 1.004919-0.375255 0.890435 0.216248 1.666385 0.648745 2.238808 1.233888 1.27841 1.163925 2.283329 2.512298 2.963875 3.968795zM1026.257888 821.286161l2.098882 35.649193S992.459528 871.029665 992.198758 877.714286l69.962733-1.551901-0.954038-55.690335-34.949565 0.814111z" fill="#263238" opacity=".8" p-id="27084"></path><path d="M1053.352547 858.697143a3.370932 3.370932 0 0 1 2.404173 3.797068 3.205565 3.205565 0 0 1-3.727105 2.442336 3.549019 3.549019 0 0 1-2.531379-4.045118 3.358211 3.358211 0 0 1 4.172323-2.098882M1062.161491 882.751602l-0.305292-5.037316-66.935255 3.173764s-3.08472 1.259329-2.684025 3.186484l69.924572-1.322932z" fill="#FFFFFF" opacity=".6" p-id="27085"></path><path d="M1030.360248 859.14236c0 0.52154 1.698186 0.699627 3.390013 2.28969s2.594981 3.752547 2.893913 3.549018c0.298932-0.203528-0.24805-3.205565-2.28969-5.088198-2.05436-1.869913-4.08328-1.240248-3.994236-0.74415zM1017.639752 865.171876c0 0.407056 1.908075 1.062161 3.498136 2.734907 1.577342 1.666385 2.092522 3.472696 2.5441 3.447254 0.464298-0.025441 0.693267-2.257888-1.322932-4.375851-2.016199-2.117963-4.719304-2.187925-4.719304-1.80631zM1016.876522 871.354037c0.636025 0 1.488298-1.806311-0.337093-3.816149-1.831752-2.022559-4.929193-2.785789-5.228125-2.480497-0.298932 0.318012 1.717267 1.373814 3.135603 3.05292 1.418335 1.685466 1.755429 3.199205 2.429615 3.243726zM1030.372969 852.432298c0.127205 0.101764 1.494658-0.063602 3.180124-0.038161 1.672745 0.031801 3.008398 0.222609 3.154683 0.127205 0.152646-0.108124-1.132124-0.50246-3.129242-0.521541-1.990758-0.019081-3.358211 0.343453-3.205565 0.432497z" fill="#263238" opacity=".8" p-id="27086"></path><path d="M1024 833.599602l0.400696 5.953193 37.760795-1.004919-0.101764-5.355329z" fill="#000000" opacity=".3" p-id="27087"></path><path d="M1030.360248 845.715876c1.399255 0.292571 2.868472 0.25441 4.255007-0.101764 1.52646-0.26077 3.008398-0.686907 4.414012-1.27205a20.416398 20.416398 0 0 0 2.30877-1.151205 5.673342 5.673342 0 0 0 1.252969-0.877714 1.392894 1.392894 0 0 0 0.133565-1.984398 2.461416 2.461416 0 0 0-1.825391-0.77595c-0.540621 0.01272-1.074882 0.089043-1.590062 0.216248a16.873739 16.873739 0 0 0-2.614062 0.839553 15.328199 15.328199 0 0 0-3.860671 2.28969c-1.920795 1.590062-2.56954 2.938435-2.429615 2.995677 0.139925 0.063602 1.132124-1.01764 3.097441-2.346932 1.144845-0.795031 2.404174-1.462857 3.746187-1.984397 0.744149-0.286211 1.520099-0.52154 2.30877-0.699628 0.903155-0.216248 1.666385-0.235329 1.895354 0.101764 0.235329 0.337093 0.120845 0.178087 0 0.419777a4.706584 4.706584 0 0 1-0.922236 0.636024 23.787329 23.787329 0 0 1-2.30877 1.144845 26.395031 26.395031 0 0 1-4.070559 1.437416 28.353988 28.353988 0 0 0-3.790709 1.113044zM1029.393491 845.913043c0.712348-1.176646 1.049441-2.544099 0.954037-3.924273a13.273839 13.273839 0 0 0-1.679106-6.818186 3.370932 3.370932 0 0 0-2.594981-1.978037 1.876273 1.876273 0 0 0-1.615503 1.163925 5.469814 5.469814 0 0 0-0.387975 1.488298c-0.298932 2.442335 0.368894 4.897391 1.850832 6.843628 1.596422 2.03528 3.218286 2.480497 3.237366 2.353291 0.019081-0.139925-1.227528-0.954037-2.461416-2.925714a9.133317 9.133317 0 0 1-1.335652-6.074037c0.108124-0.852273 0.413416-1.558261 0.712348-1.462857 0.305292 0.082683 1.081242 0.585143 1.424696 1.272049 0.394335 0.699627 0.744149 1.431056 1.03672 2.187926 0.464298 1.28477 0.750509 2.626783 0.839553 3.994236 0.190807 2.346932-0.190807 3.816149 0.019081 3.879751z" fill="#263238" opacity=".8" p-id="27088"></path><path d="M1080.033789 440.396323s20.48636 44.458137 23.583801 57.433043c3.097441 12.974907 60.307876 355.728696 60.307876 355.728696l-52.567454 3.192845-71.387428-335.312298 28.716522 332.882683-51.715181 4.312248s-39.096447-351.759901-37.442782-361.675528c2.505938-14.984745 15.200994-58.10087 15.200994-58.100869l85.303652 1.53918z" fill="#F5275F" opacity=".8" p-id="27089"></path><path d="M1043.080745 527.067429s0 0.305292-0.445217 0.610583a1.819031 1.819031 0 0 1-2.03528-0.203528 5.062758 5.062758 0 0 1-1.240248-3.199204l-0.693267-4.414013c-1.01764-6.544696-2.340571-15.61441-3.720745-25.60636-1.380174-9.99195-2.626783-19.080745-3.453615-25.644522a1298.762733 1298.762733 0 0 0-0.915876-7.797665c-0.159006-0.954037-0.228969-1.908075-0.216249-2.874832 0.286211 0.915876 0.489739 1.857193 0.597864 2.81123 0.324373 2.05436 0.725068 4.61754 1.227528 7.734062 1.01764 6.551056 2.340571 15.595329 3.83523 25.60636 1.494658 10.017391 2.607702 19.080745 3.434534 25.650882 0.190807 1.621863 0.381615 3.097441 0.534261 4.433094a4.954634 4.954634 0 0 0 0.960397 2.976596 1.551901 1.551901 0 0 0 1.710907 0.343453c0.286211-0.203528 0.362534-0.470658 0.419776-0.426136zM1038.374161 465.303056s0-0.318012 0.483379-0.610584a2.798509 2.798509 0 0 1 4.172323 2.028919 3.498137 3.498137 0 0 1-1.653664 3.625342 3.224646 3.224646 0 0 1-3.701665-0.674186 3.421814 3.421814 0 0 1-0.871354-3.129243c0.445217-1.971677 1.704547-2.327851 1.685466-2.207006a5.692422 5.692422 0 0 0-1.01764 2.321491 2.671304 2.671304 0 0 0 0.795031 2.327851c0.744149 0.693267 1.79995 0.871354 2.709466 0.451577a2.607702 2.607702 0 0 0 1.202087-2.56318 2.156124 2.156124 0 0 0-1.443776-1.80631 3.313689 3.313689 0 0 0-2.353292 0.235329z" fill="#455A64" opacity=".8" p-id="27090"></path><path d="M942.213565 251.725913l-32.081093-49.342807-9.762981-16.237715s-2.900273-16.275876-4.280448-20.855254c-2.874832-9.413168-3.784348-9.171478-4.770186-8.649938-2.798509 1.399255 4.407652 16.771975 0.928596 14.361441-3.485416-2.416894-6.627379-19.818534-9.464049-18.253913-3.784348 2.067081 4.10872 18.005863 4.674782 19.417838 0.572422 1.418335-1.462857 2.245168-1.895354 0.960398-0.636025-1.882634-7.778584-21.173267-11.486608-19.176149-2.04164 1.093963 0.286211 4.579379 0.286211 4.579379s8.026634 17.573366 6.245764 18.463801c-1.78087 0.884075-6.869068-9.285963-8.331926-12.828621-1.456497-3.542658-3.784348-4.242286-4.732025-2.321491-0.699627 1.322932 3.523578 12.28164 5.056398 15.773416 1.53282 3.479056 5.88323 12.917665 0 9.998311-5.88323-2.919354-11.639255-2.919354-13.248398-1.882634a2.067081 2.067081 0 0 0 1.462858 3.638062c2.213366 0.286211 4.388571 0.871354 6.449292 1.749069 1.685466 0.636025 3.243727 1.564621 4.61754 2.734906 1.609143 1.354733 2.893913 2.575901 3.975155 3.631702l7.969391 16.485764 35.184895 68.741565L992.694857 343.453416 1011.279503 310.106634l-69.065938-58.380721zM1140.309863 522.977789c0.438857 1.469217 0.915876 3.186484 1.373814 5.247205 0.400696 1.78087 0.50882 3.612621 0.305292 5.425292a25.485516 25.485516 0 0 1-1.335652 6.614658c-0.877714 1.908075 0.896795 3.816149 2.493217 2.970236 1.590062-0.839553 4.115081-5.991354 4.223205-12.695056 0.114484-6.703702 6.353888 1.602783 8.675379 4.59846 2.327851 3.002037 9.934708 11.861863 11.384845 11.842782 2.124323 0 2.467776-2.404174 0.089043-5.329888-2.378733-2.925714-8.94887-12.218037-7.314286-13.369242 1.621863-1.144845 13.152994 14.170634 13.152994 14.170634s1.971677 3.708025 3.84159 2.391453c3.351851-2.410534-10.157317-17.783255-11.492969-19.20795-0.915876-0.998559 0.750509-2.372373 1.685466-1.246609 0.934957 1.125764 11.25764 15.601689 14.641292 13.197516 2.633143-1.908075-10.984149-12.758658-11.550211-17.000945-0.566062-4.235925 9.540373 9.381366 11.989068 7.505094 0.890435-0.699627 1.501019-1.354733-5.38077-8.287404-3.33277-3.377292-16.104149-13.534609-16.104149-13.534609L1133.924174 413.416149l-33.601193 0.572422 39.986882 108.989218z" fill="#FFBE9D" opacity=".8" p-id="27091"></path><path d="M1030.360248 309.76318c-5.597019-2.162484-11.085913-4.630261-16.428521-7.377888L959.335354 260.770186 934.956522 293.525466s62.311354 56.58713 63.341714 56.288199c1.03036-0.305292 32.062012-40.050484 32.062012-40.050485z" fill="#263238" opacity=".8" p-id="27092"></path><path d="M1031.568696 305.291925l-4.146882 0.133566c-12.001789 0.413416-22.483478 8.427329-26.267826 20.085664-4.197764 12.885863-3.943354 17.089988-6.849988 26.713044-6.945391 22.998658 5.520696 50.920149 5.520696 50.920149l-4.299528 40.514782 84.712149 1.558261 4.261366-48.770385L1100.322981 323.431354s-3.510857-15.671652-16.975503-16.943702c-6.977193-0.699627-51.772422-1.195727-51.772422-1.195727z" fill="#263238" opacity=".8" p-id="27093"></path><path d="M1085.121988 311.652174s21.198708-0.089043 27.65436 22.26723C1119.232 356.282037 1132.124224 415.095255 1132.124224 415.095255L1091.952894 426.136646l-21.599403-80.711553a36.660472 36.660472 0 0 1-1.729988-14.126112c0.655106-8.077516 3.962435-18.552845 16.498485-19.646807zM1024 305.285565L1031.059876 292.571429l11.919105 6.366608v5.520696l3.777988-5.520696L1074.881988 292.571429v15.709813l-32.837963 3.370932zM1004.919255 330.732919c-0.407056 0.966758-0.890435 1.901714-1.443777 2.792149a39.261814 39.261814 0 0 0-1.691826 3.231007c-0.597863 1.297491-1.386534 2.715826-2.035279 4.401291-0.661466 1.685466-1.462857 3.466335-2.098882 5.482535-0.636025 2.009839-1.310211 4.159602-1.927156 6.423851a82.136248 82.136248 0 0 0-1.927155 30.630956c0.349814 2.340571 0.616944 4.592099 1.119404 6.64646 0.362534 1.920795 0.826832 3.816149 1.386534 5.692422 0.419776 1.761789 1.01764 3.275528 1.462857 4.630261 0.356174 1.163925 0.782311 2.30877 1.27205 3.428174 0.419776 0.954037 0.77595 1.952596 1.055801 2.963876a21.185988 21.185988 0 0 1-1.424696-2.81123 32.310062 32.310062 0 0 1-1.443776-3.390013c-0.483379-1.354733-1.138484-2.862112-1.596422-4.604819a56.707975 56.707975 0 0 1-1.53918-5.813268c-0.52154-2.073441-0.826832-4.324969-1.214808-6.703701a85.290932 85.290932 0 0 1-0.540621-15.499926c0.375255-5.196323 1.221168-10.354484 2.525019-15.391801 0.667826-2.30877 1.27205-4.496696 2.05436-6.493814 0.655106-1.869913 1.405615-3.695304 2.251528-5.482534 0.655106-1.488298 1.380174-2.944795 2.175205-4.35677 0.578783-1.106683 1.221168-2.168845 1.927155-3.199205 0.470658-0.909516 1.024-1.768149 1.653665-2.575901z" fill="#263238" opacity=".8" p-id="27094"></path><path d="M1043.080745 298.931677c-0.152646 1.113043-0.445217 2.200646-0.890434 3.243727-0.648745 1.971677-1.672745 4.738385-2.709466 7.645018-0.184447 0.457938-0.349814 0.915876-0.51518 1.354733l-0.190808 0.477019-0.445217-0.25441a33.613913 33.613913 0 0 1-5.991354-4.34405 8.885267 8.885267 0 0 1-1.978038-2.213366c2.658584 2.111602 5.457093 4.064199 8.370087 5.851428l-0.636024 0.216249 0.51518-1.373814c1.106683-2.970236 2.162484-5.64154 2.951155-7.549615 0.362534-1.081242 0.871354-2.098882 1.520099-3.052919zM1068.521739 311.658534c-1.494658 0.826832-3.072 1.501019-4.706584 1.997118-2.951155 1.113043-7.047155 2.56318-11.651975 4.115081l-0.655105 0.241689v-1.252969a419.095851 419.095851 0 0 1-1.679106-12.567851c-0.311652-1.736348-0.438857-3.498137-0.368894-5.259925 0.572422 1.666385 0.966758 3.396373 1.163925 5.151801 0.572422 3.173764 1.297491 7.619578 2.022559 12.504249v0.572422l-0.744149-0.464298a594.365217 594.365217 0 0 1 11.77918-3.790708c1.558261-0.597863 3.180124-1.01764 4.840149-1.246609zM1081.242236 426.136646c6.512894 3.428174 8.192 8.44641 4.261366 12.720497a14.533168 14.533168 0 0 0 0-6.538336A23.240348 23.240348 0 0 0 1081.242236 426.136646z" fill="#263238" opacity=".8" p-id="27095"></path><path d="M1125.763975 400.695652c-1.755429 0.655106-3.58718 1.144845-5.457093 1.481938-3.409093 0.788671-8.141118 1.679106-13.420124 2.639503-5.291727 0.954037-10.112795 1.494658-13.604572 1.863553A35.140373 35.140373 0 0 1 1087.602484 407.055901c1.857193-0.470658 3.758907-0.801391 5.679702-0.992199 3.447255-0.52154 8.242882-1.227528 13.502808-2.098882a463.496745 463.496745 0 0 0 13.464646-2.372373c1.812671-0.426137 3.650783-0.725068 5.514335-0.890435zM1119.403727 375.254658a25.708124 25.708124 0 0 1-5.514336 2.461417c-3.415453 1.303851-8.192 2.868472-13.483726 4.483975-5.291727 1.609143-10.087354 3.021118-13.540969 4.11508-1.844472 0.699627-3.720745 1.259329-5.62246 1.660025a25.886211 25.886211 0 0 1 5.514335-2.442335 198.66236 198.66236 0 0 1 13.483727-4.477615c5.291727-1.590062 10.087354-3.002037 13.540969-4.121441 1.844472-0.705988 3.720745-1.27205 5.62246-1.679106z" fill="#FAFAFA" opacity=".8" p-id="27096"></path><path d="M1093.962733 426.136646a12.186236 12.186236 0 0 1-0.686907-2.213366c-0.394335-1.621863-0.915876-3.663503-1.513739-6.105839-1.227528-5.151801-2.862112-12.30072-4.636621-20.200149-1.768149-7.899429-3.275528-15.118311-4.35677-20.276472l-1.208448-6.156721A11.976348 11.976348 0 0 1 1081.242236 368.89441c0.318012 0.699627 0.553342 1.431056 0.686907 2.194286l1.513739 6.105838a1583.173963 1583.173963 0 0 1 8.993391 40.476621c0.483379 2.455056 0.890435 4.515776 1.208447 6.175802 0.203528 0.750509 0.311652 1.513739 0.318013 2.289689z" fill="#263238" opacity=".8" p-id="27097"></path><path d="M1119.403727 368.773565c0 0.470658-28.493913-0.50882-63.608845-2.187925-35.127652-1.685466-63.596124-3.370932-63.596124-3.905193 0-0.540621 28.493913 0.470658 63.608844 2.156124 35.127652 1.685466 63.596124 3.434534 63.596125 3.943354zM1106.68323 330.732919a2.340571 2.340571 0 0 1-1.087603 0.324373l-3.135602 0.50882c-2.734907 0.432497-6.678261 0.941317-11.575652 1.520099a649.381366 649.381366 0 0 1-38.225093 3.141963 609.903304 609.903304 0 0 1-38.244174 0.833192c-4.897391 0-8.859826 0-11.594733-0.286211l-3.154684-0.222608a3.879752 3.879752 0 0 1-1.106683-0.178087 2.05436 2.05436 0 0 1 1.106683 0l3.154684-0.178087 11.575652-0.292572c9.794783-0.216248 23.30395-0.616944 38.244174-1.373813 14.933863-0.76323 28.430311-1.806311 38.206012-2.607702l11.594733-0.903156h3.154683A2.734907 2.734907 0 0 1 1106.68323 330.732919zM973.118012 330.732919c-0.216248-0.209888 6.729143-8.904348 15.499926-19.436919 8.764422-10.526211 16.155031-18.909019 16.301317-18.724571 0.139925 0.190807-6.729143 8.891627-15.493566 19.436919-8.770783 10.551652-16.078708 18.851776-16.301316 18.724571zM1074.881988 394.309963c0 0.209888-18.552845-1.049441-41.379777-2.773069-22.826932-1.717267-41.322534-3.33277-41.303453-3.536298 0.019081-0.209888 18.552845 1.068522 41.398857 2.773069 22.839652 1.704547 41.303453 3.402733 41.284373 3.536298zM1081.242236 420.062609c0 0.082683-18.571925 0-41.347975-0.139926-22.77605-0.133565-41.335255-0.349814-41.335255-0.432497 0-0.082683 18.571925 0 41.347975 0.139926 22.77605 0.133565 41.335255 0.349814 41.335255 0.432497z" fill="#FAFAFA" opacity=".8" p-id="27098"></path><path d="M1024.038161 438.857143a6.722783 6.722783 0 0 1 0-1.380174v-3.930634c0-3.421814 0.273491-8.376447 0.699628-14.488646 0.222609-3.052919 0.496099-6.385689 0.890435-9.966509 0.394335-3.57446 0.966758-7.447851 1.494658-11.397565 1.062161-8.026634 1.971677-16.873739 2.951155-26.077019 1.348373-15.900621 3.752547-31.705839 7.187081-47.326608 1.431056-5.959553 2.906634-10.729739 3.930634-13.992547a201.619876 201.619876 0 0 1 1.354732-3.720745A6.118559 6.118559 0 0 1 1043.080745 305.291925a6.15672 6.15672 0 0 1-0.337093 1.335653c-0.318012 0.954037-0.686907 2.226087-1.176646 3.733465a203.400745 203.400745 0 0 0-3.682584 14.024348 407.526559 407.526559 0 0 0-6.869068 47.256646c-0.979478 9.305043-1.965317 18.139429-3.027478 26.070659-0.572422 4.006957-1.157565 7.804025-1.590062 11.359403-0.432497 3.561739-0.750509 6.91359-1.024 9.947429-0.50882 6.093118-0.807752 11.028671-1.00492 14.437764l-0.235329 3.930633c0.019081 0.489739-0.01272 0.985839-0.095404 1.469218z" fill="#263238" opacity=".8" p-id="27099"></path><path d="M1062.161491 362.534161h19.080745v6.360249h-19.080745z" fill="#FAFAFA" opacity=".8" p-id="27100"></path><path d="M1081.960944 368.89441a45.246807 45.246807 0 0 0 1.551901 50.881988l4.089639-28.65292" fill="#000000" opacity=".3" p-id="27101"></path><path d="M1071.61282 243.304944c2.703106 5.050037 1.373814 11.098634-0.591503 16.434882-1.958957 5.336248-4.471255 10.729739-3.968795 16.333118 0.464298 5.202683 3.549019 9.97923 4.096 15.181913 0.954037 8.751702-5.215404 16.695652-7.746783 25.199304-3.199205 11.130435-0.127205 22.992298 8.211081 31.648597 0.750509 0.954037 1.908075 1.577342 3.186484 1.710907a3.262807 3.262807 0 0 0 2.893913-2.607702 12.567851 12.567851 0 0 0-0.108124-3.975156c-1.157565-12.55513 12.116273-22.610683 14.037068-35.08949 1.265689-8.115677-2.429615-16.142311-2.976596-24.31523-0.699627-10.290882 3.561739-20.270112 4.960994-30.497391 0.636025-3.491776 0.413416-7.059876-0.655106-10.462609-1.119404-3.434534-4.019677-6.15672-7.765863-7.276124-3.879752-0.973118-7.93759 0.852273-9.438609 4.242285" fill="#263238" opacity=".8" p-id="27102"></path></svg>