<?xml version="1.0" standalone="no"?><!DOCTYPE svg PUBLIC "-//W3C//DTD SVG 1.1//EN" "http://www.w3.org/Graphics/SVG/1.1/DTD/svg11.dtd"><svg t="1735375019401" class="icon" viewBox="0 0 1024 1024" version="1.1" xmlns="http://www.w3.org/2000/svg" p-id="20336" xmlns:xlink="http://www.w3.org/1999/xlink" width="200" height="200"><path d="M503.897825 763.86807L62.877193 509.233404V763.86807l441.020632 254.616702V763.86807z" fill="#6D8ACA" p-id="20337"></path><path d="M283.378526 381.934035L62.877193 509.233404 503.897825 763.86807l220.501333-127.317333L283.378526 381.934035z" fill="#283961" p-id="20338"></path><path d="M283.378526 381.934035L62.877193 254.616702v237.550035l220.501333 127.299368V381.934035z" fill="#6D8ACA" p-id="20339"></path><path d="M724.399158 127.317333L283.378526 381.934035v237.53207l441.020632-254.616701V127.317333z" fill="#39549F" p-id="20340"></path><path d="M503.897825 0L62.877193 254.616702l220.501333 127.317333L724.399158 127.317333 503.897825 0zM944.918456 509.233404L503.897825 763.86807v254.616702L944.918456 763.86807V509.233404z" fill="#4762AF" p-id="20341"></path><path d="M944.918456 254.616702L724.399158 381.934035v509.233404l220.519298-127.299369V254.616702z" fill="#4762AF" p-id="20342"></path><path d="M834.649825 729.070035c0 7.150035 4.365474 10.437614 9.719017 7.347649l35.696281-20.605754c5.371509-3.10793 9.719018-11.425684 9.719017-18.575719 0-7.13207-4.347509-10.437614-9.719017-7.329685l-35.696281 20.605755c-5.353544 3.089965-9.719018 11.407719-9.719017 18.557754zM834.649825 776.820772c0 7.13207 4.365474 10.437614 9.719017 7.329684l35.696281-20.605754c5.371509-3.089965 9.719018-11.407719 9.719017-18.557755 0-7.150035-4.347509-10.437614-9.719017-7.347649l-35.696281 20.62372c-5.353544 3.089965-9.719018 11.407719-9.719017 18.557754zM834.649825 681.337263c0 7.150035 4.365474 10.437614 9.719017 7.329684l35.696281-20.605754c5.371509-3.089965 9.719018-11.407719 9.719017-18.557754 0-7.150035-4.347509-10.437614-9.719017-7.34765l-35.696281 20.62372c-5.353544 3.089965-9.719018 11.407719-9.719017 18.557754zM834.649825 633.586526c0 7.150035 4.365474 10.437614 9.719017 7.347649l35.696281-20.605754c5.371509-3.10793 9.719018-11.425684 9.719017-18.557754 0-7.150035-4.347509-10.455579-9.719017-7.347649l-35.696281 20.605754c-5.353544 3.089965-9.719018 11.407719-9.719017 18.557754zM834.649825 585.853754c0 7.150035 4.365474 10.437614 9.719017 7.329685l35.696281-20.605755c5.371509-3.089965 9.719018-11.407719 9.719017-18.557754 0-7.150035-4.347509-10.437614-9.719017-7.347649l-35.696281 20.623719c-5.353544 3.089965-9.719018 11.407719-9.719017 18.557754z" fill="#4D76F6" p-id="20343"></path><path d="M539.001263 58.224281c-7.09614-4.096-17.839158-4.545123-23.983158-0.98807-6.144 3.539088-5.371509 9.736982 1.724632 13.832982l29.426526 16.994807c7.09614 4.096 17.839158 4.545123 23.983158 0.98807 6.144-3.539088 5.371509-9.736982-1.724632-13.832982l-29.426526-16.994807zM497.646035 82.099649c-7.09614-4.096-17.839158-4.545123-23.965193-1.006035-6.144 3.557053-5.371509 9.754947 1.706667 13.850947l29.444491 16.994807c7.078175 4.096 17.821193 4.527158 23.965193 0.988071 6.144-3.539088 5.371509-9.736982-1.724632-13.832983l-29.426526-16.994807zM373.616281 153.707789c-7.09614-4.096-17.839158-4.545123-23.983158-0.98807-6.144 3.539088-5.371509 9.736982 1.724631 13.832983l29.426527 16.994807c7.09614 4.096 17.839158 4.545123 23.983158 0.98807 6.144-3.539088 5.371509-9.736982-1.724632-13.832983l-29.426526-16.994807zM414.953544 129.832421c-7.078175-4.096-17.821193-4.527158-23.965193-0.98807-6.144 3.539088-5.371509 9.754947 1.724631 13.832982l29.426527 16.994807c7.09614 4.096 17.839158 4.545123 23.965193 1.006035 6.144-3.557053 5.371509-9.754947-1.706667-13.850947l-29.444491-16.994807zM456.308772 105.975018c-7.09614-4.096-17.839158-4.545123-23.983158-1.006036-6.144 3.557053-5.371509 9.754947 1.724632 13.850948l29.426526 16.994807c7.09614 4.078035 17.839158 4.527158 23.983158 0.98807 6.144-3.539088 5.371509-9.754947-1.724632-13.850947L456.308772 105.975018z" fill="#3FAAF3" p-id="20344"></path><path d="M118.011509 681.013895c0-6.970386-4.257684-15.090526-9.485474-18.108632-5.245754-3.018105-9.485474 0.197614-9.485474 7.168v38.373053c0 6.970386 4.239719 15.090526 9.485474 18.108631 5.227789 3.018105 9.485474-0.179649 9.485474-7.168v-38.373052zM283.378526 776.497404c0-6.970386-4.239719-15.090526-9.467508-18.108632-5.245754-3.018105-9.485474 0.197614-9.485474 7.168v38.373053c0 6.970386 4.239719 15.090526 9.485474 18.108631 5.227789 3.018105 9.467509-0.179649 9.467508-7.168v-38.373052zM159.348772 704.889263c0-6.970386-4.239719-15.090526-9.485474-18.108631-5.227789-3.018105-9.485474 0.179649-9.485473 7.168v38.373052c0 6.970386 4.257684 15.090526 9.485473 18.108632 5.245754 3.018105 9.485474-0.197614 9.485474-7.168v-38.373053zM200.686035 728.764632c0-6.970386-4.239719-15.090526-9.467509-18.126597-5.245754-3.018105-9.485474 0.197614-9.485473 7.168v38.373053c0 6.988351 4.239719 15.108491 9.485473 18.126596 5.227789 3.018105 9.467509-0.197614 9.467509-7.168v-38.373052zM242.041263 752.64c0-6.988351-4.257684-15.108491-9.485474-18.126596-5.227789-3.018105-9.485474 0.197614-9.485473 7.168v38.373052c0 6.970386 4.257684 15.090526 9.485473 18.126597 5.227789 3.018105 9.485474-0.197614 9.485474-7.168v-38.373053z" fill="#72DFFF" p-id="20345"></path><path d="M738.37586 135.383579l-220.501334 127.299368 206.524632 119.251088 220.519298-127.317333-206.542596-119.233123z" fill="#4762AF" p-id="20346"></path><path d="M724.399158 381.934035l-206.524632-119.251088v254.634667l206.524632 119.233123V381.934035z" fill="#6D8ACA" p-id="20347"></path><path d="M503.897825 509.233404l-133.730807-77.195229v154.408421l133.730807 77.213193v-154.426385z" fill="#40DEF1" p-id="20348"></path><path d="M637.610667 432.038175l-133.712842 77.195229v154.426385l133.712842-77.213193v-154.408421z" fill="#426FFE" p-id="20349"></path><path d="M503.897825 354.824982l-133.730807 77.213193 133.730807 77.195229 133.712842-77.195229-133.712842-77.213193z" fill="#3FAAF3" p-id="20350"></path></svg>