<?xml version="1.0" standalone="no"?><!DOCTYPE svg PUBLIC "-//W3C//DTD SVG 1.1//EN" "http://www.w3.org/Graphics/SVG/1.1/DTD/svg11.dtd"><svg t="1735313628944" class="icon" viewBox="0 0 1024 1024" version="1.1" xmlns="http://www.w3.org/2000/svg" p-id="95225" xmlns:xlink="http://www.w3.org/1999/xlink" width="200" height="200"><path d="M512 512m-512 0a512 512 0 1 0 1024 0 512 512 0 1 0-1024 0Z" fill="#10B962" p-id="95226"></path><path d="M648.8576 449.4336C616.51968 306.71872 540.08832 259.7888 531.8656 241.85856c-8.99072-12.6464-18.1248-35.14368-18.1248-35.14368-0.14336-0.38912-0.37888-1.05472-0.6656-1.69984-0.9216 12.6464-1.40288 17.52064-13.3632 30.28992-18.52416 14.47936-113.54112 94.208-121.27232 256.36864-7.20896 151.2448 109.25056 241.3568 124.99968 252.84608l1.792 1.26976v-0.1024c0.1024 0.75776 4.99712 35.9936 8.43776 73.32864h12.3392a726.6816 726.6816 0 0 1 13.0048-78.52032l0.99328-0.65536a204.48256 204.48256 0 0 0 20.11136-16.44544l0.7168-0.65536c33.4848-30.9248 93.67552-102.47168 93.0816-216.5248a347.07456 347.07456 0 0 0-5.04832-56.76032z m-136.4992 209.68448s0-212.1216 6.99392-212.0704c5.45792 0 12.52352 273.60256 12.52352 273.60256-9.71776-1.16736-19.52768-45.02528-19.52768-61.53216z" fill="#FFFFFF" p-id="95227"></path></svg>