<?xml version="1.0" standalone="no"?><!DOCTYPE svg PUBLIC "-//W3C//DTD SVG 1.1//EN" "http://www.w3.org/Graphics/SVG/1.1/DTD/svg11.dtd"><svg t="1735312747674" class="icon" viewBox="0 0 1024 1024" version="1.1" xmlns="http://www.w3.org/2000/svg" p-id="34247" xmlns:xlink="http://www.w3.org/1999/xlink" width="200" height="200"><path d="M487.317333 1014.144a48.085333 48.085333 0 0 0 48.192 0l399.274667-230.848a48.213333 48.213333 0 0 0 24.128-41.856v-462.08a48.426667 48.426667 0 0 0-24.106667-41.834667L535.530667 6.485333a48.213333 48.213333 0 0 0-48.234667 0L88.106667 237.504A48.298667 48.298667 0 0 0 64 279.36v462.101333c0 17.258667 9.194667 33.194667 24.106667 41.813334l399.210666 230.869333" fill="#ACDD6E" p-id="34248"></path><path d="M507.285333 772.266667a16.106667 16.106667 0 0 1-7.68-2.005334l-24.362666-14.442666c-3.669333-2.005333-1.834667-2.730667-0.746667-3.093334 4.949333-1.642667 5.866667-2.005333 10.986667-4.928 0.554667-0.362667 1.28-0.192 1.834666 0.170667l18.688 11.157333c0.725333 0.362667 1.642667 0.362667 2.197334 0l73.045333-42.218666c0.725333-0.362667 1.109333-1.088 1.109333-2.005334v-84.224c0-0.917333-0.384-1.642667-1.109333-2.005333l-73.045333-42.026667c-0.746667-0.362667-1.664-0.362667-2.197334 0l-73.066666 42.026667c-0.725333 0.362667-1.088 1.28-1.088 2.005333v84.224c0 0.725333 0.362667 1.642667 1.088 2.005334l19.968 11.52c10.794667 5.482667 17.578667-0.917333 17.578666-7.317334v-83.114666c0-1.109333 0.917333-2.197333 2.197334-2.197334h9.322666c1.109333 0 2.197333 0.917333 2.197334 2.197334v83.114666c0 14.442667-7.872 22.826667-21.589334 22.826667-4.224 0-7.509333 0-16.853333-4.544l-19.221333-10.965333a15.402667 15.402667 0 0 1-7.68-13.333334v-84.224c0-5.482667 2.922667-10.602667 7.68-13.333333l73.045333-42.218667a16.384 16.384 0 0 1 15.381333 0l73.066667 42.218667c4.757333 2.730667 7.68 7.850667 7.68 13.333333v84.224a15.402667 15.402667 0 0 1-7.68 13.333334l-73.066667 42.197333a18.773333 18.773333 0 0 1-7.68 1.642667z m22.506667-57.92c-32.042667 0-38.613333-14.613333-38.613333-27.029334 0-1.088 0.896-2.197333 2.176-2.197333h9.536c1.088 0 2.005333 0.746667 2.005333 1.834667 1.472 9.685333 5.674667 14.421333 25.088 14.421333 15.36 0 21.973333-3.456 21.973333-11.690667 0-4.736-1.834667-8.213333-25.813333-10.581333-19.968-2.026667-32.426667-6.4-32.426667-22.293333 0-14.805333 12.458667-23.573333 33.344-23.573334 23.424 0 34.965333 8.042667 36.437334 25.578667a2.944 2.944 0 0 1-0.554667 1.642667c-0.362667 0.362667-0.917333 0.725333-1.472 0.725333h-9.514667a2.133333 2.133333 0 0 1-2.026666-1.642667c-2.176-10.026667-7.872-13.333333-22.869334-13.333333-16.853333 0-18.858667 5.845333-18.858666 10.24 0 5.290667 2.368 6.933333 25.066666 9.856 22.528 2.922667 33.152 7.125333 33.152 22.826667-0.192 16.085333-13.376 25.216-36.629333 25.216z" fill="#539E43" p-id="34249"></path><path d="M280.597333 442.858667c0-3.285333-1.813333-6.4-4.757333-8.042667l-77.632-44.586667a11.306667 11.306667 0 0 0-4.202667-1.28H193.28a8.725333 8.725333 0 0 0-4.224 1.28l-77.632 44.586667a9.301333 9.301333 0 0 0-4.757333 8.042667l0.192 119.850666c0 1.642667 0.917333 3.285333 2.368 4.010667a4.16 4.16 0 0 0 4.586666 0l46.144-26.304a9.28 9.28 0 0 0 4.757334-8.042667v-56.085333c0-3.285333 1.834667-6.4 4.757333-8.042667l19.584-11.306666a8.874667 8.874667 0 0 1 4.757333-1.28 7.893333 7.893333 0 0 1 4.586667 1.28l19.584 11.306666a9.301333 9.301333 0 0 1 4.757333 8.042667v56.106667c0 3.264 1.834667 6.378667 4.778667 8.021333l46.122667 26.304a4.48 4.48 0 0 0 4.757333 0 4.544 4.544 0 0 0 2.389333-4.010667l-0.192-119.850666zM653.76 277.888a5.034667 5.034667 0 0 0-4.586667 0 4.757333 4.757333 0 0 0-2.368 4.010667v118.762666a3.498667 3.498667 0 0 1-1.642666 2.922667 3.52 3.52 0 0 1-3.306667 0l-19.413333-11.157333a9.450667 9.450667 0 0 0-9.322667 0l-77.653333 44.757333a9.301333 9.301333 0 0 0-4.757334 8.042667v89.344c0 3.285333 1.834667 6.4 4.778667 8.042666l77.632 44.757334a9.450667 9.450667 0 0 0 9.322667 0l77.653333-44.757334a9.301333 9.301333 0 0 0 4.757333-8.042666v-222.72a9.386667 9.386667 0 0 0-4.778666-8.213334l-46.293334-25.749333h-0.021333z m-7.146667 227.264c0 0.917333-0.362667 1.642667-1.088 2.005333l-26.56 15.36a2.709333 2.709333 0 0 1-2.368 0l-26.56-15.36c-0.725333-0.362667-1.088-1.28-1.088-2.005333V474.453333c0-0.896 0.362667-1.642667 1.088-2.005333l26.56-15.36a2.709333 2.709333 0 0 1 2.368 0l26.56 15.36c0.725333 0.362667 1.088 1.28 1.088 2.005333v30.72zM912.106667 473.728a9.130667 9.130667 0 0 0 4.586666-8.042667V443.946667c0-3.285333-1.834667-6.4-4.586666-8.042667l-77.077334-44.586667a9.472 9.472 0 0 0-9.344 0l-77.632 44.778667a9.301333 9.301333 0 0 0-4.757333 8.042667v89.344c0 3.285333 1.834667 6.4 4.757333 8.021333l77.098667 43.861333c2.922667 1.642667 6.4 1.642667 9.152 0l46.677333-25.941333a4.544 4.544 0 0 0 2.389334-4.032 4.544 4.544 0 0 0-2.389334-4.010667l-77.994666-44.757333a4.757333 4.757333 0 0 1-2.368-4.032v-27.946667c0-1.642667 0.917333-3.285333 2.368-4.010666l24.362666-13.888a4.48 4.48 0 0 1 4.757334 0l24.341333 13.866666a4.757333 4.757333 0 0 1 2.389333 4.053334v21.909333c0 1.642667 0.917333 3.285333 2.368 4.010667a4.48 4.48 0 0 0 4.778667 0l46.122667-26.858667z" fill="#333333" p-id="34250"></path><path d="M829.162667 469.546667a1.664 1.664 0 0 1 1.834666 0l14.826667 8.576a1.92 1.92 0 0 1 0.917333 1.642666v17.173334a1.92 1.92 0 0 1-0.917333 1.642666l-14.826667 8.576a1.664 1.664 0 0 1-1.834666 0l-14.826667-8.576a1.92 1.92 0 0 1-0.917333-1.642666v-17.173334a1.92 1.92 0 0 1 0.917333-1.642666l14.848-8.597334z" fill="#539E43" p-id="34251"></path><path d="M410.432 391.701333a9.450667 9.450667 0 0 0-9.344 0l-77.077333 44.373334a9.130667 9.130667 0 0 0-4.586667 8.064v88.96c0 3.285333 1.834667 6.4 4.586667 8.042666l77.077333 44.394667a9.450667 9.450667 0 0 0 9.344 0l77.077333-44.373333a9.109333 9.109333 0 0 0 4.586667-8.064v-88.96c0-3.285333-1.834667-6.4-4.586667-8.042667l-77.077333-44.394667z" fill="#419D34" p-id="34252"></path><path d="M487.68 436.096l-77.44-44.394667a12.672 12.672 0 0 0-2.410667-0.917333l-86.784 148.352a9.685333 9.685333 0 0 0 2.56 2.197333l77.461334 44.373334c2.197333 1.28 4.757333 1.664 7.146666 0.917333l81.472-148.693333a9.642667 9.642667 0 0 0-2.026666-1.834667z" fill="#529D44" p-id="34253"></path><path d="M487.872 541.141333a10.389333 10.389333 0 0 0 4.586667-5.845333L407.466667 390.613333a9.322667 9.322667 0 0 0-6.592 1.066667l-76.906667 44.224 82.944 150.912a12.8 12.8 0 0 0 3.477333-1.088l77.461334-44.586667z" fill="#58A645" p-id="34254"></path><path d="M492.096 533.12a10.026667 10.026667 0 0 1-0.106667 1.386667l-28.565333-48.64 26.261333-47.936-0.064-0.085334c1.536 1.706667 2.474667 3.946667 2.474667 6.293334v88.96z" fill="#428A3E" p-id="34255"></path><path d="M351.829333 486.528l55.125334 100.288a12.373333 12.373333 0 0 0 1.301333-0.277333l-0.042667 0.106666a8.938667 8.938667 0 0 1-7.146666-0.917333l-77.44-44.394667a9.685333 9.685333 0 0 1-2.56-2.197333l30.762666-52.608z" fill="#41883F" p-id="34256"></path></svg>