<?xml version="1.0" standalone="no"?><!DOCTYPE svg PUBLIC "-//W3C//DTD SVG 1.1//EN" "http://www.w3.org/Graphics/SVG/1.1/DTD/svg11.dtd"><svg t="1735313137846" class="icon" viewBox="0 0 1946 1024" version="1.1" xmlns="http://www.w3.org/2000/svg" p-id="51701" xmlns:xlink="http://www.w3.org/1999/xlink" width="380.078125" height="200"><path d="M568.597398 366.518149h-76.581002l-41.792194 214.800927h67.950336q67.615755 0 100.739262-25.48898c22.082338-17.033209 36.925563-45.320501 44.590507-85.10521q11.216064-57.220935-10.037426-80.725242c-14.174063-15.634052-42.392919-23.542328-84.922712-23.542328zM973.326204 0C435.806808 0 0 229.218321 0 511.977188s435.806808 512.022812 973.326204 512.022812 973.326204-229.279154 973.326205-512.022812S1510.845601 0 973.326204 0zM708.893245 604.367136a197.49397 197.49397 0 0 1-74.398621 44.712173c-27.253134 8.759936-62.049546 13.322402-104.206737 13.322402h-95.811798l-26.523139 136.326501h-111.757619l99.765936-513.125408h214.922592q96.99804 0 141.436464 50.917127 44.529674 50.825878 26.766471 142.105626a231.088932 231.088932 0 0 1-25.306482 69.851363l0.608329-1.155825a232.016634 232.016634 0 0 1-45.495396 56.992812z m326.421672 57.981346l44.043011-227.028337c5.109963-25.793144 3.16331-43.495515-5.535793-52.802947q-13.048654-14.143646-55.722925-14.11323H929.526525l-57.122081 294.005347h-110.959188l99.765936-513.186241h110.898355l-26.523139 136.448167h98.792609q93.340462 0 128.661558 32.545595 35.404741 32.484762 21.352344 105.362562l-46.415494 238.769084z m616.17632-183.715321a224.764213 224.764213 0 0 1-25.306481 69.843759l0.608329-1.094992a232.018535 232.018535 0 0 1-45.503 56.985208 197.516783 197.516783 0 0 1-72.999465 44.293946l-1.399157 0.425831c-27.253134 8.759936-62.049546 13.322402-104.328402 13.322402h-95.690133L1280.342185 798.857482h-111.742411l99.765936-513.125408h214.86176q96.99804 0 141.436464 50.917127 44.529674 50.734628 26.827303 142.044793zM1441.009446 366.518149h-76.46694l-41.853027 214.800927h67.950336q67.798253 0 100.739262-25.48898c22.082338-17.033209 36.925563-45.320501 44.712172-85.10521 7.482445-38.142221 3.954138-65.030357-10.159092-80.725242s-42.522189-23.542328-84.922711-23.542328z" fill="#777BB4" p-id="51702"></path></svg>