<?xml version="1.0" standalone="no"?><!DOCTYPE svg PUBLIC "-//W3C//DTD SVG 1.1//EN" "http://www.w3.org/Graphics/SVG/1.1/DTD/svg11.dtd"><svg t="1735379847167" class="icon" viewBox="0 0 1024 1024" version="1.1" xmlns="http://www.w3.org/2000/svg" p-id="38634" xmlns:xlink="http://www.w3.org/1999/xlink" width="200" height="200"><path d="M1012.736 361.472c-10.24-14.336-31.232-23.04-58.88-24.576-27.648-1.024-807.936-15.872-807.936-15.872s-19.456-0.512-36.352 10.24-23.552 18.944-30.72 37.888-74.24 199.168-76.288 205.824c-2.56 6.656-3.072 16.384-2.048 28.16 1.024 12.288 9.728 26.624 23.04 31.744s50.688 6.144 61.44 7.168c10.752 0.512 821.76 59.392 835.072 59.904 12.8 1.024 32.768 3.584 55.296-11.776s28.672-30.208 30.72-50.176c2.048-20.48 16.896-228.864 17.92-241.152 1.024-11.776-1.024-23.04-11.264-37.376z m-12.8 1.536c-1.024 10.24-24.576 290.816-25.6 296.96-0.512 6.144-2.048 10.752-12.288 10.752-9.728 0-943.104-62.464-948.224-62.976s-6.656-4.096-4.096-12.8c3.072-8.704 91.648-250.368 91.648-250.368s1.536-6.656 7.68-9.216 14.848-1.536 20.992-1.024 847.872 18.432 855.04 18.432 15.872 0 14.848 10.24z" fill="#4FB847" p-id="38635"></path><path d="M555.52 379.392l-144.384-4.608-8.704 30.208 46.592 1.536-36.352 129.536 52.736 2.56 35.328-130.56 46.592 1.536zM737.28 405.504c-19.968-23.552-78.336-30.72-112.128-22.016-33.792 8.704-58.368 23.552-73.728 61.952-15.36 37.888-6.656 73.728 21.504 90.112 28.672 15.872 58.88 15.872 66.56 16.384 7.68 0.512 20.992-1.024 20.992-1.024s52.224-3.584 76.8-43.52c24.576-40.96 19.968-78.336 0-101.888z m-40.96 45.056c-1.536 21.504-6.144 39.424-23.04 55.296s-42.496 11.264-42.496 11.264-15.872-1.024-25.6-16.896c-9.728-15.872-4.096-44.032 5.12-59.904s23.552-28.16 49.152-28.16c25.088-0.512 38.4 16.896 36.864 38.4zM376.32 390.656c-4.608-9.728-17.92-15.872-31.232-16.896-13.312-1.024-99.328-3.072-99.328-3.072l-54.272 153.6 49.152 3.584 21.504-64s22.016-1.536 29.184 8.192c7.168 9.728 6.656 58.88 6.656 58.88l53.248 3.072s-5.632-58.368-8.192-68.608-13.312-14.848-13.312-14.848 22.016-1.536 36.864-16.384c14.336-15.872 14.336-33.28 9.728-43.52z m-63.488 41.984c-11.776 5.632-41.472 1.024-41.472 1.024l11.776-33.792s34.304-1.536 40.448 7.168 1.024 19.968-10.752 25.6zM930.816 393.728l-7.68 33.792s-30.72-10.752-55.296-9.216c-24.576 1.536-37.888 9.728-30.208 20.992s33.28 13.824 50.688 18.944c17.408 5.12 32.768 13.824 38.912 29.184 6.144 15.36 1.024 30.208-5.12 41.984-6.144 11.776-28.672 29.696-61.952 31.744-33.792 2.048-69.12-2.56-82.944-5.632-13.824-3.584-17.408-4.608-17.408-4.608l11.776-38.4s31.744 14.848 57.344 14.848c25.6 0 35.328-2.56 38.912-14.848 3.584-12.288-15.872-20.48-35.84-26.112-19.968-5.632-42.496-12.288-49.664-26.624s-6.656-34.816 8.192-49.152c14.848-14.848 38.4-22.528 68.608-24.064 35.84-2.56 71.68 7.168 71.68 7.168z" fill="#8BC552" p-id="38636"></path><path d="M182.784 549.376l-6.656 19.456 741.376 45.056 2.56-22.016z" fill="" p-id="38637"></path><path d="M162.304 548.352l-6.656 19.968-47.616-3.072-4.096 11.264-14.848-0.512 4.608-11.776s-11.776 0-16.896-3.072-8.192-8.704-5.12-18.432c3.072-9.728 7.68-20.48 7.68-20.48l15.872 1.024s-5.12 14.336-6.144 16.384c-1.024 2.56 1.024 5.12 4.608 5.632 3.584 0.512 6.656 0.512 6.656 0.512l5.12-13.312 14.848 0.512-5.12 13.824 47.104 1.536zM126.976 504.32s-7.68-3.072-7.68-10.24 4.096-12.288 4.096-12.288l16.896 1.536s-4.608 8.192-3.072 12.8c1.024 4.608 4.608 6.656 11.264 7.68 6.656 1.024 29.184 1.536 29.184 1.536l-6.656 18.432-60.928-3.072 6.656-16.896 10.24 0.512zM200.192 433.152l-14.336-0.512s3.072 9.728-3.072 20.48-15.36 10.24-15.36 10.24l12.8-35.84s-8.704-0.512-16.384 0.512c-7.68 1.024-17.408 5.12-24.576 13.312s-10.752 20.48-5.632 30.208c5.12 9.216 16.896 11.264 29.184 9.216 12.288-1.536 22.016-7.168 30.72-20.48s6.656-27.136 6.656-27.136z m-44.544 30.208s-6.656 0.512-9.216-4.608 2.56-11.264 7.168-13.824c3.584-2.048 9.216-1.536 9.216-1.536l-7.168 19.968zM221.696 371.712l-13.824-0.512s3.072 9.728-3.072 20.48-14.848 10.24-14.848 10.24l12.8-35.328s-8.192-0.512-15.872 0.512c-7.168 1.024-16.896 5.12-24.064 12.8-7.168 8.192-10.752 20.48-5.632 29.184 5.12 9.216 16.896 10.752 28.672 9.216 11.776-1.536 21.504-7.168 30.208-20.48 7.68-12.8 5.632-26.112 5.632-26.112z m-44.032 29.184s-6.656 0.512-8.704-4.608c-2.56-5.12 2.56-11.264 7.168-13.312 3.584-2.048 9.216-1.536 9.216-1.536l-7.68 19.456z" fill="#030708" p-id="38638"></path><path d="M974.848 690.176c22.528-15.36 28.672-30.208 30.72-50.176 2.048-20.48 16.896-228.864 17.92-241.152 0.512-8.192 0-15.872-3.584-24.576-3.072 40.448-15.872 206.848-18.432 239.104-3.072 37.376-6.656 45.056-23.552 59.904-16.896 14.336-38.912 18.944-52.736 17.408-13.312-1.536-772.608-54.272-799.232-56.32s-88.576-4.096-105.472-10.752c-10.24-4.096-16.896-13.824-20.48-20.48 1.024 12.288 9.728 26.624 23.04 31.744s50.688 6.144 61.44 7.168c10.752 0.512 821.76 59.392 835.072 59.904 13.312 1.024 32.768 3.584 55.296-11.776z" fill="#367C3D" p-id="38639"></path></svg>