<?xml version="1.0" standalone="no"?><!DOCTYPE svg PUBLIC "-//W3C//DTD SVG 1.1//EN" "http://www.w3.org/Graphics/SVG/1.1/DTD/svg11.dtd"><svg t="1735362974056" class="icon" viewBox="0 0 1024 1024" version="1.1" xmlns="http://www.w3.org/2000/svg" p-id="18118" xmlns:xlink="http://www.w3.org/1999/xlink" width="200" height="200"><path d="M621.752231 535.692882c-36.548662 0-57.585391-26.986512-65.660096-60.560282-8.499689-33.361278 27.623988-72.247354 65.660096-72.247354 36.548662 0 68.634987 32.511309 68.634986 66.297572 0 34.423739-23.161652 67.360033-59.285329 67.360033l-9.349657-0.849969z m312.151068-285.589541c40.586014 0 73.097323-31.023864 73.097324-69.90994 0-38.461092-32.511309-69.90994-73.097324-69.90994-40.586014 0-73.309815 31.023864-73.309815 69.90994 0 15.29944 5.099813 28.898942 13.599502 40.373522-95.83399 70.759909-279.427267 166.593899-346.149824-80.109567 38.673584-7.862212 64.17265-43.773397 56.735423-80.747043C577.766342 22.524175 540.580203-2.124922 501.481635 3.187383c-39.098568 5.949782-66.297572 40.373521-61.197759 77.772152 4.887321 37.39863 40.586014 64.385142 80.322059 60.560282-2.549907 178.918448 4.037352 342.324964-195.067857 238.416269 2.974891-7.862212 4.887321-16.149409 4.887321-25.074081 0-38.461092-32.511309-69.90994-73.309815-69.90994-40.586014 0-73.309815 31.023864-73.309815 69.90994 0 38.461092 32.511309 69.90994 73.309815 69.909939 21.461714 0 41.648475-8.712181 55.672961-24.224112 121.970533 137.694957 62.26022 165.318946-154.481842 167.65636 1.062461-4.037352 1.487446-8.287197 1.487445-12.749533 0-38.248599-32.511309-69.697448-73.097323-69.697448-40.586014-0.212492-73.309815 30.811372-73.309815 69.484955 0 38.461092 32.511309 69.90994 73.309815 69.90994 34.211247 0 63.322681-22.099191 71.184893-53.548039 145.132185 48.660718 182.105831 90.946669 118.78315 185.718199-12.537041-8.712181-28.048973-13.811994-43.773397-13.811994-40.586014 0-73.309815 31.023864-73.309815 69.90994 0 38.461092 32.511309 69.90994 73.309815 69.909939 40.586014 0 73.097323-31.023864 73.097323-69.909939 0-15.724424-5.524798-31.023864-15.511932-43.348413 150.019506-105.183648 221.416891-102.846234 228.85412 114.108321-34.211247 6.374767-58.647852 35.4862-58.647853 68.422495 0 35.911185 28.473957 65.872588 65.660096 69.272463 37.611123 3.399875 71.82237-20.186761 79.259597-55.672961 7.64972-34.848724-14.024486-69.697448-49.723179-80.747043 65.660095-110.070969 122.395518-127.282839 240.328699-71.397386-11.899564 26.136543-5.949782 56.097946 14.449471 76.709691 20.611745 20.611745 52.69807 26.561527 79.897074 15.724424 27.623988-10.837103 45.685827-36.336169 45.685827-64.385142 0-28.898942-19.1243-55.672961-48.235734-65.447603-29.111434-9.774642-61.197759-1.91243-81.172027 20.611745-86.696825-84.571903-152.994397-200.16767 12.112056-250.740818 7.64972 32.086325 37.186138 54.6105 71.184893 54.610501 40.586014 0 73.309815-31.023864 73.309816-69.90994 0-38.461092-32.511309-69.697448-73.309816-69.697448-31.023864 0-58.647852 18.699315-69.272463 46.748288-106.883586-72.247354-11.47458-206.967421 57.160407-282.61465 14.661963 15.936916 34.848724 24.436605 55.885453 24.436605" fill="#d81e06" p-id="18119"></path></svg>