<svg xmlns="http://www.w3.org/2000/svg" width="48" height="48" viewBox="0 0 48 48"><path fill="none" stroke="currentColor" stroke-linecap="round" stroke-linejoin="round" d="M10.73 10.501h14.253L18.32 26.223h7.977L28.52 31.5H10.5l6.663-15.722h-3.029z"/><path fill="none" stroke="currentColor" stroke-linecap="round" stroke-linejoin="round" d="m24.983 10.501l6.528.08l2.507 5.095l-7.048.064l1.705 4.386l7.294.034l1.531 3.103l-7.594-.045l3.21 8.28H28.52l-6.058-15.05"/><path fill="none" stroke="currentColor" stroke-linecap="round" stroke-linejoin="round" d="M40.5 7.5h-30l-3 3v30h33zm-20-2h7v2h-7zm10 0h7v2h-7zm-20 0h7v2h-7zm10 35h7v2h-7zm10 0h7v2h-7zm-20 0h7v2h-7zm32-20v7h-2v-7zm0 10v7h-2v-7zm0-20v7h-2v-7zm-35 10v7h-2v-7zm0 10v7h-2v-7zm0-20v7h-2v-7z"/><path fill="none" stroke="currentColor" stroke-linecap="round" stroke-linejoin="round" d="M20.79 38.418v-4.995l2.5 5l2.5-4.992v4.992m-10.172-5h3.312m-1.656 5v-5m-6.429 4.453c.307.399.691.547 1.226.547h.74c.69 0 1.248-.558 1.248-1.247v-.005c0-.69-.559-1.248-1.248-1.248h-.816c-.69 0-1.249-.559-1.249-1.248h0c0-.691.56-1.252 1.252-1.252h.736c.535 0 .92.15 1.226.548m18.695 1.109a1.658 1.658 0 0 1 3.303-.187c.052.524-.114 1.04-.475 1.358c-.67.588-2.828 2.172-2.828 2.172h3.313m-8.21-.421c.346.289.718.421 1.555.421h.195c.69 0 1.25-.56 1.25-1.25h0c0-.69-.56-1.249-1.25-1.249"/><path fill="none" stroke="currentColor" stroke-linecap="round" stroke-linejoin="round" d="M27.758 33.841c.346-.288.719-.42 1.556-.418l.194.002c.69 0 1.25.56 1.25 1.25h0c0 .69-.56 1.249-1.25 1.249m-.961 0h.961"/></svg>