<?xml version="1.0" standalone="no"?><!DOCTYPE svg PUBLIC "-//W3C//DTD SVG 1.1//EN" "http://www.w3.org/Graphics/SVG/1.1/DTD/svg11.dtd"><svg t="1739356356361" class="icon" viewBox="0 0 1024 1024" version="1.1" xmlns="http://www.w3.org/2000/svg" p-id="10891" xmlns:xlink="http://www.w3.org/1999/xlink" width="256" height="256"><path d="M877.952621 344.694619a45.096938 45.096938 0 0 1 22.470645 38.961133l0.696319 397.205313a45.055978 45.055978 0 0 1-22.536181 39.141357l-343.318363 198.000545a44.826602 44.826602 0 0 1-44.867562-0.04096l-344.399707-199.409568a45.113322 45.113322 0 0 1-22.462453-38.952941l-0.65536-397.180738a45.121514 45.121514 0 0 1 22.536181-39.149549l343.318363-197.992353a44.826602 44.826602 0 0 1 44.818411 0z" fill="#E5EBFF" p-id="10892"></path><path d="M218.701737 282.40268a42.737643 42.737643 0 1 0 85.475287 0 42.737643 42.737643 0 1 0-85.475287 0Z" fill="#FFFFFF" p-id="10893"></path><path d="M261.439381 264.241025a18.161655 18.161655 0 1 0 18.161655 18.161655 18.186231 18.186231 0 0 0-18.161655-18.161655m0-24.575988a42.737643 42.737643 0 1 1-42.737644 42.737643 42.737643 42.737643 0 0 1 42.737644-42.737643z" fill="#396AFC" p-id="10894"></path><path d="M335.011697 123.953093a16.973816 16.973816 0 1 0 33.947632 0 16.973816 16.973816 0 1 0-33.947632 0Z" fill="#396AFC" p-id="10895"></path><path d="M617.955049 140.9351a11.321339 11.321339 0 1 0 22.642678 0 11.321339 11.321339 0 1 0-22.642678 0Z" fill="#396AFC" p-id="10896"></path><path d="M557.055751 8.191996m-8.191996 0a8.191996 8.191996 0 1 0 16.383992 0 8.191996 8.191996 0 1 0-16.383992 0Z" fill="#396AFC" p-id="10897"></path><path d="M499.113762 78.684122m-5.660669 0a5.660669 5.660669 0 1 0 11.321339 0 5.660669 5.660669 0 1 0-11.321339 0Z" fill="#396AFC" p-id="10898"></path><path d="M753.770152 152.248247m-11.321338 0a11.321339 11.321339 0 1 0 22.642677 0 11.321339 11.321339 0 1 0-22.642677 0Z" fill="#396AFC" p-id="10899"></path><path d="M448.192315 265.428865a22.634485 22.634485 0 1 0 45.26897 0 22.634485 22.634485 0 1 0-45.26897 0Z" fill="#396AFC" p-id="10900"></path><path d="M832.994946 305.037166a16.973816 16.973816 0 1 0 33.947632 0 16.973816 16.973816 0 1 0-33.947632 0Z" fill="#396AFC" p-id="10901"></path><path d="M611.51614 458.415908v112.230346L513.064732 626.712275l-98.451409-56.098789V458.415908l98.459601-56.066021z" fill="#9AB3FF" p-id="10902"></path><path d="M513.072924 394.157891a8.191996 8.191996 0 0 1 4.055038 1.073151l98.451409 56.066021a8.191996 8.191996 0 0 1 4.136958 7.118845v112.230346a8.191996 8.191996 0 0 1-4.136958 7.118845l-98.451409 56.066021a8.191996 8.191996 0 0 1-8.110076 0l-98.451409-56.172517a8.191996 8.191996 0 0 1-4.095998-7.118845V458.415908a8.191996 8.191996 0 0 1 4.136958-7.118845l98.410449-56.066021a8.191996 8.191996 0 0 1 4.055038-1.073151z m90.259412 69.017567l-90.259412-51.396584-90.259413 51.396584v102.637518l90.259413 51.429352 90.259412-51.396584z" fill="#262B3A" p-id="10903"></path><path d="M500.00669 650.976968v112.16481l-98.451409 56.066021-98.443216-56.066021V650.976968l98.451408-56.09879z" fill="#396AFC" p-id="10904"></path><path d="M401.563473 586.686182a8.191996 8.191996 0 0 1 4.095998 1.073152l98.451409 56.098789a8.191996 8.191996 0 0 1 4.095998 7.118845v112.16481a8.191996 8.191996 0 0 1-4.136958 7.118844l-98.451409 56.066021a8.191996 8.191996 0 0 1-8.110076 0l-98.451409-56.066021a8.191996 8.191996 0 0 1-4.136958-7.118844V650.976968a8.191996 8.191996 0 0 1 4.095998-7.118845l98.451409-56.098789a8.191996 8.191996 0 0 1 4.095998-1.073152z m90.259413 69.050335l-90.259413-51.429351-90.259412 51.429351v102.637519l90.259412 51.396583 90.259413-51.396583z" fill="#262B3A" p-id="10905"></path><path d="M723.041975 650.976968v112.16481L624.582374 819.199607l-98.435025-56.057829V650.976968l98.435025-56.09879z" fill="#FFFFFF" p-id="10906"></path><path d="M624.582374 586.686182a8.191996 8.191996 0 0 1 4.095998 1.073152l98.451409 56.098789a8.191996 8.191996 0 0 1 4.095998 7.118845v112.16481a8.191996 8.191996 0 0 1-4.136958 7.118844l-98.410449 56.057829a8.191996 8.191996 0 0 1-8.110076 0l-98.451409-56.066021a8.191996 8.191996 0 0 1-4.136958-7.118844V650.976968a8.191996 8.191996 0 0 1 4.095998-7.118845l98.451409-56.098789a8.191996 8.191996 0 0 1 4.055038-1.073152z m90.259413 69.050335l-90.259413-51.429351-90.259412 51.429351v102.637519l90.259412 51.396583 90.259413-51.396583z" fill="#262B3A" p-id="10907"></path></svg>