<?xml version="1.0" standalone="no"?><!DOCTYPE svg PUBLIC "-//W3C//DTD SVG 1.1//EN" "http://www.w3.org/Graphics/SVG/1.1/DTD/svg11.dtd"><svg t="1735375492160" class="icon" viewBox="0 0 1024 1024" version="1.1" xmlns="http://www.w3.org/2000/svg" p-id="51239" xmlns:xlink="http://www.w3.org/1999/xlink" width="200" height="200"><path d="M875.9 345.3H148.1c-11 0-20-9-20-20V84.7c0-11 9-20 20-20h727.8c11 0 20 9 20 20v240.5c0 11.1-9 20.1-20 20.1z m-707.8-40h687.8V104.7H168.1v200.6z" fill="#515151" p-id="51240"></path><path d="M273.9 280c-41.4 0-75-33.6-75-75s33.6-75 75-75 75 33.6 75 75-33.7 75-75 75z m0-110c-19.3 0-35 15.7-35 35s15.7 35 35 35 35-15.7 35-35-15.7-35-35-35zM492 185h40v40h-40zM578.1 185h40v40h-40zM664.1 185h40v40h-40zM750.2 185h40v40h-40z" fill="#515151" p-id="51241"></path><path d="M875.9 652H148.1c-11 0-20-9-20-20V392c0-11 9-20 20-20h727.8c11 0 20 9 20 20v240c0 11-9 20-20 20z m-707.8-40h687.8V412H168.1v200z" fill="#515151" p-id="51242"></path><path d="M273.9 587c-41.4 0-75-33.6-75-75s33.6-75 75-75 75 33.6 75 75-33.7 75-75 75z m0-110c-19.3 0-35 15.7-35 35s15.7 35 35 35 35-15.7 35-35-15.7-35-35-35zM492 492h40v40h-40zM578.1 492h40v40h-40zM664.1 492h40v40h-40zM750.2 492h40v40h-40z" fill="#515151" p-id="51243"></path><path d="M875.9 960.3H148.1c-11 0-20-9-20-20V699.9c0-11 9-20 20-20h727.8c11 0 20 9 20 20v240.3c0 11.1-9 20.1-20 20.1z m-707.8-40h687.8V719.9H168.1v200.4z" fill="#515151" p-id="51244"></path><path d="M273.9 895.1c-41.4 0-75-33.6-75-75s33.6-75 75-75 75 33.6 75 75-33.7 75-75 75z m0-110c-19.3 0-35 15.7-35 35s15.7 35 35 35 35-15.7 35-35-15.7-35-35-35zM492 800.1h40v40h-40zM578.1 800.1h40v40h-40zM664.1 800.1h40v40h-40zM750.2 800.1h40v40h-40z" fill="#515151" p-id="51245"></path></svg>