<?xml version="1.0" standalone="no"?><!DOCTYPE svg PUBLIC "-//W3C//DTD SVG 1.1//EN" "http://www.w3.org/Graphics/SVG/1.1/DTD/svg11.dtd"><svg t="1768183818041" class="icon" viewBox="0 0 1046 1024" version="1.1" xmlns="http://www.w3.org/2000/svg" p-id="8612" xmlns:xlink="http://www.w3.org/1999/xlink" width="65.375" height="64"><path d="M962.017855 502.697523a100.171901 100.171901 0 0 0-35.473719-157.885621 98.88529 98.88529 0 0 0-6.61686-86.386777 97.414876 97.414876 0 0 0-80.872727-49.626447 99.804298 99.804298 0 0 0-128.661158-98.150083 99.9881 99.9881 0 0 0-154.393389-48.156033 100.171901 100.171901 0 0 0-161.561653 7.535868 98.517686 98.517686 0 0 0-86.202976-8.271074 97.047273 97.047273 0 0 0-63.043967 70.763636 99.069091 99.069091 0 0 0-83.997356 21.504794 97.414876 97.414876 0 0 0-34.922314 88.224793 99.9881 99.9881 0 0 0-73.520661 143.732894 100.171901 100.171901 0 0 0-20.585786 160.458843 100.171901 100.171901 0 0 0 35.47372 157.885621 99.9881 99.9881 0 0 0 87.489587 136.013223 99.9881 99.9881 0 0 0 128.661157 98.150083 99.9881 99.9881 0 0 0 154.393389 48.156034 100.171901 100.171901 0 0 0 161.561654-7.535868 98.88529 98.88529 0 0 0 86.386777 8.271074 97.231075 97.231075 0 0 0 62.860165-70.763636 98.88529 98.88529 0 0 0 83.997356-21.504794 97.414876 97.414876 0 0 0 34.922314-88.224794 99.9881 99.9881 0 0 0 73.520662-143.732893 99.804298 99.804298 0 0 0 20.585785-160.458843z" fill="#EADECA" p-id="8613"></path><path d="M1014.76893 477.884299a99.804298 99.804298 0 0 0-35.47372-157.701818 98.701488 98.701488 0 0 0-6.616859-86.386778A97.598678 97.598678 0 0 0 891.989425 183.801654a100.355703 100.355703 0 0 0-128.661158-98.150083 98.150083 98.150083 0 0 0-60.654545-61.757356 97.047273 97.047273 0 0 0-93.738844 13.785124 99.9881 99.9881 0 0 0-161.561653 7.535868 98.517686 98.517686 0 0 0-86.386777-8.454876 97.414876 97.414876 0 0 0-63.043968 70.763636 100.171901 100.171901 0 0 0-118.919669 110.280993 100.171901 100.171901 0 0 0-73.520662 143.732893 100.171901 100.171901 0 0 0-20.585785 160.458843A99.9881 99.9881 0 0 0 119.654876 680.066118a100.355703 100.355703 0 0 0 87.489588 136.197026 99.9881 99.9881 0 0 0 128.661157 97.966281 99.9881 99.9881 0 0 0 154.393389 48.156033 99.9881 99.9881 0 0 0 161.561654-7.535868 100.171901 100.171901 0 0 0 149.430744-62.492562 99.804298 99.804298 0 0 0 118.735868-110.280992 100.171901 100.171901 0 0 0 73.520662-143.732893 99.069091 99.069091 0 0 0 50.545454-70.579835A97.966281 97.966281 0 0 0 1014.76893 477.884299z" fill="#FFFCF8" p-id="8614"></path><path d="M530.451572 573.461159A74.623471 74.623471 0 0 1 496.264465 496.264465a81.424133 81.424133 0 0 1 62.124959-60.654546c63.962975-16.174546 111.383802 32.165289 120.206281 91.900827 7.903471 53.118678-20.401984 102.928926-59.184132 137.299835l-6.433058 5.330248c-3.676033 3.124628 9.190083-5.51405-5.881653 4.227438a128.661158 128.661158 0 0 1-55.140496 20.218182 188.212893 188.212893 0 0 1-109.178182-25.180827 166.7081 166.7081 0 0 1-88.776199-159.356033 198.505786 198.505786 0 0 1 95.209256-149.430745c82.894546-52.015868 197.402976-45.399008 266.144795 27.386447a197.402976 197.402976 0 0 1 52.567273 183.801653 298.493885 298.493885 0 0 1-66.536199 137.667439 263.203968 263.203968 0 0 1-300.883307 59.367934 267.615208 267.615208 0 0 1-152.371571-190.602315c-23.710413-123.33091 43.193389-257.322315 149.246943-321.469092 114.50843-68.92562 262.652563-47.78843 363.192068 36.760331a324.226117 324.226117 0 0 1 88.040992 375.139175A370.727935 370.727935 0 0 1 790.34711 764.982482c-16.909752 20.218182 12.130909 49.626446 29.224463 29.224463 110.280992-131.050579 135.094215-324.777522 29.95967-466.672398-91.900827-123.882315-260.814546-187.661488-409.326283-136.013224A362.640663 362.640663 0 0 0 202.181819 545.890911a307.132563 307.132563 0 0 0 174.243968 257.322315c124.985124 56.059504 273.496861 31.246281 362.45686-75.910083a345.73091 345.73091 0 0 0 72.417852-172.773554 238.94215 238.94215 0 0 0-81.056529-209.166282c-91.900827-83.997356-236.552728-77.380496-330.842977-1.286611A230.303472 230.303472 0 0 0 312.462811 540.009258 211.555703 211.555703 0 0 0 446.638018 716.826449c68.190413 28.85686 147.041323 26.65124 202.181819-24.261818a196.667769 196.667769 0 0 0 69.477025-172.405951c-10.292893-69.109422-59.735537-128.661158-133.072397-130.131571s-141.894877 57.713719-131.234381 134.359009a114.324629 114.324629 0 0 0 55.140496 84.364959 20.769587 20.769587 0 0 0 20.953389-35.841323z" fill="#FF8DEF" p-id="8615"></path></svg>